G04 #@! TF.GenerationSoftware,KiCad,Pcbnew,8.0.3*
G04 #@! TF.CreationDate,2024-11-06T17:03:23+01:00*
G04 #@! TF.ProjectId,UNOtdc,554e4f74-6463-42e6-9b69-6361645f7063,1.10*
G04 #@! TF.SameCoordinates,Original*
G04 #@! TF.FileFunction,Soldermask,Bot*
G04 #@! TF.FilePolarity,Negative*
%FSLAX46Y46*%
G04 Gerber Fmt 4.6, Leading zero omitted, Abs format (unit mm)*
G04 Created by KiCad (PCBNEW 8.0.3) date 2024-11-06 17:03:23*
%MOMM*%
%LPD*%
G01*
G04 APERTURE LIST*
G04 Aperture macros list*
%AMRoundRect*
0 Rectangle with rounded corners*
0 $1 Rounding radius*
0 $2 $3 $4 $5 $6 $7 $8 $9 X,Y pos of 4 corners*
0 Add a 4 corners polygon primitive as box body*
4,1,4,$2,$3,$4,$5,$6,$7,$8,$9,$2,$3,0*
0 Add four circle primitives for the rounded corners*
1,1,$1+$1,$2,$3*
1,1,$1+$1,$4,$5*
1,1,$1+$1,$6,$7*
1,1,$1+$1,$8,$9*
0 Add four rect primitives between the rounded corners*
20,1,$1+$1,$2,$3,$4,$5,0*
20,1,$1+$1,$4,$5,$6,$7,0*
20,1,$1+$1,$6,$7,$8,$9,0*
20,1,$1+$1,$8,$9,$2,$3,0*%
G04 Aperture macros list end*
%ADD10RoundRect,0.200100X0.949900X-0.949900X0.949900X0.949900X-0.949900X0.949900X-0.949900X-0.949900X0*%
%ADD11C,2.500000*%
%ADD12RoundRect,0.147500X-0.172500X0.147500X-0.172500X-0.147500X0.172500X-0.147500X0.172500X0.147500X0*%
%ADD13RoundRect,0.225000X-0.225000X-0.250000X0.225000X-0.250000X0.225000X0.250000X-0.225000X0.250000X0*%
%ADD14RoundRect,0.147500X0.172500X-0.147500X0.172500X0.147500X-0.172500X0.147500X-0.172500X-0.147500X0*%
%ADD15RoundRect,0.225000X0.225000X0.250000X-0.225000X0.250000X-0.225000X-0.250000X0.225000X-0.250000X0*%
%ADD16RoundRect,0.225000X-0.250000X0.225000X-0.250000X-0.225000X0.250000X-0.225000X0.250000X0.225000X0*%
%ADD17RoundRect,0.200000X0.200000X0.275000X-0.200000X0.275000X-0.200000X-0.275000X0.200000X-0.275000X0*%
%ADD18R,1.200000X1.100000*%
%ADD19RoundRect,0.200000X0.275000X-0.200000X0.275000X0.200000X-0.275000X0.200000X-0.275000X-0.200000X0*%
%ADD20RoundRect,0.100000X-0.637500X-0.100000X0.637500X-0.100000X0.637500X0.100000X-0.637500X0.100000X0*%
%ADD21RoundRect,0.100000X0.637500X0.100000X-0.637500X0.100000X-0.637500X-0.100000X0.637500X-0.100000X0*%
%ADD22R,1.600000X1.600000*%
%ADD23O,1.600000X1.600000*%
%ADD24RoundRect,0.200000X-0.275000X0.200000X-0.275000X-0.200000X0.275000X-0.200000X0.275000X0.200000X0*%
G04 APERTURE END LIST*
D10*
X127595000Y-62230000D03*
D11*
X125055000Y-64770000D03*
X130135000Y-64770000D03*
X125055000Y-59690000D03*
X130135000Y-59690000D03*
D12*
X121499000Y-70104000D03*
X121499000Y-71074000D03*
D13*
X98372000Y-64643000D03*
X99922000Y-64643000D03*
X98372000Y-62992000D03*
X99922000Y-62992000D03*
D10*
X127595000Y-77470000D03*
D11*
X125055000Y-80010000D03*
X130135000Y-80010000D03*
X125055000Y-74930000D03*
X130135000Y-74930000D03*
D14*
X121499000Y-68557000D03*
X121499000Y-67587000D03*
D15*
X99922000Y-60960000D03*
X98372000Y-60960000D03*
D16*
X120025800Y-73558400D03*
X120025800Y-75108400D03*
D17*
X111211000Y-65278000D03*
X109561000Y-65278000D03*
D18*
X102195000Y-58894000D03*
X104735000Y-58894000D03*
X104735000Y-61004000D03*
X102195000Y-60994000D03*
D15*
X109434000Y-73660000D03*
X107884000Y-73660000D03*
D13*
X98372000Y-66294000D03*
X99922000Y-66294000D03*
D19*
X119975000Y-68516000D03*
X119975000Y-66866000D03*
D20*
X112032500Y-74228000D03*
X112032500Y-73578000D03*
X112032500Y-72928000D03*
X112032500Y-72278000D03*
X112032500Y-71628000D03*
X112032500Y-70978000D03*
X112032500Y-70328000D03*
X112032500Y-69678000D03*
X112032500Y-69028000D03*
X112032500Y-68378000D03*
X117757500Y-68378000D03*
X117757500Y-69028000D03*
X117757500Y-69678000D03*
X117757500Y-70328000D03*
X117757500Y-70978000D03*
X117757500Y-71628000D03*
X117757500Y-72278000D03*
X117757500Y-72928000D03*
X117757500Y-73578000D03*
X117757500Y-74228000D03*
D21*
X107597500Y-65360000D03*
X107597500Y-66010000D03*
X107597500Y-66660000D03*
X107597500Y-67310000D03*
X107597500Y-67960000D03*
X107597500Y-68610000D03*
X107597500Y-69260000D03*
X101872500Y-69260000D03*
X101872500Y-68610000D03*
X101872500Y-67960000D03*
X101872500Y-67310000D03*
X101872500Y-66660000D03*
X101872500Y-66010000D03*
X101872500Y-65360000D03*
D22*
X91567000Y-89027000D03*
D23*
X94107000Y-89027000D03*
X96647000Y-89027000D03*
X99187000Y-89027000D03*
X101727000Y-89027000D03*
X104267000Y-89027000D03*
X106807000Y-89027000D03*
X109347000Y-89027000D03*
X114427000Y-89027000D03*
X116967000Y-89027000D03*
X119507000Y-89027000D03*
X122047000Y-89027000D03*
X124587000Y-89027000D03*
X127127000Y-89027000D03*
X127127000Y-40767000D03*
X124587000Y-40767000D03*
X122047000Y-40767000D03*
X119507000Y-40767000D03*
X116967000Y-40767000D03*
X114427000Y-40767000D03*
X111887000Y-40767000D03*
X109347000Y-40767000D03*
X105287000Y-40767000D03*
X102747000Y-40767000D03*
X100207000Y-40767000D03*
X97667000Y-40767000D03*
X95127000Y-40767000D03*
X92587000Y-40767000D03*
X90047000Y-40767000D03*
X87507000Y-40767000D03*
X84967000Y-40767000D03*
X82427000Y-40767000D03*
D24*
X119975000Y-70168000D03*
X119975000Y-71818000D03*
M02*
