G04 #@! TF.GenerationSoftware,KiCad,Pcbnew,8.0.3*
G04 #@! TF.CreationDate,2024-11-06T17:03:22+01:00*
G04 #@! TF.ProjectId,UNOtdc,554e4f74-6463-42e6-9b69-6361645f7063,1.10*
G04 #@! TF.SameCoordinates,Original*
G04 #@! TF.FileFunction,Copper,L4,Bot*
G04 #@! TF.FilePolarity,Positive*
%FSLAX46Y46*%
G04 Gerber Fmt 4.6, Leading zero omitted, Abs format (unit mm)*
G04 Created by KiCad (PCBNEW 8.0.3) date 2024-11-06 17:03:22*
%MOMM*%
%LPD*%
G01*
G04 APERTURE LIST*
G04 Aperture macros list*
%AMRoundRect*
0 Rectangle with rounded corners*
0 $1 Rounding radius*
0 $2 $3 $4 $5 $6 $7 $8 $9 X,Y pos of 4 corners*
0 Add a 4 corners polygon primitive as box body*
4,1,4,$2,$3,$4,$5,$6,$7,$8,$9,$2,$3,0*
0 Add four circle primitives for the rounded corners*
1,1,$1+$1,$2,$3*
1,1,$1+$1,$4,$5*
1,1,$1+$1,$6,$7*
1,1,$1+$1,$8,$9*
0 Add four rect primitives between the rounded corners*
20,1,$1+$1,$2,$3,$4,$5,0*
20,1,$1+$1,$4,$5,$6,$7,0*
20,1,$1+$1,$6,$7,$8,$9,0*
20,1,$1+$1,$8,$9,$2,$3,0*%
G04 Aperture macros list end*
G04 #@! TA.AperFunction,EtchedComponent*
%ADD10C,0.000000*%
G04 #@! TD*
G04 #@! TA.AperFunction,ComponentPad*
%ADD11RoundRect,0.200100X0.949900X-0.949900X0.949900X0.949900X-0.949900X0.949900X-0.949900X-0.949900X0*%
G04 #@! TD*
G04 #@! TA.AperFunction,ComponentPad*
%ADD12C,2.500000*%
G04 #@! TD*
G04 #@! TA.AperFunction,SMDPad,CuDef*
%ADD13RoundRect,0.147500X-0.172500X0.147500X-0.172500X-0.147500X0.172500X-0.147500X0.172500X0.147500X0*%
G04 #@! TD*
G04 #@! TA.AperFunction,SMDPad,CuDef*
%ADD14RoundRect,0.225000X-0.225000X-0.250000X0.225000X-0.250000X0.225000X0.250000X-0.225000X0.250000X0*%
G04 #@! TD*
G04 #@! TA.AperFunction,SMDPad,CuDef*
%ADD15RoundRect,0.147500X0.172500X-0.147500X0.172500X0.147500X-0.172500X0.147500X-0.172500X-0.147500X0*%
G04 #@! TD*
G04 #@! TA.AperFunction,SMDPad,CuDef*
%ADD16RoundRect,0.225000X0.225000X0.250000X-0.225000X0.250000X-0.225000X-0.250000X0.225000X-0.250000X0*%
G04 #@! TD*
G04 #@! TA.AperFunction,SMDPad,CuDef*
%ADD17RoundRect,0.225000X-0.250000X0.225000X-0.250000X-0.225000X0.250000X-0.225000X0.250000X0.225000X0*%
G04 #@! TD*
G04 #@! TA.AperFunction,SMDPad,CuDef*
%ADD18RoundRect,0.200000X0.200000X0.275000X-0.200000X0.275000X-0.200000X-0.275000X0.200000X-0.275000X0*%
G04 #@! TD*
G04 #@! TA.AperFunction,SMDPad,CuDef*
%ADD19R,1.200000X1.100000*%
G04 #@! TD*
G04 #@! TA.AperFunction,SMDPad,CuDef*
%ADD20RoundRect,0.200000X0.275000X-0.200000X0.275000X0.200000X-0.275000X0.200000X-0.275000X-0.200000X0*%
G04 #@! TD*
G04 #@! TA.AperFunction,SMDPad,CuDef*
%ADD21RoundRect,0.100000X-0.637500X-0.100000X0.637500X-0.100000X0.637500X0.100000X-0.637500X0.100000X0*%
G04 #@! TD*
G04 #@! TA.AperFunction,SMDPad,CuDef*
%ADD22RoundRect,0.100000X0.637500X0.100000X-0.637500X0.100000X-0.637500X-0.100000X0.637500X-0.100000X0*%
G04 #@! TD*
G04 #@! TA.AperFunction,ComponentPad*
%ADD23R,1.600000X1.600000*%
G04 #@! TD*
G04 #@! TA.AperFunction,ComponentPad*
%ADD24O,1.600000X1.600000*%
G04 #@! TD*
G04 #@! TA.AperFunction,SMDPad,CuDef*
%ADD25RoundRect,0.200000X-0.275000X0.200000X-0.275000X-0.200000X0.275000X-0.200000X0.275000X0.200000X0*%
G04 #@! TD*
G04 #@! TA.AperFunction,ViaPad*
%ADD26C,0.700000*%
G04 #@! TD*
G04 #@! TA.AperFunction,ViaPad*
%ADD27C,0.600000*%
G04 #@! TD*
G04 #@! TA.AperFunction,Conductor*
%ADD28C,0.200000*%
G04 #@! TD*
G04 #@! TA.AperFunction,Conductor*
%ADD29C,0.300000*%
G04 #@! TD*
G04 #@! TA.AperFunction,Conductor*
%ADD30C,0.400000*%
G04 #@! TD*
G04 APERTURE END LIST*
D10*
G04 #@! TA.AperFunction,EtchedComponent*
G36*
X77422402Y-71531073D02*
G01*
X77422402Y-72342402D01*
X76611073Y-72342402D01*
X75799745Y-72342402D01*
X75799745Y-71531073D01*
X75799745Y-70719745D01*
X76611073Y-70719745D01*
X77422402Y-70719745D01*
X77422402Y-71531073D01*
G37*
G04 #@! TD.AperFunction*
G04 #@! TA.AperFunction,EtchedComponent*
G36*
X77422402Y-83430562D02*
G01*
X77422402Y-84241891D01*
X76611073Y-84241891D01*
X75799745Y-84241891D01*
X75799745Y-83430562D01*
X75799745Y-82619234D01*
X76611073Y-82619234D01*
X77422402Y-82619234D01*
X77422402Y-83430562D01*
G37*
G04 #@! TD.AperFunction*
G04 #@! TA.AperFunction,EtchedComponent*
G36*
X77422402Y-76399046D02*
G01*
X77422402Y-76669489D01*
X77151959Y-76669489D01*
X76881516Y-76669489D01*
X76881516Y-76399046D01*
X76881516Y-76128603D01*
X77151959Y-76128603D01*
X77422402Y-76128603D01*
X77422402Y-76399046D01*
G37*
G04 #@! TD.AperFunction*
G04 #@! TA.AperFunction,EtchedComponent*
G36*
X79585946Y-76399046D02*
G01*
X79585946Y-76669489D01*
X78774617Y-76669489D01*
X77963288Y-76669489D01*
X77963288Y-76399046D01*
X77963288Y-76128603D01*
X78774617Y-76128603D01*
X79585946Y-76128603D01*
X79585946Y-76399046D01*
G37*
G04 #@! TD.AperFunction*
G04 #@! TA.AperFunction,EtchedComponent*
G36*
X79585946Y-70178859D02*
G01*
X79585946Y-70719745D01*
X79315503Y-70719745D01*
X79045060Y-70719745D01*
X79045060Y-70178859D01*
X79045060Y-69637973D01*
X79315503Y-69637973D01*
X79585946Y-69637973D01*
X79585946Y-70178859D01*
G37*
G04 #@! TD.AperFunction*
G04 #@! TA.AperFunction,EtchedComponent*
G36*
X79585946Y-79103475D02*
G01*
X79585946Y-79373918D01*
X79315503Y-79373918D01*
X79045060Y-79373918D01*
X79045060Y-79103475D01*
X79045060Y-78833033D01*
X79315503Y-78833033D01*
X79585946Y-78833033D01*
X79585946Y-79103475D01*
G37*
G04 #@! TD.AperFunction*
G04 #@! TA.AperFunction,EtchedComponent*
G36*
X80126832Y-81267019D02*
G01*
X80126832Y-81537462D01*
X79856389Y-81537462D01*
X79585946Y-81537462D01*
X79585946Y-81267019D01*
X79585946Y-80996576D01*
X79856389Y-80996576D01*
X80126832Y-80996576D01*
X80126832Y-81267019D01*
G37*
G04 #@! TD.AperFunction*
G04 #@! TA.AperFunction,EtchedComponent*
G36*
X80126832Y-84241891D02*
G01*
X80126832Y-84782777D01*
X79856389Y-84782777D01*
X79585946Y-84782777D01*
X79585946Y-84241891D01*
X79585946Y-83701005D01*
X79856389Y-83701005D01*
X80126832Y-83701005D01*
X80126832Y-84241891D01*
G37*
G04 #@! TD.AperFunction*
G04 #@! TA.AperFunction,EtchedComponent*
G36*
X81749489Y-69908416D02*
G01*
X81749489Y-70178859D01*
X80938160Y-70178859D01*
X80126832Y-70178859D01*
X80126832Y-69908416D01*
X80126832Y-69637973D01*
X80938160Y-69637973D01*
X81749489Y-69637973D01*
X81749489Y-69908416D01*
G37*
G04 #@! TD.AperFunction*
G04 #@! TA.AperFunction,EtchedComponent*
G36*
X81208603Y-83430562D02*
G01*
X81208603Y-83701005D01*
X80938160Y-83701005D01*
X80667717Y-83701005D01*
X80667717Y-83430562D01*
X80667717Y-83160119D01*
X80938160Y-83160119D01*
X81208603Y-83160119D01*
X81208603Y-83430562D01*
G37*
G04 #@! TD.AperFunction*
G04 #@! TA.AperFunction,EtchedComponent*
G36*
X82290375Y-79644361D02*
G01*
X82290375Y-79914804D01*
X82019932Y-79914804D01*
X81749489Y-79914804D01*
X81749489Y-79644361D01*
X81749489Y-79373918D01*
X82019932Y-79373918D01*
X82290375Y-79373918D01*
X82290375Y-79644361D01*
G37*
G04 #@! TD.AperFunction*
G04 #@! TA.AperFunction,EtchedComponent*
G36*
X83372147Y-85053220D02*
G01*
X83372147Y-85323663D01*
X83101704Y-85323663D01*
X82831261Y-85323663D01*
X82831261Y-85053220D01*
X82831261Y-84782777D01*
X83101704Y-84782777D01*
X83372147Y-84782777D01*
X83372147Y-85053220D01*
G37*
G04 #@! TD.AperFunction*
G04 #@! TA.AperFunction,EtchedComponent*
G36*
X87158348Y-81807905D02*
G01*
X87158348Y-82078348D01*
X86887905Y-82078348D01*
X86617462Y-82078348D01*
X86617462Y-81807905D01*
X86617462Y-81537462D01*
X86887905Y-81537462D01*
X87158348Y-81537462D01*
X87158348Y-81807905D01*
G37*
G04 #@! TD.AperFunction*
G04 #@! TA.AperFunction,EtchedComponent*
G36*
X89321891Y-71531073D02*
G01*
X89321891Y-72342402D01*
X88510562Y-72342402D01*
X87699234Y-72342402D01*
X87699234Y-71531073D01*
X87699234Y-70719745D01*
X88510562Y-70719745D01*
X89321891Y-70719745D01*
X89321891Y-71531073D01*
G37*
G04 #@! TD.AperFunction*
G04 #@! TA.AperFunction,EtchedComponent*
G36*
X89862777Y-85053220D02*
G01*
X89862777Y-85323663D01*
X89592334Y-85323663D01*
X89321891Y-85323663D01*
X89321891Y-85053220D01*
X89321891Y-84782777D01*
X89592334Y-84782777D01*
X89862777Y-84782777D01*
X89862777Y-85053220D01*
G37*
G04 #@! TD.AperFunction*
G04 #@! TA.AperFunction,EtchedComponent*
G36*
X90403663Y-80185247D02*
G01*
X90403663Y-80455690D01*
X90133220Y-80455690D01*
X89862777Y-80455690D01*
X89862777Y-80185247D01*
X89862777Y-79914804D01*
X90133220Y-79914804D01*
X90403663Y-79914804D01*
X90403663Y-80185247D01*
G37*
G04 #@! TD.AperFunction*
G04 #@! TA.AperFunction,EtchedComponent*
G36*
X84994804Y-76669489D02*
G01*
X84994804Y-77210375D01*
X85265247Y-77210375D01*
X85535690Y-77210375D01*
X85535690Y-78021704D01*
X85535690Y-78833033D01*
X85265247Y-78833033D01*
X84994804Y-78833033D01*
X84994804Y-78562590D01*
X84994804Y-78292147D01*
X84724361Y-78292147D01*
X84453918Y-78292147D01*
X84453918Y-77210375D01*
X84453918Y-76128603D01*
X84724361Y-76128603D01*
X84994804Y-76128603D01*
X84994804Y-76669489D01*
G37*
G04 #@! TD.AperFunction*
G04 #@! TA.AperFunction,EtchedComponent*
G36*
X76611073Y-69637973D02*
G01*
X78504174Y-69637973D01*
X78504174Y-71531073D01*
X78504174Y-73424174D01*
X76611073Y-73424174D01*
X74717973Y-73424174D01*
X74717973Y-71531073D01*
X74717973Y-70178859D01*
X75258859Y-70178859D01*
X75258859Y-71531073D01*
X75258859Y-72883288D01*
X76611073Y-72883288D01*
X77963288Y-72883288D01*
X77963288Y-71531073D01*
X77963288Y-70178859D01*
X76611073Y-70178859D01*
X75258859Y-70178859D01*
X74717973Y-70178859D01*
X74717973Y-69637973D01*
X76611073Y-69637973D01*
G37*
G04 #@! TD.AperFunction*
G04 #@! TA.AperFunction,EtchedComponent*
G36*
X76611073Y-81537462D02*
G01*
X78504174Y-81537462D01*
X78504174Y-83430562D01*
X78504174Y-85323663D01*
X76611073Y-85323663D01*
X74717973Y-85323663D01*
X74717973Y-83430562D01*
X74717973Y-82078348D01*
X75258859Y-82078348D01*
X75258859Y-83430562D01*
X75258859Y-84782777D01*
X76611073Y-84782777D01*
X77963288Y-84782777D01*
X77963288Y-83430562D01*
X77963288Y-82078348D01*
X76611073Y-82078348D01*
X75258859Y-82078348D01*
X74717973Y-82078348D01*
X74717973Y-81537462D01*
X76611073Y-81537462D01*
G37*
G04 #@! TD.AperFunction*
G04 #@! TA.AperFunction,EtchedComponent*
G36*
X88510562Y-69637973D02*
G01*
X90403663Y-69637973D01*
X90403663Y-71531073D01*
X90403663Y-73424174D01*
X88510562Y-73424174D01*
X86617462Y-73424174D01*
X86617462Y-71531073D01*
X86617462Y-70178859D01*
X87158348Y-70178859D01*
X87158348Y-71531073D01*
X87158348Y-72883288D01*
X88510562Y-72883288D01*
X89862777Y-72883288D01*
X89862777Y-71531073D01*
X89862777Y-70178859D01*
X88510562Y-70178859D01*
X87158348Y-70178859D01*
X86617462Y-70178859D01*
X86617462Y-69637973D01*
X88510562Y-69637973D01*
G37*
G04 #@! TD.AperFunction*
G04 #@! TA.AperFunction,EtchedComponent*
G36*
X80126832Y-82348791D02*
G01*
X80126832Y-82619234D01*
X80397274Y-82619234D01*
X80667717Y-82619234D01*
X80667717Y-82889677D01*
X80667717Y-83160119D01*
X80126832Y-83160119D01*
X79585946Y-83160119D01*
X79585946Y-83430562D01*
X79585946Y-83701005D01*
X79315503Y-83701005D01*
X79045060Y-83701005D01*
X79045060Y-83160119D01*
X79045060Y-82619234D01*
X79315503Y-82619234D01*
X79585946Y-82619234D01*
X79585946Y-82348791D01*
X79585946Y-82078348D01*
X79856389Y-82078348D01*
X80126832Y-82078348D01*
X80126832Y-82348791D01*
G37*
G04 #@! TD.AperFunction*
G04 #@! TA.AperFunction,EtchedComponent*
G36*
X90403663Y-74235503D02*
G01*
X90403663Y-74505946D01*
X90133220Y-74505946D01*
X89862777Y-74505946D01*
X89862777Y-74776389D01*
X89862777Y-75046832D01*
X89592334Y-75046832D01*
X89321891Y-75046832D01*
X89321891Y-75317274D01*
X89321891Y-75587717D01*
X89862777Y-75587717D01*
X90403663Y-75587717D01*
X90403663Y-75858160D01*
X90403663Y-76128603D01*
X89862777Y-76128603D01*
X89321891Y-76128603D01*
X89321891Y-76399046D01*
X89321891Y-76669489D01*
X89051448Y-76669489D01*
X88781005Y-76669489D01*
X88781005Y-75858160D01*
X88781005Y-75046832D01*
X89051448Y-75046832D01*
X89321891Y-75046832D01*
X89321891Y-74505946D01*
X89321891Y-73965060D01*
X89862777Y-73965060D01*
X90403663Y-73965060D01*
X90403663Y-74235503D01*
G37*
G04 #@! TD.AperFunction*
G04 #@! TA.AperFunction,EtchedComponent*
G36*
X87699234Y-74505946D02*
G01*
X87699234Y-75046832D01*
X87969677Y-75046832D01*
X88240119Y-75046832D01*
X88240119Y-76128603D01*
X88240119Y-77210375D01*
X87699234Y-77210375D01*
X87158348Y-77210375D01*
X87158348Y-78021704D01*
X87158348Y-78833033D01*
X86887905Y-78833033D01*
X86617462Y-78833033D01*
X86617462Y-79373918D01*
X86617462Y-79914804D01*
X86347019Y-79914804D01*
X86076576Y-79914804D01*
X86076576Y-80185247D01*
X86076576Y-80455690D01*
X86347019Y-80455690D01*
X86617462Y-80455690D01*
X86617462Y-80185247D01*
X86617462Y-79914804D01*
X86887905Y-79914804D01*
X87158348Y-79914804D01*
X87158348Y-79644361D01*
X87158348Y-79373918D01*
X87428791Y-79373918D01*
X87699234Y-79373918D01*
X87699234Y-79644361D01*
X87699234Y-79914804D01*
X87969677Y-79914804D01*
X88240119Y-79914804D01*
X88240119Y-79373918D01*
X88240119Y-78833033D01*
X87969677Y-78833033D01*
X87699234Y-78833033D01*
X87699234Y-78292147D01*
X87699234Y-77751261D01*
X88510562Y-77751261D01*
X89051448Y-77751261D01*
X90403663Y-77751261D01*
X90403663Y-78562590D01*
X90403663Y-79373918D01*
X90133220Y-79373918D01*
X89862777Y-79373918D01*
X89862777Y-79103475D01*
X89862777Y-78833033D01*
X89321891Y-78833033D01*
X88781005Y-78833033D01*
X88781005Y-79103475D01*
X88781005Y-79373918D01*
X89051448Y-79373918D01*
X89321891Y-79373918D01*
X89321891Y-80455690D01*
X89321891Y-81537462D01*
X89592334Y-81537462D01*
X89862777Y-81537462D01*
X90403663Y-81537462D01*
X90403663Y-82348791D01*
X90403663Y-83160119D01*
X90133220Y-83160119D01*
X89862777Y-83160119D01*
X89862777Y-83430562D01*
X89862777Y-83701005D01*
X90133220Y-83701005D01*
X90403663Y-83701005D01*
X90403663Y-83971448D01*
X90403663Y-84241891D01*
X89862777Y-84241891D01*
X89321891Y-84241891D01*
X89321891Y-84512334D01*
X89321891Y-84782777D01*
X89051448Y-84782777D01*
X88781005Y-84782777D01*
X88781005Y-85053220D01*
X88781005Y-85323663D01*
X87969677Y-85323663D01*
X87158348Y-85323663D01*
X87158348Y-84782777D01*
X87158348Y-84241891D01*
X87428791Y-84241891D01*
X87699234Y-84241891D01*
X87699234Y-84512334D01*
X87699234Y-84782777D01*
X88240119Y-84782777D01*
X88781005Y-84782777D01*
X88781005Y-84512334D01*
X88781005Y-84241891D01*
X88510562Y-84241891D01*
X88240119Y-84241891D01*
X88240119Y-83971448D01*
X88240119Y-83701005D01*
X87969677Y-83701005D01*
X87699234Y-83701005D01*
X87699234Y-83430562D01*
X87699234Y-83160119D01*
X87428791Y-83160119D01*
X87158348Y-83160119D01*
X87158348Y-83701005D01*
X87158348Y-84241891D01*
X86887905Y-84241891D01*
X86617462Y-84241891D01*
X86617462Y-83971448D01*
X86617462Y-83701005D01*
X86347019Y-83701005D01*
X86076576Y-83701005D01*
X86076576Y-84512334D01*
X86076576Y-85323663D01*
X85806133Y-85323663D01*
X85535690Y-85323663D01*
X85535690Y-84512334D01*
X85535690Y-83701005D01*
X85806133Y-83701005D01*
X86076576Y-83701005D01*
X86076576Y-83430562D01*
X86076576Y-83160119D01*
X85806133Y-83160119D01*
X85535690Y-83160119D01*
X85535690Y-82619234D01*
X85535690Y-82078348D01*
X85265247Y-82078348D01*
X84994804Y-82078348D01*
X84994804Y-81807905D01*
X84994804Y-81537462D01*
X85265247Y-81537462D01*
X85535690Y-81537462D01*
X85535690Y-81267019D01*
X85535690Y-80996576D01*
X86076576Y-80996576D01*
X86076576Y-81807905D01*
X86076576Y-82619234D01*
X86887905Y-82619234D01*
X87699234Y-82619234D01*
X87699234Y-81807905D01*
X87699234Y-81537462D01*
X88240119Y-81537462D01*
X88240119Y-82348791D01*
X88240119Y-83160119D01*
X88510562Y-83160119D01*
X88781005Y-83160119D01*
X88781005Y-82619234D01*
X89321891Y-82619234D01*
X89321891Y-82889677D01*
X89321891Y-83160119D01*
X89592334Y-83160119D01*
X89862777Y-83160119D01*
X89862777Y-82889677D01*
X89862777Y-82619234D01*
X89592334Y-82619234D01*
X89321891Y-82619234D01*
X88781005Y-82619234D01*
X88781005Y-82348791D01*
X88781005Y-81537462D01*
X88510562Y-81537462D01*
X88240119Y-81537462D01*
X87699234Y-81537462D01*
X87699234Y-80996576D01*
X86887905Y-80996576D01*
X86076576Y-80996576D01*
X85535690Y-80996576D01*
X85265247Y-80996576D01*
X84994804Y-80996576D01*
X84994804Y-80726133D01*
X84994804Y-80455690D01*
X85265247Y-80455690D01*
X85535690Y-80455690D01*
X85535690Y-80185247D01*
X85535690Y-79914804D01*
X85806133Y-79914804D01*
X86076576Y-79914804D01*
X86076576Y-78833033D01*
X86076576Y-77751261D01*
X86347019Y-77751261D01*
X86617462Y-77751261D01*
X86617462Y-77480818D01*
X86617462Y-77210375D01*
X86347019Y-77210375D01*
X86076576Y-77210375D01*
X86076576Y-76669489D01*
X86076576Y-76128603D01*
X86347019Y-76128603D01*
X86617462Y-76128603D01*
X86617462Y-76399046D01*
X86617462Y-76669489D01*
X86887905Y-76669489D01*
X87158348Y-76669489D01*
X87158348Y-76399046D01*
X87158348Y-76128603D01*
X87428791Y-76128603D01*
X87699234Y-76128603D01*
X87699234Y-75858160D01*
X87699234Y-75587717D01*
X87158348Y-75587717D01*
X86617462Y-75587717D01*
X86617462Y-75046832D01*
X86617462Y-74505946D01*
X86347019Y-74505946D01*
X86076576Y-74505946D01*
X86076576Y-74235503D01*
X86076576Y-73965060D01*
X86887905Y-73965060D01*
X87699234Y-73965060D01*
X87699234Y-74505946D01*
G37*
G04 #@! TD.AperFunction*
G04 #@! TA.AperFunction,EtchedComponent*
G36*
X82290375Y-76399046D02*
G01*
X82290375Y-76669489D01*
X82560818Y-76669489D01*
X82831261Y-76669489D01*
X82831261Y-76399046D01*
X82831261Y-76128603D01*
X83372147Y-76128603D01*
X83913033Y-76128603D01*
X83913033Y-76399046D01*
X83913033Y-76669489D01*
X83642590Y-76669489D01*
X83372147Y-76669489D01*
X83372147Y-76939932D01*
X83372147Y-77210375D01*
X83642590Y-77210375D01*
X83913033Y-77210375D01*
X83913033Y-77751261D01*
X83913033Y-78292147D01*
X84183475Y-78292147D01*
X84453918Y-78292147D01*
X84453918Y-79103475D01*
X84453918Y-79914804D01*
X84724361Y-79914804D01*
X84994804Y-79914804D01*
X84994804Y-80185247D01*
X84994804Y-80455690D01*
X83913033Y-80455690D01*
X82831261Y-80455690D01*
X82831261Y-80996576D01*
X82831261Y-81537462D01*
X82560818Y-81537462D01*
X82290375Y-81537462D01*
X82290375Y-82078348D01*
X82290375Y-82619234D01*
X82560818Y-82619234D01*
X82831261Y-82619234D01*
X82831261Y-82348791D01*
X82831261Y-82078348D01*
X83372147Y-82078348D01*
X83913033Y-82078348D01*
X83913033Y-81807905D01*
X83913033Y-81537462D01*
X84183475Y-81537462D01*
X84453918Y-81537462D01*
X84453918Y-82078348D01*
X84453918Y-82619234D01*
X84724361Y-82619234D01*
X84994804Y-82619234D01*
X84994804Y-83160119D01*
X84994804Y-83701005D01*
X84724361Y-83701005D01*
X84453918Y-83701005D01*
X84453918Y-84241891D01*
X84453918Y-84782777D01*
X84724361Y-84782777D01*
X84994804Y-84782777D01*
X84994804Y-85053220D01*
X84994804Y-85323663D01*
X84453918Y-85323663D01*
X83913033Y-85323663D01*
X83913033Y-84782777D01*
X83913033Y-84241891D01*
X83101704Y-84241891D01*
X82290375Y-84241891D01*
X82290375Y-84782777D01*
X82290375Y-85323663D01*
X81749489Y-85323663D01*
X81208603Y-85323663D01*
X81208603Y-85053220D01*
X81208603Y-84782777D01*
X81479046Y-84782777D01*
X81749489Y-84782777D01*
X81749489Y-84512334D01*
X81749489Y-84241891D01*
X82019932Y-84241891D01*
X82290375Y-84241891D01*
X82290375Y-83701005D01*
X82290375Y-83160119D01*
X82831261Y-83160119D01*
X82831261Y-83430562D01*
X82831261Y-83701005D01*
X83101704Y-83701005D01*
X83372147Y-83701005D01*
X83372147Y-83430562D01*
X83372147Y-83160119D01*
X83642590Y-83160119D01*
X83913033Y-83160119D01*
X83913033Y-83430562D01*
X83913033Y-83701005D01*
X84183475Y-83701005D01*
X84453918Y-83701005D01*
X84453918Y-83430562D01*
X84453918Y-83160119D01*
X84183475Y-83160119D01*
X83913033Y-83160119D01*
X83913033Y-82889677D01*
X83913033Y-82619234D01*
X83642590Y-82619234D01*
X83372147Y-82619234D01*
X83372147Y-82889677D01*
X83372147Y-83160119D01*
X83101704Y-83160119D01*
X82831261Y-83160119D01*
X82290375Y-83160119D01*
X82019932Y-83160119D01*
X81749489Y-83160119D01*
X81749489Y-82889677D01*
X81749489Y-82619234D01*
X81479046Y-82619234D01*
X81208603Y-82619234D01*
X81208603Y-82078348D01*
X81208603Y-81537462D01*
X81749489Y-81537462D01*
X82290375Y-81537462D01*
X82290375Y-81267019D01*
X82290375Y-80996576D01*
X81749489Y-80996576D01*
X81208603Y-80996576D01*
X81208603Y-81267019D01*
X81208603Y-81537462D01*
X80938160Y-81537462D01*
X80667717Y-81537462D01*
X80667717Y-80996576D01*
X80667717Y-80455690D01*
X81749489Y-80455690D01*
X82831261Y-80455690D01*
X82831261Y-79914804D01*
X82831261Y-79373918D01*
X83101704Y-79373918D01*
X83372147Y-79373918D01*
X83372147Y-79644361D01*
X83372147Y-79914804D01*
X83642590Y-79914804D01*
X83913033Y-79914804D01*
X83913033Y-79644361D01*
X83913033Y-79373918D01*
X83642590Y-79373918D01*
X83372147Y-79373918D01*
X83372147Y-78562590D01*
X83372147Y-77751261D01*
X83101704Y-77751261D01*
X82831261Y-77751261D01*
X82831261Y-78292147D01*
X82831261Y-78833033D01*
X81749489Y-78833033D01*
X80667717Y-78833033D01*
X80667717Y-79103475D01*
X80667717Y-79373918D01*
X80938160Y-79373918D01*
X81208603Y-79373918D01*
X81208603Y-79644361D01*
X81208603Y-79914804D01*
X80667717Y-79914804D01*
X80126832Y-79914804D01*
X80126832Y-80185247D01*
X80126832Y-80455690D01*
X79856389Y-80455690D01*
X79585946Y-80455690D01*
X79585946Y-80185247D01*
X79585946Y-79914804D01*
X79856389Y-79914804D01*
X80126832Y-79914804D01*
X80126832Y-79373918D01*
X80126832Y-78833033D01*
X80397274Y-78833033D01*
X80667717Y-78833033D01*
X80667717Y-78562590D01*
X80667717Y-78292147D01*
X80397274Y-78292147D01*
X80126832Y-78292147D01*
X80126832Y-78021704D01*
X80126832Y-77751261D01*
X80397274Y-77751261D01*
X80667717Y-77751261D01*
X81208603Y-77751261D01*
X81208603Y-78021704D01*
X81208603Y-78292147D01*
X81749489Y-78292147D01*
X82290375Y-78292147D01*
X82290375Y-77751261D01*
X82290375Y-77210375D01*
X82019932Y-77210375D01*
X81749489Y-77210375D01*
X81749489Y-77480818D01*
X81749489Y-77751261D01*
X81479046Y-77751261D01*
X81208603Y-77751261D01*
X80667717Y-77751261D01*
X80667717Y-77480818D01*
X80667717Y-77210375D01*
X80938160Y-77210375D01*
X81208603Y-77210375D01*
X81208603Y-76939932D01*
X81208603Y-76669489D01*
X81479046Y-76669489D01*
X81749489Y-76669489D01*
X81749489Y-76399046D01*
X81749489Y-76128603D01*
X82019932Y-76128603D01*
X82290375Y-76128603D01*
X82290375Y-76399046D01*
G37*
G04 #@! TD.AperFunction*
G04 #@! TA.AperFunction,EtchedComponent*
G36*
X83913033Y-81267019D02*
G01*
X83913033Y-81537462D01*
X83642590Y-81537462D01*
X83372147Y-81537462D01*
X83372147Y-81267019D01*
X83372147Y-80996576D01*
X83642590Y-80996576D01*
X83913033Y-80996576D01*
X83913033Y-81267019D01*
G37*
G04 #@! TD.AperFunction*
G04 #@! TA.AperFunction,EtchedComponent*
G36*
X75529302Y-77210375D02*
G01*
X75799745Y-77210375D01*
X75799745Y-77480818D01*
X75799745Y-77751261D01*
X75529302Y-77751261D01*
X75258859Y-77751261D01*
X75258859Y-78021704D01*
X75258859Y-78292147D01*
X75529302Y-78292147D01*
X75799745Y-78292147D01*
X75799745Y-78021704D01*
X75799745Y-77751261D01*
X76070188Y-77751261D01*
X76340631Y-77751261D01*
X76611073Y-77751261D01*
X76881516Y-77751261D01*
X76881516Y-78562590D01*
X76881516Y-79373918D01*
X76611073Y-79373918D01*
X76340631Y-79373918D01*
X76340631Y-79644361D01*
X76340631Y-79914804D01*
X76611073Y-79914804D01*
X76881516Y-79914804D01*
X76881516Y-79644361D01*
X76881516Y-79373918D01*
X77692845Y-79373918D01*
X78504174Y-79373918D01*
X78504174Y-79644361D01*
X78504174Y-79914804D01*
X77963288Y-79914804D01*
X77422402Y-79914804D01*
X77422402Y-80185247D01*
X77422402Y-80455690D01*
X78233731Y-80455690D01*
X79045060Y-80455690D01*
X79045060Y-80726133D01*
X79045060Y-80996576D01*
X77151959Y-80996576D01*
X75258859Y-80996576D01*
X75258859Y-80726133D01*
X75258859Y-80455690D01*
X75529302Y-80455690D01*
X75799745Y-80455690D01*
X75799745Y-79914804D01*
X75799745Y-79373918D01*
X75529302Y-79373918D01*
X75258859Y-79373918D01*
X75258859Y-79644361D01*
X75258859Y-79914804D01*
X74988416Y-79914804D01*
X74717973Y-79914804D01*
X74717973Y-79644361D01*
X74717973Y-79373918D01*
X74988416Y-79373918D01*
X75258859Y-79373918D01*
X75258859Y-78833033D01*
X75799745Y-78833033D01*
X75799745Y-79103475D01*
X75799745Y-79373918D01*
X76070188Y-79373918D01*
X76340631Y-79373918D01*
X76340631Y-79103475D01*
X76340631Y-78833033D01*
X76070188Y-78833033D01*
X75799745Y-78833033D01*
X75258859Y-78833033D01*
X75258859Y-78292147D01*
X74988416Y-78292147D01*
X74717973Y-78292147D01*
X74717973Y-78021704D01*
X74717973Y-77751261D01*
X74988416Y-77751261D01*
X75258859Y-77751261D01*
X75258859Y-77480818D01*
X75258859Y-77210375D01*
X75529302Y-77210375D01*
G37*
G04 #@! TD.AperFunction*
G04 #@! TA.AperFunction,EtchedComponent*
G36*
X83372147Y-70178859D02*
G01*
X83372147Y-70719745D01*
X82831261Y-70719745D01*
X82290375Y-70719745D01*
X82290375Y-70990188D01*
X82290375Y-71260631D01*
X83101704Y-71260631D01*
X83913033Y-71260631D01*
X83913033Y-70719745D01*
X83913033Y-70178859D01*
X84183475Y-70178859D01*
X84453918Y-70178859D01*
X84453918Y-70719745D01*
X84453918Y-71260631D01*
X84994804Y-71260631D01*
X85535690Y-71260631D01*
X85535690Y-70990188D01*
X85535690Y-70719745D01*
X85265247Y-70719745D01*
X84994804Y-70719745D01*
X84994804Y-70449302D01*
X84994804Y-70178859D01*
X85535690Y-70178859D01*
X86076576Y-70178859D01*
X86076576Y-70990188D01*
X86076576Y-71801516D01*
X85806133Y-71801516D01*
X85535690Y-71801516D01*
X85535690Y-72071959D01*
X85535690Y-72342402D01*
X85265247Y-72342402D01*
X84994804Y-72342402D01*
X84994804Y-72071959D01*
X84994804Y-71801516D01*
X84724361Y-71801516D01*
X84453918Y-71801516D01*
X84453918Y-72071959D01*
X84453918Y-72342402D01*
X84183475Y-72342402D01*
X83913033Y-72342402D01*
X83913033Y-72883288D01*
X83913033Y-73424174D01*
X83642590Y-73424174D01*
X83372147Y-73424174D01*
X83372147Y-73694617D01*
X83372147Y-73965060D01*
X83101704Y-73965060D01*
X82831261Y-73965060D01*
X82831261Y-74235503D01*
X82831261Y-74505946D01*
X82290375Y-74505946D01*
X81749489Y-74505946D01*
X81749489Y-74776389D01*
X81749489Y-75046832D01*
X82560818Y-75046832D01*
X83372147Y-75046832D01*
X83372147Y-74776389D01*
X83372147Y-74505946D01*
X83642590Y-74505946D01*
X83913033Y-74505946D01*
X83913033Y-74235503D01*
X83913033Y-73965060D01*
X84183475Y-73965060D01*
X84453918Y-73965060D01*
X84453918Y-73424174D01*
X84453918Y-72883288D01*
X84724361Y-72883288D01*
X84994804Y-72883288D01*
X84994804Y-73424174D01*
X84994804Y-73965060D01*
X85265247Y-73965060D01*
X85535690Y-73965060D01*
X85535690Y-73424174D01*
X85535690Y-72883288D01*
X85806133Y-72883288D01*
X86076576Y-72883288D01*
X86076576Y-73424174D01*
X86076576Y-73965060D01*
X85806133Y-73965060D01*
X85535690Y-73965060D01*
X85535690Y-74235503D01*
X85535690Y-74505946D01*
X85806133Y-74505946D01*
X86076576Y-74505946D01*
X86076576Y-75317274D01*
X86076576Y-76128603D01*
X85535690Y-76128603D01*
X84994804Y-76128603D01*
X84994804Y-75858160D01*
X84994804Y-75587717D01*
X85265247Y-75587717D01*
X85535690Y-75587717D01*
X85535690Y-75317274D01*
X85535690Y-75046832D01*
X85265247Y-75046832D01*
X84994804Y-75046832D01*
X84994804Y-75317274D01*
X84994804Y-75587717D01*
X84724361Y-75587717D01*
X84453918Y-75587717D01*
X84453918Y-75317274D01*
X84453918Y-75046832D01*
X83913033Y-75046832D01*
X83372147Y-75046832D01*
X83372147Y-75317274D01*
X83372147Y-75587717D01*
X82290375Y-75587717D01*
X81208603Y-75587717D01*
X81208603Y-75858160D01*
X81208603Y-76128603D01*
X80938160Y-76128603D01*
X80667717Y-76128603D01*
X80667717Y-76669489D01*
X80667717Y-77210375D01*
X80397274Y-77210375D01*
X80126832Y-77210375D01*
X80126832Y-77480818D01*
X80126832Y-77751261D01*
X79585946Y-77751261D01*
X79045060Y-77751261D01*
X79045060Y-78292147D01*
X79045060Y-78833033D01*
X78233731Y-78833033D01*
X77422402Y-78833033D01*
X77422402Y-78562590D01*
X77422402Y-78292147D01*
X77963288Y-78292147D01*
X78504174Y-78292147D01*
X78504174Y-78021704D01*
X78504174Y-77751261D01*
X77963288Y-77751261D01*
X77422402Y-77751261D01*
X77422402Y-77480818D01*
X77422402Y-77210375D01*
X77963288Y-77210375D01*
X78504174Y-77210375D01*
X78504174Y-77480818D01*
X78504174Y-77751261D01*
X78774617Y-77751261D01*
X79045060Y-77751261D01*
X79045060Y-77480818D01*
X79045060Y-77210375D01*
X79585946Y-77210375D01*
X80126832Y-77210375D01*
X80126832Y-76399046D01*
X80126832Y-75587717D01*
X79585946Y-75587717D01*
X79045060Y-75587717D01*
X79045060Y-75317274D01*
X79045060Y-75046832D01*
X78774617Y-75046832D01*
X78504174Y-75046832D01*
X78504174Y-75317274D01*
X78504174Y-75587717D01*
X77692845Y-75587717D01*
X76881516Y-75587717D01*
X76881516Y-75858160D01*
X76881516Y-76128603D01*
X76340631Y-76128603D01*
X75799745Y-76128603D01*
X75799745Y-76399046D01*
X75799745Y-76669489D01*
X75529302Y-76669489D01*
X75258859Y-76669489D01*
X75258859Y-76939932D01*
X75258859Y-77210375D01*
X74988416Y-77210375D01*
X74717973Y-77210375D01*
X74717973Y-76939932D01*
X74717973Y-76669489D01*
X74988416Y-76669489D01*
X75258859Y-76669489D01*
X75258859Y-76399046D01*
X75258859Y-76128603D01*
X74988416Y-76128603D01*
X74717973Y-76128603D01*
X74717973Y-75317274D01*
X74717973Y-74505946D01*
X74988416Y-74505946D01*
X75258859Y-74505946D01*
X75258859Y-75046832D01*
X75258859Y-75587717D01*
X75529302Y-75587717D01*
X75799745Y-75587717D01*
X75799745Y-75046832D01*
X75799745Y-74505946D01*
X76070188Y-74505946D01*
X76340631Y-74505946D01*
X76340631Y-74776389D01*
X76340631Y-75046832D01*
X76881516Y-75046832D01*
X77422402Y-75046832D01*
X77422402Y-74776389D01*
X77422402Y-74505946D01*
X76881516Y-74505946D01*
X76340631Y-74505946D01*
X76340631Y-74235503D01*
X76340631Y-73965060D01*
X76881516Y-73965060D01*
X77422402Y-73965060D01*
X77422402Y-74235503D01*
X77422402Y-74505946D01*
X77692845Y-74505946D01*
X77963288Y-74505946D01*
X77963288Y-74776389D01*
X77963288Y-75046832D01*
X78233731Y-75046832D01*
X78504174Y-75046832D01*
X78504174Y-74776389D01*
X78504174Y-74505946D01*
X78233731Y-74505946D01*
X77963288Y-74505946D01*
X77963288Y-74235503D01*
X77963288Y-73965060D01*
X78233731Y-73965060D01*
X78504174Y-73965060D01*
X78504174Y-74235503D01*
X78504174Y-74505946D01*
X79045060Y-74505946D01*
X79585946Y-74505946D01*
X79585946Y-74776389D01*
X79585946Y-75046832D01*
X79856389Y-75046832D01*
X80126832Y-75046832D01*
X80126832Y-74776389D01*
X80126832Y-74505946D01*
X79856389Y-74505946D01*
X79585946Y-74505946D01*
X79585946Y-74235503D01*
X79585946Y-73965060D01*
X79315503Y-73965060D01*
X79045060Y-73965060D01*
X79045060Y-73153731D01*
X79045060Y-72883288D01*
X79585946Y-72883288D01*
X79585946Y-73153731D01*
X79585946Y-73424174D01*
X79856389Y-73424174D01*
X80126832Y-73424174D01*
X80126832Y-73694617D01*
X80126832Y-73965060D01*
X80397274Y-73965060D01*
X80667717Y-73965060D01*
X80667717Y-74505946D01*
X80667717Y-75046832D01*
X80397274Y-75046832D01*
X80126832Y-75046832D01*
X80126832Y-75317274D01*
X80126832Y-75587717D01*
X80397274Y-75587717D01*
X80667717Y-75587717D01*
X80667717Y-75317274D01*
X80667717Y-75046832D01*
X80938160Y-75046832D01*
X81208603Y-75046832D01*
X81208603Y-74776389D01*
X81208603Y-74505946D01*
X81479046Y-74505946D01*
X81749489Y-74505946D01*
X81749489Y-74235503D01*
X81749489Y-73965060D01*
X82019932Y-73965060D01*
X82290375Y-73965060D01*
X82290375Y-73424174D01*
X82290375Y-72883288D01*
X82019932Y-72883288D01*
X81749489Y-72883288D01*
X81749489Y-73424174D01*
X81749489Y-73965060D01*
X81208603Y-73965060D01*
X80667717Y-73965060D01*
X80667717Y-73694617D01*
X80667717Y-73424174D01*
X80938160Y-73424174D01*
X81208603Y-73424174D01*
X81208603Y-73153731D01*
X81208603Y-72883288D01*
X80938160Y-72883288D01*
X80667717Y-72883288D01*
X80667717Y-73153731D01*
X80667717Y-73424174D01*
X80397274Y-73424174D01*
X80126832Y-73424174D01*
X80126832Y-73153731D01*
X80126832Y-72883288D01*
X79856389Y-72883288D01*
X79585946Y-72883288D01*
X79045060Y-72883288D01*
X79045060Y-72342402D01*
X79856389Y-72342402D01*
X80667717Y-72342402D01*
X80667717Y-72071959D01*
X80667717Y-71801516D01*
X80126832Y-71801516D01*
X79585946Y-71801516D01*
X79585946Y-71260631D01*
X79585946Y-70719745D01*
X80397274Y-70719745D01*
X81208603Y-70719745D01*
X81208603Y-71801516D01*
X81208603Y-72883288D01*
X81479046Y-72883288D01*
X81749489Y-72883288D01*
X81749489Y-71801516D01*
X82831261Y-71801516D01*
X82831261Y-72612845D01*
X82831261Y-73424174D01*
X83101704Y-73424174D01*
X83372147Y-73424174D01*
X83372147Y-72612845D01*
X83372147Y-71801516D01*
X83101704Y-71801516D01*
X82831261Y-71801516D01*
X81749489Y-71801516D01*
X81749489Y-70719745D01*
X82019932Y-70719745D01*
X82290375Y-70719745D01*
X82290375Y-70449302D01*
X82290375Y-70178859D01*
X82560818Y-70178859D01*
X82831261Y-70178859D01*
X82831261Y-69908416D01*
X82831261Y-69637973D01*
X83101704Y-69637973D01*
X83372147Y-69637973D01*
X83372147Y-70178859D01*
G37*
G04 #@! TD.AperFunction*
D11*
X127595000Y-62230000D03*
D12*
X125055000Y-64770000D03*
X130135000Y-64770000D03*
X125055000Y-59690000D03*
X130135000Y-59690000D03*
D13*
X121499000Y-70104000D03*
X121499000Y-71074000D03*
D14*
X98372000Y-64643000D03*
X99922000Y-64643000D03*
X98372000Y-62992000D03*
X99922000Y-62992000D03*
D11*
X127595000Y-77470000D03*
D12*
X125055000Y-80010000D03*
X130135000Y-80010000D03*
X125055000Y-74930000D03*
X130135000Y-74930000D03*
D15*
X121499000Y-68557000D03*
X121499000Y-67587000D03*
D16*
X99922000Y-60960000D03*
X98372000Y-60960000D03*
D17*
X120025800Y-73558400D03*
X120025800Y-75108400D03*
D18*
X111211000Y-65278000D03*
X109561000Y-65278000D03*
D19*
X102195000Y-58894000D03*
X104735000Y-58894000D03*
X104735000Y-61004000D03*
X102195000Y-60994000D03*
D16*
X109434000Y-73660000D03*
X107884000Y-73660000D03*
D14*
X98372000Y-66294000D03*
X99922000Y-66294000D03*
D20*
X119975000Y-68516000D03*
X119975000Y-66866000D03*
D21*
X112032500Y-74228000D03*
X112032500Y-73578000D03*
X112032500Y-72928000D03*
X112032500Y-72278000D03*
X112032500Y-71628000D03*
X112032500Y-70978000D03*
X112032500Y-70328000D03*
X112032500Y-69678000D03*
X112032500Y-69028000D03*
X112032500Y-68378000D03*
X117757500Y-68378000D03*
X117757500Y-69028000D03*
X117757500Y-69678000D03*
X117757500Y-70328000D03*
X117757500Y-70978000D03*
X117757500Y-71628000D03*
X117757500Y-72278000D03*
X117757500Y-72928000D03*
X117757500Y-73578000D03*
X117757500Y-74228000D03*
D22*
X107597500Y-65360000D03*
X107597500Y-66010000D03*
X107597500Y-66660000D03*
X107597500Y-67310000D03*
X107597500Y-67960000D03*
X107597500Y-68610000D03*
X107597500Y-69260000D03*
X101872500Y-69260000D03*
X101872500Y-68610000D03*
X101872500Y-67960000D03*
X101872500Y-67310000D03*
X101872500Y-66660000D03*
X101872500Y-66010000D03*
X101872500Y-65360000D03*
D23*
X91567000Y-89027000D03*
D24*
X94107000Y-89027000D03*
X96647000Y-89027000D03*
X99187000Y-89027000D03*
X101727000Y-89027000D03*
X104267000Y-89027000D03*
X106807000Y-89027000D03*
X109347000Y-89027000D03*
X114427000Y-89027000D03*
X116967000Y-89027000D03*
X119507000Y-89027000D03*
X122047000Y-89027000D03*
X124587000Y-89027000D03*
X127127000Y-89027000D03*
X127127000Y-40767000D03*
X124587000Y-40767000D03*
X122047000Y-40767000D03*
X119507000Y-40767000D03*
X116967000Y-40767000D03*
X114427000Y-40767000D03*
X111887000Y-40767000D03*
X109347000Y-40767000D03*
X105287000Y-40767000D03*
X102747000Y-40767000D03*
X100207000Y-40767000D03*
X97667000Y-40767000D03*
X95127000Y-40767000D03*
X92587000Y-40767000D03*
X90047000Y-40767000D03*
X87507000Y-40767000D03*
X84967000Y-40767000D03*
X82427000Y-40767000D03*
D25*
X119975000Y-70168000D03*
X119975000Y-71818000D03*
D26*
X97242000Y-64643000D03*
X106005000Y-59436000D03*
X119517800Y-76238400D03*
X120483000Y-65786000D03*
X121499000Y-71882000D03*
X97242000Y-66802000D03*
X97242000Y-62484000D03*
X118324000Y-67437000D03*
X106767000Y-73101200D03*
X97216600Y-61417200D03*
X120533800Y-76238400D03*
X97216600Y-60401200D03*
X106005000Y-58420000D03*
D27*
X108951400Y-69240400D03*
D26*
X121499000Y-66802000D03*
X106767000Y-74117200D03*
X119467000Y-65786000D03*
X97242000Y-65786000D03*
X97242000Y-63500000D03*
X117308000Y-67437000D03*
D27*
X114681000Y-48387000D03*
X100975800Y-62458600D03*
D26*
X110577000Y-73578000D03*
D27*
X101026600Y-63474600D03*
D26*
X101052000Y-60960000D03*
D27*
X101179000Y-64643000D03*
D26*
X112075600Y-67487800D03*
D28*
X116012600Y-46416600D02*
X116012600Y-70586600D01*
X116012600Y-70586600D02*
X116404000Y-70978000D01*
X116404000Y-70978000D02*
X117757500Y-70978000D01*
X111760000Y-42164000D02*
X116012600Y-46416600D01*
X100207000Y-40767000D02*
X101604000Y-42164000D01*
X101604000Y-42164000D02*
X111760000Y-42164000D01*
D29*
X97864000Y-66802000D02*
X98372000Y-66294000D01*
X118324000Y-67437000D02*
X118324000Y-68378000D01*
X119467000Y-65786000D02*
X119467000Y-66358000D01*
X98372000Y-64643000D02*
X98385000Y-64630000D01*
X117308000Y-67437000D02*
X117308000Y-68378000D01*
X117308000Y-68378000D02*
X117757500Y-68378000D01*
X120533800Y-75616400D02*
X120025800Y-75108400D01*
X106005000Y-58420000D02*
X105209000Y-58420000D01*
X119517800Y-75616400D02*
X120025800Y-75108400D01*
X119517800Y-76238400D02*
X119517800Y-75616400D01*
X97216600Y-60401200D02*
X97813200Y-60401200D01*
X97216600Y-61417200D02*
X97914800Y-61417200D01*
X121499000Y-67587000D02*
X121499000Y-66802000D01*
X97864000Y-63500000D02*
X98372000Y-62992000D01*
X119975000Y-71818000D02*
X121435000Y-71818000D01*
X121499000Y-71882000D02*
X121499000Y-71074000D01*
X97864000Y-62484000D02*
X98372000Y-62992000D01*
X97242000Y-64643000D02*
X98372000Y-64643000D01*
X120533800Y-76238400D02*
X120533800Y-75616400D01*
X98385000Y-63132000D02*
X98372000Y-63119000D01*
X106767000Y-74117200D02*
X107426800Y-74117200D01*
X97813200Y-60401200D02*
X98372000Y-60960000D01*
X97242000Y-62484000D02*
X97864000Y-62484000D01*
X97242000Y-63500000D02*
X97864000Y-63500000D01*
X97242000Y-65786000D02*
X97864000Y-65786000D01*
X106767000Y-73101200D02*
X107325200Y-73101200D01*
X97242000Y-66802000D02*
X97864000Y-66802000D01*
X105209000Y-58420000D02*
X104735000Y-58894000D01*
X118324000Y-68378000D02*
X117757500Y-68378000D01*
X97914800Y-61417200D02*
X98372000Y-60960000D01*
X98385000Y-64630000D02*
X98385000Y-63132000D01*
X108931800Y-69260000D02*
X108951400Y-69240400D01*
X107597500Y-69260000D02*
X108931800Y-69260000D01*
X98372000Y-66294000D02*
X98372000Y-64643000D01*
X107426800Y-74117200D02*
X107884000Y-73660000D01*
X119467000Y-66358000D02*
X119975000Y-66866000D01*
X120483000Y-65786000D02*
X120483000Y-66358000D01*
X106005000Y-59436000D02*
X105277000Y-59436000D01*
X107325200Y-73101200D02*
X107884000Y-73660000D01*
X105277000Y-59436000D02*
X104735000Y-58894000D01*
X120483000Y-66358000D02*
X119975000Y-66866000D01*
X97864000Y-65786000D02*
X98372000Y-66294000D01*
X121435000Y-71818000D02*
X121499000Y-71882000D01*
D28*
X96520000Y-44704000D02*
X108585000Y-44704000D01*
X114173000Y-50292000D02*
X114173000Y-72303000D01*
X108585000Y-44704000D02*
X114173000Y-50292000D01*
X92587000Y-40771000D02*
X96520000Y-44704000D01*
X114173000Y-72303000D02*
X116098000Y-74228000D01*
X116098000Y-74228000D02*
X117757500Y-74228000D01*
X92587000Y-40767000D02*
X92587000Y-40771000D01*
X114996600Y-48920400D02*
X114996600Y-48702600D01*
X114996600Y-48702600D02*
X114681000Y-48387000D01*
X117757500Y-72278000D02*
X115926000Y-72278000D01*
X115926000Y-72278000D02*
X114996600Y-71348600D01*
X114996600Y-71348600D02*
X114996600Y-48920400D01*
X116677424Y-70328000D02*
X117757500Y-70328000D01*
X116546000Y-70196576D02*
X116677424Y-70328000D01*
X95127000Y-40767000D02*
X95127000Y-39635630D01*
X112029000Y-38750000D02*
X113157000Y-39878000D01*
X113157000Y-39878000D02*
X113157000Y-42037000D01*
X116546000Y-45426000D02*
X116546000Y-70196576D01*
X96012630Y-38750000D02*
X112029000Y-38750000D01*
X113157000Y-42037000D02*
X116546000Y-45426000D01*
X95127000Y-39635630D02*
X96012630Y-38750000D01*
D30*
X103784400Y-86512400D02*
X101727000Y-88569800D01*
D29*
X117757500Y-73578000D02*
X119829200Y-73578000D01*
X119829200Y-73578000D02*
X119911200Y-73660000D01*
D30*
X121753000Y-75285600D02*
X121753000Y-83261200D01*
X118501800Y-86512400D02*
X103784400Y-86512400D01*
X120025800Y-73558400D02*
X121753000Y-75285600D01*
X101727000Y-88569800D02*
X101727000Y-89027000D01*
X121753000Y-83261200D02*
X118501800Y-86512400D01*
D28*
X115687000Y-72928000D02*
X114573000Y-71814000D01*
X98552000Y-43815000D02*
X96393000Y-41656000D01*
X97155000Y-39370000D02*
X101350000Y-39370000D01*
X114573000Y-71814000D02*
X114573000Y-49295000D01*
X96393000Y-41656000D02*
X96393000Y-40132000D01*
X114573000Y-49295000D02*
X109093000Y-43815000D01*
X96393000Y-40132000D02*
X97155000Y-39370000D01*
X101350000Y-39370000D02*
X102747000Y-40767000D01*
X109093000Y-43815000D02*
X98552000Y-43815000D01*
X117757500Y-72928000D02*
X115687000Y-72928000D01*
X116292000Y-71628000D02*
X117757500Y-71628000D01*
X97667000Y-40767000D02*
X99826000Y-42926000D01*
X110998000Y-42926000D02*
X115479200Y-47407200D01*
X115479200Y-70815200D02*
X116292000Y-71628000D01*
X99826000Y-42926000D02*
X110998000Y-42926000D01*
X115479200Y-47407200D02*
X115479200Y-70815200D01*
D29*
X101464200Y-65360000D02*
X101872500Y-65360000D01*
X112075600Y-68334900D02*
X112032500Y-68378000D01*
X101026600Y-63474600D02*
X100404600Y-63474600D01*
D30*
X101155500Y-64643000D02*
X101872500Y-65360000D01*
D29*
X100975800Y-62458600D02*
X100455400Y-62458600D01*
D30*
X99922000Y-60960000D02*
X101052000Y-60960000D01*
D29*
X110577000Y-73578000D02*
X109516000Y-73578000D01*
X100404600Y-63474600D02*
X99922000Y-62992000D01*
X109516000Y-73578000D02*
X109434000Y-73660000D01*
X110577000Y-73578000D02*
X112032500Y-73578000D01*
D30*
X99922000Y-64643000D02*
X101155500Y-64643000D01*
X101052000Y-60960000D02*
X102161000Y-60960000D01*
D29*
X100455400Y-62458600D02*
X99922000Y-62992000D01*
D30*
X102161000Y-60960000D02*
X102195000Y-60994000D01*
D29*
X99922000Y-60960000D02*
X99922000Y-63119000D01*
X112075600Y-67487800D02*
X112075600Y-68334900D01*
D30*
X99922000Y-62992000D02*
X99922000Y-64643000D01*
D29*
X100206000Y-66010000D02*
X99922000Y-66294000D01*
X101872500Y-66010000D02*
X100206000Y-66010000D01*
X99922000Y-66294000D02*
X99655000Y-66294000D01*
X127595000Y-65786000D02*
X127595000Y-62230000D01*
X124824000Y-68557000D02*
X127595000Y-65786000D01*
X119463000Y-69028000D02*
X119975000Y-68516000D01*
X121458000Y-68516000D02*
X121499000Y-68557000D01*
X121499000Y-68557000D02*
X124824000Y-68557000D01*
X119975000Y-68516000D02*
X121458000Y-68516000D01*
X117757500Y-69028000D02*
X119463000Y-69028000D01*
X127595000Y-72898000D02*
X127595000Y-77470000D01*
X121499000Y-70104000D02*
X120039000Y-70104000D01*
X117757500Y-69678000D02*
X119485000Y-69678000D01*
X120039000Y-70104000D02*
X119975000Y-70168000D01*
X124801000Y-70104000D02*
X127595000Y-72898000D01*
X119485000Y-69678000D02*
X119975000Y-70168000D01*
X121499000Y-70104000D02*
X124801000Y-70104000D01*
X109688000Y-65405000D02*
X109815000Y-65278000D01*
X107642500Y-65405000D02*
X109688000Y-65405000D01*
X107597500Y-65360000D02*
X107642500Y-65405000D01*
D28*
X111887000Y-65278000D02*
X111465000Y-65278000D01*
X112032500Y-72928000D02*
X113012000Y-72928000D01*
X113741200Y-67132200D02*
X111887000Y-65278000D01*
X113012000Y-72928000D02*
X113741200Y-72198800D01*
X113741200Y-72198800D02*
X113741200Y-67132200D01*
X103708600Y-67960000D02*
X106726600Y-70978000D01*
X101872500Y-67960000D02*
X103708600Y-67960000D01*
X106726600Y-70978000D02*
X112032500Y-70978000D01*
X111025000Y-69028000D02*
X108657000Y-66660000D01*
X112032500Y-69028000D02*
X111025000Y-69028000D01*
X108657000Y-66660000D02*
X107597500Y-66660000D01*
X108405300Y-67310000D02*
X107597500Y-67310000D01*
X112032500Y-69678000D02*
X110773300Y-69678000D01*
X110773300Y-69678000D02*
X108405300Y-67310000D01*
X101872500Y-67310000D02*
X103973000Y-67310000D01*
X106991000Y-70328000D02*
X112032500Y-70328000D01*
X103973000Y-67310000D02*
X106991000Y-70328000D01*
X104735000Y-66167000D02*
X106528000Y-67960000D01*
X106528000Y-67960000D02*
X107597500Y-67960000D01*
X104735000Y-61004000D02*
X104735000Y-66167000D01*
X111330500Y-74930000D02*
X103668200Y-74930000D01*
X112032500Y-74228000D02*
X111330500Y-74930000D01*
X100569400Y-71831200D02*
X100569400Y-67106800D01*
X100569400Y-67106800D02*
X101016200Y-66660000D01*
X103668200Y-74930000D02*
X100569400Y-71831200D01*
X101016200Y-66660000D02*
X101872500Y-66660000D01*
X103393400Y-68610000D02*
X101872500Y-68610000D01*
X106411400Y-71628000D02*
X103393400Y-68610000D01*
X112032500Y-71628000D02*
X106411400Y-71628000D01*
X112769999Y-72278000D02*
X113284000Y-71763999D01*
X108682000Y-66010000D02*
X107597500Y-66010000D01*
X109220000Y-66548000D02*
X108682000Y-66010000D01*
X113284000Y-71763999D02*
X113284000Y-67564000D01*
X112268000Y-66548000D02*
X109220000Y-66548000D01*
X113284000Y-67564000D02*
X112268000Y-66548000D01*
X112032500Y-72278000D02*
X112769999Y-72278000D01*
G04 #@! TA.AperFunction,Conductor*
G36*
X120334759Y-69788262D02*
G01*
X120431229Y-69847379D01*
X120535922Y-69896534D01*
X120640614Y-69930689D01*
X120745307Y-69949844D01*
X120838766Y-69953554D01*
X120846895Y-69957305D01*
X120850000Y-69965244D01*
X120850000Y-70245059D01*
X120846573Y-70253332D01*
X120841373Y-70256348D01*
X120748495Y-70281626D01*
X120748477Y-70281633D01*
X120646989Y-70324252D01*
X120646979Y-70324257D01*
X120545456Y-70381893D01*
X120443954Y-70454516D01*
X120443936Y-70454531D01*
X120350735Y-70534988D01*
X120342234Y-70537801D01*
X120334754Y-70534341D01*
X120085893Y-70281626D01*
X119981797Y-70175918D01*
X119978434Y-70167620D01*
X119981507Y-70159806D01*
X120320022Y-69790334D01*
X120328137Y-69786550D01*
X120334759Y-69788262D01*
G37*
G04 #@! TD.AperFunction*
G04 #@! TA.AperFunction,Conductor*
G36*
X120334998Y-68137443D02*
G01*
X120431229Y-68208179D01*
X120535922Y-68270134D01*
X120640614Y-68317089D01*
X120745307Y-68349044D01*
X120757613Y-68351037D01*
X120840171Y-68364409D01*
X120847789Y-68369114D01*
X120850000Y-68375958D01*
X120850000Y-68656042D01*
X120846573Y-68664315D01*
X120840170Y-68667591D01*
X120745307Y-68682955D01*
X120745304Y-68682955D01*
X120745303Y-68682956D01*
X120640607Y-68714912D01*
X120535927Y-68761862D01*
X120535918Y-68761867D01*
X120431226Y-68823821D01*
X120334999Y-68894555D01*
X120326303Y-68896694D01*
X120319442Y-68893032D01*
X120126966Y-68682955D01*
X119981240Y-68523902D01*
X119978179Y-68515489D01*
X119981240Y-68508097D01*
X120319443Y-68138966D01*
X120327558Y-68135182D01*
X120334998Y-68137443D01*
G37*
G04 #@! TD.AperFunction*
G04 #@! TA.AperFunction,Conductor*
G36*
X127602711Y-62237951D02*
G01*
X127603792Y-62239032D01*
X128475437Y-63233609D01*
X128586526Y-63360365D01*
X128589402Y-63368845D01*
X128585438Y-63376875D01*
X128584578Y-63377561D01*
X128424999Y-63492824D01*
X128255005Y-63655209D01*
X128255005Y-63655210D01*
X128084994Y-63857215D01*
X127915002Y-64098800D01*
X127914983Y-64098828D01*
X127748414Y-64374353D01*
X127741202Y-64379660D01*
X127738402Y-64380000D01*
X127451598Y-64380000D01*
X127443325Y-64376573D01*
X127441586Y-64374353D01*
X127275015Y-64098828D01*
X127275010Y-64098821D01*
X127275000Y-64098804D01*
X127105000Y-63857209D01*
X126934999Y-63655216D01*
X126934993Y-63655210D01*
X126934993Y-63655209D01*
X126764999Y-63492824D01*
X126605421Y-63377561D01*
X126600721Y-63369938D01*
X126602787Y-63361225D01*
X126603463Y-63360376D01*
X127586202Y-62239038D01*
X127594231Y-62235075D01*
X127602711Y-62237951D01*
G37*
G04 #@! TD.AperFunction*
G04 #@! TA.AperFunction,Conductor*
G36*
X119269232Y-69535649D02*
G01*
X119421855Y-69606000D01*
X119591073Y-69669000D01*
X119760290Y-69717000D01*
X119929508Y-69750000D01*
X119929519Y-69750001D01*
X119929532Y-69750003D01*
X120084615Y-69766499D01*
X120092480Y-69770781D01*
X120095012Y-69779370D01*
X120094563Y-69781565D01*
X119977759Y-70162265D01*
X119972057Y-70169169D01*
X119970316Y-70169918D01*
X119510674Y-70325090D01*
X119501740Y-70324490D01*
X119495996Y-70318162D01*
X119450535Y-70198574D01*
X119438222Y-70169918D01*
X119401055Y-70083416D01*
X119351582Y-69983277D01*
X119302110Y-69898138D01*
X119254777Y-69831032D01*
X119252638Y-69824288D01*
X119252638Y-69546276D01*
X119256065Y-69538003D01*
X119264338Y-69534576D01*
X119269232Y-69535649D01*
G37*
G04 #@! TD.AperFunction*
G04 #@! TA.AperFunction,Conductor*
G36*
X118455000Y-69494000D02*
G01*
X118515000Y-69507000D01*
X118575000Y-69516999D01*
X118575013Y-69517000D01*
X118575016Y-69517001D01*
X118575024Y-69517002D01*
X118630370Y-69523458D01*
X118635000Y-69523999D01*
X118684079Y-69527271D01*
X118692105Y-69531241D01*
X118695000Y-69538945D01*
X118695000Y-69817054D01*
X118691573Y-69825327D01*
X118684078Y-69828728D01*
X118634996Y-69832000D01*
X118634983Y-69832001D01*
X118575024Y-69838996D01*
X118575016Y-69838997D01*
X118515001Y-69848998D01*
X118476878Y-69857258D01*
X118455000Y-69861999D01*
X118454991Y-69862001D01*
X118454979Y-69862004D01*
X118398275Y-69877126D01*
X118391763Y-69876986D01*
X117792144Y-69689165D01*
X117785273Y-69683422D01*
X117784476Y-69674503D01*
X117790219Y-69667632D01*
X117792144Y-69666835D01*
X118391766Y-69479012D01*
X118398273Y-69478873D01*
X118455000Y-69494000D01*
G37*
G04 #@! TD.AperFunction*
G04 #@! TA.AperFunction,Conductor*
G36*
X119970245Y-68514175D02*
G01*
X119977095Y-68519943D01*
X119977847Y-68521748D01*
X120100272Y-68902666D01*
X120099541Y-68911591D01*
X120092713Y-68917385D01*
X120090674Y-68917844D01*
X119936003Y-68938397D01*
X119935984Y-68938401D01*
X119767444Y-68975795D01*
X119598869Y-69028201D01*
X119430303Y-69095603D01*
X119430298Y-69095605D01*
X119278588Y-69169768D01*
X119269651Y-69170323D01*
X119262939Y-69164395D01*
X119261750Y-69159257D01*
X119261750Y-68881497D01*
X119263669Y-68875076D01*
X119309400Y-68805411D01*
X119357050Y-68717823D01*
X119404699Y-68615234D01*
X119452349Y-68497646D01*
X119496190Y-68375657D01*
X119502212Y-68369032D01*
X119510737Y-68368463D01*
X119970245Y-68514175D01*
G37*
G04 #@! TD.AperFunction*
G04 #@! TA.AperFunction,Conductor*
G36*
X127746675Y-75323427D02*
G01*
X127748414Y-75325647D01*
X127914983Y-75601170D01*
X127914991Y-75601181D01*
X127914999Y-75601195D01*
X128084999Y-75842790D01*
X128255000Y-76044783D01*
X128255004Y-76044786D01*
X128255005Y-76044788D01*
X128255005Y-76044789D01*
X128424998Y-76207173D01*
X128584578Y-76322437D01*
X128589278Y-76330060D01*
X128587212Y-76338773D01*
X128586526Y-76339633D01*
X127603799Y-77460960D01*
X127595769Y-77464924D01*
X127587289Y-77462048D01*
X127586201Y-77460960D01*
X126603473Y-76339633D01*
X126600597Y-76331153D01*
X126604561Y-76323123D01*
X126605409Y-76322446D01*
X126764999Y-76207174D01*
X126934999Y-76044783D01*
X127105000Y-75842790D01*
X127275000Y-75601195D01*
X127441586Y-75325646D01*
X127448798Y-75320340D01*
X127451598Y-75320000D01*
X127738402Y-75320000D01*
X127746675Y-75323427D01*
G37*
G04 #@! TD.AperFunction*
G04 #@! TA.AperFunction,Conductor*
G36*
X118455000Y-68844000D02*
G01*
X118515000Y-68857000D01*
X118575000Y-68866999D01*
X118575013Y-68867000D01*
X118575016Y-68867001D01*
X118575024Y-68867002D01*
X118630370Y-68873458D01*
X118635000Y-68873999D01*
X118684079Y-68877271D01*
X118692105Y-68881241D01*
X118695000Y-68888945D01*
X118695000Y-69167054D01*
X118691573Y-69175327D01*
X118684078Y-69178728D01*
X118634996Y-69182000D01*
X118634983Y-69182001D01*
X118575024Y-69188996D01*
X118575016Y-69188997D01*
X118515001Y-69198998D01*
X118476878Y-69207258D01*
X118455000Y-69211999D01*
X118454991Y-69212001D01*
X118454979Y-69212004D01*
X118398275Y-69227126D01*
X118391763Y-69226986D01*
X117792144Y-69039165D01*
X117785273Y-69033422D01*
X117784476Y-69024503D01*
X117790219Y-69017632D01*
X117792144Y-69016835D01*
X118391766Y-68829012D01*
X118398273Y-68828873D01*
X118455000Y-68844000D01*
G37*
G04 #@! TD.AperFunction*
M02*
