G04 #@! TF.GenerationSoftware,KiCad,Pcbnew,8.0.3*
G04 #@! TF.CreationDate,2024-11-06T17:03:22+01:00*
G04 #@! TF.ProjectId,UNOtdc,554e4f74-6463-42e6-9b69-6361645f7063,1.10*
G04 #@! TF.SameCoordinates,Original*
G04 #@! TF.FileFunction,Copper,L2,Inr*
G04 #@! TF.FilePolarity,Positive*
%FSLAX46Y46*%
G04 Gerber Fmt 4.6, Leading zero omitted, Abs format (unit mm)*
G04 Created by KiCad (PCBNEW 8.0.3) date 2024-11-06 17:03:22*
%MOMM*%
%LPD*%
G01*
G04 APERTURE LIST*
G04 #@! TA.AperFunction,ComponentPad*
%ADD10R,1.600000X1.600000*%
G04 #@! TD*
G04 #@! TA.AperFunction,ComponentPad*
%ADD11O,1.600000X1.600000*%
G04 #@! TD*
G04 #@! TA.AperFunction,ViaPad*
%ADD12C,0.700000*%
G04 #@! TD*
G04 #@! TA.AperFunction,ViaPad*
%ADD13C,0.600000*%
G04 #@! TD*
G04 #@! TA.AperFunction,Conductor*
%ADD14C,0.200000*%
G04 #@! TD*
G04 APERTURE END LIST*
D10*
X91567000Y-89027000D03*
D11*
X94107000Y-89027000D03*
X96647000Y-89027000D03*
X99187000Y-89027000D03*
X101727000Y-89027000D03*
X104267000Y-89027000D03*
X106807000Y-89027000D03*
X109347000Y-89027000D03*
X114427000Y-89027000D03*
X116967000Y-89027000D03*
X119507000Y-89027000D03*
X122047000Y-89027000D03*
X124587000Y-89027000D03*
X127127000Y-89027000D03*
X127127000Y-40767000D03*
X124587000Y-40767000D03*
X122047000Y-40767000D03*
X119507000Y-40767000D03*
X116967000Y-40767000D03*
X114427000Y-40767000D03*
X111887000Y-40767000D03*
X109347000Y-40767000D03*
X105287000Y-40767000D03*
X102747000Y-40767000D03*
X100207000Y-40767000D03*
X97667000Y-40767000D03*
X95127000Y-40767000D03*
X92587000Y-40767000D03*
X90047000Y-40767000D03*
X87507000Y-40767000D03*
X84967000Y-40767000D03*
X82427000Y-40767000D03*
D12*
X97242000Y-64643000D03*
X106005000Y-59436000D03*
X119517800Y-76238400D03*
X120483000Y-65786000D03*
X121499000Y-71882000D03*
X97242000Y-66802000D03*
X97242000Y-62484000D03*
X118324000Y-67437000D03*
X106767000Y-73101200D03*
X97216600Y-61417200D03*
X120533800Y-76238400D03*
X97216600Y-60401200D03*
X106005000Y-58420000D03*
D13*
X108951400Y-69240400D03*
D12*
X121499000Y-66802000D03*
X106767000Y-74117200D03*
X119467000Y-65786000D03*
X97242000Y-65786000D03*
X97242000Y-63500000D03*
X117308000Y-67437000D03*
D13*
X114681000Y-48387000D03*
X100975800Y-62458600D03*
D12*
X110577000Y-73578000D03*
D13*
X101026600Y-63474600D03*
D12*
X101052000Y-60960000D03*
D13*
X101179000Y-64643000D03*
D12*
X112075600Y-67487800D03*
D14*
X114681000Y-48133000D02*
X122047000Y-40767000D01*
X114681000Y-48387000D02*
X114681000Y-48133000D01*
G04 #@! TA.AperFunction,Conductor*
G36*
X127951363Y-38620185D02*
G01*
X127972005Y-38636819D01*
X129257181Y-39921995D01*
X129290666Y-39983318D01*
X129293500Y-40009676D01*
X129293500Y-51246891D01*
X129327608Y-51374187D01*
X129360554Y-51431250D01*
X129393500Y-51488314D01*
X129393502Y-51488316D01*
X131797181Y-53891995D01*
X131830666Y-53953318D01*
X131833500Y-53979676D01*
X131833500Y-86228324D01*
X131813815Y-86295363D01*
X131797181Y-86316005D01*
X129393502Y-88719683D01*
X129393500Y-88719686D01*
X129327608Y-88833812D01*
X129293500Y-88961108D01*
X129293500Y-91069500D01*
X129273815Y-91136539D01*
X129221011Y-91182294D01*
X129169500Y-91193500D01*
X64124500Y-91193500D01*
X64057461Y-91173815D01*
X64011706Y-91121011D01*
X64000500Y-91069500D01*
X64000500Y-88179135D01*
X90266500Y-88179135D01*
X90266500Y-89874870D01*
X90266501Y-89874876D01*
X90272908Y-89934483D01*
X90323202Y-90069328D01*
X90323206Y-90069335D01*
X90409452Y-90184544D01*
X90409455Y-90184547D01*
X90524664Y-90270793D01*
X90524671Y-90270797D01*
X90659517Y-90321091D01*
X90659516Y-90321091D01*
X90666444Y-90321835D01*
X90719127Y-90327500D01*
X92414872Y-90327499D01*
X92474483Y-90321091D01*
X92609331Y-90270796D01*
X92724546Y-90184546D01*
X92810796Y-90069331D01*
X92861091Y-89934483D01*
X92864862Y-89899401D01*
X92891599Y-89834855D01*
X92948990Y-89795006D01*
X93018816Y-89792511D01*
X93078905Y-89828163D01*
X93089726Y-89841536D01*
X93106956Y-89866143D01*
X93267858Y-90027045D01*
X93267861Y-90027047D01*
X93454266Y-90157568D01*
X93660504Y-90253739D01*
X93880308Y-90312635D01*
X94042230Y-90326801D01*
X94106998Y-90332468D01*
X94107000Y-90332468D01*
X94107002Y-90332468D01*
X94163807Y-90327498D01*
X94333692Y-90312635D01*
X94553496Y-90253739D01*
X94759734Y-90157568D01*
X94946139Y-90027047D01*
X95107047Y-89866139D01*
X95237568Y-89679734D01*
X95264618Y-89621724D01*
X95310790Y-89569285D01*
X95377983Y-89550133D01*
X95444865Y-89570348D01*
X95489382Y-89621725D01*
X95516429Y-89679728D01*
X95516432Y-89679734D01*
X95646954Y-89866141D01*
X95807858Y-90027045D01*
X95807861Y-90027047D01*
X95994266Y-90157568D01*
X96200504Y-90253739D01*
X96420308Y-90312635D01*
X96582230Y-90326801D01*
X96646998Y-90332468D01*
X96647000Y-90332468D01*
X96647002Y-90332468D01*
X96703807Y-90327498D01*
X96873692Y-90312635D01*
X97093496Y-90253739D01*
X97299734Y-90157568D01*
X97486139Y-90027047D01*
X97647047Y-89866139D01*
X97777568Y-89679734D01*
X97804895Y-89621129D01*
X97851064Y-89568695D01*
X97918257Y-89549542D01*
X97985139Y-89569757D01*
X98029657Y-89621133D01*
X98056865Y-89679482D01*
X98187342Y-89865820D01*
X98348179Y-90026657D01*
X98534517Y-90157134D01*
X98740673Y-90253265D01*
X98740682Y-90253269D01*
X98936999Y-90305872D01*
X98937000Y-90305871D01*
X98937000Y-89460012D01*
X98994007Y-89492925D01*
X99121174Y-89527000D01*
X99252826Y-89527000D01*
X99379993Y-89492925D01*
X99437000Y-89460012D01*
X99437000Y-90305872D01*
X99633317Y-90253269D01*
X99633326Y-90253265D01*
X99839482Y-90157134D01*
X100025820Y-90026657D01*
X100186657Y-89865820D01*
X100317132Y-89679484D01*
X100344341Y-89621134D01*
X100390513Y-89568695D01*
X100457707Y-89549542D01*
X100524588Y-89569757D01*
X100569106Y-89621133D01*
X100596431Y-89679732D01*
X100596432Y-89679734D01*
X100726954Y-89866141D01*
X100887858Y-90027045D01*
X100887861Y-90027047D01*
X101074266Y-90157568D01*
X101280504Y-90253739D01*
X101500308Y-90312635D01*
X101662230Y-90326801D01*
X101726998Y-90332468D01*
X101727000Y-90332468D01*
X101727002Y-90332468D01*
X101783807Y-90327498D01*
X101953692Y-90312635D01*
X102173496Y-90253739D01*
X102379734Y-90157568D01*
X102566139Y-90027047D01*
X102727047Y-89866139D01*
X102857568Y-89679734D01*
X102884618Y-89621724D01*
X102930790Y-89569285D01*
X102997983Y-89550133D01*
X103064865Y-89570348D01*
X103109382Y-89621725D01*
X103136429Y-89679728D01*
X103136432Y-89679734D01*
X103266954Y-89866141D01*
X103427858Y-90027045D01*
X103427861Y-90027047D01*
X103614266Y-90157568D01*
X103820504Y-90253739D01*
X104040308Y-90312635D01*
X104202230Y-90326801D01*
X104266998Y-90332468D01*
X104267000Y-90332468D01*
X104267002Y-90332468D01*
X104323807Y-90327498D01*
X104493692Y-90312635D01*
X104713496Y-90253739D01*
X104919734Y-90157568D01*
X105106139Y-90027047D01*
X105267047Y-89866139D01*
X105397568Y-89679734D01*
X105424618Y-89621724D01*
X105470790Y-89569285D01*
X105537983Y-89550133D01*
X105604865Y-89570348D01*
X105649382Y-89621725D01*
X105676429Y-89679728D01*
X105676432Y-89679734D01*
X105806954Y-89866141D01*
X105967858Y-90027045D01*
X105967861Y-90027047D01*
X106154266Y-90157568D01*
X106360504Y-90253739D01*
X106580308Y-90312635D01*
X106742230Y-90326801D01*
X106806998Y-90332468D01*
X106807000Y-90332468D01*
X106807002Y-90332468D01*
X106863807Y-90327498D01*
X107033692Y-90312635D01*
X107253496Y-90253739D01*
X107459734Y-90157568D01*
X107646139Y-90027047D01*
X107807047Y-89866139D01*
X107937568Y-89679734D01*
X107964618Y-89621724D01*
X108010790Y-89569285D01*
X108077983Y-89550133D01*
X108144865Y-89570348D01*
X108189382Y-89621725D01*
X108216429Y-89679728D01*
X108216432Y-89679734D01*
X108346954Y-89866141D01*
X108507858Y-90027045D01*
X108507861Y-90027047D01*
X108694266Y-90157568D01*
X108900504Y-90253739D01*
X109120308Y-90312635D01*
X109282230Y-90326801D01*
X109346998Y-90332468D01*
X109347000Y-90332468D01*
X109347002Y-90332468D01*
X109403807Y-90327498D01*
X109573692Y-90312635D01*
X109793496Y-90253739D01*
X109999734Y-90157568D01*
X110186139Y-90027047D01*
X110347047Y-89866139D01*
X110477568Y-89679734D01*
X110573739Y-89473496D01*
X110632635Y-89253692D01*
X110652468Y-89027000D01*
X110652468Y-89026998D01*
X113121532Y-89026998D01*
X113121532Y-89027001D01*
X113141364Y-89253686D01*
X113141366Y-89253697D01*
X113200258Y-89473488D01*
X113200261Y-89473497D01*
X113296431Y-89679732D01*
X113296432Y-89679734D01*
X113426954Y-89866141D01*
X113587858Y-90027045D01*
X113587861Y-90027047D01*
X113774266Y-90157568D01*
X113980504Y-90253739D01*
X114200308Y-90312635D01*
X114362230Y-90326801D01*
X114426998Y-90332468D01*
X114427000Y-90332468D01*
X114427002Y-90332468D01*
X114483807Y-90327498D01*
X114653692Y-90312635D01*
X114873496Y-90253739D01*
X115079734Y-90157568D01*
X115266139Y-90027047D01*
X115427047Y-89866139D01*
X115557568Y-89679734D01*
X115584618Y-89621724D01*
X115630790Y-89569285D01*
X115697983Y-89550133D01*
X115764865Y-89570348D01*
X115809382Y-89621725D01*
X115836429Y-89679728D01*
X115836432Y-89679734D01*
X115966954Y-89866141D01*
X116127858Y-90027045D01*
X116127861Y-90027047D01*
X116314266Y-90157568D01*
X116520504Y-90253739D01*
X116740308Y-90312635D01*
X116902230Y-90326801D01*
X116966998Y-90332468D01*
X116967000Y-90332468D01*
X116967002Y-90332468D01*
X117023807Y-90327498D01*
X117193692Y-90312635D01*
X117413496Y-90253739D01*
X117619734Y-90157568D01*
X117806139Y-90027047D01*
X117967047Y-89866139D01*
X118097568Y-89679734D01*
X118124618Y-89621724D01*
X118170790Y-89569285D01*
X118237983Y-89550133D01*
X118304865Y-89570348D01*
X118349382Y-89621725D01*
X118376429Y-89679728D01*
X118376432Y-89679734D01*
X118506954Y-89866141D01*
X118667858Y-90027045D01*
X118667861Y-90027047D01*
X118854266Y-90157568D01*
X119060504Y-90253739D01*
X119280308Y-90312635D01*
X119442230Y-90326801D01*
X119506998Y-90332468D01*
X119507000Y-90332468D01*
X119507002Y-90332468D01*
X119563807Y-90327498D01*
X119733692Y-90312635D01*
X119953496Y-90253739D01*
X120159734Y-90157568D01*
X120346139Y-90027047D01*
X120507047Y-89866139D01*
X120637568Y-89679734D01*
X120664618Y-89621724D01*
X120710790Y-89569285D01*
X120777983Y-89550133D01*
X120844865Y-89570348D01*
X120889382Y-89621725D01*
X120916429Y-89679728D01*
X120916432Y-89679734D01*
X121046954Y-89866141D01*
X121207858Y-90027045D01*
X121207861Y-90027047D01*
X121394266Y-90157568D01*
X121600504Y-90253739D01*
X121820308Y-90312635D01*
X121982230Y-90326801D01*
X122046998Y-90332468D01*
X122047000Y-90332468D01*
X122047002Y-90332468D01*
X122103807Y-90327498D01*
X122273692Y-90312635D01*
X122493496Y-90253739D01*
X122699734Y-90157568D01*
X122886139Y-90027047D01*
X123047047Y-89866139D01*
X123177568Y-89679734D01*
X123204618Y-89621724D01*
X123250790Y-89569285D01*
X123317983Y-89550133D01*
X123384865Y-89570348D01*
X123429382Y-89621725D01*
X123456429Y-89679728D01*
X123456432Y-89679734D01*
X123586954Y-89866141D01*
X123747858Y-90027045D01*
X123747861Y-90027047D01*
X123934266Y-90157568D01*
X124140504Y-90253739D01*
X124360308Y-90312635D01*
X124522230Y-90326801D01*
X124586998Y-90332468D01*
X124587000Y-90332468D01*
X124587002Y-90332468D01*
X124643807Y-90327498D01*
X124813692Y-90312635D01*
X125033496Y-90253739D01*
X125239734Y-90157568D01*
X125426139Y-90027047D01*
X125587047Y-89866139D01*
X125717568Y-89679734D01*
X125744618Y-89621724D01*
X125790790Y-89569285D01*
X125857983Y-89550133D01*
X125924865Y-89570348D01*
X125969382Y-89621725D01*
X125996429Y-89679728D01*
X125996432Y-89679734D01*
X126126954Y-89866141D01*
X126287858Y-90027045D01*
X126287861Y-90027047D01*
X126474266Y-90157568D01*
X126680504Y-90253739D01*
X126900308Y-90312635D01*
X127062230Y-90326801D01*
X127126998Y-90332468D01*
X127127000Y-90332468D01*
X127127002Y-90332468D01*
X127183807Y-90327498D01*
X127353692Y-90312635D01*
X127573496Y-90253739D01*
X127779734Y-90157568D01*
X127966139Y-90027047D01*
X128127047Y-89866139D01*
X128257568Y-89679734D01*
X128353739Y-89473496D01*
X128412635Y-89253692D01*
X128432468Y-89027000D01*
X128412635Y-88800308D01*
X128353739Y-88580504D01*
X128257568Y-88374266D01*
X128127047Y-88187861D01*
X128127045Y-88187858D01*
X127966141Y-88026954D01*
X127779734Y-87896432D01*
X127779732Y-87896431D01*
X127573497Y-87800261D01*
X127573488Y-87800258D01*
X127353697Y-87741366D01*
X127353693Y-87741365D01*
X127353692Y-87741365D01*
X127353691Y-87741364D01*
X127353686Y-87741364D01*
X127127002Y-87721532D01*
X127126998Y-87721532D01*
X126900313Y-87741364D01*
X126900302Y-87741366D01*
X126680511Y-87800258D01*
X126680502Y-87800261D01*
X126474267Y-87896431D01*
X126474265Y-87896432D01*
X126287858Y-88026954D01*
X126126954Y-88187858D01*
X125996432Y-88374265D01*
X125996431Y-88374267D01*
X125969382Y-88432275D01*
X125923209Y-88484714D01*
X125856016Y-88503866D01*
X125789135Y-88483650D01*
X125744618Y-88432275D01*
X125717686Y-88374520D01*
X125717568Y-88374266D01*
X125587047Y-88187861D01*
X125587045Y-88187858D01*
X125426141Y-88026954D01*
X125239734Y-87896432D01*
X125239732Y-87896431D01*
X125033497Y-87800261D01*
X125033488Y-87800258D01*
X124813697Y-87741366D01*
X124813693Y-87741365D01*
X124813692Y-87741365D01*
X124813691Y-87741364D01*
X124813686Y-87741364D01*
X124587002Y-87721532D01*
X124586998Y-87721532D01*
X124360313Y-87741364D01*
X124360302Y-87741366D01*
X124140511Y-87800258D01*
X124140502Y-87800261D01*
X123934267Y-87896431D01*
X123934265Y-87896432D01*
X123747858Y-88026954D01*
X123586954Y-88187858D01*
X123456432Y-88374265D01*
X123456431Y-88374267D01*
X123429382Y-88432275D01*
X123383209Y-88484714D01*
X123316016Y-88503866D01*
X123249135Y-88483650D01*
X123204618Y-88432275D01*
X123177686Y-88374520D01*
X123177568Y-88374266D01*
X123047047Y-88187861D01*
X123047045Y-88187858D01*
X122886141Y-88026954D01*
X122699734Y-87896432D01*
X122699732Y-87896431D01*
X122493497Y-87800261D01*
X122493488Y-87800258D01*
X122273697Y-87741366D01*
X122273693Y-87741365D01*
X122273692Y-87741365D01*
X122273691Y-87741364D01*
X122273686Y-87741364D01*
X122047002Y-87721532D01*
X122046998Y-87721532D01*
X121820313Y-87741364D01*
X121820302Y-87741366D01*
X121600511Y-87800258D01*
X121600502Y-87800261D01*
X121394267Y-87896431D01*
X121394265Y-87896432D01*
X121207858Y-88026954D01*
X121046954Y-88187858D01*
X120916432Y-88374265D01*
X120916431Y-88374267D01*
X120889382Y-88432275D01*
X120843209Y-88484714D01*
X120776016Y-88503866D01*
X120709135Y-88483650D01*
X120664618Y-88432275D01*
X120637686Y-88374520D01*
X120637568Y-88374266D01*
X120507047Y-88187861D01*
X120507045Y-88187858D01*
X120346141Y-88026954D01*
X120159734Y-87896432D01*
X120159732Y-87896431D01*
X119953497Y-87800261D01*
X119953488Y-87800258D01*
X119733697Y-87741366D01*
X119733693Y-87741365D01*
X119733692Y-87741365D01*
X119733691Y-87741364D01*
X119733686Y-87741364D01*
X119507002Y-87721532D01*
X119506998Y-87721532D01*
X119280313Y-87741364D01*
X119280302Y-87741366D01*
X119060511Y-87800258D01*
X119060502Y-87800261D01*
X118854267Y-87896431D01*
X118854265Y-87896432D01*
X118667858Y-88026954D01*
X118506954Y-88187858D01*
X118376432Y-88374265D01*
X118376431Y-88374267D01*
X118349382Y-88432275D01*
X118303209Y-88484714D01*
X118236016Y-88503866D01*
X118169135Y-88483650D01*
X118124618Y-88432275D01*
X118097686Y-88374520D01*
X118097568Y-88374266D01*
X117967047Y-88187861D01*
X117967045Y-88187858D01*
X117806141Y-88026954D01*
X117619734Y-87896432D01*
X117619732Y-87896431D01*
X117413497Y-87800261D01*
X117413488Y-87800258D01*
X117193697Y-87741366D01*
X117193693Y-87741365D01*
X117193692Y-87741365D01*
X117193691Y-87741364D01*
X117193686Y-87741364D01*
X116967002Y-87721532D01*
X116966998Y-87721532D01*
X116740313Y-87741364D01*
X116740302Y-87741366D01*
X116520511Y-87800258D01*
X116520502Y-87800261D01*
X116314267Y-87896431D01*
X116314265Y-87896432D01*
X116127858Y-88026954D01*
X115966954Y-88187858D01*
X115836432Y-88374265D01*
X115836431Y-88374267D01*
X115809382Y-88432275D01*
X115763209Y-88484714D01*
X115696016Y-88503866D01*
X115629135Y-88483650D01*
X115584618Y-88432275D01*
X115557686Y-88374520D01*
X115557568Y-88374266D01*
X115427047Y-88187861D01*
X115427045Y-88187858D01*
X115266141Y-88026954D01*
X115079734Y-87896432D01*
X115079732Y-87896431D01*
X114873497Y-87800261D01*
X114873488Y-87800258D01*
X114653697Y-87741366D01*
X114653693Y-87741365D01*
X114653692Y-87741365D01*
X114653691Y-87741364D01*
X114653686Y-87741364D01*
X114427002Y-87721532D01*
X114426998Y-87721532D01*
X114200313Y-87741364D01*
X114200302Y-87741366D01*
X113980511Y-87800258D01*
X113980502Y-87800261D01*
X113774267Y-87896431D01*
X113774265Y-87896432D01*
X113587858Y-88026954D01*
X113426954Y-88187858D01*
X113296432Y-88374265D01*
X113296431Y-88374267D01*
X113200261Y-88580502D01*
X113200258Y-88580511D01*
X113141366Y-88800302D01*
X113141364Y-88800313D01*
X113121532Y-89026998D01*
X110652468Y-89026998D01*
X110632635Y-88800308D01*
X110573739Y-88580504D01*
X110477568Y-88374266D01*
X110347047Y-88187861D01*
X110347045Y-88187858D01*
X110186141Y-88026954D01*
X109999734Y-87896432D01*
X109999732Y-87896431D01*
X109793497Y-87800261D01*
X109793488Y-87800258D01*
X109573697Y-87741366D01*
X109573693Y-87741365D01*
X109573692Y-87741365D01*
X109573691Y-87741364D01*
X109573686Y-87741364D01*
X109347002Y-87721532D01*
X109346998Y-87721532D01*
X109120313Y-87741364D01*
X109120302Y-87741366D01*
X108900511Y-87800258D01*
X108900502Y-87800261D01*
X108694267Y-87896431D01*
X108694265Y-87896432D01*
X108507858Y-88026954D01*
X108346954Y-88187858D01*
X108216432Y-88374265D01*
X108216431Y-88374267D01*
X108189382Y-88432275D01*
X108143209Y-88484714D01*
X108076016Y-88503866D01*
X108009135Y-88483650D01*
X107964618Y-88432275D01*
X107937686Y-88374520D01*
X107937568Y-88374266D01*
X107807047Y-88187861D01*
X107807045Y-88187858D01*
X107646141Y-88026954D01*
X107459734Y-87896432D01*
X107459732Y-87896431D01*
X107253497Y-87800261D01*
X107253488Y-87800258D01*
X107033697Y-87741366D01*
X107033693Y-87741365D01*
X107033692Y-87741365D01*
X107033691Y-87741364D01*
X107033686Y-87741364D01*
X106807002Y-87721532D01*
X106806998Y-87721532D01*
X106580313Y-87741364D01*
X106580302Y-87741366D01*
X106360511Y-87800258D01*
X106360502Y-87800261D01*
X106154267Y-87896431D01*
X106154265Y-87896432D01*
X105967858Y-88026954D01*
X105806954Y-88187858D01*
X105676432Y-88374265D01*
X105676431Y-88374267D01*
X105649382Y-88432275D01*
X105603209Y-88484714D01*
X105536016Y-88503866D01*
X105469135Y-88483650D01*
X105424618Y-88432275D01*
X105397686Y-88374520D01*
X105397568Y-88374266D01*
X105267047Y-88187861D01*
X105267045Y-88187858D01*
X105106141Y-88026954D01*
X104919734Y-87896432D01*
X104919732Y-87896431D01*
X104713497Y-87800261D01*
X104713488Y-87800258D01*
X104493697Y-87741366D01*
X104493693Y-87741365D01*
X104493692Y-87741365D01*
X104493691Y-87741364D01*
X104493686Y-87741364D01*
X104267002Y-87721532D01*
X104266998Y-87721532D01*
X104040313Y-87741364D01*
X104040302Y-87741366D01*
X103820511Y-87800258D01*
X103820502Y-87800261D01*
X103614267Y-87896431D01*
X103614265Y-87896432D01*
X103427858Y-88026954D01*
X103266954Y-88187858D01*
X103136432Y-88374265D01*
X103136431Y-88374267D01*
X103109382Y-88432275D01*
X103063209Y-88484714D01*
X102996016Y-88503866D01*
X102929135Y-88483650D01*
X102884618Y-88432275D01*
X102857686Y-88374520D01*
X102857568Y-88374266D01*
X102727047Y-88187861D01*
X102727045Y-88187858D01*
X102566141Y-88026954D01*
X102379734Y-87896432D01*
X102379732Y-87896431D01*
X102173497Y-87800261D01*
X102173488Y-87800258D01*
X101953697Y-87741366D01*
X101953693Y-87741365D01*
X101953692Y-87741365D01*
X101953691Y-87741364D01*
X101953686Y-87741364D01*
X101727002Y-87721532D01*
X101726998Y-87721532D01*
X101500313Y-87741364D01*
X101500302Y-87741366D01*
X101280511Y-87800258D01*
X101280502Y-87800261D01*
X101074267Y-87896431D01*
X101074265Y-87896432D01*
X100887858Y-88026954D01*
X100726954Y-88187858D01*
X100596433Y-88374264D01*
X100596432Y-88374266D01*
X100596315Y-88374518D01*
X100569106Y-88432867D01*
X100522933Y-88485306D01*
X100455739Y-88504457D01*
X100388858Y-88484241D01*
X100344342Y-88432865D01*
X100317135Y-88374520D01*
X100317134Y-88374518D01*
X100186657Y-88188179D01*
X100025820Y-88027342D01*
X99839482Y-87896865D01*
X99633328Y-87800734D01*
X99437000Y-87748127D01*
X99437000Y-88593988D01*
X99379993Y-88561075D01*
X99252826Y-88527000D01*
X99121174Y-88527000D01*
X98994007Y-88561075D01*
X98937000Y-88593988D01*
X98937000Y-87748127D01*
X98740671Y-87800734D01*
X98534517Y-87896865D01*
X98348179Y-88027342D01*
X98187342Y-88188179D01*
X98056867Y-88374515D01*
X98029657Y-88432867D01*
X97983484Y-88485306D01*
X97916290Y-88504457D01*
X97849409Y-88484241D01*
X97804893Y-88432865D01*
X97777685Y-88374518D01*
X97777568Y-88374266D01*
X97647047Y-88187861D01*
X97647045Y-88187858D01*
X97486141Y-88026954D01*
X97299734Y-87896432D01*
X97299732Y-87896431D01*
X97093497Y-87800261D01*
X97093488Y-87800258D01*
X96873697Y-87741366D01*
X96873693Y-87741365D01*
X96873692Y-87741365D01*
X96873691Y-87741364D01*
X96873686Y-87741364D01*
X96647002Y-87721532D01*
X96646998Y-87721532D01*
X96420313Y-87741364D01*
X96420302Y-87741366D01*
X96200511Y-87800258D01*
X96200502Y-87800261D01*
X95994267Y-87896431D01*
X95994265Y-87896432D01*
X95807858Y-88026954D01*
X95646954Y-88187858D01*
X95516432Y-88374265D01*
X95516431Y-88374267D01*
X95489382Y-88432275D01*
X95443209Y-88484714D01*
X95376016Y-88503866D01*
X95309135Y-88483650D01*
X95264618Y-88432275D01*
X95237686Y-88374520D01*
X95237568Y-88374266D01*
X95107047Y-88187861D01*
X95107045Y-88187858D01*
X94946141Y-88026954D01*
X94759734Y-87896432D01*
X94759732Y-87896431D01*
X94553497Y-87800261D01*
X94553488Y-87800258D01*
X94333697Y-87741366D01*
X94333693Y-87741365D01*
X94333692Y-87741365D01*
X94333691Y-87741364D01*
X94333686Y-87741364D01*
X94107002Y-87721532D01*
X94106998Y-87721532D01*
X93880313Y-87741364D01*
X93880302Y-87741366D01*
X93660511Y-87800258D01*
X93660502Y-87800261D01*
X93454267Y-87896431D01*
X93454265Y-87896432D01*
X93267858Y-88026954D01*
X93106954Y-88187858D01*
X93089725Y-88212464D01*
X93035147Y-88256088D01*
X92965648Y-88263280D01*
X92903294Y-88231757D01*
X92867882Y-88171526D01*
X92864861Y-88154591D01*
X92861091Y-88119516D01*
X92810797Y-87984671D01*
X92810793Y-87984664D01*
X92724547Y-87869455D01*
X92724544Y-87869452D01*
X92609335Y-87783206D01*
X92609328Y-87783202D01*
X92474482Y-87732908D01*
X92474483Y-87732908D01*
X92414883Y-87726501D01*
X92414881Y-87726500D01*
X92414873Y-87726500D01*
X92414864Y-87726500D01*
X90719129Y-87726500D01*
X90719123Y-87726501D01*
X90659516Y-87732908D01*
X90524671Y-87783202D01*
X90524664Y-87783206D01*
X90409455Y-87869452D01*
X90409452Y-87869455D01*
X90323206Y-87984664D01*
X90323202Y-87984671D01*
X90272908Y-88119517D01*
X90266501Y-88179116D01*
X90266500Y-88179135D01*
X64000500Y-88179135D01*
X64000500Y-79903713D01*
X123704500Y-79903713D01*
X123704500Y-80116286D01*
X123737753Y-80326239D01*
X123803444Y-80528414D01*
X123899951Y-80717820D01*
X124024890Y-80889786D01*
X124175213Y-81040109D01*
X124347179Y-81165048D01*
X124347181Y-81165049D01*
X124347184Y-81165051D01*
X124536588Y-81261557D01*
X124738757Y-81327246D01*
X124948713Y-81360500D01*
X124948714Y-81360500D01*
X125161286Y-81360500D01*
X125161287Y-81360500D01*
X125371243Y-81327246D01*
X125573412Y-81261557D01*
X125762816Y-81165051D01*
X125784789Y-81149086D01*
X125934786Y-81040109D01*
X125934788Y-81040106D01*
X125934792Y-81040104D01*
X126085104Y-80889792D01*
X126085106Y-80889788D01*
X126085109Y-80889786D01*
X126210048Y-80717820D01*
X126210047Y-80717820D01*
X126210051Y-80717816D01*
X126306557Y-80528412D01*
X126372246Y-80326243D01*
X126405500Y-80116287D01*
X126405500Y-79903713D01*
X128784500Y-79903713D01*
X128784500Y-80116286D01*
X128817753Y-80326239D01*
X128883444Y-80528414D01*
X128979951Y-80717820D01*
X129104890Y-80889786D01*
X129255213Y-81040109D01*
X129427179Y-81165048D01*
X129427181Y-81165049D01*
X129427184Y-81165051D01*
X129616588Y-81261557D01*
X129818757Y-81327246D01*
X130028713Y-81360500D01*
X130028714Y-81360500D01*
X130241286Y-81360500D01*
X130241287Y-81360500D01*
X130451243Y-81327246D01*
X130653412Y-81261557D01*
X130842816Y-81165051D01*
X130864789Y-81149086D01*
X131014786Y-81040109D01*
X131014788Y-81040106D01*
X131014792Y-81040104D01*
X131165104Y-80889792D01*
X131165106Y-80889788D01*
X131165109Y-80889786D01*
X131290048Y-80717820D01*
X131290047Y-80717820D01*
X131290051Y-80717816D01*
X131386557Y-80528412D01*
X131452246Y-80326243D01*
X131485500Y-80116287D01*
X131485500Y-79903713D01*
X131452246Y-79693757D01*
X131386557Y-79491588D01*
X131290051Y-79302184D01*
X131290049Y-79302181D01*
X131290048Y-79302179D01*
X131165109Y-79130213D01*
X131014786Y-78979890D01*
X130842820Y-78854951D01*
X130653414Y-78758444D01*
X130653413Y-78758443D01*
X130653412Y-78758443D01*
X130451243Y-78692754D01*
X130451241Y-78692753D01*
X130451240Y-78692753D01*
X130289957Y-78667208D01*
X130241287Y-78659500D01*
X130028713Y-78659500D01*
X129980042Y-78667208D01*
X129818760Y-78692753D01*
X129616585Y-78758444D01*
X129427179Y-78854951D01*
X129255213Y-78979890D01*
X129104890Y-79130213D01*
X128979951Y-79302179D01*
X128883444Y-79491585D01*
X128817753Y-79693760D01*
X128784500Y-79903713D01*
X126405500Y-79903713D01*
X126372246Y-79693757D01*
X126306557Y-79491588D01*
X126210051Y-79302184D01*
X126210049Y-79302181D01*
X126210048Y-79302179D01*
X126085109Y-79130213D01*
X125934786Y-78979890D01*
X125762820Y-78854951D01*
X125573414Y-78758444D01*
X125573413Y-78758443D01*
X125573412Y-78758443D01*
X125371243Y-78692754D01*
X125371241Y-78692753D01*
X125371240Y-78692753D01*
X125209957Y-78667208D01*
X125161287Y-78659500D01*
X124948713Y-78659500D01*
X124900042Y-78667208D01*
X124738760Y-78692753D01*
X124536585Y-78758444D01*
X124347179Y-78854951D01*
X124175213Y-78979890D01*
X124024890Y-79130213D01*
X123899951Y-79302179D01*
X123803444Y-79491585D01*
X123737753Y-79693760D01*
X123704500Y-79903713D01*
X64000500Y-79903713D01*
X64000500Y-77371577D01*
X126344500Y-77371577D01*
X126344500Y-77568422D01*
X126375290Y-77762826D01*
X126436117Y-77950029D01*
X126525476Y-78125405D01*
X126641172Y-78284646D01*
X126780354Y-78423828D01*
X126939595Y-78539524D01*
X127022455Y-78581743D01*
X127114970Y-78628882D01*
X127114972Y-78628882D01*
X127114975Y-78628884D01*
X127209201Y-78659500D01*
X127302173Y-78689709D01*
X127496578Y-78720500D01*
X127496583Y-78720500D01*
X127693422Y-78720500D01*
X127887826Y-78689709D01*
X128075025Y-78628884D01*
X128250405Y-78539524D01*
X128409646Y-78423828D01*
X128548828Y-78284646D01*
X128664524Y-78125405D01*
X128753884Y-77950025D01*
X128814709Y-77762826D01*
X128845500Y-77568422D01*
X128845500Y-77371577D01*
X128814709Y-77177173D01*
X128753882Y-76989970D01*
X128664523Y-76814594D01*
X128548828Y-76655354D01*
X128409646Y-76516172D01*
X128250405Y-76400476D01*
X128075029Y-76311117D01*
X127887826Y-76250290D01*
X127693422Y-76219500D01*
X127693417Y-76219500D01*
X127496583Y-76219500D01*
X127496578Y-76219500D01*
X127302173Y-76250290D01*
X127114970Y-76311117D01*
X126939594Y-76400476D01*
X126848741Y-76466485D01*
X126780354Y-76516172D01*
X126780352Y-76516174D01*
X126780351Y-76516174D01*
X126641174Y-76655351D01*
X126641174Y-76655352D01*
X126641172Y-76655354D01*
X126591485Y-76723741D01*
X126525476Y-76814594D01*
X126436117Y-76989970D01*
X126375290Y-77177173D01*
X126344500Y-77371577D01*
X64000500Y-77371577D01*
X64000500Y-76238400D01*
X118662615Y-76238400D01*
X118681303Y-76416205D01*
X118681304Y-76416207D01*
X118736547Y-76586229D01*
X118736550Y-76586235D01*
X118825941Y-76741065D01*
X118867612Y-76787346D01*
X118945564Y-76873921D01*
X118945567Y-76873923D01*
X118945570Y-76873926D01*
X119090207Y-76979012D01*
X119253533Y-77051729D01*
X119428409Y-77088900D01*
X119428410Y-77088900D01*
X119607189Y-77088900D01*
X119607191Y-77088900D01*
X119782067Y-77051729D01*
X119945393Y-76979012D01*
X119952912Y-76973548D01*
X120018718Y-76950067D01*
X120086772Y-76965891D01*
X120098687Y-76973548D01*
X120106207Y-76979012D01*
X120269533Y-77051729D01*
X120444409Y-77088900D01*
X120444410Y-77088900D01*
X120623189Y-77088900D01*
X120623191Y-77088900D01*
X120798067Y-77051729D01*
X120961393Y-76979012D01*
X121106030Y-76873926D01*
X121225659Y-76741065D01*
X121315050Y-76586235D01*
X121370297Y-76416203D01*
X121388985Y-76238400D01*
X121370297Y-76060597D01*
X121315050Y-75890565D01*
X121225659Y-75735735D01*
X121137496Y-75637820D01*
X121106035Y-75602878D01*
X121106032Y-75602876D01*
X121106031Y-75602875D01*
X121106030Y-75602874D01*
X120961393Y-75497788D01*
X120798067Y-75425071D01*
X120798065Y-75425070D01*
X120670394Y-75397933D01*
X120623191Y-75387900D01*
X120444409Y-75387900D01*
X120413754Y-75394415D01*
X120269533Y-75425070D01*
X120106212Y-75497785D01*
X120104757Y-75498841D01*
X120098679Y-75503257D01*
X120032873Y-75526733D01*
X119964820Y-75510905D01*
X119952912Y-75503251D01*
X119945392Y-75497787D01*
X119843634Y-75452482D01*
X119782067Y-75425071D01*
X119782065Y-75425070D01*
X119654394Y-75397933D01*
X119607191Y-75387900D01*
X119428409Y-75387900D01*
X119397754Y-75394415D01*
X119253533Y-75425070D01*
X119253528Y-75425072D01*
X119090208Y-75497787D01*
X118945568Y-75602875D01*
X118825940Y-75735736D01*
X118736550Y-75890564D01*
X118736547Y-75890570D01*
X118681304Y-76060592D01*
X118681303Y-76060594D01*
X118662615Y-76238400D01*
X64000500Y-76238400D01*
X64000500Y-73101200D01*
X105911815Y-73101200D01*
X105930503Y-73279005D01*
X105930504Y-73279007D01*
X105985747Y-73449029D01*
X105985749Y-73449032D01*
X105985750Y-73449035D01*
X106037071Y-73537925D01*
X106042426Y-73547201D01*
X106058898Y-73615101D01*
X106042426Y-73671199D01*
X105985749Y-73769367D01*
X105985747Y-73769370D01*
X105930504Y-73939392D01*
X105930503Y-73939394D01*
X105911815Y-74117200D01*
X105930503Y-74295005D01*
X105930504Y-74295007D01*
X105985747Y-74465029D01*
X105985750Y-74465035D01*
X106075141Y-74619865D01*
X106116812Y-74666146D01*
X106194764Y-74752721D01*
X106194767Y-74752723D01*
X106194770Y-74752726D01*
X106339407Y-74857812D01*
X106502733Y-74930529D01*
X106677609Y-74967700D01*
X106677610Y-74967700D01*
X106856389Y-74967700D01*
X106856391Y-74967700D01*
X107031267Y-74930529D01*
X107194593Y-74857812D01*
X107241526Y-74823713D01*
X123704500Y-74823713D01*
X123704500Y-75036287D01*
X123737754Y-75246243D01*
X123795859Y-75425072D01*
X123803444Y-75448414D01*
X123899951Y-75637820D01*
X124024890Y-75809786D01*
X124175213Y-75960109D01*
X124347179Y-76085048D01*
X124347181Y-76085049D01*
X124347184Y-76085051D01*
X124536588Y-76181557D01*
X124738757Y-76247246D01*
X124948713Y-76280500D01*
X124948714Y-76280500D01*
X125161286Y-76280500D01*
X125161287Y-76280500D01*
X125371243Y-76247246D01*
X125573412Y-76181557D01*
X125762816Y-76085051D01*
X125796481Y-76060592D01*
X125934786Y-75960109D01*
X125934788Y-75960106D01*
X125934792Y-75960104D01*
X126085104Y-75809792D01*
X126085106Y-75809788D01*
X126085109Y-75809786D01*
X126210048Y-75637820D01*
X126210047Y-75637820D01*
X126210051Y-75637816D01*
X126306557Y-75448412D01*
X126372246Y-75246243D01*
X126405500Y-75036287D01*
X126405500Y-74823713D01*
X128784500Y-74823713D01*
X128784500Y-75036287D01*
X128817754Y-75246243D01*
X128875859Y-75425072D01*
X128883444Y-75448414D01*
X128979951Y-75637820D01*
X129104890Y-75809786D01*
X129255213Y-75960109D01*
X129427179Y-76085048D01*
X129427181Y-76085049D01*
X129427184Y-76085051D01*
X129616588Y-76181557D01*
X129818757Y-76247246D01*
X130028713Y-76280500D01*
X130028714Y-76280500D01*
X130241286Y-76280500D01*
X130241287Y-76280500D01*
X130451243Y-76247246D01*
X130653412Y-76181557D01*
X130842816Y-76085051D01*
X130876481Y-76060592D01*
X131014786Y-75960109D01*
X131014788Y-75960106D01*
X131014792Y-75960104D01*
X131165104Y-75809792D01*
X131165106Y-75809788D01*
X131165109Y-75809786D01*
X131290048Y-75637820D01*
X131290047Y-75637820D01*
X131290051Y-75637816D01*
X131386557Y-75448412D01*
X131452246Y-75246243D01*
X131485500Y-75036287D01*
X131485500Y-74823713D01*
X131452246Y-74613757D01*
X131386557Y-74411588D01*
X131290051Y-74222184D01*
X131290049Y-74222181D01*
X131290048Y-74222179D01*
X131165109Y-74050213D01*
X131014786Y-73899890D01*
X130842820Y-73774951D01*
X130653414Y-73678444D01*
X130653413Y-73678443D01*
X130653412Y-73678443D01*
X130451243Y-73612754D01*
X130451241Y-73612753D01*
X130451240Y-73612753D01*
X130289957Y-73587208D01*
X130241287Y-73579500D01*
X130028713Y-73579500D01*
X129980042Y-73587208D01*
X129818760Y-73612753D01*
X129616585Y-73678444D01*
X129427179Y-73774951D01*
X129255213Y-73899890D01*
X129104890Y-74050213D01*
X128979951Y-74222179D01*
X128883444Y-74411585D01*
X128817753Y-74613760D01*
X128795744Y-74752721D01*
X128784500Y-74823713D01*
X126405500Y-74823713D01*
X126372246Y-74613757D01*
X126306557Y-74411588D01*
X126210051Y-74222184D01*
X126210049Y-74222181D01*
X126210048Y-74222179D01*
X126085109Y-74050213D01*
X125934786Y-73899890D01*
X125762820Y-73774951D01*
X125573414Y-73678444D01*
X125573413Y-73678443D01*
X125573412Y-73678443D01*
X125371243Y-73612754D01*
X125371241Y-73612753D01*
X125371240Y-73612753D01*
X125209957Y-73587208D01*
X125161287Y-73579500D01*
X124948713Y-73579500D01*
X124900042Y-73587208D01*
X124738760Y-73612753D01*
X124536585Y-73678444D01*
X124347179Y-73774951D01*
X124175213Y-73899890D01*
X124024890Y-74050213D01*
X123899951Y-74222179D01*
X123803444Y-74411585D01*
X123737753Y-74613760D01*
X123715744Y-74752721D01*
X123704500Y-74823713D01*
X107241526Y-74823713D01*
X107339230Y-74752726D01*
X107458859Y-74619865D01*
X107548250Y-74465035D01*
X107603497Y-74295003D01*
X107622185Y-74117200D01*
X107603497Y-73939397D01*
X107550065Y-73774951D01*
X107548252Y-73769370D01*
X107548250Y-73769367D01*
X107548250Y-73769365D01*
X107491573Y-73671198D01*
X107475101Y-73603300D01*
X107491573Y-73547201D01*
X107548250Y-73449035D01*
X107603497Y-73279003D01*
X107622185Y-73101200D01*
X107603497Y-72923397D01*
X107548250Y-72753365D01*
X107458859Y-72598535D01*
X107385918Y-72517526D01*
X107339235Y-72465678D01*
X107339232Y-72465676D01*
X107339231Y-72465675D01*
X107339230Y-72465674D01*
X107194593Y-72360588D01*
X107031267Y-72287871D01*
X107031265Y-72287870D01*
X106903594Y-72260733D01*
X106856391Y-72250700D01*
X106677609Y-72250700D01*
X106646954Y-72257215D01*
X106502733Y-72287870D01*
X106502728Y-72287872D01*
X106339408Y-72360587D01*
X106194768Y-72465675D01*
X106075140Y-72598536D01*
X105985750Y-72753364D01*
X105985747Y-72753370D01*
X105930504Y-72923392D01*
X105930503Y-72923394D01*
X105911815Y-73101200D01*
X64000500Y-73101200D01*
X64000500Y-71882000D01*
X120643815Y-71882000D01*
X120662503Y-72059805D01*
X120662504Y-72059807D01*
X120717747Y-72229829D01*
X120717750Y-72229835D01*
X120807141Y-72384665D01*
X120848812Y-72430946D01*
X120926764Y-72517521D01*
X120926767Y-72517523D01*
X120926770Y-72517526D01*
X121071407Y-72622612D01*
X121234733Y-72695329D01*
X121409609Y-72732500D01*
X121409610Y-72732500D01*
X121588389Y-72732500D01*
X121588391Y-72732500D01*
X121763267Y-72695329D01*
X121926593Y-72622612D01*
X122071230Y-72517526D01*
X122190859Y-72384665D01*
X122280250Y-72229835D01*
X122335497Y-72059803D01*
X122354185Y-71882000D01*
X122335497Y-71704197D01*
X122280250Y-71534165D01*
X122190859Y-71379335D01*
X122144003Y-71327296D01*
X122071235Y-71246478D01*
X122071232Y-71246476D01*
X122071231Y-71246475D01*
X122071230Y-71246474D01*
X121926593Y-71141388D01*
X121763267Y-71068671D01*
X121763265Y-71068670D01*
X121635594Y-71041533D01*
X121588391Y-71031500D01*
X121409609Y-71031500D01*
X121378954Y-71038015D01*
X121234733Y-71068670D01*
X121234728Y-71068672D01*
X121071408Y-71141387D01*
X120926768Y-71246475D01*
X120807140Y-71379336D01*
X120717750Y-71534164D01*
X120717747Y-71534170D01*
X120662504Y-71704192D01*
X120662503Y-71704194D01*
X120643815Y-71882000D01*
X64000500Y-71882000D01*
X64000500Y-69240396D01*
X108145835Y-69240396D01*
X108145835Y-69240403D01*
X108166030Y-69419649D01*
X108166031Y-69419654D01*
X108225611Y-69589923D01*
X108321584Y-69742662D01*
X108449138Y-69870216D01*
X108601878Y-69966189D01*
X108772145Y-70025768D01*
X108772150Y-70025769D01*
X108951396Y-70045965D01*
X108951400Y-70045965D01*
X108951404Y-70045965D01*
X109130649Y-70025769D01*
X109130652Y-70025768D01*
X109130655Y-70025768D01*
X109300922Y-69966189D01*
X109453662Y-69870216D01*
X109581216Y-69742662D01*
X109677189Y-69589922D01*
X109736768Y-69419655D01*
X109756965Y-69240400D01*
X109736768Y-69061145D01*
X109677189Y-68890878D01*
X109581216Y-68738138D01*
X109453662Y-68610584D01*
X109300923Y-68514611D01*
X109130654Y-68455031D01*
X109130649Y-68455030D01*
X108951404Y-68434835D01*
X108951396Y-68434835D01*
X108772150Y-68455030D01*
X108772145Y-68455031D01*
X108601876Y-68514611D01*
X108449137Y-68610584D01*
X108321584Y-68738137D01*
X108225611Y-68890876D01*
X108166031Y-69061145D01*
X108166030Y-69061150D01*
X108145835Y-69240396D01*
X64000500Y-69240396D01*
X64000500Y-60401200D01*
X96361415Y-60401200D01*
X96380103Y-60579005D01*
X96380104Y-60579007D01*
X96435347Y-60749029D01*
X96435349Y-60749032D01*
X96435350Y-60749035D01*
X96486671Y-60837925D01*
X96492026Y-60847201D01*
X96508498Y-60915101D01*
X96492026Y-60971199D01*
X96435349Y-61069367D01*
X96435347Y-61069370D01*
X96380104Y-61239392D01*
X96380103Y-61239394D01*
X96361415Y-61417200D01*
X96380103Y-61595005D01*
X96380104Y-61595007D01*
X96435347Y-61765029D01*
X96435350Y-61765035D01*
X96519390Y-61910597D01*
X96535863Y-61978498D01*
X96519390Y-62034597D01*
X96460750Y-62136164D01*
X96460747Y-62136170D01*
X96405504Y-62306192D01*
X96405503Y-62306194D01*
X96386815Y-62484000D01*
X96405503Y-62661805D01*
X96405504Y-62661807D01*
X96460747Y-62831829D01*
X96460749Y-62831832D01*
X96460750Y-62831835D01*
X96491679Y-62885405D01*
X96517426Y-62930001D01*
X96533898Y-62997901D01*
X96517426Y-63053999D01*
X96460749Y-63152167D01*
X96460747Y-63152170D01*
X96405504Y-63322192D01*
X96405503Y-63322194D01*
X96386815Y-63500000D01*
X96405503Y-63677805D01*
X96405504Y-63677807D01*
X96460747Y-63847829D01*
X96460750Y-63847835D01*
X96553390Y-64008293D01*
X96551128Y-64009598D01*
X96570680Y-64064484D01*
X96554821Y-64132530D01*
X96553109Y-64135192D01*
X96460750Y-64295164D01*
X96460747Y-64295170D01*
X96405504Y-64465192D01*
X96405503Y-64465194D01*
X96386815Y-64643000D01*
X96405503Y-64820805D01*
X96405504Y-64820807D01*
X96460747Y-64990829D01*
X96460750Y-64990835D01*
X96553390Y-65151293D01*
X96551128Y-65152598D01*
X96570680Y-65207484D01*
X96554821Y-65275530D01*
X96553109Y-65278192D01*
X96460750Y-65438164D01*
X96460747Y-65438170D01*
X96405504Y-65608192D01*
X96405503Y-65608194D01*
X96386815Y-65786000D01*
X96405503Y-65963805D01*
X96405504Y-65963807D01*
X96460747Y-66133829D01*
X96460749Y-66133832D01*
X96460750Y-66133835D01*
X96512071Y-66222725D01*
X96517426Y-66232001D01*
X96533898Y-66299901D01*
X96517426Y-66355999D01*
X96460749Y-66454167D01*
X96460747Y-66454170D01*
X96405504Y-66624192D01*
X96405503Y-66624194D01*
X96386815Y-66802000D01*
X96405503Y-66979805D01*
X96405504Y-66979807D01*
X96460747Y-67149829D01*
X96460750Y-67149835D01*
X96550141Y-67304665D01*
X96591812Y-67350946D01*
X96669764Y-67437521D01*
X96669767Y-67437523D01*
X96669770Y-67437526D01*
X96814407Y-67542612D01*
X96977733Y-67615329D01*
X97152609Y-67652500D01*
X97152610Y-67652500D01*
X97331389Y-67652500D01*
X97331391Y-67652500D01*
X97506267Y-67615329D01*
X97669593Y-67542612D01*
X97814230Y-67437526D01*
X97814704Y-67437000D01*
X116452815Y-67437000D01*
X116471503Y-67614805D01*
X116471504Y-67614807D01*
X116526747Y-67784829D01*
X116526750Y-67784835D01*
X116616141Y-67939665D01*
X116657812Y-67985946D01*
X116735764Y-68072521D01*
X116735767Y-68072523D01*
X116735770Y-68072526D01*
X116880407Y-68177612D01*
X117043733Y-68250329D01*
X117218609Y-68287500D01*
X117218610Y-68287500D01*
X117397389Y-68287500D01*
X117397391Y-68287500D01*
X117572267Y-68250329D01*
X117735593Y-68177612D01*
X117743112Y-68172148D01*
X117808918Y-68148667D01*
X117876972Y-68164491D01*
X117888887Y-68172148D01*
X117896407Y-68177612D01*
X118059733Y-68250329D01*
X118234609Y-68287500D01*
X118234610Y-68287500D01*
X118413389Y-68287500D01*
X118413391Y-68287500D01*
X118588267Y-68250329D01*
X118751593Y-68177612D01*
X118896230Y-68072526D01*
X119015859Y-67939665D01*
X119105250Y-67784835D01*
X119160497Y-67614803D01*
X119179185Y-67437000D01*
X119160497Y-67259197D01*
X119105250Y-67089165D01*
X119015859Y-66934335D01*
X118969003Y-66882296D01*
X118896235Y-66801478D01*
X118896232Y-66801476D01*
X118896231Y-66801475D01*
X118896230Y-66801474D01*
X118751593Y-66696388D01*
X118588267Y-66623671D01*
X118588265Y-66623670D01*
X118460594Y-66596533D01*
X118413391Y-66586500D01*
X118234609Y-66586500D01*
X118203954Y-66593015D01*
X118059733Y-66623670D01*
X117896412Y-66696385D01*
X117894957Y-66697441D01*
X117888879Y-66701857D01*
X117823073Y-66725333D01*
X117755020Y-66709505D01*
X117743112Y-66701851D01*
X117735592Y-66696387D01*
X117633834Y-66651082D01*
X117572267Y-66623671D01*
X117572265Y-66623670D01*
X117444594Y-66596533D01*
X117397391Y-66586500D01*
X117218609Y-66586500D01*
X117187954Y-66593015D01*
X117043733Y-66623670D01*
X117043728Y-66623672D01*
X116880408Y-66696387D01*
X116735768Y-66801475D01*
X116616140Y-66934336D01*
X116526750Y-67089164D01*
X116526747Y-67089170D01*
X116471504Y-67259192D01*
X116471503Y-67259194D01*
X116452815Y-67437000D01*
X97814704Y-67437000D01*
X97933859Y-67304665D01*
X98023250Y-67149835D01*
X98078497Y-66979803D01*
X98097185Y-66802000D01*
X98078497Y-66624197D01*
X98023250Y-66454165D01*
X97966573Y-66355998D01*
X97950101Y-66288100D01*
X97966573Y-66232001D01*
X98023250Y-66133835D01*
X98078497Y-65963803D01*
X98097185Y-65786000D01*
X118611815Y-65786000D01*
X118630503Y-65963805D01*
X118630504Y-65963807D01*
X118685747Y-66133829D01*
X118685750Y-66133835D01*
X118775141Y-66288665D01*
X118816812Y-66334946D01*
X118894764Y-66421521D01*
X118894767Y-66421523D01*
X118894770Y-66421526D01*
X119039407Y-66526612D01*
X119202733Y-66599329D01*
X119377609Y-66636500D01*
X119377610Y-66636500D01*
X119556389Y-66636500D01*
X119556391Y-66636500D01*
X119731267Y-66599329D01*
X119894593Y-66526612D01*
X119902112Y-66521148D01*
X119967918Y-66497667D01*
X120035972Y-66513491D01*
X120047887Y-66521148D01*
X120055407Y-66526612D01*
X120218733Y-66599329D01*
X120393609Y-66636500D01*
X120393610Y-66636500D01*
X120523494Y-66636500D01*
X120590533Y-66656185D01*
X120636288Y-66708989D01*
X120646814Y-66773460D01*
X120643870Y-66801474D01*
X120643815Y-66802000D01*
X120662503Y-66979805D01*
X120662504Y-66979807D01*
X120717747Y-67149829D01*
X120717750Y-67149835D01*
X120807141Y-67304665D01*
X120848812Y-67350946D01*
X120926764Y-67437521D01*
X120926767Y-67437523D01*
X120926770Y-67437526D01*
X121071407Y-67542612D01*
X121234733Y-67615329D01*
X121409609Y-67652500D01*
X121409610Y-67652500D01*
X121588389Y-67652500D01*
X121588391Y-67652500D01*
X121763267Y-67615329D01*
X121926593Y-67542612D01*
X122071230Y-67437526D01*
X122190859Y-67304665D01*
X122280250Y-67149835D01*
X122335497Y-66979803D01*
X122354185Y-66802000D01*
X122335497Y-66624197D01*
X122280250Y-66454165D01*
X122190859Y-66299335D01*
X122130230Y-66232000D01*
X122071235Y-66166478D01*
X122071232Y-66166476D01*
X122071231Y-66166475D01*
X122071230Y-66166474D01*
X121926593Y-66061388D01*
X121763267Y-65988671D01*
X121763265Y-65988670D01*
X121635594Y-65961533D01*
X121588391Y-65951500D01*
X121458506Y-65951500D01*
X121391467Y-65931815D01*
X121345712Y-65879011D01*
X121335185Y-65814539D01*
X121338185Y-65786000D01*
X121319497Y-65608197D01*
X121277135Y-65477820D01*
X121264252Y-65438170D01*
X121264249Y-65438164D01*
X121177790Y-65288412D01*
X121174859Y-65283335D01*
X121119257Y-65221583D01*
X121055235Y-65150478D01*
X121055232Y-65150476D01*
X121055231Y-65150475D01*
X121055230Y-65150474D01*
X120910593Y-65045388D01*
X120747267Y-64972671D01*
X120747265Y-64972670D01*
X120619594Y-64945533D01*
X120572391Y-64935500D01*
X120393609Y-64935500D01*
X120362954Y-64942015D01*
X120218733Y-64972670D01*
X120055412Y-65045385D01*
X120053957Y-65046441D01*
X120047879Y-65050857D01*
X119982073Y-65074333D01*
X119914020Y-65058505D01*
X119902112Y-65050851D01*
X119894592Y-65045387D01*
X119772051Y-64990829D01*
X119731267Y-64972671D01*
X119731265Y-64972670D01*
X119603594Y-64945533D01*
X119556391Y-64935500D01*
X119377609Y-64935500D01*
X119346954Y-64942015D01*
X119202733Y-64972670D01*
X119202728Y-64972672D01*
X119039408Y-65045387D01*
X118894768Y-65150475D01*
X118775140Y-65283336D01*
X118685750Y-65438164D01*
X118685747Y-65438170D01*
X118630504Y-65608192D01*
X118630503Y-65608194D01*
X118611815Y-65786000D01*
X98097185Y-65786000D01*
X98078497Y-65608197D01*
X98036135Y-65477820D01*
X98023252Y-65438170D01*
X98023249Y-65438164D01*
X97930610Y-65277707D01*
X97932881Y-65276395D01*
X97913322Y-65221583D01*
X97929145Y-65153529D01*
X97930858Y-65150863D01*
X97936245Y-65141531D01*
X98023250Y-64990835D01*
X98078497Y-64820803D01*
X98095008Y-64663713D01*
X123704500Y-64663713D01*
X123704500Y-64876286D01*
X123735867Y-65074333D01*
X123737754Y-65086243D01*
X123801793Y-65283335D01*
X123803444Y-65288414D01*
X123899951Y-65477820D01*
X124024890Y-65649786D01*
X124175213Y-65800109D01*
X124347179Y-65925048D01*
X124347181Y-65925049D01*
X124347184Y-65925051D01*
X124536588Y-66021557D01*
X124738757Y-66087246D01*
X124948713Y-66120500D01*
X124948714Y-66120500D01*
X125161286Y-66120500D01*
X125161287Y-66120500D01*
X125371243Y-66087246D01*
X125573412Y-66021557D01*
X125762816Y-65925051D01*
X125826185Y-65879011D01*
X125934786Y-65800109D01*
X125934788Y-65800106D01*
X125934792Y-65800104D01*
X126085104Y-65649792D01*
X126085106Y-65649788D01*
X126085109Y-65649786D01*
X126210048Y-65477820D01*
X126210047Y-65477820D01*
X126210051Y-65477816D01*
X126306557Y-65288412D01*
X126372246Y-65086243D01*
X126405500Y-64876287D01*
X126405500Y-64663713D01*
X128784500Y-64663713D01*
X128784500Y-64876286D01*
X128815867Y-65074333D01*
X128817754Y-65086243D01*
X128881793Y-65283335D01*
X128883444Y-65288414D01*
X128979951Y-65477820D01*
X129104890Y-65649786D01*
X129255213Y-65800109D01*
X129427179Y-65925048D01*
X129427181Y-65925049D01*
X129427184Y-65925051D01*
X129616588Y-66021557D01*
X129818757Y-66087246D01*
X130028713Y-66120500D01*
X130028714Y-66120500D01*
X130241286Y-66120500D01*
X130241287Y-66120500D01*
X130451243Y-66087246D01*
X130653412Y-66021557D01*
X130842816Y-65925051D01*
X130906185Y-65879011D01*
X131014786Y-65800109D01*
X131014788Y-65800106D01*
X131014792Y-65800104D01*
X131165104Y-65649792D01*
X131165106Y-65649788D01*
X131165109Y-65649786D01*
X131290048Y-65477820D01*
X131290047Y-65477820D01*
X131290051Y-65477816D01*
X131386557Y-65288412D01*
X131452246Y-65086243D01*
X131485500Y-64876287D01*
X131485500Y-64663713D01*
X131452246Y-64453757D01*
X131386557Y-64251588D01*
X131290051Y-64062184D01*
X131290049Y-64062181D01*
X131290048Y-64062179D01*
X131165109Y-63890213D01*
X131014786Y-63739890D01*
X130842820Y-63614951D01*
X130653414Y-63518444D01*
X130653413Y-63518443D01*
X130653412Y-63518443D01*
X130451243Y-63452754D01*
X130451241Y-63452753D01*
X130451240Y-63452753D01*
X130289957Y-63427208D01*
X130241287Y-63419500D01*
X130028713Y-63419500D01*
X129980042Y-63427208D01*
X129818760Y-63452753D01*
X129616585Y-63518444D01*
X129427179Y-63614951D01*
X129255213Y-63739890D01*
X129104890Y-63890213D01*
X128979951Y-64062179D01*
X128883444Y-64251585D01*
X128817753Y-64453760D01*
X128784500Y-64663713D01*
X126405500Y-64663713D01*
X126372246Y-64453757D01*
X126306557Y-64251588D01*
X126210051Y-64062184D01*
X126210049Y-64062181D01*
X126210048Y-64062179D01*
X126085109Y-63890213D01*
X125934786Y-63739890D01*
X125762820Y-63614951D01*
X125573414Y-63518444D01*
X125573413Y-63518443D01*
X125573412Y-63518443D01*
X125371243Y-63452754D01*
X125371241Y-63452753D01*
X125371240Y-63452753D01*
X125209957Y-63427208D01*
X125161287Y-63419500D01*
X124948713Y-63419500D01*
X124900042Y-63427208D01*
X124738760Y-63452753D01*
X124536585Y-63518444D01*
X124347179Y-63614951D01*
X124175213Y-63739890D01*
X124024890Y-63890213D01*
X123899951Y-64062179D01*
X123803444Y-64251585D01*
X123737753Y-64453760D01*
X123704500Y-64663713D01*
X98095008Y-64663713D01*
X98097185Y-64643000D01*
X98078497Y-64465197D01*
X98023250Y-64295165D01*
X97933859Y-64140335D01*
X97930610Y-64134707D01*
X97932881Y-64133395D01*
X97913322Y-64078583D01*
X97929145Y-64010529D01*
X97930858Y-64007863D01*
X97936245Y-63998531D01*
X98023250Y-63847835D01*
X98078497Y-63677803D01*
X98097185Y-63500000D01*
X98078497Y-63322197D01*
X98023250Y-63152165D01*
X97966573Y-63053998D01*
X97950101Y-62986100D01*
X97966573Y-62930001D01*
X98023250Y-62831835D01*
X98078497Y-62661803D01*
X98097185Y-62484000D01*
X98078497Y-62306197D01*
X98023250Y-62136165D01*
X98020601Y-62131577D01*
X126344500Y-62131577D01*
X126344500Y-62328422D01*
X126375290Y-62522826D01*
X126436117Y-62710029D01*
X126498178Y-62831829D01*
X126525476Y-62885405D01*
X126641172Y-63044646D01*
X126780354Y-63183828D01*
X126939595Y-63299524D01*
X126984084Y-63322192D01*
X127114970Y-63388882D01*
X127114972Y-63388882D01*
X127114975Y-63388884D01*
X127209201Y-63419500D01*
X127302173Y-63449709D01*
X127496578Y-63480500D01*
X127496583Y-63480500D01*
X127693422Y-63480500D01*
X127887826Y-63449709D01*
X128075025Y-63388884D01*
X128250405Y-63299524D01*
X128409646Y-63183828D01*
X128548828Y-63044646D01*
X128664524Y-62885405D01*
X128753884Y-62710025D01*
X128814709Y-62522826D01*
X128845500Y-62328422D01*
X128845500Y-62131577D01*
X128814709Y-61937173D01*
X128758777Y-61765035D01*
X128753884Y-61749975D01*
X128753882Y-61749972D01*
X128753882Y-61749970D01*
X128664523Y-61574594D01*
X128548828Y-61415354D01*
X128409646Y-61276172D01*
X128250405Y-61160476D01*
X128075029Y-61071117D01*
X127887826Y-61010290D01*
X127693422Y-60979500D01*
X127693417Y-60979500D01*
X127496583Y-60979500D01*
X127496578Y-60979500D01*
X127302173Y-61010290D01*
X127114970Y-61071117D01*
X126939594Y-61160476D01*
X126848741Y-61226485D01*
X126780354Y-61276172D01*
X126780352Y-61276174D01*
X126780351Y-61276174D01*
X126641174Y-61415351D01*
X126641174Y-61415352D01*
X126641172Y-61415354D01*
X126639831Y-61417200D01*
X126525476Y-61574594D01*
X126436117Y-61749970D01*
X126375290Y-61937173D01*
X126344500Y-62131577D01*
X98020601Y-62131577D01*
X97939208Y-61990601D01*
X97922736Y-61922702D01*
X97939206Y-61866607D01*
X97997850Y-61765035D01*
X98053097Y-61595003D01*
X98071785Y-61417200D01*
X98053097Y-61239397D01*
X98025473Y-61154381D01*
X97997852Y-61069370D01*
X97997850Y-61069367D01*
X97997850Y-61069365D01*
X97941173Y-60971198D01*
X97924701Y-60903300D01*
X97941173Y-60847201D01*
X97997850Y-60749035D01*
X98053097Y-60579003D01*
X98071785Y-60401200D01*
X98053097Y-60223397D01*
X98003750Y-60071523D01*
X97997852Y-60053370D01*
X97997849Y-60053364D01*
X97970644Y-60006243D01*
X97908459Y-59898535D01*
X97861603Y-59846496D01*
X97788835Y-59765678D01*
X97788832Y-59765676D01*
X97788831Y-59765675D01*
X97788830Y-59765674D01*
X97644193Y-59660588D01*
X97480867Y-59587871D01*
X97480865Y-59587870D01*
X97353194Y-59560733D01*
X97305991Y-59550700D01*
X97127209Y-59550700D01*
X97096554Y-59557215D01*
X96952333Y-59587870D01*
X96952328Y-59587872D01*
X96789008Y-59660587D01*
X96644368Y-59765675D01*
X96524740Y-59898536D01*
X96435350Y-60053364D01*
X96435347Y-60053370D01*
X96380104Y-60223392D01*
X96380103Y-60223394D01*
X96361415Y-60401200D01*
X64000500Y-60401200D01*
X64000500Y-58420000D01*
X105149815Y-58420000D01*
X105168503Y-58597805D01*
X105168504Y-58597807D01*
X105223747Y-58767829D01*
X105223749Y-58767832D01*
X105223750Y-58767835D01*
X105248214Y-58810208D01*
X105280426Y-58866001D01*
X105296898Y-58933901D01*
X105280426Y-58989999D01*
X105223749Y-59088167D01*
X105223747Y-59088170D01*
X105168504Y-59258192D01*
X105168503Y-59258194D01*
X105149815Y-59436000D01*
X105168503Y-59613805D01*
X105168504Y-59613807D01*
X105223747Y-59783829D01*
X105223750Y-59783835D01*
X105313141Y-59938665D01*
X105354812Y-59984946D01*
X105432764Y-60071521D01*
X105432767Y-60071523D01*
X105432770Y-60071526D01*
X105577407Y-60176612D01*
X105740733Y-60249329D01*
X105915609Y-60286500D01*
X105915610Y-60286500D01*
X106094389Y-60286500D01*
X106094391Y-60286500D01*
X106269267Y-60249329D01*
X106432593Y-60176612D01*
X106577230Y-60071526D01*
X106696859Y-59938665D01*
X106786250Y-59783835D01*
X106841497Y-59613803D01*
X106844660Y-59583713D01*
X123704500Y-59583713D01*
X123704500Y-59796286D01*
X123727050Y-59938665D01*
X123737754Y-60006243D01*
X123758964Y-60071521D01*
X123803444Y-60208414D01*
X123899951Y-60397820D01*
X124024890Y-60569786D01*
X124175213Y-60720109D01*
X124347179Y-60845048D01*
X124347181Y-60845049D01*
X124347184Y-60845051D01*
X124536588Y-60941557D01*
X124738757Y-61007246D01*
X124948713Y-61040500D01*
X124948714Y-61040500D01*
X125161286Y-61040500D01*
X125161287Y-61040500D01*
X125371243Y-61007246D01*
X125573412Y-60941557D01*
X125762816Y-60845051D01*
X125894976Y-60749032D01*
X125934786Y-60720109D01*
X125934788Y-60720106D01*
X125934792Y-60720104D01*
X126085104Y-60569792D01*
X126085106Y-60569788D01*
X126085109Y-60569786D01*
X126210048Y-60397820D01*
X126210047Y-60397820D01*
X126210051Y-60397816D01*
X126306557Y-60208412D01*
X126372246Y-60006243D01*
X126405500Y-59796287D01*
X126405500Y-59583713D01*
X128784500Y-59583713D01*
X128784500Y-59796286D01*
X128807050Y-59938665D01*
X128817754Y-60006243D01*
X128838964Y-60071521D01*
X128883444Y-60208414D01*
X128979951Y-60397820D01*
X129104890Y-60569786D01*
X129255213Y-60720109D01*
X129427179Y-60845048D01*
X129427181Y-60845049D01*
X129427184Y-60845051D01*
X129616588Y-60941557D01*
X129818757Y-61007246D01*
X130028713Y-61040500D01*
X130028714Y-61040500D01*
X130241286Y-61040500D01*
X130241287Y-61040500D01*
X130451243Y-61007246D01*
X130653412Y-60941557D01*
X130842816Y-60845051D01*
X130974976Y-60749032D01*
X131014786Y-60720109D01*
X131014788Y-60720106D01*
X131014792Y-60720104D01*
X131165104Y-60569792D01*
X131165106Y-60569788D01*
X131165109Y-60569786D01*
X131290048Y-60397820D01*
X131290047Y-60397820D01*
X131290051Y-60397816D01*
X131386557Y-60208412D01*
X131452246Y-60006243D01*
X131485500Y-59796287D01*
X131485500Y-59583713D01*
X131452246Y-59373757D01*
X131386557Y-59171588D01*
X131290051Y-58982184D01*
X131290049Y-58982181D01*
X131290048Y-58982179D01*
X131165109Y-58810213D01*
X131014786Y-58659890D01*
X130842820Y-58534951D01*
X130653414Y-58438444D01*
X130653413Y-58438443D01*
X130653412Y-58438443D01*
X130451243Y-58372754D01*
X130451241Y-58372753D01*
X130451240Y-58372753D01*
X130289957Y-58347208D01*
X130241287Y-58339500D01*
X130028713Y-58339500D01*
X129980042Y-58347208D01*
X129818760Y-58372753D01*
X129616585Y-58438444D01*
X129427179Y-58534951D01*
X129255213Y-58659890D01*
X129104890Y-58810213D01*
X128979951Y-58982179D01*
X128883444Y-59171585D01*
X128817753Y-59373760D01*
X128784500Y-59583713D01*
X126405500Y-59583713D01*
X126372246Y-59373757D01*
X126306557Y-59171588D01*
X126210051Y-58982184D01*
X126210049Y-58982181D01*
X126210048Y-58982179D01*
X126085109Y-58810213D01*
X125934786Y-58659890D01*
X125762820Y-58534951D01*
X125573414Y-58438444D01*
X125573413Y-58438443D01*
X125573412Y-58438443D01*
X125371243Y-58372754D01*
X125371241Y-58372753D01*
X125371240Y-58372753D01*
X125209957Y-58347208D01*
X125161287Y-58339500D01*
X124948713Y-58339500D01*
X124900042Y-58347208D01*
X124738760Y-58372753D01*
X124536585Y-58438444D01*
X124347179Y-58534951D01*
X124175213Y-58659890D01*
X124024890Y-58810213D01*
X123899951Y-58982179D01*
X123803444Y-59171585D01*
X123737753Y-59373760D01*
X123704500Y-59583713D01*
X106844660Y-59583713D01*
X106860185Y-59436000D01*
X106841497Y-59258197D01*
X106786250Y-59088165D01*
X106729573Y-58989998D01*
X106713101Y-58922100D01*
X106729573Y-58866001D01*
X106786250Y-58767835D01*
X106841497Y-58597803D01*
X106860185Y-58420000D01*
X106841497Y-58242197D01*
X106786250Y-58072165D01*
X106696859Y-57917335D01*
X106650003Y-57865296D01*
X106577235Y-57784478D01*
X106577232Y-57784476D01*
X106577231Y-57784475D01*
X106577230Y-57784474D01*
X106432593Y-57679388D01*
X106269267Y-57606671D01*
X106269265Y-57606670D01*
X106141594Y-57579533D01*
X106094391Y-57569500D01*
X105915609Y-57569500D01*
X105884954Y-57576015D01*
X105740733Y-57606670D01*
X105740728Y-57606672D01*
X105577408Y-57679387D01*
X105432768Y-57784475D01*
X105313140Y-57917336D01*
X105223750Y-58072164D01*
X105223747Y-58072170D01*
X105168504Y-58242192D01*
X105168503Y-58242194D01*
X105149815Y-58420000D01*
X64000500Y-58420000D01*
X64000500Y-40766998D01*
X81121532Y-40766998D01*
X81121532Y-40767001D01*
X81141364Y-40993686D01*
X81141366Y-40993697D01*
X81200258Y-41213488D01*
X81200261Y-41213497D01*
X81296431Y-41419732D01*
X81296432Y-41419734D01*
X81426954Y-41606141D01*
X81587858Y-41767045D01*
X81587861Y-41767047D01*
X81774266Y-41897568D01*
X81980504Y-41993739D01*
X82200308Y-42052635D01*
X82344144Y-42065219D01*
X82426998Y-42072468D01*
X82427000Y-42072468D01*
X82427002Y-42072468D01*
X82483673Y-42067509D01*
X82653692Y-42052635D01*
X82873496Y-41993739D01*
X83079734Y-41897568D01*
X83266139Y-41767047D01*
X83427047Y-41606139D01*
X83557568Y-41419734D01*
X83584618Y-41361724D01*
X83630790Y-41309285D01*
X83697983Y-41290133D01*
X83764865Y-41310348D01*
X83809382Y-41361725D01*
X83836429Y-41419728D01*
X83836432Y-41419734D01*
X83966954Y-41606141D01*
X84127858Y-41767045D01*
X84127861Y-41767047D01*
X84314266Y-41897568D01*
X84520504Y-41993739D01*
X84740308Y-42052635D01*
X84884144Y-42065219D01*
X84966998Y-42072468D01*
X84967000Y-42072468D01*
X84967002Y-42072468D01*
X85023673Y-42067509D01*
X85193692Y-42052635D01*
X85413496Y-41993739D01*
X85619734Y-41897568D01*
X85806139Y-41767047D01*
X85967047Y-41606139D01*
X86097568Y-41419734D01*
X86124618Y-41361724D01*
X86170790Y-41309285D01*
X86237983Y-41290133D01*
X86304865Y-41310348D01*
X86349382Y-41361725D01*
X86376429Y-41419728D01*
X86376432Y-41419734D01*
X86506954Y-41606141D01*
X86667858Y-41767045D01*
X86667861Y-41767047D01*
X86854266Y-41897568D01*
X87060504Y-41993739D01*
X87280308Y-42052635D01*
X87424144Y-42065219D01*
X87506998Y-42072468D01*
X87507000Y-42072468D01*
X87507002Y-42072468D01*
X87563673Y-42067509D01*
X87733692Y-42052635D01*
X87953496Y-41993739D01*
X88159734Y-41897568D01*
X88346139Y-41767047D01*
X88507047Y-41606139D01*
X88637568Y-41419734D01*
X88664618Y-41361724D01*
X88710790Y-41309285D01*
X88777983Y-41290133D01*
X88844865Y-41310348D01*
X88889382Y-41361725D01*
X88916429Y-41419728D01*
X88916432Y-41419734D01*
X89046954Y-41606141D01*
X89207858Y-41767045D01*
X89207861Y-41767047D01*
X89394266Y-41897568D01*
X89600504Y-41993739D01*
X89820308Y-42052635D01*
X89964144Y-42065219D01*
X90046998Y-42072468D01*
X90047000Y-42072468D01*
X90047002Y-42072468D01*
X90103673Y-42067509D01*
X90273692Y-42052635D01*
X90493496Y-41993739D01*
X90699734Y-41897568D01*
X90886139Y-41767047D01*
X91047047Y-41606139D01*
X91177568Y-41419734D01*
X91204618Y-41361724D01*
X91250790Y-41309285D01*
X91317983Y-41290133D01*
X91384865Y-41310348D01*
X91429382Y-41361725D01*
X91456429Y-41419728D01*
X91456432Y-41419734D01*
X91586954Y-41606141D01*
X91747858Y-41767045D01*
X91747861Y-41767047D01*
X91934266Y-41897568D01*
X92140504Y-41993739D01*
X92360308Y-42052635D01*
X92504144Y-42065219D01*
X92586998Y-42072468D01*
X92587000Y-42072468D01*
X92587002Y-42072468D01*
X92643673Y-42067509D01*
X92813692Y-42052635D01*
X93033496Y-41993739D01*
X93239734Y-41897568D01*
X93426139Y-41767047D01*
X93587047Y-41606139D01*
X93717568Y-41419734D01*
X93744618Y-41361724D01*
X93790790Y-41309285D01*
X93857983Y-41290133D01*
X93924865Y-41310348D01*
X93969382Y-41361725D01*
X93996429Y-41419728D01*
X93996432Y-41419734D01*
X94126954Y-41606141D01*
X94287858Y-41767045D01*
X94287861Y-41767047D01*
X94474266Y-41897568D01*
X94680504Y-41993739D01*
X94900308Y-42052635D01*
X95044144Y-42065219D01*
X95126998Y-42072468D01*
X95127000Y-42072468D01*
X95127002Y-42072468D01*
X95183673Y-42067509D01*
X95353692Y-42052635D01*
X95573496Y-41993739D01*
X95779734Y-41897568D01*
X95966139Y-41767047D01*
X96127047Y-41606139D01*
X96257568Y-41419734D01*
X96284618Y-41361724D01*
X96330790Y-41309285D01*
X96397983Y-41290133D01*
X96464865Y-41310348D01*
X96509382Y-41361725D01*
X96536429Y-41419728D01*
X96536432Y-41419734D01*
X96666954Y-41606141D01*
X96827858Y-41767045D01*
X96827861Y-41767047D01*
X97014266Y-41897568D01*
X97220504Y-41993739D01*
X97440308Y-42052635D01*
X97584144Y-42065219D01*
X97666998Y-42072468D01*
X97667000Y-42072468D01*
X97667002Y-42072468D01*
X97723673Y-42067509D01*
X97893692Y-42052635D01*
X98113496Y-41993739D01*
X98319734Y-41897568D01*
X98506139Y-41767047D01*
X98667047Y-41606139D01*
X98797568Y-41419734D01*
X98824618Y-41361724D01*
X98870790Y-41309285D01*
X98937983Y-41290133D01*
X99004865Y-41310348D01*
X99049382Y-41361725D01*
X99076429Y-41419728D01*
X99076432Y-41419734D01*
X99206954Y-41606141D01*
X99367858Y-41767045D01*
X99367861Y-41767047D01*
X99554266Y-41897568D01*
X99760504Y-41993739D01*
X99980308Y-42052635D01*
X100124144Y-42065219D01*
X100206998Y-42072468D01*
X100207000Y-42072468D01*
X100207002Y-42072468D01*
X100263673Y-42067509D01*
X100433692Y-42052635D01*
X100653496Y-41993739D01*
X100859734Y-41897568D01*
X101046139Y-41767047D01*
X101207047Y-41606139D01*
X101337568Y-41419734D01*
X101364618Y-41361724D01*
X101410790Y-41309285D01*
X101477983Y-41290133D01*
X101544865Y-41310348D01*
X101589382Y-41361725D01*
X101616429Y-41419728D01*
X101616432Y-41419734D01*
X101746954Y-41606141D01*
X101907858Y-41767045D01*
X101907861Y-41767047D01*
X102094266Y-41897568D01*
X102300504Y-41993739D01*
X102520308Y-42052635D01*
X102664144Y-42065219D01*
X102746998Y-42072468D01*
X102747000Y-42072468D01*
X102747002Y-42072468D01*
X102803673Y-42067509D01*
X102973692Y-42052635D01*
X103193496Y-41993739D01*
X103399734Y-41897568D01*
X103586139Y-41767047D01*
X103747047Y-41606139D01*
X103877568Y-41419734D01*
X103904618Y-41361724D01*
X103950790Y-41309285D01*
X104017983Y-41290133D01*
X104084865Y-41310348D01*
X104129382Y-41361725D01*
X104156429Y-41419728D01*
X104156432Y-41419734D01*
X104286954Y-41606141D01*
X104447858Y-41767045D01*
X104447861Y-41767047D01*
X104634266Y-41897568D01*
X104840504Y-41993739D01*
X105060308Y-42052635D01*
X105204144Y-42065219D01*
X105286998Y-42072468D01*
X105287000Y-42072468D01*
X105287002Y-42072468D01*
X105343673Y-42067509D01*
X105513692Y-42052635D01*
X105733496Y-41993739D01*
X105939734Y-41897568D01*
X106126139Y-41767047D01*
X106287047Y-41606139D01*
X106417568Y-41419734D01*
X106513739Y-41213496D01*
X106572635Y-40993692D01*
X106592468Y-40767000D01*
X106592468Y-40766998D01*
X108041532Y-40766998D01*
X108041532Y-40767001D01*
X108061364Y-40993686D01*
X108061366Y-40993697D01*
X108120258Y-41213488D01*
X108120261Y-41213497D01*
X108216431Y-41419732D01*
X108216432Y-41419734D01*
X108346954Y-41606141D01*
X108507858Y-41767045D01*
X108507861Y-41767047D01*
X108694266Y-41897568D01*
X108900504Y-41993739D01*
X109120308Y-42052635D01*
X109264144Y-42065219D01*
X109346998Y-42072468D01*
X109347000Y-42072468D01*
X109347002Y-42072468D01*
X109403673Y-42067509D01*
X109573692Y-42052635D01*
X109793496Y-41993739D01*
X109999734Y-41897568D01*
X110186139Y-41767047D01*
X110347047Y-41606139D01*
X110477568Y-41419734D01*
X110504618Y-41361724D01*
X110550790Y-41309285D01*
X110617983Y-41290133D01*
X110684865Y-41310348D01*
X110729382Y-41361725D01*
X110756429Y-41419728D01*
X110756432Y-41419734D01*
X110886954Y-41606141D01*
X111047858Y-41767045D01*
X111047861Y-41767047D01*
X111234266Y-41897568D01*
X111440504Y-41993739D01*
X111660308Y-42052635D01*
X111804144Y-42065219D01*
X111886998Y-42072468D01*
X111887000Y-42072468D01*
X111887002Y-42072468D01*
X111943673Y-42067509D01*
X112113692Y-42052635D01*
X112333496Y-41993739D01*
X112539734Y-41897568D01*
X112726139Y-41767047D01*
X112887047Y-41606139D01*
X113017568Y-41419734D01*
X113044618Y-41361724D01*
X113090790Y-41309285D01*
X113157983Y-41290133D01*
X113224865Y-41310348D01*
X113269382Y-41361725D01*
X113296429Y-41419728D01*
X113296432Y-41419734D01*
X113426954Y-41606141D01*
X113587858Y-41767045D01*
X113587861Y-41767047D01*
X113774266Y-41897568D01*
X113980504Y-41993739D01*
X114200308Y-42052635D01*
X114344144Y-42065219D01*
X114426998Y-42072468D01*
X114427000Y-42072468D01*
X114427002Y-42072468D01*
X114483673Y-42067509D01*
X114653692Y-42052635D01*
X114873496Y-41993739D01*
X115079734Y-41897568D01*
X115266139Y-41767047D01*
X115427047Y-41606139D01*
X115557568Y-41419734D01*
X115584618Y-41361724D01*
X115630790Y-41309285D01*
X115697983Y-41290133D01*
X115764865Y-41310348D01*
X115809382Y-41361725D01*
X115836429Y-41419728D01*
X115836432Y-41419734D01*
X115966954Y-41606141D01*
X116127858Y-41767045D01*
X116127861Y-41767047D01*
X116314266Y-41897568D01*
X116520504Y-41993739D01*
X116740308Y-42052635D01*
X116884144Y-42065219D01*
X116966998Y-42072468D01*
X116967000Y-42072468D01*
X116967002Y-42072468D01*
X117023673Y-42067509D01*
X117193692Y-42052635D01*
X117413496Y-41993739D01*
X117619734Y-41897568D01*
X117806139Y-41767047D01*
X117967047Y-41606139D01*
X118097568Y-41419734D01*
X118124618Y-41361724D01*
X118170790Y-41309285D01*
X118237983Y-41290133D01*
X118304865Y-41310348D01*
X118349382Y-41361725D01*
X118376429Y-41419728D01*
X118376432Y-41419734D01*
X118506954Y-41606141D01*
X118667858Y-41767045D01*
X118667861Y-41767047D01*
X118854266Y-41897568D01*
X119060504Y-41993739D01*
X119280308Y-42052635D01*
X119424144Y-42065219D01*
X119506998Y-42072468D01*
X119506999Y-42072468D01*
X119506999Y-42072467D01*
X119507000Y-42072468D01*
X119589848Y-42065219D01*
X119658345Y-42078985D01*
X119708529Y-42127600D01*
X119724463Y-42195628D01*
X119701088Y-42261472D01*
X119688335Y-42276428D01*
X114312286Y-47652478D01*
X114312283Y-47652481D01*
X114266218Y-47698544D01*
X114244513Y-47715854D01*
X114178736Y-47757185D01*
X114051184Y-47884737D01*
X113955211Y-48037476D01*
X113895631Y-48207745D01*
X113895630Y-48207750D01*
X113875435Y-48386996D01*
X113875435Y-48387003D01*
X113895630Y-48566249D01*
X113895631Y-48566254D01*
X113955211Y-48736523D01*
X114051184Y-48889262D01*
X114178738Y-49016816D01*
X114331478Y-49112789D01*
X114501745Y-49172368D01*
X114501750Y-49172369D01*
X114680996Y-49192565D01*
X114681000Y-49192565D01*
X114681004Y-49192565D01*
X114860249Y-49172369D01*
X114860252Y-49172368D01*
X114860255Y-49172368D01*
X115030522Y-49112789D01*
X115183262Y-49016816D01*
X115310816Y-48889262D01*
X115406789Y-48736522D01*
X115466368Y-48566255D01*
X115486565Y-48387000D01*
X115471952Y-48257306D01*
X115484006Y-48188485D01*
X115507488Y-48155745D01*
X121604294Y-42058939D01*
X121665615Y-42025456D01*
X121724066Y-42026847D01*
X121743604Y-42032082D01*
X121820308Y-42052635D01*
X121964144Y-42065219D01*
X122046998Y-42072468D01*
X122047000Y-42072468D01*
X122047002Y-42072468D01*
X122103673Y-42067509D01*
X122273692Y-42052635D01*
X122493496Y-41993739D01*
X122699734Y-41897568D01*
X122886139Y-41767047D01*
X123047047Y-41606139D01*
X123177568Y-41419734D01*
X123204618Y-41361724D01*
X123250790Y-41309285D01*
X123317983Y-41290133D01*
X123384865Y-41310348D01*
X123429382Y-41361725D01*
X123456429Y-41419728D01*
X123456432Y-41419734D01*
X123586954Y-41606141D01*
X123747858Y-41767045D01*
X123747861Y-41767047D01*
X123934266Y-41897568D01*
X124140504Y-41993739D01*
X124360308Y-42052635D01*
X124504144Y-42065219D01*
X124586998Y-42072468D01*
X124587000Y-42072468D01*
X124587002Y-42072468D01*
X124643673Y-42067509D01*
X124813692Y-42052635D01*
X125033496Y-41993739D01*
X125239734Y-41897568D01*
X125426139Y-41767047D01*
X125587047Y-41606139D01*
X125717568Y-41419734D01*
X125744618Y-41361724D01*
X125790790Y-41309285D01*
X125857983Y-41290133D01*
X125924865Y-41310348D01*
X125969382Y-41361725D01*
X125996429Y-41419728D01*
X125996432Y-41419734D01*
X126126954Y-41606141D01*
X126287858Y-41767045D01*
X126287861Y-41767047D01*
X126474266Y-41897568D01*
X126680504Y-41993739D01*
X126900308Y-42052635D01*
X127044144Y-42065219D01*
X127126998Y-42072468D01*
X127127000Y-42072468D01*
X127127002Y-42072468D01*
X127183673Y-42067509D01*
X127353692Y-42052635D01*
X127573496Y-41993739D01*
X127779734Y-41897568D01*
X127966139Y-41767047D01*
X128127047Y-41606139D01*
X128257568Y-41419734D01*
X128353739Y-41213496D01*
X128412635Y-40993692D01*
X128432468Y-40767000D01*
X128412635Y-40540308D01*
X128353739Y-40320504D01*
X128257568Y-40114266D01*
X128127047Y-39927861D01*
X128127045Y-39927858D01*
X127966141Y-39766954D01*
X127779734Y-39636432D01*
X127779732Y-39636431D01*
X127573497Y-39540261D01*
X127573488Y-39540258D01*
X127353697Y-39481366D01*
X127353693Y-39481365D01*
X127353692Y-39481365D01*
X127353691Y-39481364D01*
X127353686Y-39481364D01*
X127127002Y-39461532D01*
X127126998Y-39461532D01*
X126900313Y-39481364D01*
X126900302Y-39481366D01*
X126680511Y-39540258D01*
X126680502Y-39540261D01*
X126474267Y-39636431D01*
X126474265Y-39636432D01*
X126287858Y-39766954D01*
X126126954Y-39927858D01*
X125996432Y-40114265D01*
X125996431Y-40114267D01*
X125969382Y-40172275D01*
X125923209Y-40224714D01*
X125856016Y-40243866D01*
X125789135Y-40223650D01*
X125744618Y-40172275D01*
X125717568Y-40114267D01*
X125717567Y-40114265D01*
X125587045Y-39927858D01*
X125426141Y-39766954D01*
X125239734Y-39636432D01*
X125239732Y-39636431D01*
X125033497Y-39540261D01*
X125033488Y-39540258D01*
X124813697Y-39481366D01*
X124813693Y-39481365D01*
X124813692Y-39481365D01*
X124813691Y-39481364D01*
X124813686Y-39481364D01*
X124587002Y-39461532D01*
X124586998Y-39461532D01*
X124360313Y-39481364D01*
X124360302Y-39481366D01*
X124140511Y-39540258D01*
X124140502Y-39540261D01*
X123934267Y-39636431D01*
X123934265Y-39636432D01*
X123747858Y-39766954D01*
X123586954Y-39927858D01*
X123456432Y-40114265D01*
X123456431Y-40114267D01*
X123429382Y-40172275D01*
X123383209Y-40224714D01*
X123316016Y-40243866D01*
X123249135Y-40223650D01*
X123204618Y-40172275D01*
X123177568Y-40114267D01*
X123177567Y-40114265D01*
X123047045Y-39927858D01*
X122886141Y-39766954D01*
X122699734Y-39636432D01*
X122699732Y-39636431D01*
X122493497Y-39540261D01*
X122493488Y-39540258D01*
X122273697Y-39481366D01*
X122273693Y-39481365D01*
X122273692Y-39481365D01*
X122273691Y-39481364D01*
X122273686Y-39481364D01*
X122047002Y-39461532D01*
X122046998Y-39461532D01*
X121820313Y-39481364D01*
X121820302Y-39481366D01*
X121600511Y-39540258D01*
X121600502Y-39540261D01*
X121394267Y-39636431D01*
X121394265Y-39636432D01*
X121207858Y-39766954D01*
X121046954Y-39927858D01*
X120916432Y-40114265D01*
X120916431Y-40114267D01*
X120889382Y-40172275D01*
X120843209Y-40224714D01*
X120776016Y-40243866D01*
X120709135Y-40223650D01*
X120664618Y-40172275D01*
X120637568Y-40114267D01*
X120637567Y-40114265D01*
X120507045Y-39927858D01*
X120346141Y-39766954D01*
X120159734Y-39636432D01*
X120159732Y-39636431D01*
X119953497Y-39540261D01*
X119953488Y-39540258D01*
X119733697Y-39481366D01*
X119733693Y-39481365D01*
X119733692Y-39481365D01*
X119733691Y-39481364D01*
X119733686Y-39481364D01*
X119507002Y-39461532D01*
X119506998Y-39461532D01*
X119280313Y-39481364D01*
X119280302Y-39481366D01*
X119060511Y-39540258D01*
X119060502Y-39540261D01*
X118854267Y-39636431D01*
X118854265Y-39636432D01*
X118667858Y-39766954D01*
X118506954Y-39927858D01*
X118376432Y-40114265D01*
X118376431Y-40114267D01*
X118349382Y-40172275D01*
X118303209Y-40224714D01*
X118236016Y-40243866D01*
X118169135Y-40223650D01*
X118124618Y-40172275D01*
X118097568Y-40114267D01*
X118097567Y-40114265D01*
X117967045Y-39927858D01*
X117806141Y-39766954D01*
X117619734Y-39636432D01*
X117619732Y-39636431D01*
X117413497Y-39540261D01*
X117413488Y-39540258D01*
X117193697Y-39481366D01*
X117193693Y-39481365D01*
X117193692Y-39481365D01*
X117193691Y-39481364D01*
X117193686Y-39481364D01*
X116967002Y-39461532D01*
X116966998Y-39461532D01*
X116740313Y-39481364D01*
X116740302Y-39481366D01*
X116520511Y-39540258D01*
X116520502Y-39540261D01*
X116314267Y-39636431D01*
X116314265Y-39636432D01*
X116127858Y-39766954D01*
X115966954Y-39927858D01*
X115836432Y-40114265D01*
X115836431Y-40114267D01*
X115809382Y-40172275D01*
X115763209Y-40224714D01*
X115696016Y-40243866D01*
X115629135Y-40223650D01*
X115584618Y-40172275D01*
X115557568Y-40114267D01*
X115557567Y-40114265D01*
X115427045Y-39927858D01*
X115266141Y-39766954D01*
X115079734Y-39636432D01*
X115079732Y-39636431D01*
X114873497Y-39540261D01*
X114873488Y-39540258D01*
X114653697Y-39481366D01*
X114653693Y-39481365D01*
X114653692Y-39481365D01*
X114653691Y-39481364D01*
X114653686Y-39481364D01*
X114427002Y-39461532D01*
X114426998Y-39461532D01*
X114200313Y-39481364D01*
X114200302Y-39481366D01*
X113980511Y-39540258D01*
X113980502Y-39540261D01*
X113774267Y-39636431D01*
X113774265Y-39636432D01*
X113587858Y-39766954D01*
X113426954Y-39927858D01*
X113296432Y-40114265D01*
X113296431Y-40114267D01*
X113269382Y-40172275D01*
X113223209Y-40224714D01*
X113156016Y-40243866D01*
X113089135Y-40223650D01*
X113044618Y-40172275D01*
X113017568Y-40114267D01*
X113017567Y-40114265D01*
X112887045Y-39927858D01*
X112726141Y-39766954D01*
X112539734Y-39636432D01*
X112539732Y-39636431D01*
X112333497Y-39540261D01*
X112333488Y-39540258D01*
X112113697Y-39481366D01*
X112113693Y-39481365D01*
X112113692Y-39481365D01*
X112113691Y-39481364D01*
X112113686Y-39481364D01*
X111887002Y-39461532D01*
X111886998Y-39461532D01*
X111660313Y-39481364D01*
X111660302Y-39481366D01*
X111440511Y-39540258D01*
X111440502Y-39540261D01*
X111234267Y-39636431D01*
X111234265Y-39636432D01*
X111047858Y-39766954D01*
X110886954Y-39927858D01*
X110756432Y-40114265D01*
X110756431Y-40114267D01*
X110729382Y-40172275D01*
X110683209Y-40224714D01*
X110616016Y-40243866D01*
X110549135Y-40223650D01*
X110504618Y-40172275D01*
X110477568Y-40114267D01*
X110477567Y-40114265D01*
X110347045Y-39927858D01*
X110186141Y-39766954D01*
X109999734Y-39636432D01*
X109999732Y-39636431D01*
X109793497Y-39540261D01*
X109793488Y-39540258D01*
X109573697Y-39481366D01*
X109573693Y-39481365D01*
X109573692Y-39481365D01*
X109573691Y-39481364D01*
X109573686Y-39481364D01*
X109347002Y-39461532D01*
X109346998Y-39461532D01*
X109120313Y-39481364D01*
X109120302Y-39481366D01*
X108900511Y-39540258D01*
X108900502Y-39540261D01*
X108694267Y-39636431D01*
X108694265Y-39636432D01*
X108507858Y-39766954D01*
X108346954Y-39927858D01*
X108216432Y-40114265D01*
X108216431Y-40114267D01*
X108120261Y-40320502D01*
X108120258Y-40320511D01*
X108061366Y-40540302D01*
X108061364Y-40540313D01*
X108041532Y-40766998D01*
X106592468Y-40766998D01*
X106572635Y-40540308D01*
X106513739Y-40320504D01*
X106417568Y-40114266D01*
X106287047Y-39927861D01*
X106287045Y-39927858D01*
X106126141Y-39766954D01*
X105939734Y-39636432D01*
X105939732Y-39636431D01*
X105733497Y-39540261D01*
X105733488Y-39540258D01*
X105513697Y-39481366D01*
X105513693Y-39481365D01*
X105513692Y-39481365D01*
X105513691Y-39481364D01*
X105513686Y-39481364D01*
X105287002Y-39461532D01*
X105286998Y-39461532D01*
X105060313Y-39481364D01*
X105060302Y-39481366D01*
X104840511Y-39540258D01*
X104840502Y-39540261D01*
X104634267Y-39636431D01*
X104634265Y-39636432D01*
X104447858Y-39766954D01*
X104286954Y-39927858D01*
X104156432Y-40114265D01*
X104156431Y-40114267D01*
X104129382Y-40172275D01*
X104083209Y-40224714D01*
X104016016Y-40243866D01*
X103949135Y-40223650D01*
X103904618Y-40172275D01*
X103877568Y-40114267D01*
X103877567Y-40114265D01*
X103747045Y-39927858D01*
X103586141Y-39766954D01*
X103399734Y-39636432D01*
X103399732Y-39636431D01*
X103193497Y-39540261D01*
X103193488Y-39540258D01*
X102973697Y-39481366D01*
X102973693Y-39481365D01*
X102973692Y-39481365D01*
X102973691Y-39481364D01*
X102973686Y-39481364D01*
X102747002Y-39461532D01*
X102746998Y-39461532D01*
X102520313Y-39481364D01*
X102520302Y-39481366D01*
X102300511Y-39540258D01*
X102300502Y-39540261D01*
X102094267Y-39636431D01*
X102094265Y-39636432D01*
X101907858Y-39766954D01*
X101746954Y-39927858D01*
X101616432Y-40114265D01*
X101616431Y-40114267D01*
X101589382Y-40172275D01*
X101543209Y-40224714D01*
X101476016Y-40243866D01*
X101409135Y-40223650D01*
X101364618Y-40172275D01*
X101337568Y-40114267D01*
X101337567Y-40114265D01*
X101207045Y-39927858D01*
X101046141Y-39766954D01*
X100859734Y-39636432D01*
X100859732Y-39636431D01*
X100653497Y-39540261D01*
X100653488Y-39540258D01*
X100433697Y-39481366D01*
X100433693Y-39481365D01*
X100433692Y-39481365D01*
X100433691Y-39481364D01*
X100433686Y-39481364D01*
X100207002Y-39461532D01*
X100206998Y-39461532D01*
X99980313Y-39481364D01*
X99980302Y-39481366D01*
X99760511Y-39540258D01*
X99760502Y-39540261D01*
X99554267Y-39636431D01*
X99554265Y-39636432D01*
X99367858Y-39766954D01*
X99206954Y-39927858D01*
X99076432Y-40114265D01*
X99076431Y-40114267D01*
X99049382Y-40172275D01*
X99003209Y-40224714D01*
X98936016Y-40243866D01*
X98869135Y-40223650D01*
X98824618Y-40172275D01*
X98797568Y-40114267D01*
X98797567Y-40114265D01*
X98667045Y-39927858D01*
X98506141Y-39766954D01*
X98319734Y-39636432D01*
X98319732Y-39636431D01*
X98113497Y-39540261D01*
X98113488Y-39540258D01*
X97893697Y-39481366D01*
X97893693Y-39481365D01*
X97893692Y-39481365D01*
X97893691Y-39481364D01*
X97893686Y-39481364D01*
X97667002Y-39461532D01*
X97666998Y-39461532D01*
X97440313Y-39481364D01*
X97440302Y-39481366D01*
X97220511Y-39540258D01*
X97220502Y-39540261D01*
X97014267Y-39636431D01*
X97014265Y-39636432D01*
X96827858Y-39766954D01*
X96666954Y-39927858D01*
X96536432Y-40114265D01*
X96536431Y-40114267D01*
X96509382Y-40172275D01*
X96463209Y-40224714D01*
X96396016Y-40243866D01*
X96329135Y-40223650D01*
X96284618Y-40172275D01*
X96257568Y-40114267D01*
X96257567Y-40114265D01*
X96127045Y-39927858D01*
X95966141Y-39766954D01*
X95779734Y-39636432D01*
X95779732Y-39636431D01*
X95573497Y-39540261D01*
X95573488Y-39540258D01*
X95353697Y-39481366D01*
X95353693Y-39481365D01*
X95353692Y-39481365D01*
X95353691Y-39481364D01*
X95353686Y-39481364D01*
X95127002Y-39461532D01*
X95126998Y-39461532D01*
X94900313Y-39481364D01*
X94900302Y-39481366D01*
X94680511Y-39540258D01*
X94680502Y-39540261D01*
X94474267Y-39636431D01*
X94474265Y-39636432D01*
X94287858Y-39766954D01*
X94126954Y-39927858D01*
X93996432Y-40114265D01*
X93996431Y-40114267D01*
X93969382Y-40172275D01*
X93923209Y-40224714D01*
X93856016Y-40243866D01*
X93789135Y-40223650D01*
X93744618Y-40172275D01*
X93717568Y-40114267D01*
X93717567Y-40114265D01*
X93587045Y-39927858D01*
X93426141Y-39766954D01*
X93239734Y-39636432D01*
X93239732Y-39636431D01*
X93033497Y-39540261D01*
X93033488Y-39540258D01*
X92813697Y-39481366D01*
X92813693Y-39481365D01*
X92813692Y-39481365D01*
X92813691Y-39481364D01*
X92813686Y-39481364D01*
X92587002Y-39461532D01*
X92586998Y-39461532D01*
X92360313Y-39481364D01*
X92360302Y-39481366D01*
X92140511Y-39540258D01*
X92140502Y-39540261D01*
X91934267Y-39636431D01*
X91934265Y-39636432D01*
X91747858Y-39766954D01*
X91586954Y-39927858D01*
X91456432Y-40114265D01*
X91456431Y-40114267D01*
X91429382Y-40172275D01*
X91383209Y-40224714D01*
X91316016Y-40243866D01*
X91249135Y-40223650D01*
X91204618Y-40172275D01*
X91177568Y-40114267D01*
X91177567Y-40114265D01*
X91047045Y-39927858D01*
X90886141Y-39766954D01*
X90699734Y-39636432D01*
X90699732Y-39636431D01*
X90493497Y-39540261D01*
X90493488Y-39540258D01*
X90273697Y-39481366D01*
X90273693Y-39481365D01*
X90273692Y-39481365D01*
X90273691Y-39481364D01*
X90273686Y-39481364D01*
X90047002Y-39461532D01*
X90046998Y-39461532D01*
X89820313Y-39481364D01*
X89820302Y-39481366D01*
X89600511Y-39540258D01*
X89600502Y-39540261D01*
X89394267Y-39636431D01*
X89394265Y-39636432D01*
X89207858Y-39766954D01*
X89046954Y-39927858D01*
X88916432Y-40114265D01*
X88916431Y-40114267D01*
X88889382Y-40172275D01*
X88843209Y-40224714D01*
X88776016Y-40243866D01*
X88709135Y-40223650D01*
X88664618Y-40172275D01*
X88637568Y-40114267D01*
X88637567Y-40114265D01*
X88507045Y-39927858D01*
X88346141Y-39766954D01*
X88159734Y-39636432D01*
X88159732Y-39636431D01*
X87953497Y-39540261D01*
X87953488Y-39540258D01*
X87733697Y-39481366D01*
X87733693Y-39481365D01*
X87733692Y-39481365D01*
X87733691Y-39481364D01*
X87733686Y-39481364D01*
X87507002Y-39461532D01*
X87506998Y-39461532D01*
X87280313Y-39481364D01*
X87280302Y-39481366D01*
X87060511Y-39540258D01*
X87060502Y-39540261D01*
X86854267Y-39636431D01*
X86854265Y-39636432D01*
X86667858Y-39766954D01*
X86506954Y-39927858D01*
X86376432Y-40114265D01*
X86376431Y-40114267D01*
X86349382Y-40172275D01*
X86303209Y-40224714D01*
X86236016Y-40243866D01*
X86169135Y-40223650D01*
X86124618Y-40172275D01*
X86097568Y-40114267D01*
X86097567Y-40114265D01*
X85967045Y-39927858D01*
X85806141Y-39766954D01*
X85619734Y-39636432D01*
X85619732Y-39636431D01*
X85413497Y-39540261D01*
X85413488Y-39540258D01*
X85193697Y-39481366D01*
X85193693Y-39481365D01*
X85193692Y-39481365D01*
X85193691Y-39481364D01*
X85193686Y-39481364D01*
X84967002Y-39461532D01*
X84966998Y-39461532D01*
X84740313Y-39481364D01*
X84740302Y-39481366D01*
X84520511Y-39540258D01*
X84520502Y-39540261D01*
X84314267Y-39636431D01*
X84314265Y-39636432D01*
X84127858Y-39766954D01*
X83966954Y-39927858D01*
X83836432Y-40114265D01*
X83836431Y-40114267D01*
X83809382Y-40172275D01*
X83763209Y-40224714D01*
X83696016Y-40243866D01*
X83629135Y-40223650D01*
X83584618Y-40172275D01*
X83557568Y-40114267D01*
X83557567Y-40114265D01*
X83427045Y-39927858D01*
X83266141Y-39766954D01*
X83079734Y-39636432D01*
X83079732Y-39636431D01*
X82873497Y-39540261D01*
X82873488Y-39540258D01*
X82653697Y-39481366D01*
X82653693Y-39481365D01*
X82653692Y-39481365D01*
X82653691Y-39481364D01*
X82653686Y-39481364D01*
X82427002Y-39461532D01*
X82426998Y-39461532D01*
X82200313Y-39481364D01*
X82200302Y-39481366D01*
X81980511Y-39540258D01*
X81980502Y-39540261D01*
X81774267Y-39636431D01*
X81774265Y-39636432D01*
X81587858Y-39766954D01*
X81426954Y-39927858D01*
X81296432Y-40114265D01*
X81296431Y-40114267D01*
X81200261Y-40320502D01*
X81200258Y-40320511D01*
X81141366Y-40540302D01*
X81141364Y-40540313D01*
X81121532Y-40766998D01*
X64000500Y-40766998D01*
X64000500Y-38724500D01*
X64020185Y-38657461D01*
X64072989Y-38611706D01*
X64124500Y-38600500D01*
X127884324Y-38600500D01*
X127951363Y-38620185D01*
G37*
G04 #@! TD.AperFunction*
M02*
