G04 #@! TF.GenerationSoftware,KiCad,Pcbnew,8.0.3*
G04 #@! TF.CreationDate,2024-11-06T17:03:22+01:00*
G04 #@! TF.ProjectId,UNOtdc,554e4f74-6463-42e6-9b69-6361645f7063,1.10*
G04 #@! TF.SameCoordinates,Original*
G04 #@! TF.FileFunction,Paste,Bot*
G04 #@! TF.FilePolarity,Positive*
%FSLAX46Y46*%
G04 Gerber Fmt 4.6, Leading zero omitted, Abs format (unit mm)*
G04 Created by KiCad (PCBNEW 8.0.3) date 2024-11-06 17:03:22*
%MOMM*%
%LPD*%
G01*
G04 APERTURE LIST*
G04 Aperture macros list*
%AMRoundRect*
0 Rectangle with rounded corners*
0 $1 Rounding radius*
0 $2 $3 $4 $5 $6 $7 $8 $9 X,Y pos of 4 corners*
0 Add a 4 corners polygon primitive as box body*
4,1,4,$2,$3,$4,$5,$6,$7,$8,$9,$2,$3,0*
0 Add four circle primitives for the rounded corners*
1,1,$1+$1,$2,$3*
1,1,$1+$1,$4,$5*
1,1,$1+$1,$6,$7*
1,1,$1+$1,$8,$9*
0 Add four rect primitives between the rounded corners*
20,1,$1+$1,$2,$3,$4,$5,0*
20,1,$1+$1,$4,$5,$6,$7,0*
20,1,$1+$1,$6,$7,$8,$9,0*
20,1,$1+$1,$8,$9,$2,$3,0*%
G04 Aperture macros list end*
%ADD10RoundRect,0.147500X-0.172500X0.147500X-0.172500X-0.147500X0.172500X-0.147500X0.172500X0.147500X0*%
%ADD11RoundRect,0.225000X-0.225000X-0.250000X0.225000X-0.250000X0.225000X0.250000X-0.225000X0.250000X0*%
%ADD12RoundRect,0.147500X0.172500X-0.147500X0.172500X0.147500X-0.172500X0.147500X-0.172500X-0.147500X0*%
%ADD13RoundRect,0.225000X0.225000X0.250000X-0.225000X0.250000X-0.225000X-0.250000X0.225000X-0.250000X0*%
%ADD14RoundRect,0.225000X-0.250000X0.225000X-0.250000X-0.225000X0.250000X-0.225000X0.250000X0.225000X0*%
%ADD15RoundRect,0.200000X0.200000X0.275000X-0.200000X0.275000X-0.200000X-0.275000X0.200000X-0.275000X0*%
%ADD16R,1.200000X1.100000*%
%ADD17RoundRect,0.200000X0.275000X-0.200000X0.275000X0.200000X-0.275000X0.200000X-0.275000X-0.200000X0*%
%ADD18RoundRect,0.100000X-0.637500X-0.100000X0.637500X-0.100000X0.637500X0.100000X-0.637500X0.100000X0*%
%ADD19RoundRect,0.100000X0.637500X0.100000X-0.637500X0.100000X-0.637500X-0.100000X0.637500X-0.100000X0*%
%ADD20RoundRect,0.200000X-0.275000X0.200000X-0.275000X-0.200000X0.275000X-0.200000X0.275000X0.200000X0*%
G04 APERTURE END LIST*
D10*
X121499000Y-70104000D03*
X121499000Y-71074000D03*
D11*
X98372000Y-64643000D03*
X99922000Y-64643000D03*
X98372000Y-62992000D03*
X99922000Y-62992000D03*
D12*
X121499000Y-68557000D03*
X121499000Y-67587000D03*
D13*
X99922000Y-60960000D03*
X98372000Y-60960000D03*
D14*
X120025800Y-73558400D03*
X120025800Y-75108400D03*
D15*
X111211000Y-65278000D03*
X109561000Y-65278000D03*
D16*
X102195000Y-58894000D03*
X104735000Y-58894000D03*
X104735000Y-61004000D03*
X102195000Y-60994000D03*
D13*
X109434000Y-73660000D03*
X107884000Y-73660000D03*
D11*
X98372000Y-66294000D03*
X99922000Y-66294000D03*
D17*
X119975000Y-68516000D03*
X119975000Y-66866000D03*
D18*
X112032500Y-74228000D03*
X112032500Y-73578000D03*
X112032500Y-72928000D03*
X112032500Y-72278000D03*
X112032500Y-71628000D03*
X112032500Y-70978000D03*
X112032500Y-70328000D03*
X112032500Y-69678000D03*
X112032500Y-69028000D03*
X112032500Y-68378000D03*
X117757500Y-68378000D03*
X117757500Y-69028000D03*
X117757500Y-69678000D03*
X117757500Y-70328000D03*
X117757500Y-70978000D03*
X117757500Y-71628000D03*
X117757500Y-72278000D03*
X117757500Y-72928000D03*
X117757500Y-73578000D03*
X117757500Y-74228000D03*
D19*
X107597500Y-65360000D03*
X107597500Y-66010000D03*
X107597500Y-66660000D03*
X107597500Y-67310000D03*
X107597500Y-67960000D03*
X107597500Y-68610000D03*
X107597500Y-69260000D03*
X101872500Y-69260000D03*
X101872500Y-68610000D03*
X101872500Y-67960000D03*
X101872500Y-67310000D03*
X101872500Y-66660000D03*
X101872500Y-66010000D03*
X101872500Y-65360000D03*
D20*
X119975000Y-70168000D03*
X119975000Y-71818000D03*
M02*
