M48
; DRILL file {KiCad 8.0.3} date 2024-11-06T17:03:39+0100
; FORMAT={-:-/ absolute / inch / decimal}
; #@! TF.CreationDate,2024-11-06T17:03:39+01:00
; #@! TF.GenerationSoftware,Kicad,Pcbnew,8.0.3
; #@! TF.FileFunction,Plated,1,4,PTH
FMAT,2
INCH
; #@! TA.AperFunction,Plated,PTH,ViaDrill
T1C0.0118
; #@! TA.AperFunction,Plated,PTH,ComponentDrill
T2C0.0394
; #@! TA.AperFunction,Plated,PTH,ComponentDrill
T3C0.0591
; #@! TA.AperFunction,Plated,PTH,ComponentDrill
T4C0.0669
%
G90
G05
T1
X3.8274Y-2.378
X3.8274Y-2.418
X3.8284Y-2.46
X3.8284Y-2.5
X3.8284Y-2.545
X3.8284Y-2.59
X3.8284Y-2.63
X3.9754Y-2.459
X3.9774Y-2.499
X3.9784Y-2.4
X3.9834Y-2.545
X4.1734Y-2.3
X4.1734Y-2.34
X4.2034Y-2.878
X4.2034Y-2.918
X4.2894Y-2.726
X4.3534Y-2.8968
X4.4124Y-2.657
X4.515Y-1.905
X4.6184Y-2.655
X4.6584Y-2.655
X4.7034Y-2.59
X4.7054Y-3.0015
X4.7434Y-2.59
X4.7454Y-3.0015
X4.7834Y-2.63
X4.7834Y-2.83
T2
X3.2452Y-1.605
X3.3452Y-1.605
X3.4452Y-1.605
X3.5452Y-1.605
X3.605Y-3.505
X3.6452Y-1.605
X3.705Y-3.505
X3.7452Y-1.605
X3.805Y-3.505
X3.8452Y-1.605
X3.905Y-3.505
X3.9452Y-1.605
X4.005Y-3.505
X4.0452Y-1.605
X4.105Y-3.505
X4.1452Y-1.605
X4.205Y-3.505
X4.305Y-1.605
X4.305Y-3.505
X4.405Y-1.605
X4.505Y-1.605
X4.505Y-3.505
X4.605Y-1.605
X4.605Y-3.505
X4.705Y-1.605
X4.705Y-3.505
X4.805Y-1.605
X4.805Y-3.505
X4.905Y-1.605
X4.905Y-3.505
X5.005Y-1.605
X5.005Y-3.505
T3
X5.0234Y-2.45
X5.0234Y-3.05
T4
X4.9234Y-2.35
X4.9234Y-2.55
X4.9234Y-2.95
X4.9234Y-3.15
X5.1234Y-2.35
X5.1234Y-2.55
X5.1234Y-2.95
X5.1234Y-3.15
M30
