G04 #@! TF.GenerationSoftware,KiCad,Pcbnew,8.0.3*
G04 #@! TF.CreationDate,2024-11-06T17:03:22+01:00*
G04 #@! TF.ProjectId,UNOtdc,554e4f74-6463-42e6-9b69-6361645f7063,1.10*
G04 #@! TF.SameCoordinates,Original*
G04 #@! TF.FileFunction,Copper,L1,Top*
G04 #@! TF.FilePolarity,Positive*
%FSLAX46Y46*%
G04 Gerber Fmt 4.6, Leading zero omitted, Abs format (unit mm)*
G04 Created by KiCad (PCBNEW 8.0.3) date 2024-11-06 17:03:22*
%MOMM*%
%LPD*%
G01*
G04 APERTURE LIST*
G04 Aperture macros list*
%AMRoundRect*
0 Rectangle with rounded corners*
0 $1 Rounding radius*
0 $2 $3 $4 $5 $6 $7 $8 $9 X,Y pos of 4 corners*
0 Add a 4 corners polygon primitive as box body*
4,1,4,$2,$3,$4,$5,$6,$7,$8,$9,$2,$3,0*
0 Add four circle primitives for the rounded corners*
1,1,$1+$1,$2,$3*
1,1,$1+$1,$4,$5*
1,1,$1+$1,$6,$7*
1,1,$1+$1,$8,$9*
0 Add four rect primitives between the rounded corners*
20,1,$1+$1,$2,$3,$4,$5,0*
20,1,$1+$1,$4,$5,$6,$7,0*
20,1,$1+$1,$6,$7,$8,$9,0*
20,1,$1+$1,$8,$9,$2,$3,0*%
G04 Aperture macros list end*
G04 #@! TA.AperFunction,ComponentPad*
%ADD10RoundRect,0.200100X0.949900X-0.949900X0.949900X0.949900X-0.949900X0.949900X-0.949900X-0.949900X0*%
G04 #@! TD*
G04 #@! TA.AperFunction,ComponentPad*
%ADD11C,2.500000*%
G04 #@! TD*
G04 #@! TA.AperFunction,ComponentPad*
%ADD12R,1.600000X1.600000*%
G04 #@! TD*
G04 #@! TA.AperFunction,ComponentPad*
%ADD13O,1.600000X1.600000*%
G04 #@! TD*
G04 #@! TA.AperFunction,ViaPad*
%ADD14C,0.700000*%
G04 #@! TD*
G04 #@! TA.AperFunction,ViaPad*
%ADD15C,0.600000*%
G04 #@! TD*
G04 APERTURE END LIST*
D10*
X127595000Y-62230000D03*
D11*
X125055000Y-64770000D03*
X130135000Y-64770000D03*
X125055000Y-59690000D03*
X130135000Y-59690000D03*
D10*
X127595000Y-77470000D03*
D11*
X125055000Y-80010000D03*
X130135000Y-80010000D03*
X125055000Y-74930000D03*
X130135000Y-74930000D03*
D12*
X91567000Y-89027000D03*
D13*
X94107000Y-89027000D03*
X96647000Y-89027000D03*
X99187000Y-89027000D03*
X101727000Y-89027000D03*
X104267000Y-89027000D03*
X106807000Y-89027000D03*
X109347000Y-89027000D03*
X114427000Y-89027000D03*
X116967000Y-89027000D03*
X119507000Y-89027000D03*
X122047000Y-89027000D03*
X124587000Y-89027000D03*
X127127000Y-89027000D03*
X127127000Y-40767000D03*
X124587000Y-40767000D03*
X122047000Y-40767000D03*
X119507000Y-40767000D03*
X116967000Y-40767000D03*
X114427000Y-40767000D03*
X111887000Y-40767000D03*
X109347000Y-40767000D03*
X105287000Y-40767000D03*
X102747000Y-40767000D03*
X100207000Y-40767000D03*
X97667000Y-40767000D03*
X95127000Y-40767000D03*
X92587000Y-40767000D03*
X90047000Y-40767000D03*
X87507000Y-40767000D03*
X84967000Y-40767000D03*
X82427000Y-40767000D03*
D14*
X97242000Y-64643000D03*
X106005000Y-59436000D03*
X119517800Y-76238400D03*
X120483000Y-65786000D03*
X121499000Y-71882000D03*
X97242000Y-66802000D03*
X97242000Y-62484000D03*
X118324000Y-67437000D03*
X106767000Y-73101200D03*
X97216600Y-61417200D03*
X120533800Y-76238400D03*
X97216600Y-60401200D03*
X106005000Y-58420000D03*
D15*
X108951400Y-69240400D03*
D14*
X121499000Y-66802000D03*
X106767000Y-74117200D03*
X119467000Y-65786000D03*
X97242000Y-65786000D03*
X97242000Y-63500000D03*
X117308000Y-67437000D03*
D15*
X114681000Y-48387000D03*
X100975800Y-62458600D03*
D14*
X110577000Y-73578000D03*
D15*
X101026600Y-63474600D03*
D14*
X101052000Y-60960000D03*
D15*
X101179000Y-64643000D03*
D14*
X112075600Y-67487800D03*
G04 #@! TA.AperFunction,Conductor*
G36*
X106341075Y-88834007D02*
G01*
X106307000Y-88961174D01*
X106307000Y-89092826D01*
X106341075Y-89219993D01*
X106373988Y-89277000D01*
X104700012Y-89277000D01*
X104732925Y-89219993D01*
X104767000Y-89092826D01*
X104767000Y-88961174D01*
X104732925Y-88834007D01*
X104700012Y-88777000D01*
X106373988Y-88777000D01*
X106341075Y-88834007D01*
G37*
G04 #@! TD.AperFunction*
G04 #@! TA.AperFunction,Conductor*
G36*
X127951363Y-38620185D02*
G01*
X127972005Y-38636819D01*
X129257181Y-39921995D01*
X129290666Y-39983318D01*
X129293500Y-40009676D01*
X129293500Y-51246891D01*
X129327608Y-51374187D01*
X129360554Y-51431250D01*
X129393500Y-51488314D01*
X129393502Y-51488316D01*
X131797181Y-53891995D01*
X131830666Y-53953318D01*
X131833500Y-53979676D01*
X131833500Y-58669115D01*
X131813815Y-58736154D01*
X131761011Y-58781909D01*
X131691853Y-58791853D01*
X131628297Y-58762828D01*
X131602113Y-58731116D01*
X131584970Y-58701424D01*
X131537124Y-58641427D01*
X130889114Y-59289437D01*
X130888260Y-59287374D01*
X130795238Y-59148156D01*
X130676844Y-59029762D01*
X130537626Y-58936740D01*
X130535562Y-58935885D01*
X131184168Y-58287278D01*
X131012454Y-58170206D01*
X131012445Y-58170201D01*
X130776142Y-58056404D01*
X130776144Y-58056404D01*
X130525505Y-57979092D01*
X130525499Y-57979090D01*
X130266151Y-57940000D01*
X130003848Y-57940000D01*
X129744500Y-57979090D01*
X129744494Y-57979092D01*
X129493858Y-58056404D01*
X129493854Y-58056405D01*
X129257547Y-58170205D01*
X129257539Y-58170210D01*
X129085830Y-58287277D01*
X129734438Y-58935885D01*
X129732374Y-58936740D01*
X129593156Y-59029762D01*
X129474762Y-59148156D01*
X129381740Y-59287374D01*
X129380885Y-59289437D01*
X128732875Y-58641427D01*
X128732874Y-58641427D01*
X128685028Y-58701425D01*
X128553883Y-58928573D01*
X128458058Y-59172729D01*
X128399693Y-59428449D01*
X128399692Y-59428454D01*
X128380093Y-59689995D01*
X128380093Y-59690004D01*
X128399692Y-59951545D01*
X128399693Y-59951550D01*
X128458058Y-60207270D01*
X128537702Y-60410198D01*
X128543871Y-60479795D01*
X128511433Y-60541678D01*
X128450688Y-60576201D01*
X128422274Y-60579500D01*
X126767726Y-60579500D01*
X126700687Y-60559815D01*
X126654932Y-60507011D01*
X126644988Y-60437853D01*
X126652298Y-60410198D01*
X126731941Y-60207270D01*
X126790306Y-59951550D01*
X126790307Y-59951545D01*
X126809907Y-59690004D01*
X126809907Y-59689995D01*
X126790307Y-59428454D01*
X126790306Y-59428449D01*
X126731941Y-59172729D01*
X126636116Y-58928573D01*
X126636117Y-58928573D01*
X126504972Y-58701426D01*
X126457124Y-58641427D01*
X125809114Y-59289437D01*
X125808260Y-59287374D01*
X125715238Y-59148156D01*
X125596844Y-59029762D01*
X125457626Y-58936740D01*
X125455562Y-58935885D01*
X126104168Y-58287278D01*
X125932454Y-58170206D01*
X125932445Y-58170201D01*
X125696142Y-58056404D01*
X125696144Y-58056404D01*
X125445505Y-57979092D01*
X125445499Y-57979090D01*
X125186151Y-57940000D01*
X124923848Y-57940000D01*
X124664500Y-57979090D01*
X124664494Y-57979092D01*
X124413858Y-58056404D01*
X124413854Y-58056405D01*
X124177547Y-58170205D01*
X124177539Y-58170210D01*
X124005830Y-58287277D01*
X124654438Y-58935885D01*
X124652374Y-58936740D01*
X124513156Y-59029762D01*
X124394762Y-59148156D01*
X124301740Y-59287374D01*
X124300885Y-59289437D01*
X123652875Y-58641427D01*
X123652874Y-58641427D01*
X123605028Y-58701425D01*
X123473883Y-58928573D01*
X123378058Y-59172729D01*
X123319693Y-59428449D01*
X123319692Y-59428454D01*
X123300093Y-59689995D01*
X123300093Y-59690004D01*
X123319692Y-59951545D01*
X123319693Y-59951550D01*
X123378058Y-60207270D01*
X123473883Y-60451426D01*
X123473882Y-60451426D01*
X123605027Y-60678573D01*
X123652874Y-60738571D01*
X124300884Y-60090561D01*
X124301740Y-60092626D01*
X124394762Y-60231844D01*
X124513156Y-60350238D01*
X124652374Y-60443260D01*
X124654437Y-60444114D01*
X124005830Y-61092720D01*
X124177546Y-61209793D01*
X124177550Y-61209795D01*
X124413854Y-61323594D01*
X124413858Y-61323595D01*
X124664494Y-61400907D01*
X124664500Y-61400909D01*
X124923848Y-61439999D01*
X124923857Y-61440000D01*
X125186143Y-61440000D01*
X125186151Y-61439999D01*
X125445499Y-61400909D01*
X125445505Y-61400907D01*
X125696140Y-61323596D01*
X125766698Y-61289617D01*
X125835639Y-61278265D01*
X125899774Y-61305987D01*
X125938740Y-61363982D01*
X125944500Y-61401337D01*
X125944500Y-63058662D01*
X125924815Y-63125701D01*
X125872011Y-63171456D01*
X125802853Y-63181400D01*
X125766699Y-63170382D01*
X125696142Y-63136404D01*
X125696144Y-63136404D01*
X125445505Y-63059092D01*
X125445499Y-63059090D01*
X125186151Y-63020000D01*
X124923848Y-63020000D01*
X124664500Y-63059090D01*
X124664494Y-63059092D01*
X124413858Y-63136404D01*
X124413854Y-63136405D01*
X124177547Y-63250205D01*
X124177539Y-63250210D01*
X124005830Y-63367277D01*
X124654438Y-64015885D01*
X124652374Y-64016740D01*
X124513156Y-64109762D01*
X124394762Y-64228156D01*
X124301740Y-64367374D01*
X124300885Y-64369437D01*
X123652875Y-63721427D01*
X123652874Y-63721427D01*
X123605028Y-63781425D01*
X123473883Y-64008573D01*
X123378058Y-64252729D01*
X123319693Y-64508449D01*
X123319692Y-64508454D01*
X123300093Y-64769995D01*
X123300093Y-64770004D01*
X123319692Y-65031545D01*
X123319693Y-65031550D01*
X123378058Y-65287270D01*
X123473883Y-65531426D01*
X123473882Y-65531426D01*
X123605027Y-65758573D01*
X123652874Y-65818571D01*
X124300884Y-65170561D01*
X124301740Y-65172626D01*
X124394762Y-65311844D01*
X124513156Y-65430238D01*
X124652374Y-65523260D01*
X124654437Y-65524114D01*
X124005830Y-66172720D01*
X124177546Y-66289793D01*
X124177550Y-66289795D01*
X124413854Y-66403594D01*
X124413858Y-66403595D01*
X124664494Y-66480907D01*
X124664500Y-66480909D01*
X124923848Y-66519999D01*
X124923857Y-66520000D01*
X125186143Y-66520000D01*
X125186151Y-66519999D01*
X125445499Y-66480909D01*
X125445505Y-66480907D01*
X125696143Y-66403595D01*
X125932445Y-66289798D01*
X125932447Y-66289797D01*
X126104168Y-66172720D01*
X125455562Y-65524114D01*
X125457626Y-65523260D01*
X125596844Y-65430238D01*
X125715238Y-65311844D01*
X125808260Y-65172626D01*
X125809114Y-65170561D01*
X126457125Y-65818572D01*
X126504971Y-65758573D01*
X126636116Y-65531426D01*
X126731941Y-65287270D01*
X126790306Y-65031550D01*
X126790307Y-65031545D01*
X126809907Y-64770004D01*
X126809907Y-64769995D01*
X126790307Y-64508454D01*
X126790306Y-64508449D01*
X126731941Y-64252729D01*
X126652298Y-64049802D01*
X126646129Y-63980205D01*
X126678567Y-63918322D01*
X126739312Y-63883799D01*
X126767726Y-63880500D01*
X128422274Y-63880500D01*
X128489313Y-63900185D01*
X128535068Y-63952989D01*
X128545012Y-64022147D01*
X128537702Y-64049802D01*
X128458058Y-64252729D01*
X128399693Y-64508449D01*
X128399692Y-64508454D01*
X128380093Y-64769995D01*
X128380093Y-64770004D01*
X128399692Y-65031545D01*
X128399693Y-65031550D01*
X128458058Y-65287270D01*
X128553883Y-65531426D01*
X128553882Y-65531426D01*
X128685027Y-65758573D01*
X128732874Y-65818571D01*
X129380884Y-65170561D01*
X129381740Y-65172626D01*
X129474762Y-65311844D01*
X129593156Y-65430238D01*
X129732374Y-65523260D01*
X129734437Y-65524114D01*
X129085830Y-66172720D01*
X129257546Y-66289793D01*
X129257550Y-66289795D01*
X129493854Y-66403594D01*
X129493858Y-66403595D01*
X129744494Y-66480907D01*
X129744500Y-66480909D01*
X130003848Y-66519999D01*
X130003857Y-66520000D01*
X130266143Y-66520000D01*
X130266151Y-66519999D01*
X130525499Y-66480909D01*
X130525505Y-66480907D01*
X130776143Y-66403595D01*
X131012445Y-66289798D01*
X131012447Y-66289797D01*
X131184168Y-66172720D01*
X130535562Y-65524114D01*
X130537626Y-65523260D01*
X130676844Y-65430238D01*
X130795238Y-65311844D01*
X130888260Y-65172626D01*
X130889114Y-65170561D01*
X131537125Y-65818572D01*
X131584970Y-65758576D01*
X131602112Y-65728885D01*
X131652679Y-65680669D01*
X131721286Y-65667445D01*
X131786151Y-65693413D01*
X131826680Y-65750327D01*
X131833500Y-65790884D01*
X131833500Y-73909115D01*
X131813815Y-73976154D01*
X131761011Y-74021909D01*
X131691853Y-74031853D01*
X131628297Y-74002828D01*
X131602113Y-73971116D01*
X131584970Y-73941424D01*
X131537124Y-73881427D01*
X130889114Y-74529437D01*
X130888260Y-74527374D01*
X130795238Y-74388156D01*
X130676844Y-74269762D01*
X130537626Y-74176740D01*
X130535562Y-74175885D01*
X131184168Y-73527278D01*
X131012454Y-73410206D01*
X131012445Y-73410201D01*
X130776142Y-73296404D01*
X130776144Y-73296404D01*
X130525505Y-73219092D01*
X130525499Y-73219090D01*
X130266151Y-73180000D01*
X130003848Y-73180000D01*
X129744500Y-73219090D01*
X129744494Y-73219092D01*
X129493858Y-73296404D01*
X129493854Y-73296405D01*
X129257547Y-73410205D01*
X129257539Y-73410210D01*
X129085830Y-73527277D01*
X129734438Y-74175885D01*
X129732374Y-74176740D01*
X129593156Y-74269762D01*
X129474762Y-74388156D01*
X129381740Y-74527374D01*
X129380885Y-74529437D01*
X128732875Y-73881427D01*
X128732874Y-73881427D01*
X128685028Y-73941425D01*
X128553883Y-74168573D01*
X128458058Y-74412729D01*
X128399693Y-74668449D01*
X128399692Y-74668454D01*
X128380093Y-74929995D01*
X128380093Y-74930004D01*
X128399692Y-75191545D01*
X128399693Y-75191550D01*
X128458058Y-75447270D01*
X128537702Y-75650198D01*
X128543871Y-75719795D01*
X128511433Y-75781678D01*
X128450688Y-75816201D01*
X128422274Y-75819500D01*
X126767726Y-75819500D01*
X126700687Y-75799815D01*
X126654932Y-75747011D01*
X126644988Y-75677853D01*
X126652298Y-75650198D01*
X126731941Y-75447270D01*
X126790306Y-75191550D01*
X126790307Y-75191545D01*
X126809907Y-74930004D01*
X126809907Y-74929995D01*
X126790307Y-74668454D01*
X126790306Y-74668449D01*
X126731941Y-74412729D01*
X126636116Y-74168573D01*
X126636117Y-74168573D01*
X126504972Y-73941426D01*
X126457124Y-73881427D01*
X125809114Y-74529437D01*
X125808260Y-74527374D01*
X125715238Y-74388156D01*
X125596844Y-74269762D01*
X125457626Y-74176740D01*
X125455562Y-74175885D01*
X126104168Y-73527278D01*
X125932454Y-73410206D01*
X125932445Y-73410201D01*
X125696142Y-73296404D01*
X125696144Y-73296404D01*
X125445505Y-73219092D01*
X125445499Y-73219090D01*
X125186151Y-73180000D01*
X124923848Y-73180000D01*
X124664500Y-73219090D01*
X124664494Y-73219092D01*
X124413858Y-73296404D01*
X124413854Y-73296405D01*
X124177547Y-73410205D01*
X124177539Y-73410210D01*
X124005830Y-73527277D01*
X124654438Y-74175885D01*
X124652374Y-74176740D01*
X124513156Y-74269762D01*
X124394762Y-74388156D01*
X124301740Y-74527374D01*
X124300885Y-74529437D01*
X123652875Y-73881427D01*
X123652874Y-73881427D01*
X123605028Y-73941425D01*
X123473883Y-74168573D01*
X123378058Y-74412729D01*
X123319693Y-74668449D01*
X123319692Y-74668454D01*
X123300093Y-74929995D01*
X123300093Y-74930004D01*
X123319692Y-75191545D01*
X123319693Y-75191550D01*
X123378058Y-75447270D01*
X123473883Y-75691426D01*
X123473882Y-75691426D01*
X123605027Y-75918573D01*
X123652874Y-75978571D01*
X124300884Y-75330561D01*
X124301740Y-75332626D01*
X124394762Y-75471844D01*
X124513156Y-75590238D01*
X124652374Y-75683260D01*
X124654437Y-75684114D01*
X124005830Y-76332720D01*
X124177546Y-76449793D01*
X124177550Y-76449795D01*
X124413854Y-76563594D01*
X124413858Y-76563595D01*
X124664494Y-76640907D01*
X124664500Y-76640909D01*
X124923848Y-76679999D01*
X124923857Y-76680000D01*
X125186143Y-76680000D01*
X125186151Y-76679999D01*
X125445499Y-76640909D01*
X125445505Y-76640907D01*
X125696140Y-76563596D01*
X125766698Y-76529617D01*
X125835639Y-76518265D01*
X125899774Y-76545987D01*
X125938740Y-76603982D01*
X125944500Y-76641337D01*
X125944500Y-78298662D01*
X125924815Y-78365701D01*
X125872011Y-78411456D01*
X125802853Y-78421400D01*
X125766699Y-78410382D01*
X125696142Y-78376404D01*
X125696144Y-78376404D01*
X125445505Y-78299092D01*
X125445499Y-78299090D01*
X125186151Y-78260000D01*
X124923848Y-78260000D01*
X124664500Y-78299090D01*
X124664494Y-78299092D01*
X124413858Y-78376404D01*
X124413854Y-78376405D01*
X124177547Y-78490205D01*
X124177539Y-78490210D01*
X124005830Y-78607277D01*
X124654438Y-79255885D01*
X124652374Y-79256740D01*
X124513156Y-79349762D01*
X124394762Y-79468156D01*
X124301740Y-79607374D01*
X124300885Y-79609437D01*
X123652875Y-78961427D01*
X123652874Y-78961427D01*
X123605028Y-79021425D01*
X123473883Y-79248573D01*
X123378058Y-79492729D01*
X123319693Y-79748449D01*
X123319692Y-79748454D01*
X123300093Y-80009995D01*
X123300093Y-80010004D01*
X123319692Y-80271545D01*
X123319693Y-80271550D01*
X123378058Y-80527270D01*
X123473883Y-80771426D01*
X123473882Y-80771426D01*
X123605027Y-80998573D01*
X123652874Y-81058571D01*
X124300884Y-80410561D01*
X124301740Y-80412626D01*
X124394762Y-80551844D01*
X124513156Y-80670238D01*
X124652374Y-80763260D01*
X124654437Y-80764114D01*
X124005830Y-81412720D01*
X124177546Y-81529793D01*
X124177550Y-81529795D01*
X124413854Y-81643594D01*
X124413858Y-81643595D01*
X124664494Y-81720907D01*
X124664500Y-81720909D01*
X124923848Y-81759999D01*
X124923857Y-81760000D01*
X125186143Y-81760000D01*
X125186151Y-81759999D01*
X125445499Y-81720909D01*
X125445505Y-81720907D01*
X125696143Y-81643595D01*
X125932445Y-81529798D01*
X125932447Y-81529797D01*
X126104168Y-81412720D01*
X125455562Y-80764114D01*
X125457626Y-80763260D01*
X125596844Y-80670238D01*
X125715238Y-80551844D01*
X125808260Y-80412626D01*
X125809114Y-80410561D01*
X126457125Y-81058572D01*
X126504971Y-80998573D01*
X126636116Y-80771426D01*
X126731941Y-80527270D01*
X126790306Y-80271550D01*
X126790307Y-80271545D01*
X126809907Y-80010004D01*
X126809907Y-80009995D01*
X126790307Y-79748454D01*
X126790306Y-79748449D01*
X126731941Y-79492729D01*
X126652298Y-79289802D01*
X126646129Y-79220205D01*
X126678567Y-79158322D01*
X126739312Y-79123799D01*
X126767726Y-79120500D01*
X128422274Y-79120500D01*
X128489313Y-79140185D01*
X128535068Y-79192989D01*
X128545012Y-79262147D01*
X128537702Y-79289802D01*
X128458058Y-79492729D01*
X128399693Y-79748449D01*
X128399692Y-79748454D01*
X128380093Y-80009995D01*
X128380093Y-80010004D01*
X128399692Y-80271545D01*
X128399693Y-80271550D01*
X128458058Y-80527270D01*
X128553883Y-80771426D01*
X128553882Y-80771426D01*
X128685027Y-80998573D01*
X128732874Y-81058571D01*
X129380884Y-80410561D01*
X129381740Y-80412626D01*
X129474762Y-80551844D01*
X129593156Y-80670238D01*
X129732374Y-80763260D01*
X129734437Y-80764114D01*
X129085830Y-81412720D01*
X129257546Y-81529793D01*
X129257550Y-81529795D01*
X129493854Y-81643594D01*
X129493858Y-81643595D01*
X129744494Y-81720907D01*
X129744500Y-81720909D01*
X130003848Y-81759999D01*
X130003857Y-81760000D01*
X130266143Y-81760000D01*
X130266151Y-81759999D01*
X130525499Y-81720909D01*
X130525505Y-81720907D01*
X130776143Y-81643595D01*
X131012445Y-81529798D01*
X131012447Y-81529797D01*
X131184168Y-81412720D01*
X130535562Y-80764114D01*
X130537626Y-80763260D01*
X130676844Y-80670238D01*
X130795238Y-80551844D01*
X130888260Y-80412626D01*
X130889114Y-80410561D01*
X131537125Y-81058572D01*
X131584970Y-80998576D01*
X131602112Y-80968885D01*
X131652679Y-80920669D01*
X131721286Y-80907445D01*
X131786151Y-80933413D01*
X131826680Y-80990327D01*
X131833500Y-81030884D01*
X131833500Y-86228324D01*
X131813815Y-86295363D01*
X131797181Y-86316005D01*
X129393502Y-88719683D01*
X129393500Y-88719686D01*
X129327608Y-88833812D01*
X129293500Y-88961108D01*
X129293500Y-91069500D01*
X129273815Y-91136539D01*
X129221011Y-91182294D01*
X129169500Y-91193500D01*
X64124500Y-91193500D01*
X64057461Y-91173815D01*
X64011706Y-91121011D01*
X64000500Y-91069500D01*
X64000500Y-88179135D01*
X90266500Y-88179135D01*
X90266500Y-89874870D01*
X90266501Y-89874876D01*
X90272908Y-89934483D01*
X90323202Y-90069328D01*
X90323206Y-90069335D01*
X90409452Y-90184544D01*
X90409455Y-90184547D01*
X90524664Y-90270793D01*
X90524671Y-90270797D01*
X90659517Y-90321091D01*
X90659516Y-90321091D01*
X90666444Y-90321835D01*
X90719127Y-90327500D01*
X92414872Y-90327499D01*
X92474483Y-90321091D01*
X92609331Y-90270796D01*
X92724546Y-90184546D01*
X92810796Y-90069331D01*
X92861091Y-89934483D01*
X92864862Y-89899401D01*
X92891599Y-89834855D01*
X92948990Y-89795006D01*
X93018816Y-89792511D01*
X93078905Y-89828163D01*
X93089726Y-89841536D01*
X93106956Y-89866143D01*
X93267858Y-90027045D01*
X93267861Y-90027047D01*
X93454266Y-90157568D01*
X93660504Y-90253739D01*
X93880308Y-90312635D01*
X94042230Y-90326801D01*
X94106998Y-90332468D01*
X94107000Y-90332468D01*
X94107002Y-90332468D01*
X94163807Y-90327498D01*
X94333692Y-90312635D01*
X94553496Y-90253739D01*
X94759734Y-90157568D01*
X94946139Y-90027047D01*
X95107047Y-89866139D01*
X95237568Y-89679734D01*
X95264618Y-89621724D01*
X95310790Y-89569285D01*
X95377983Y-89550133D01*
X95444865Y-89570348D01*
X95489382Y-89621725D01*
X95516429Y-89679728D01*
X95516432Y-89679734D01*
X95646954Y-89866141D01*
X95807858Y-90027045D01*
X95807861Y-90027047D01*
X95994266Y-90157568D01*
X96200504Y-90253739D01*
X96420308Y-90312635D01*
X96582230Y-90326801D01*
X96646998Y-90332468D01*
X96647000Y-90332468D01*
X96647002Y-90332468D01*
X96703807Y-90327498D01*
X96873692Y-90312635D01*
X97093496Y-90253739D01*
X97299734Y-90157568D01*
X97486139Y-90027047D01*
X97647047Y-89866139D01*
X97777568Y-89679734D01*
X97804618Y-89621724D01*
X97850790Y-89569285D01*
X97917983Y-89550133D01*
X97984865Y-89570348D01*
X98029382Y-89621725D01*
X98056429Y-89679728D01*
X98056432Y-89679734D01*
X98186954Y-89866141D01*
X98347858Y-90027045D01*
X98347861Y-90027047D01*
X98534266Y-90157568D01*
X98740504Y-90253739D01*
X98960308Y-90312635D01*
X99122230Y-90326801D01*
X99186998Y-90332468D01*
X99187000Y-90332468D01*
X99187002Y-90332468D01*
X99243807Y-90327498D01*
X99413692Y-90312635D01*
X99633496Y-90253739D01*
X99839734Y-90157568D01*
X100026139Y-90027047D01*
X100187047Y-89866139D01*
X100317568Y-89679734D01*
X100344618Y-89621724D01*
X100390790Y-89569285D01*
X100457983Y-89550133D01*
X100524865Y-89570348D01*
X100569382Y-89621725D01*
X100596429Y-89679728D01*
X100596432Y-89679734D01*
X100726954Y-89866141D01*
X100887858Y-90027045D01*
X100887861Y-90027047D01*
X101074266Y-90157568D01*
X101280504Y-90253739D01*
X101500308Y-90312635D01*
X101662230Y-90326801D01*
X101726998Y-90332468D01*
X101727000Y-90332468D01*
X101727002Y-90332468D01*
X101783807Y-90327498D01*
X101953692Y-90312635D01*
X102173496Y-90253739D01*
X102379734Y-90157568D01*
X102566139Y-90027047D01*
X102727047Y-89866139D01*
X102857568Y-89679734D01*
X102884895Y-89621129D01*
X102931064Y-89568695D01*
X102998257Y-89549542D01*
X103065139Y-89569757D01*
X103109657Y-89621133D01*
X103136865Y-89679482D01*
X103267342Y-89865820D01*
X103428179Y-90026657D01*
X103614517Y-90157134D01*
X103820673Y-90253265D01*
X103820682Y-90253269D01*
X104016999Y-90305872D01*
X104017000Y-90305871D01*
X104017000Y-89460012D01*
X104074007Y-89492925D01*
X104201174Y-89527000D01*
X104332826Y-89527000D01*
X104459993Y-89492925D01*
X104517000Y-89460012D01*
X104517000Y-90305872D01*
X104713317Y-90253269D01*
X104713326Y-90253265D01*
X104919482Y-90157134D01*
X105105820Y-90026657D01*
X105266657Y-89865820D01*
X105397134Y-89679481D01*
X105397135Y-89679479D01*
X105424618Y-89620543D01*
X105470790Y-89568103D01*
X105537983Y-89548951D01*
X105604864Y-89569166D01*
X105649382Y-89620543D01*
X105676864Y-89679479D01*
X105676865Y-89679481D01*
X105807342Y-89865820D01*
X105968179Y-90026657D01*
X106154517Y-90157134D01*
X106360673Y-90253265D01*
X106360682Y-90253269D01*
X106556999Y-90305872D01*
X106557000Y-90305871D01*
X106557000Y-89460012D01*
X106614007Y-89492925D01*
X106741174Y-89527000D01*
X106872826Y-89527000D01*
X106999993Y-89492925D01*
X107057000Y-89460012D01*
X107057000Y-90305872D01*
X107253317Y-90253269D01*
X107253326Y-90253265D01*
X107459482Y-90157134D01*
X107645820Y-90026657D01*
X107806657Y-89865820D01*
X107937132Y-89679484D01*
X107964341Y-89621134D01*
X108010513Y-89568695D01*
X108077707Y-89549542D01*
X108144588Y-89569757D01*
X108189106Y-89621133D01*
X108216431Y-89679732D01*
X108216432Y-89679734D01*
X108346954Y-89866141D01*
X108507858Y-90027045D01*
X108507861Y-90027047D01*
X108694266Y-90157568D01*
X108900504Y-90253739D01*
X109120308Y-90312635D01*
X109282230Y-90326801D01*
X109346998Y-90332468D01*
X109347000Y-90332468D01*
X109347002Y-90332468D01*
X109403807Y-90327498D01*
X109573692Y-90312635D01*
X109793496Y-90253739D01*
X109999734Y-90157568D01*
X110186139Y-90027047D01*
X110347047Y-89866139D01*
X110477568Y-89679734D01*
X110573739Y-89473496D01*
X110632635Y-89253692D01*
X110652468Y-89027000D01*
X110652468Y-89026998D01*
X113121532Y-89026998D01*
X113121532Y-89027001D01*
X113141364Y-89253686D01*
X113141366Y-89253697D01*
X113200258Y-89473488D01*
X113200261Y-89473497D01*
X113296431Y-89679732D01*
X113296432Y-89679734D01*
X113426954Y-89866141D01*
X113587858Y-90027045D01*
X113587861Y-90027047D01*
X113774266Y-90157568D01*
X113980504Y-90253739D01*
X114200308Y-90312635D01*
X114362230Y-90326801D01*
X114426998Y-90332468D01*
X114427000Y-90332468D01*
X114427002Y-90332468D01*
X114483807Y-90327498D01*
X114653692Y-90312635D01*
X114873496Y-90253739D01*
X115079734Y-90157568D01*
X115266139Y-90027047D01*
X115427047Y-89866139D01*
X115557568Y-89679734D01*
X115584618Y-89621724D01*
X115630790Y-89569285D01*
X115697983Y-89550133D01*
X115764865Y-89570348D01*
X115809382Y-89621725D01*
X115836429Y-89679728D01*
X115836432Y-89679734D01*
X115966954Y-89866141D01*
X116127858Y-90027045D01*
X116127861Y-90027047D01*
X116314266Y-90157568D01*
X116520504Y-90253739D01*
X116740308Y-90312635D01*
X116902230Y-90326801D01*
X116966998Y-90332468D01*
X116967000Y-90332468D01*
X116967002Y-90332468D01*
X117023807Y-90327498D01*
X117193692Y-90312635D01*
X117413496Y-90253739D01*
X117619734Y-90157568D01*
X117806139Y-90027047D01*
X117967047Y-89866139D01*
X118097568Y-89679734D01*
X118124618Y-89621724D01*
X118170790Y-89569285D01*
X118237983Y-89550133D01*
X118304865Y-89570348D01*
X118349382Y-89621725D01*
X118376429Y-89679728D01*
X118376432Y-89679734D01*
X118506954Y-89866141D01*
X118667858Y-90027045D01*
X118667861Y-90027047D01*
X118854266Y-90157568D01*
X119060504Y-90253739D01*
X119280308Y-90312635D01*
X119442230Y-90326801D01*
X119506998Y-90332468D01*
X119507000Y-90332468D01*
X119507002Y-90332468D01*
X119563807Y-90327498D01*
X119733692Y-90312635D01*
X119953496Y-90253739D01*
X120159734Y-90157568D01*
X120346139Y-90027047D01*
X120507047Y-89866139D01*
X120637568Y-89679734D01*
X120664618Y-89621724D01*
X120710790Y-89569285D01*
X120777983Y-89550133D01*
X120844865Y-89570348D01*
X120889382Y-89621725D01*
X120916429Y-89679728D01*
X120916432Y-89679734D01*
X121046954Y-89866141D01*
X121207858Y-90027045D01*
X121207861Y-90027047D01*
X121394266Y-90157568D01*
X121600504Y-90253739D01*
X121820308Y-90312635D01*
X121982230Y-90326801D01*
X122046998Y-90332468D01*
X122047000Y-90332468D01*
X122047002Y-90332468D01*
X122103807Y-90327498D01*
X122273692Y-90312635D01*
X122493496Y-90253739D01*
X122699734Y-90157568D01*
X122886139Y-90027047D01*
X123047047Y-89866139D01*
X123177568Y-89679734D01*
X123204618Y-89621724D01*
X123250790Y-89569285D01*
X123317983Y-89550133D01*
X123384865Y-89570348D01*
X123429382Y-89621725D01*
X123456429Y-89679728D01*
X123456432Y-89679734D01*
X123586954Y-89866141D01*
X123747858Y-90027045D01*
X123747861Y-90027047D01*
X123934266Y-90157568D01*
X124140504Y-90253739D01*
X124360308Y-90312635D01*
X124522230Y-90326801D01*
X124586998Y-90332468D01*
X124587000Y-90332468D01*
X124587002Y-90332468D01*
X124643807Y-90327498D01*
X124813692Y-90312635D01*
X125033496Y-90253739D01*
X125239734Y-90157568D01*
X125426139Y-90027047D01*
X125587047Y-89866139D01*
X125717568Y-89679734D01*
X125744618Y-89621724D01*
X125790790Y-89569285D01*
X125857983Y-89550133D01*
X125924865Y-89570348D01*
X125969382Y-89621725D01*
X125996429Y-89679728D01*
X125996432Y-89679734D01*
X126126954Y-89866141D01*
X126287858Y-90027045D01*
X126287861Y-90027047D01*
X126474266Y-90157568D01*
X126680504Y-90253739D01*
X126900308Y-90312635D01*
X127062230Y-90326801D01*
X127126998Y-90332468D01*
X127127000Y-90332468D01*
X127127002Y-90332468D01*
X127183807Y-90327498D01*
X127353692Y-90312635D01*
X127573496Y-90253739D01*
X127779734Y-90157568D01*
X127966139Y-90027047D01*
X128127047Y-89866139D01*
X128257568Y-89679734D01*
X128353739Y-89473496D01*
X128412635Y-89253692D01*
X128432468Y-89027000D01*
X128412635Y-88800308D01*
X128353739Y-88580504D01*
X128257568Y-88374266D01*
X128127047Y-88187861D01*
X128127045Y-88187858D01*
X127966141Y-88026954D01*
X127779734Y-87896432D01*
X127779732Y-87896431D01*
X127573497Y-87800261D01*
X127573488Y-87800258D01*
X127353697Y-87741366D01*
X127353693Y-87741365D01*
X127353692Y-87741365D01*
X127353691Y-87741364D01*
X127353686Y-87741364D01*
X127127002Y-87721532D01*
X127126998Y-87721532D01*
X126900313Y-87741364D01*
X126900302Y-87741366D01*
X126680511Y-87800258D01*
X126680502Y-87800261D01*
X126474267Y-87896431D01*
X126474265Y-87896432D01*
X126287858Y-88026954D01*
X126126954Y-88187858D01*
X125996432Y-88374265D01*
X125996431Y-88374267D01*
X125969382Y-88432275D01*
X125923209Y-88484714D01*
X125856016Y-88503866D01*
X125789135Y-88483650D01*
X125744618Y-88432275D01*
X125717686Y-88374520D01*
X125717568Y-88374266D01*
X125587047Y-88187861D01*
X125587045Y-88187858D01*
X125426141Y-88026954D01*
X125239734Y-87896432D01*
X125239732Y-87896431D01*
X125033497Y-87800261D01*
X125033488Y-87800258D01*
X124813697Y-87741366D01*
X124813693Y-87741365D01*
X124813692Y-87741365D01*
X124813691Y-87741364D01*
X124813686Y-87741364D01*
X124587002Y-87721532D01*
X124586998Y-87721532D01*
X124360313Y-87741364D01*
X124360302Y-87741366D01*
X124140511Y-87800258D01*
X124140502Y-87800261D01*
X123934267Y-87896431D01*
X123934265Y-87896432D01*
X123747858Y-88026954D01*
X123586954Y-88187858D01*
X123456432Y-88374265D01*
X123456431Y-88374267D01*
X123429382Y-88432275D01*
X123383209Y-88484714D01*
X123316016Y-88503866D01*
X123249135Y-88483650D01*
X123204618Y-88432275D01*
X123177686Y-88374520D01*
X123177568Y-88374266D01*
X123047047Y-88187861D01*
X123047045Y-88187858D01*
X122886141Y-88026954D01*
X122699734Y-87896432D01*
X122699732Y-87896431D01*
X122493497Y-87800261D01*
X122493488Y-87800258D01*
X122273697Y-87741366D01*
X122273693Y-87741365D01*
X122273692Y-87741365D01*
X122273691Y-87741364D01*
X122273686Y-87741364D01*
X122047002Y-87721532D01*
X122046998Y-87721532D01*
X121820313Y-87741364D01*
X121820302Y-87741366D01*
X121600511Y-87800258D01*
X121600502Y-87800261D01*
X121394267Y-87896431D01*
X121394265Y-87896432D01*
X121207858Y-88026954D01*
X121046954Y-88187858D01*
X120916432Y-88374265D01*
X120916431Y-88374267D01*
X120889382Y-88432275D01*
X120843209Y-88484714D01*
X120776016Y-88503866D01*
X120709135Y-88483650D01*
X120664618Y-88432275D01*
X120637686Y-88374520D01*
X120637568Y-88374266D01*
X120507047Y-88187861D01*
X120507045Y-88187858D01*
X120346141Y-88026954D01*
X120159734Y-87896432D01*
X120159732Y-87896431D01*
X119953497Y-87800261D01*
X119953488Y-87800258D01*
X119733697Y-87741366D01*
X119733693Y-87741365D01*
X119733692Y-87741365D01*
X119733691Y-87741364D01*
X119733686Y-87741364D01*
X119507002Y-87721532D01*
X119506998Y-87721532D01*
X119280313Y-87741364D01*
X119280302Y-87741366D01*
X119060511Y-87800258D01*
X119060502Y-87800261D01*
X118854267Y-87896431D01*
X118854265Y-87896432D01*
X118667858Y-88026954D01*
X118506954Y-88187858D01*
X118376432Y-88374265D01*
X118376431Y-88374267D01*
X118349382Y-88432275D01*
X118303209Y-88484714D01*
X118236016Y-88503866D01*
X118169135Y-88483650D01*
X118124618Y-88432275D01*
X118097686Y-88374520D01*
X118097568Y-88374266D01*
X117967047Y-88187861D01*
X117967045Y-88187858D01*
X117806141Y-88026954D01*
X117619734Y-87896432D01*
X117619732Y-87896431D01*
X117413497Y-87800261D01*
X117413488Y-87800258D01*
X117193697Y-87741366D01*
X117193693Y-87741365D01*
X117193692Y-87741365D01*
X117193691Y-87741364D01*
X117193686Y-87741364D01*
X116967002Y-87721532D01*
X116966998Y-87721532D01*
X116740313Y-87741364D01*
X116740302Y-87741366D01*
X116520511Y-87800258D01*
X116520502Y-87800261D01*
X116314267Y-87896431D01*
X116314265Y-87896432D01*
X116127858Y-88026954D01*
X115966954Y-88187858D01*
X115836432Y-88374265D01*
X115836431Y-88374267D01*
X115809382Y-88432275D01*
X115763209Y-88484714D01*
X115696016Y-88503866D01*
X115629135Y-88483650D01*
X115584618Y-88432275D01*
X115557686Y-88374520D01*
X115557568Y-88374266D01*
X115427047Y-88187861D01*
X115427045Y-88187858D01*
X115266141Y-88026954D01*
X115079734Y-87896432D01*
X115079732Y-87896431D01*
X114873497Y-87800261D01*
X114873488Y-87800258D01*
X114653697Y-87741366D01*
X114653693Y-87741365D01*
X114653692Y-87741365D01*
X114653691Y-87741364D01*
X114653686Y-87741364D01*
X114427002Y-87721532D01*
X114426998Y-87721532D01*
X114200313Y-87741364D01*
X114200302Y-87741366D01*
X113980511Y-87800258D01*
X113980502Y-87800261D01*
X113774267Y-87896431D01*
X113774265Y-87896432D01*
X113587858Y-88026954D01*
X113426954Y-88187858D01*
X113296432Y-88374265D01*
X113296431Y-88374267D01*
X113200261Y-88580502D01*
X113200258Y-88580511D01*
X113141366Y-88800302D01*
X113141364Y-88800313D01*
X113121532Y-89026998D01*
X110652468Y-89026998D01*
X110632635Y-88800308D01*
X110573739Y-88580504D01*
X110477568Y-88374266D01*
X110347047Y-88187861D01*
X110347045Y-88187858D01*
X110186141Y-88026954D01*
X109999734Y-87896432D01*
X109999732Y-87896431D01*
X109793497Y-87800261D01*
X109793488Y-87800258D01*
X109573697Y-87741366D01*
X109573693Y-87741365D01*
X109573692Y-87741365D01*
X109573691Y-87741364D01*
X109573686Y-87741364D01*
X109347002Y-87721532D01*
X109346998Y-87721532D01*
X109120313Y-87741364D01*
X109120302Y-87741366D01*
X108900511Y-87800258D01*
X108900502Y-87800261D01*
X108694267Y-87896431D01*
X108694265Y-87896432D01*
X108507858Y-88026954D01*
X108346954Y-88187858D01*
X108216433Y-88374264D01*
X108216432Y-88374266D01*
X108216315Y-88374518D01*
X108189106Y-88432867D01*
X108142933Y-88485306D01*
X108075739Y-88504457D01*
X108008858Y-88484241D01*
X107964342Y-88432865D01*
X107937135Y-88374520D01*
X107937134Y-88374518D01*
X107806657Y-88188179D01*
X107645820Y-88027342D01*
X107459482Y-87896865D01*
X107253328Y-87800734D01*
X107057000Y-87748127D01*
X107057000Y-88593988D01*
X106999993Y-88561075D01*
X106872826Y-88527000D01*
X106741174Y-88527000D01*
X106614007Y-88561075D01*
X106557000Y-88593988D01*
X106557000Y-87748127D01*
X106360671Y-87800734D01*
X106154517Y-87896865D01*
X105968179Y-88027342D01*
X105807342Y-88188179D01*
X105676865Y-88374517D01*
X105649382Y-88433457D01*
X105603210Y-88485896D01*
X105536016Y-88505048D01*
X105469135Y-88484832D01*
X105424618Y-88433457D01*
X105397134Y-88374517D01*
X105266657Y-88188179D01*
X105105820Y-88027342D01*
X104919482Y-87896865D01*
X104713328Y-87800734D01*
X104517000Y-87748127D01*
X104517000Y-88593988D01*
X104459993Y-88561075D01*
X104332826Y-88527000D01*
X104201174Y-88527000D01*
X104074007Y-88561075D01*
X104017000Y-88593988D01*
X104017000Y-87748127D01*
X103820671Y-87800734D01*
X103614517Y-87896865D01*
X103428179Y-88027342D01*
X103267342Y-88188179D01*
X103136867Y-88374515D01*
X103109657Y-88432867D01*
X103063484Y-88485306D01*
X102996290Y-88504457D01*
X102929409Y-88484241D01*
X102884893Y-88432865D01*
X102857685Y-88374518D01*
X102857568Y-88374266D01*
X102727047Y-88187861D01*
X102727045Y-88187858D01*
X102566141Y-88026954D01*
X102379734Y-87896432D01*
X102379732Y-87896431D01*
X102173497Y-87800261D01*
X102173488Y-87800258D01*
X101953697Y-87741366D01*
X101953693Y-87741365D01*
X101953692Y-87741365D01*
X101953691Y-87741364D01*
X101953686Y-87741364D01*
X101727002Y-87721532D01*
X101726998Y-87721532D01*
X101500313Y-87741364D01*
X101500302Y-87741366D01*
X101280511Y-87800258D01*
X101280502Y-87800261D01*
X101074267Y-87896431D01*
X101074265Y-87896432D01*
X100887858Y-88026954D01*
X100726954Y-88187858D01*
X100596432Y-88374265D01*
X100596431Y-88374267D01*
X100569382Y-88432275D01*
X100523209Y-88484714D01*
X100456016Y-88503866D01*
X100389135Y-88483650D01*
X100344618Y-88432275D01*
X100317686Y-88374520D01*
X100317568Y-88374266D01*
X100187047Y-88187861D01*
X100187045Y-88187858D01*
X100026141Y-88026954D01*
X99839734Y-87896432D01*
X99839732Y-87896431D01*
X99633497Y-87800261D01*
X99633488Y-87800258D01*
X99413697Y-87741366D01*
X99413693Y-87741365D01*
X99413692Y-87741365D01*
X99413691Y-87741364D01*
X99413686Y-87741364D01*
X99187002Y-87721532D01*
X99186998Y-87721532D01*
X98960313Y-87741364D01*
X98960302Y-87741366D01*
X98740511Y-87800258D01*
X98740502Y-87800261D01*
X98534267Y-87896431D01*
X98534265Y-87896432D01*
X98347858Y-88026954D01*
X98186954Y-88187858D01*
X98056432Y-88374265D01*
X98056431Y-88374267D01*
X98029382Y-88432275D01*
X97983209Y-88484714D01*
X97916016Y-88503866D01*
X97849135Y-88483650D01*
X97804618Y-88432275D01*
X97777686Y-88374520D01*
X97777568Y-88374266D01*
X97647047Y-88187861D01*
X97647045Y-88187858D01*
X97486141Y-88026954D01*
X97299734Y-87896432D01*
X97299732Y-87896431D01*
X97093497Y-87800261D01*
X97093488Y-87800258D01*
X96873697Y-87741366D01*
X96873693Y-87741365D01*
X96873692Y-87741365D01*
X96873691Y-87741364D01*
X96873686Y-87741364D01*
X96647002Y-87721532D01*
X96646998Y-87721532D01*
X96420313Y-87741364D01*
X96420302Y-87741366D01*
X96200511Y-87800258D01*
X96200502Y-87800261D01*
X95994267Y-87896431D01*
X95994265Y-87896432D01*
X95807858Y-88026954D01*
X95646954Y-88187858D01*
X95516432Y-88374265D01*
X95516431Y-88374267D01*
X95489382Y-88432275D01*
X95443209Y-88484714D01*
X95376016Y-88503866D01*
X95309135Y-88483650D01*
X95264618Y-88432275D01*
X95237686Y-88374520D01*
X95237568Y-88374266D01*
X95107047Y-88187861D01*
X95107045Y-88187858D01*
X94946141Y-88026954D01*
X94759734Y-87896432D01*
X94759732Y-87896431D01*
X94553497Y-87800261D01*
X94553488Y-87800258D01*
X94333697Y-87741366D01*
X94333693Y-87741365D01*
X94333692Y-87741365D01*
X94333691Y-87741364D01*
X94333686Y-87741364D01*
X94107002Y-87721532D01*
X94106998Y-87721532D01*
X93880313Y-87741364D01*
X93880302Y-87741366D01*
X93660511Y-87800258D01*
X93660502Y-87800261D01*
X93454267Y-87896431D01*
X93454265Y-87896432D01*
X93267858Y-88026954D01*
X93106954Y-88187858D01*
X93089725Y-88212464D01*
X93035147Y-88256088D01*
X92965648Y-88263280D01*
X92903294Y-88231757D01*
X92867882Y-88171526D01*
X92864861Y-88154591D01*
X92861091Y-88119516D01*
X92810797Y-87984671D01*
X92810793Y-87984664D01*
X92724547Y-87869455D01*
X92724544Y-87869452D01*
X92609335Y-87783206D01*
X92609328Y-87783202D01*
X92474482Y-87732908D01*
X92474483Y-87732908D01*
X92414883Y-87726501D01*
X92414881Y-87726500D01*
X92414873Y-87726500D01*
X92414864Y-87726500D01*
X90719129Y-87726500D01*
X90719123Y-87726501D01*
X90659516Y-87732908D01*
X90524671Y-87783202D01*
X90524664Y-87783206D01*
X90409455Y-87869452D01*
X90409452Y-87869455D01*
X90323206Y-87984664D01*
X90323202Y-87984671D01*
X90272908Y-88119517D01*
X90266501Y-88179116D01*
X90266500Y-88179135D01*
X64000500Y-88179135D01*
X64000500Y-73578000D01*
X109721815Y-73578000D01*
X109740503Y-73755805D01*
X109740504Y-73755807D01*
X109795747Y-73925829D01*
X109795750Y-73925835D01*
X109885141Y-74080665D01*
X109913954Y-74112665D01*
X110004764Y-74213521D01*
X110004767Y-74213523D01*
X110004770Y-74213526D01*
X110149407Y-74318612D01*
X110312733Y-74391329D01*
X110487609Y-74428500D01*
X110487610Y-74428500D01*
X110666389Y-74428500D01*
X110666391Y-74428500D01*
X110841267Y-74391329D01*
X111004593Y-74318612D01*
X111149230Y-74213526D01*
X111268859Y-74080665D01*
X111358250Y-73925835D01*
X111413497Y-73755803D01*
X111432185Y-73578000D01*
X111413497Y-73400197D01*
X111379773Y-73296405D01*
X111358252Y-73230170D01*
X111358249Y-73230164D01*
X111351857Y-73219092D01*
X111268859Y-73075335D01*
X111222003Y-73023296D01*
X111149235Y-72942478D01*
X111149232Y-72942476D01*
X111149231Y-72942475D01*
X111149230Y-72942474D01*
X111004593Y-72837388D01*
X110841267Y-72764671D01*
X110841265Y-72764670D01*
X110713594Y-72737533D01*
X110666391Y-72727500D01*
X110487609Y-72727500D01*
X110456954Y-72734015D01*
X110312733Y-72764670D01*
X110312728Y-72764672D01*
X110149408Y-72837387D01*
X110004768Y-72942475D01*
X109885140Y-73075336D01*
X109795750Y-73230164D01*
X109795747Y-73230170D01*
X109740504Y-73400192D01*
X109740503Y-73400194D01*
X109721815Y-73578000D01*
X64000500Y-73578000D01*
X64000500Y-67487800D01*
X111220415Y-67487800D01*
X111239103Y-67665605D01*
X111239104Y-67665607D01*
X111294347Y-67835629D01*
X111294350Y-67835635D01*
X111383741Y-67990465D01*
X111425412Y-68036746D01*
X111503364Y-68123321D01*
X111503367Y-68123323D01*
X111503370Y-68123326D01*
X111648007Y-68228412D01*
X111811333Y-68301129D01*
X111986209Y-68338300D01*
X111986210Y-68338300D01*
X112164989Y-68338300D01*
X112164991Y-68338300D01*
X112339867Y-68301129D01*
X112503193Y-68228412D01*
X112647830Y-68123326D01*
X112767459Y-67990465D01*
X112856850Y-67835635D01*
X112912097Y-67665603D01*
X112930785Y-67487800D01*
X112912097Y-67309997D01*
X112856850Y-67139965D01*
X112767459Y-66985135D01*
X112720603Y-66933096D01*
X112647835Y-66852278D01*
X112647832Y-66852276D01*
X112647831Y-66852275D01*
X112647830Y-66852274D01*
X112503193Y-66747188D01*
X112339867Y-66674471D01*
X112339865Y-66674470D01*
X112212194Y-66647333D01*
X112164991Y-66637300D01*
X111986209Y-66637300D01*
X111955554Y-66643815D01*
X111811333Y-66674470D01*
X111811328Y-66674472D01*
X111648008Y-66747187D01*
X111503368Y-66852275D01*
X111383740Y-66985136D01*
X111294350Y-67139964D01*
X111294347Y-67139970D01*
X111239104Y-67309992D01*
X111239103Y-67309994D01*
X111220415Y-67487800D01*
X64000500Y-67487800D01*
X64000500Y-62458596D01*
X100170235Y-62458596D01*
X100170235Y-62458603D01*
X100190430Y-62637849D01*
X100190431Y-62637854D01*
X100250011Y-62808123D01*
X100333536Y-62941051D01*
X100352536Y-63008287D01*
X100333537Y-63072993D01*
X100300809Y-63125080D01*
X100241233Y-63295337D01*
X100241230Y-63295350D01*
X100221035Y-63474596D01*
X100221035Y-63474603D01*
X100241230Y-63653849D01*
X100241231Y-63653854D01*
X100300811Y-63824123D01*
X100396784Y-63976862D01*
X100483688Y-64063766D01*
X100517173Y-64125089D01*
X100512189Y-64194781D01*
X100501001Y-64217418D01*
X100453212Y-64293474D01*
X100393631Y-64463745D01*
X100393630Y-64463750D01*
X100373435Y-64642996D01*
X100373435Y-64643003D01*
X100393630Y-64822249D01*
X100393631Y-64822254D01*
X100453211Y-64992523D01*
X100535543Y-65123553D01*
X100549184Y-65145262D01*
X100676738Y-65272816D01*
X100829478Y-65368789D01*
X100999745Y-65428368D01*
X100999750Y-65428369D01*
X101178996Y-65448565D01*
X101179000Y-65448565D01*
X101179004Y-65448565D01*
X101358249Y-65428369D01*
X101358252Y-65428368D01*
X101358255Y-65428368D01*
X101528522Y-65368789D01*
X101681262Y-65272816D01*
X101808816Y-65145262D01*
X101904789Y-64992522D01*
X101964368Y-64822255D01*
X101964369Y-64822249D01*
X101984565Y-64643003D01*
X101984565Y-64642996D01*
X101964369Y-64463750D01*
X101964368Y-64463745D01*
X101904788Y-64293476D01*
X101856997Y-64217418D01*
X101808816Y-64140738D01*
X101721911Y-64053833D01*
X101688426Y-63992510D01*
X101693410Y-63922818D01*
X101704599Y-63900179D01*
X101720995Y-63874086D01*
X101752389Y-63824122D01*
X101811968Y-63653855D01*
X101811969Y-63653849D01*
X101832165Y-63474603D01*
X101832165Y-63474596D01*
X101811969Y-63295350D01*
X101811968Y-63295345D01*
X101811965Y-63295337D01*
X101752389Y-63125078D01*
X101668862Y-62992146D01*
X101649863Y-62924912D01*
X101668864Y-62860203D01*
X101701588Y-62808124D01*
X101761168Y-62637854D01*
X101761169Y-62637849D01*
X101781365Y-62458603D01*
X101781365Y-62458596D01*
X101761169Y-62279350D01*
X101761168Y-62279345D01*
X101701588Y-62109076D01*
X101605615Y-61956337D01*
X101507131Y-61857853D01*
X101473646Y-61796530D01*
X101478630Y-61726838D01*
X101520502Y-61670905D01*
X101521842Y-61669915D01*
X101624230Y-61595526D01*
X101743859Y-61462665D01*
X101833250Y-61307835D01*
X101888497Y-61137803D01*
X101907185Y-60960000D01*
X101888497Y-60782197D01*
X101833250Y-60612165D01*
X101743859Y-60457335D01*
X101697003Y-60405296D01*
X101624235Y-60324478D01*
X101624232Y-60324476D01*
X101624231Y-60324475D01*
X101624230Y-60324474D01*
X101479593Y-60219388D01*
X101316267Y-60146671D01*
X101316265Y-60146670D01*
X101188594Y-60119533D01*
X101141391Y-60109500D01*
X100962609Y-60109500D01*
X100931954Y-60116015D01*
X100787733Y-60146670D01*
X100787728Y-60146672D01*
X100624408Y-60219387D01*
X100479768Y-60324475D01*
X100360140Y-60457336D01*
X100270750Y-60612164D01*
X100270747Y-60612170D01*
X100215504Y-60782192D01*
X100215503Y-60782194D01*
X100196815Y-60960000D01*
X100215503Y-61137805D01*
X100215504Y-61137807D01*
X100270747Y-61307829D01*
X100270750Y-61307835D01*
X100360141Y-61462665D01*
X100401812Y-61508946D01*
X100479764Y-61595521D01*
X100479767Y-61595523D01*
X100479770Y-61595526D01*
X100500712Y-61610741D01*
X100543377Y-61666072D01*
X100549356Y-61735685D01*
X100516750Y-61797480D01*
X100493801Y-61816051D01*
X100473539Y-61828782D01*
X100345984Y-61956337D01*
X100250011Y-62109076D01*
X100190431Y-62279345D01*
X100190430Y-62279350D01*
X100170235Y-62458596D01*
X64000500Y-62458596D01*
X64000500Y-48386996D01*
X113875435Y-48386996D01*
X113875435Y-48387003D01*
X113895630Y-48566249D01*
X113895631Y-48566254D01*
X113955211Y-48736523D01*
X114051184Y-48889262D01*
X114178738Y-49016816D01*
X114331478Y-49112789D01*
X114501745Y-49172368D01*
X114501750Y-49172369D01*
X114680996Y-49192565D01*
X114681000Y-49192565D01*
X114681004Y-49192565D01*
X114860249Y-49172369D01*
X114860252Y-49172368D01*
X114860255Y-49172368D01*
X115030522Y-49112789D01*
X115183262Y-49016816D01*
X115310816Y-48889262D01*
X115406789Y-48736522D01*
X115466368Y-48566255D01*
X115486565Y-48387000D01*
X115466368Y-48207745D01*
X115406789Y-48037478D01*
X115310816Y-47884738D01*
X115183262Y-47757184D01*
X115030523Y-47661211D01*
X114860254Y-47601631D01*
X114860249Y-47601630D01*
X114681004Y-47581435D01*
X114680996Y-47581435D01*
X114501750Y-47601630D01*
X114501745Y-47601631D01*
X114331476Y-47661211D01*
X114178737Y-47757184D01*
X114051184Y-47884737D01*
X113955211Y-48037476D01*
X113895631Y-48207745D01*
X113895630Y-48207750D01*
X113875435Y-48386996D01*
X64000500Y-48386996D01*
X64000500Y-40766998D01*
X81121532Y-40766998D01*
X81121532Y-40767001D01*
X81141364Y-40993686D01*
X81141366Y-40993697D01*
X81200258Y-41213488D01*
X81200261Y-41213497D01*
X81296431Y-41419732D01*
X81296432Y-41419734D01*
X81426954Y-41606141D01*
X81587858Y-41767045D01*
X81587861Y-41767047D01*
X81774266Y-41897568D01*
X81980504Y-41993739D01*
X82200308Y-42052635D01*
X82362230Y-42066801D01*
X82426998Y-42072468D01*
X82427000Y-42072468D01*
X82427002Y-42072468D01*
X82483673Y-42067509D01*
X82653692Y-42052635D01*
X82873496Y-41993739D01*
X83079734Y-41897568D01*
X83266139Y-41767047D01*
X83427047Y-41606139D01*
X83557568Y-41419734D01*
X83584618Y-41361724D01*
X83630790Y-41309285D01*
X83697983Y-41290133D01*
X83764865Y-41310348D01*
X83809382Y-41361725D01*
X83836429Y-41419728D01*
X83836432Y-41419734D01*
X83966954Y-41606141D01*
X84127858Y-41767045D01*
X84127861Y-41767047D01*
X84314266Y-41897568D01*
X84520504Y-41993739D01*
X84740308Y-42052635D01*
X84902230Y-42066801D01*
X84966998Y-42072468D01*
X84967000Y-42072468D01*
X84967002Y-42072468D01*
X85023673Y-42067509D01*
X85193692Y-42052635D01*
X85413496Y-41993739D01*
X85619734Y-41897568D01*
X85806139Y-41767047D01*
X85967047Y-41606139D01*
X86097568Y-41419734D01*
X86124618Y-41361724D01*
X86170790Y-41309285D01*
X86237983Y-41290133D01*
X86304865Y-41310348D01*
X86349382Y-41361725D01*
X86376429Y-41419728D01*
X86376432Y-41419734D01*
X86506954Y-41606141D01*
X86667858Y-41767045D01*
X86667861Y-41767047D01*
X86854266Y-41897568D01*
X87060504Y-41993739D01*
X87280308Y-42052635D01*
X87442230Y-42066801D01*
X87506998Y-42072468D01*
X87507000Y-42072468D01*
X87507002Y-42072468D01*
X87563673Y-42067509D01*
X87733692Y-42052635D01*
X87953496Y-41993739D01*
X88159734Y-41897568D01*
X88346139Y-41767047D01*
X88507047Y-41606139D01*
X88637568Y-41419734D01*
X88664895Y-41361129D01*
X88711064Y-41308695D01*
X88778257Y-41289542D01*
X88845139Y-41309757D01*
X88889657Y-41361133D01*
X88916865Y-41419482D01*
X89047342Y-41605820D01*
X89208179Y-41766657D01*
X89394517Y-41897134D01*
X89600673Y-41993265D01*
X89600682Y-41993269D01*
X89796999Y-42045872D01*
X89797000Y-42045871D01*
X89797000Y-41200012D01*
X89854007Y-41232925D01*
X89981174Y-41267000D01*
X90112826Y-41267000D01*
X90239993Y-41232925D01*
X90297000Y-41200012D01*
X90297000Y-42045872D01*
X90493317Y-41993269D01*
X90493326Y-41993265D01*
X90699482Y-41897134D01*
X90885820Y-41766657D01*
X91046657Y-41605820D01*
X91177132Y-41419484D01*
X91204341Y-41361134D01*
X91250513Y-41308695D01*
X91317707Y-41289542D01*
X91384588Y-41309757D01*
X91429106Y-41361133D01*
X91456431Y-41419732D01*
X91456432Y-41419734D01*
X91586954Y-41606141D01*
X91747858Y-41767045D01*
X91747861Y-41767047D01*
X91934266Y-41897568D01*
X92140504Y-41993739D01*
X92360308Y-42052635D01*
X92522230Y-42066801D01*
X92586998Y-42072468D01*
X92587000Y-42072468D01*
X92587002Y-42072468D01*
X92643673Y-42067509D01*
X92813692Y-42052635D01*
X93033496Y-41993739D01*
X93239734Y-41897568D01*
X93426139Y-41767047D01*
X93587047Y-41606139D01*
X93717568Y-41419734D01*
X93744618Y-41361724D01*
X93790790Y-41309285D01*
X93857983Y-41290133D01*
X93924865Y-41310348D01*
X93969382Y-41361725D01*
X93996429Y-41419728D01*
X93996432Y-41419734D01*
X94126954Y-41606141D01*
X94287858Y-41767045D01*
X94287861Y-41767047D01*
X94474266Y-41897568D01*
X94680504Y-41993739D01*
X94900308Y-42052635D01*
X95062230Y-42066801D01*
X95126998Y-42072468D01*
X95127000Y-42072468D01*
X95127002Y-42072468D01*
X95183673Y-42067509D01*
X95353692Y-42052635D01*
X95573496Y-41993739D01*
X95779734Y-41897568D01*
X95966139Y-41767047D01*
X96127047Y-41606139D01*
X96257568Y-41419734D01*
X96284618Y-41361724D01*
X96330790Y-41309285D01*
X96397983Y-41290133D01*
X96464865Y-41310348D01*
X96509382Y-41361725D01*
X96536429Y-41419728D01*
X96536432Y-41419734D01*
X96666954Y-41606141D01*
X96827858Y-41767045D01*
X96827861Y-41767047D01*
X97014266Y-41897568D01*
X97220504Y-41993739D01*
X97440308Y-42052635D01*
X97602230Y-42066801D01*
X97666998Y-42072468D01*
X97667000Y-42072468D01*
X97667002Y-42072468D01*
X97723673Y-42067509D01*
X97893692Y-42052635D01*
X98113496Y-41993739D01*
X98319734Y-41897568D01*
X98506139Y-41767047D01*
X98667047Y-41606139D01*
X98797568Y-41419734D01*
X98824618Y-41361724D01*
X98870790Y-41309285D01*
X98937983Y-41290133D01*
X99004865Y-41310348D01*
X99049382Y-41361725D01*
X99076429Y-41419728D01*
X99076432Y-41419734D01*
X99206954Y-41606141D01*
X99367858Y-41767045D01*
X99367861Y-41767047D01*
X99554266Y-41897568D01*
X99760504Y-41993739D01*
X99980308Y-42052635D01*
X100142230Y-42066801D01*
X100206998Y-42072468D01*
X100207000Y-42072468D01*
X100207002Y-42072468D01*
X100263673Y-42067509D01*
X100433692Y-42052635D01*
X100653496Y-41993739D01*
X100859734Y-41897568D01*
X101046139Y-41767047D01*
X101207047Y-41606139D01*
X101337568Y-41419734D01*
X101364618Y-41361724D01*
X101410790Y-41309285D01*
X101477983Y-41290133D01*
X101544865Y-41310348D01*
X101589382Y-41361725D01*
X101616429Y-41419728D01*
X101616432Y-41419734D01*
X101746954Y-41606141D01*
X101907858Y-41767045D01*
X101907861Y-41767047D01*
X102094266Y-41897568D01*
X102300504Y-41993739D01*
X102520308Y-42052635D01*
X102682230Y-42066801D01*
X102746998Y-42072468D01*
X102747000Y-42072468D01*
X102747002Y-42072468D01*
X102803673Y-42067509D01*
X102973692Y-42052635D01*
X103193496Y-41993739D01*
X103399734Y-41897568D01*
X103586139Y-41767047D01*
X103747047Y-41606139D01*
X103877568Y-41419734D01*
X103904618Y-41361724D01*
X103950790Y-41309285D01*
X104017983Y-41290133D01*
X104084865Y-41310348D01*
X104129382Y-41361725D01*
X104156429Y-41419728D01*
X104156432Y-41419734D01*
X104286954Y-41606141D01*
X104447858Y-41767045D01*
X104447861Y-41767047D01*
X104634266Y-41897568D01*
X104840504Y-41993739D01*
X105060308Y-42052635D01*
X105222230Y-42066801D01*
X105286998Y-42072468D01*
X105287000Y-42072468D01*
X105287002Y-42072468D01*
X105343673Y-42067509D01*
X105513692Y-42052635D01*
X105733496Y-41993739D01*
X105939734Y-41897568D01*
X106126139Y-41767047D01*
X106287047Y-41606139D01*
X106417568Y-41419734D01*
X106513739Y-41213496D01*
X106572635Y-40993692D01*
X106592468Y-40767000D01*
X106592468Y-40766998D01*
X108041532Y-40766998D01*
X108041532Y-40767001D01*
X108061364Y-40993686D01*
X108061366Y-40993697D01*
X108120258Y-41213488D01*
X108120261Y-41213497D01*
X108216431Y-41419732D01*
X108216432Y-41419734D01*
X108346954Y-41606141D01*
X108507858Y-41767045D01*
X108507861Y-41767047D01*
X108694266Y-41897568D01*
X108900504Y-41993739D01*
X109120308Y-42052635D01*
X109282230Y-42066801D01*
X109346998Y-42072468D01*
X109347000Y-42072468D01*
X109347002Y-42072468D01*
X109403673Y-42067509D01*
X109573692Y-42052635D01*
X109793496Y-41993739D01*
X109999734Y-41897568D01*
X110186139Y-41767047D01*
X110347047Y-41606139D01*
X110477568Y-41419734D01*
X110504618Y-41361724D01*
X110550790Y-41309285D01*
X110617983Y-41290133D01*
X110684865Y-41310348D01*
X110729382Y-41361725D01*
X110756429Y-41419728D01*
X110756432Y-41419734D01*
X110886954Y-41606141D01*
X111047858Y-41767045D01*
X111047861Y-41767047D01*
X111234266Y-41897568D01*
X111440504Y-41993739D01*
X111660308Y-42052635D01*
X111822230Y-42066801D01*
X111886998Y-42072468D01*
X111887000Y-42072468D01*
X111887002Y-42072468D01*
X111943673Y-42067509D01*
X112113692Y-42052635D01*
X112333496Y-41993739D01*
X112539734Y-41897568D01*
X112726139Y-41767047D01*
X112887047Y-41606139D01*
X113017568Y-41419734D01*
X113044618Y-41361724D01*
X113090790Y-41309285D01*
X113157983Y-41290133D01*
X113224865Y-41310348D01*
X113269382Y-41361725D01*
X113296429Y-41419728D01*
X113296432Y-41419734D01*
X113426954Y-41606141D01*
X113587858Y-41767045D01*
X113587861Y-41767047D01*
X113774266Y-41897568D01*
X113980504Y-41993739D01*
X114200308Y-42052635D01*
X114362230Y-42066801D01*
X114426998Y-42072468D01*
X114427000Y-42072468D01*
X114427002Y-42072468D01*
X114483673Y-42067509D01*
X114653692Y-42052635D01*
X114873496Y-41993739D01*
X115079734Y-41897568D01*
X115266139Y-41767047D01*
X115427047Y-41606139D01*
X115557568Y-41419734D01*
X115584618Y-41361724D01*
X115630790Y-41309285D01*
X115697983Y-41290133D01*
X115764865Y-41310348D01*
X115809382Y-41361725D01*
X115836429Y-41419728D01*
X115836432Y-41419734D01*
X115966954Y-41606141D01*
X116127858Y-41767045D01*
X116127861Y-41767047D01*
X116314266Y-41897568D01*
X116520504Y-41993739D01*
X116740308Y-42052635D01*
X116902230Y-42066801D01*
X116966998Y-42072468D01*
X116967000Y-42072468D01*
X116967002Y-42072468D01*
X117023673Y-42067509D01*
X117193692Y-42052635D01*
X117413496Y-41993739D01*
X117619734Y-41897568D01*
X117806139Y-41767047D01*
X117967047Y-41606139D01*
X118097568Y-41419734D01*
X118124618Y-41361724D01*
X118170790Y-41309285D01*
X118237983Y-41290133D01*
X118304865Y-41310348D01*
X118349382Y-41361725D01*
X118376429Y-41419728D01*
X118376432Y-41419734D01*
X118506954Y-41606141D01*
X118667858Y-41767045D01*
X118667861Y-41767047D01*
X118854266Y-41897568D01*
X119060504Y-41993739D01*
X119280308Y-42052635D01*
X119442230Y-42066801D01*
X119506998Y-42072468D01*
X119507000Y-42072468D01*
X119507002Y-42072468D01*
X119563673Y-42067509D01*
X119733692Y-42052635D01*
X119953496Y-41993739D01*
X120159734Y-41897568D01*
X120346139Y-41767047D01*
X120507047Y-41606139D01*
X120637568Y-41419734D01*
X120664618Y-41361724D01*
X120710790Y-41309285D01*
X120777983Y-41290133D01*
X120844865Y-41310348D01*
X120889382Y-41361725D01*
X120916429Y-41419728D01*
X120916432Y-41419734D01*
X121046954Y-41606141D01*
X121207858Y-41767045D01*
X121207861Y-41767047D01*
X121394266Y-41897568D01*
X121600504Y-41993739D01*
X121820308Y-42052635D01*
X121982230Y-42066801D01*
X122046998Y-42072468D01*
X122047000Y-42072468D01*
X122047002Y-42072468D01*
X122103673Y-42067509D01*
X122273692Y-42052635D01*
X122493496Y-41993739D01*
X122699734Y-41897568D01*
X122886139Y-41767047D01*
X123047047Y-41606139D01*
X123177568Y-41419734D01*
X123204618Y-41361724D01*
X123250790Y-41309285D01*
X123317983Y-41290133D01*
X123384865Y-41310348D01*
X123429382Y-41361725D01*
X123456429Y-41419728D01*
X123456432Y-41419734D01*
X123586954Y-41606141D01*
X123747858Y-41767045D01*
X123747861Y-41767047D01*
X123934266Y-41897568D01*
X124140504Y-41993739D01*
X124360308Y-42052635D01*
X124522230Y-42066801D01*
X124586998Y-42072468D01*
X124587000Y-42072468D01*
X124587002Y-42072468D01*
X124643673Y-42067509D01*
X124813692Y-42052635D01*
X125033496Y-41993739D01*
X125239734Y-41897568D01*
X125426139Y-41767047D01*
X125587047Y-41606139D01*
X125717568Y-41419734D01*
X125744618Y-41361724D01*
X125790790Y-41309285D01*
X125857983Y-41290133D01*
X125924865Y-41310348D01*
X125969382Y-41361725D01*
X125996429Y-41419728D01*
X125996432Y-41419734D01*
X126126954Y-41606141D01*
X126287858Y-41767045D01*
X126287861Y-41767047D01*
X126474266Y-41897568D01*
X126680504Y-41993739D01*
X126900308Y-42052635D01*
X127062230Y-42066801D01*
X127126998Y-42072468D01*
X127127000Y-42072468D01*
X127127002Y-42072468D01*
X127183673Y-42067509D01*
X127353692Y-42052635D01*
X127573496Y-41993739D01*
X127779734Y-41897568D01*
X127966139Y-41767047D01*
X128127047Y-41606139D01*
X128257568Y-41419734D01*
X128353739Y-41213496D01*
X128412635Y-40993692D01*
X128432468Y-40767000D01*
X128412635Y-40540308D01*
X128353739Y-40320504D01*
X128257568Y-40114266D01*
X128127047Y-39927861D01*
X128127045Y-39927858D01*
X127966141Y-39766954D01*
X127779734Y-39636432D01*
X127779732Y-39636431D01*
X127573497Y-39540261D01*
X127573488Y-39540258D01*
X127353697Y-39481366D01*
X127353693Y-39481365D01*
X127353692Y-39481365D01*
X127353691Y-39481364D01*
X127353686Y-39481364D01*
X127127002Y-39461532D01*
X127126998Y-39461532D01*
X126900313Y-39481364D01*
X126900302Y-39481366D01*
X126680511Y-39540258D01*
X126680502Y-39540261D01*
X126474267Y-39636431D01*
X126474265Y-39636432D01*
X126287858Y-39766954D01*
X126126954Y-39927858D01*
X125996432Y-40114265D01*
X125996431Y-40114267D01*
X125969382Y-40172275D01*
X125923209Y-40224714D01*
X125856016Y-40243866D01*
X125789135Y-40223650D01*
X125744618Y-40172275D01*
X125717686Y-40114520D01*
X125717568Y-40114266D01*
X125587047Y-39927861D01*
X125587045Y-39927858D01*
X125426141Y-39766954D01*
X125239734Y-39636432D01*
X125239732Y-39636431D01*
X125033497Y-39540261D01*
X125033488Y-39540258D01*
X124813697Y-39481366D01*
X124813693Y-39481365D01*
X124813692Y-39481365D01*
X124813691Y-39481364D01*
X124813686Y-39481364D01*
X124587002Y-39461532D01*
X124586998Y-39461532D01*
X124360313Y-39481364D01*
X124360302Y-39481366D01*
X124140511Y-39540258D01*
X124140502Y-39540261D01*
X123934267Y-39636431D01*
X123934265Y-39636432D01*
X123747858Y-39766954D01*
X123586954Y-39927858D01*
X123456432Y-40114265D01*
X123456431Y-40114267D01*
X123429382Y-40172275D01*
X123383209Y-40224714D01*
X123316016Y-40243866D01*
X123249135Y-40223650D01*
X123204618Y-40172275D01*
X123177686Y-40114520D01*
X123177568Y-40114266D01*
X123047047Y-39927861D01*
X123047045Y-39927858D01*
X122886141Y-39766954D01*
X122699734Y-39636432D01*
X122699732Y-39636431D01*
X122493497Y-39540261D01*
X122493488Y-39540258D01*
X122273697Y-39481366D01*
X122273693Y-39481365D01*
X122273692Y-39481365D01*
X122273691Y-39481364D01*
X122273686Y-39481364D01*
X122047002Y-39461532D01*
X122046998Y-39461532D01*
X121820313Y-39481364D01*
X121820302Y-39481366D01*
X121600511Y-39540258D01*
X121600502Y-39540261D01*
X121394267Y-39636431D01*
X121394265Y-39636432D01*
X121207858Y-39766954D01*
X121046954Y-39927858D01*
X120916432Y-40114265D01*
X120916431Y-40114267D01*
X120889382Y-40172275D01*
X120843209Y-40224714D01*
X120776016Y-40243866D01*
X120709135Y-40223650D01*
X120664618Y-40172275D01*
X120637686Y-40114520D01*
X120637568Y-40114266D01*
X120507047Y-39927861D01*
X120507045Y-39927858D01*
X120346141Y-39766954D01*
X120159734Y-39636432D01*
X120159732Y-39636431D01*
X119953497Y-39540261D01*
X119953488Y-39540258D01*
X119733697Y-39481366D01*
X119733693Y-39481365D01*
X119733692Y-39481365D01*
X119733691Y-39481364D01*
X119733686Y-39481364D01*
X119507002Y-39461532D01*
X119506998Y-39461532D01*
X119280313Y-39481364D01*
X119280302Y-39481366D01*
X119060511Y-39540258D01*
X119060502Y-39540261D01*
X118854267Y-39636431D01*
X118854265Y-39636432D01*
X118667858Y-39766954D01*
X118506954Y-39927858D01*
X118376432Y-40114265D01*
X118376431Y-40114267D01*
X118349382Y-40172275D01*
X118303209Y-40224714D01*
X118236016Y-40243866D01*
X118169135Y-40223650D01*
X118124618Y-40172275D01*
X118097686Y-40114520D01*
X118097568Y-40114266D01*
X117967047Y-39927861D01*
X117967045Y-39927858D01*
X117806141Y-39766954D01*
X117619734Y-39636432D01*
X117619732Y-39636431D01*
X117413497Y-39540261D01*
X117413488Y-39540258D01*
X117193697Y-39481366D01*
X117193693Y-39481365D01*
X117193692Y-39481365D01*
X117193691Y-39481364D01*
X117193686Y-39481364D01*
X116967002Y-39461532D01*
X116966998Y-39461532D01*
X116740313Y-39481364D01*
X116740302Y-39481366D01*
X116520511Y-39540258D01*
X116520502Y-39540261D01*
X116314267Y-39636431D01*
X116314265Y-39636432D01*
X116127858Y-39766954D01*
X115966954Y-39927858D01*
X115836432Y-40114265D01*
X115836431Y-40114267D01*
X115809382Y-40172275D01*
X115763209Y-40224714D01*
X115696016Y-40243866D01*
X115629135Y-40223650D01*
X115584618Y-40172275D01*
X115557686Y-40114520D01*
X115557568Y-40114266D01*
X115427047Y-39927861D01*
X115427045Y-39927858D01*
X115266141Y-39766954D01*
X115079734Y-39636432D01*
X115079732Y-39636431D01*
X114873497Y-39540261D01*
X114873488Y-39540258D01*
X114653697Y-39481366D01*
X114653693Y-39481365D01*
X114653692Y-39481365D01*
X114653691Y-39481364D01*
X114653686Y-39481364D01*
X114427002Y-39461532D01*
X114426998Y-39461532D01*
X114200313Y-39481364D01*
X114200302Y-39481366D01*
X113980511Y-39540258D01*
X113980502Y-39540261D01*
X113774267Y-39636431D01*
X113774265Y-39636432D01*
X113587858Y-39766954D01*
X113426954Y-39927858D01*
X113296432Y-40114265D01*
X113296431Y-40114267D01*
X113269382Y-40172275D01*
X113223209Y-40224714D01*
X113156016Y-40243866D01*
X113089135Y-40223650D01*
X113044618Y-40172275D01*
X113017686Y-40114520D01*
X113017568Y-40114266D01*
X112887047Y-39927861D01*
X112887045Y-39927858D01*
X112726141Y-39766954D01*
X112539734Y-39636432D01*
X112539732Y-39636431D01*
X112333497Y-39540261D01*
X112333488Y-39540258D01*
X112113697Y-39481366D01*
X112113693Y-39481365D01*
X112113692Y-39481365D01*
X112113691Y-39481364D01*
X112113686Y-39481364D01*
X111887002Y-39461532D01*
X111886998Y-39461532D01*
X111660313Y-39481364D01*
X111660302Y-39481366D01*
X111440511Y-39540258D01*
X111440502Y-39540261D01*
X111234267Y-39636431D01*
X111234265Y-39636432D01*
X111047858Y-39766954D01*
X110886954Y-39927858D01*
X110756432Y-40114265D01*
X110756431Y-40114267D01*
X110729382Y-40172275D01*
X110683209Y-40224714D01*
X110616016Y-40243866D01*
X110549135Y-40223650D01*
X110504618Y-40172275D01*
X110477686Y-40114520D01*
X110477568Y-40114266D01*
X110347047Y-39927861D01*
X110347045Y-39927858D01*
X110186141Y-39766954D01*
X109999734Y-39636432D01*
X109999732Y-39636431D01*
X109793497Y-39540261D01*
X109793488Y-39540258D01*
X109573697Y-39481366D01*
X109573693Y-39481365D01*
X109573692Y-39481365D01*
X109573691Y-39481364D01*
X109573686Y-39481364D01*
X109347002Y-39461532D01*
X109346998Y-39461532D01*
X109120313Y-39481364D01*
X109120302Y-39481366D01*
X108900511Y-39540258D01*
X108900502Y-39540261D01*
X108694267Y-39636431D01*
X108694265Y-39636432D01*
X108507858Y-39766954D01*
X108346954Y-39927858D01*
X108216432Y-40114265D01*
X108216431Y-40114267D01*
X108120261Y-40320502D01*
X108120258Y-40320511D01*
X108061366Y-40540302D01*
X108061364Y-40540313D01*
X108041532Y-40766998D01*
X106592468Y-40766998D01*
X106572635Y-40540308D01*
X106513739Y-40320504D01*
X106417568Y-40114266D01*
X106287047Y-39927861D01*
X106287045Y-39927858D01*
X106126141Y-39766954D01*
X105939734Y-39636432D01*
X105939732Y-39636431D01*
X105733497Y-39540261D01*
X105733488Y-39540258D01*
X105513697Y-39481366D01*
X105513693Y-39481365D01*
X105513692Y-39481365D01*
X105513691Y-39481364D01*
X105513686Y-39481364D01*
X105287002Y-39461532D01*
X105286998Y-39461532D01*
X105060313Y-39481364D01*
X105060302Y-39481366D01*
X104840511Y-39540258D01*
X104840502Y-39540261D01*
X104634267Y-39636431D01*
X104634265Y-39636432D01*
X104447858Y-39766954D01*
X104286954Y-39927858D01*
X104156432Y-40114265D01*
X104156431Y-40114267D01*
X104129382Y-40172275D01*
X104083209Y-40224714D01*
X104016016Y-40243866D01*
X103949135Y-40223650D01*
X103904618Y-40172275D01*
X103877686Y-40114520D01*
X103877568Y-40114266D01*
X103747047Y-39927861D01*
X103747045Y-39927858D01*
X103586141Y-39766954D01*
X103399734Y-39636432D01*
X103399732Y-39636431D01*
X103193497Y-39540261D01*
X103193488Y-39540258D01*
X102973697Y-39481366D01*
X102973693Y-39481365D01*
X102973692Y-39481365D01*
X102973691Y-39481364D01*
X102973686Y-39481364D01*
X102747002Y-39461532D01*
X102746998Y-39461532D01*
X102520313Y-39481364D01*
X102520302Y-39481366D01*
X102300511Y-39540258D01*
X102300502Y-39540261D01*
X102094267Y-39636431D01*
X102094265Y-39636432D01*
X101907858Y-39766954D01*
X101746954Y-39927858D01*
X101616432Y-40114265D01*
X101616431Y-40114267D01*
X101589382Y-40172275D01*
X101543209Y-40224714D01*
X101476016Y-40243866D01*
X101409135Y-40223650D01*
X101364618Y-40172275D01*
X101337686Y-40114520D01*
X101337568Y-40114266D01*
X101207047Y-39927861D01*
X101207045Y-39927858D01*
X101046141Y-39766954D01*
X100859734Y-39636432D01*
X100859732Y-39636431D01*
X100653497Y-39540261D01*
X100653488Y-39540258D01*
X100433697Y-39481366D01*
X100433693Y-39481365D01*
X100433692Y-39481365D01*
X100433691Y-39481364D01*
X100433686Y-39481364D01*
X100207002Y-39461532D01*
X100206998Y-39461532D01*
X99980313Y-39481364D01*
X99980302Y-39481366D01*
X99760511Y-39540258D01*
X99760502Y-39540261D01*
X99554267Y-39636431D01*
X99554265Y-39636432D01*
X99367858Y-39766954D01*
X99206954Y-39927858D01*
X99076432Y-40114265D01*
X99076431Y-40114267D01*
X99049382Y-40172275D01*
X99003209Y-40224714D01*
X98936016Y-40243866D01*
X98869135Y-40223650D01*
X98824618Y-40172275D01*
X98797686Y-40114520D01*
X98797568Y-40114266D01*
X98667047Y-39927861D01*
X98667045Y-39927858D01*
X98506141Y-39766954D01*
X98319734Y-39636432D01*
X98319732Y-39636431D01*
X98113497Y-39540261D01*
X98113488Y-39540258D01*
X97893697Y-39481366D01*
X97893693Y-39481365D01*
X97893692Y-39481365D01*
X97893691Y-39481364D01*
X97893686Y-39481364D01*
X97667002Y-39461532D01*
X97666998Y-39461532D01*
X97440313Y-39481364D01*
X97440302Y-39481366D01*
X97220511Y-39540258D01*
X97220502Y-39540261D01*
X97014267Y-39636431D01*
X97014265Y-39636432D01*
X96827858Y-39766954D01*
X96666954Y-39927858D01*
X96536432Y-40114265D01*
X96536431Y-40114267D01*
X96509382Y-40172275D01*
X96463209Y-40224714D01*
X96396016Y-40243866D01*
X96329135Y-40223650D01*
X96284618Y-40172275D01*
X96257686Y-40114520D01*
X96257568Y-40114266D01*
X96127047Y-39927861D01*
X96127045Y-39927858D01*
X95966141Y-39766954D01*
X95779734Y-39636432D01*
X95779732Y-39636431D01*
X95573497Y-39540261D01*
X95573488Y-39540258D01*
X95353697Y-39481366D01*
X95353693Y-39481365D01*
X95353692Y-39481365D01*
X95353691Y-39481364D01*
X95353686Y-39481364D01*
X95127002Y-39461532D01*
X95126998Y-39461532D01*
X94900313Y-39481364D01*
X94900302Y-39481366D01*
X94680511Y-39540258D01*
X94680502Y-39540261D01*
X94474267Y-39636431D01*
X94474265Y-39636432D01*
X94287858Y-39766954D01*
X94126954Y-39927858D01*
X93996432Y-40114265D01*
X93996431Y-40114267D01*
X93969382Y-40172275D01*
X93923209Y-40224714D01*
X93856016Y-40243866D01*
X93789135Y-40223650D01*
X93744618Y-40172275D01*
X93717686Y-40114520D01*
X93717568Y-40114266D01*
X93587047Y-39927861D01*
X93587045Y-39927858D01*
X93426141Y-39766954D01*
X93239734Y-39636432D01*
X93239732Y-39636431D01*
X93033497Y-39540261D01*
X93033488Y-39540258D01*
X92813697Y-39481366D01*
X92813693Y-39481365D01*
X92813692Y-39481365D01*
X92813691Y-39481364D01*
X92813686Y-39481364D01*
X92587002Y-39461532D01*
X92586998Y-39461532D01*
X92360313Y-39481364D01*
X92360302Y-39481366D01*
X92140511Y-39540258D01*
X92140502Y-39540261D01*
X91934267Y-39636431D01*
X91934265Y-39636432D01*
X91747858Y-39766954D01*
X91586954Y-39927858D01*
X91456433Y-40114264D01*
X91456432Y-40114266D01*
X91456315Y-40114518D01*
X91429106Y-40172867D01*
X91382933Y-40225306D01*
X91315739Y-40244457D01*
X91248858Y-40224241D01*
X91204342Y-40172865D01*
X91177135Y-40114520D01*
X91177134Y-40114518D01*
X91046657Y-39928179D01*
X90885820Y-39767342D01*
X90699482Y-39636865D01*
X90493328Y-39540734D01*
X90297000Y-39488127D01*
X90297000Y-40333988D01*
X90239993Y-40301075D01*
X90112826Y-40267000D01*
X89981174Y-40267000D01*
X89854007Y-40301075D01*
X89797000Y-40333988D01*
X89797000Y-39488127D01*
X89600671Y-39540734D01*
X89394517Y-39636865D01*
X89208179Y-39767342D01*
X89047342Y-39928179D01*
X88916867Y-40114515D01*
X88889657Y-40172867D01*
X88843484Y-40225306D01*
X88776290Y-40244457D01*
X88709409Y-40224241D01*
X88664893Y-40172865D01*
X88637685Y-40114518D01*
X88637568Y-40114266D01*
X88507047Y-39927861D01*
X88507045Y-39927858D01*
X88346141Y-39766954D01*
X88159734Y-39636432D01*
X88159732Y-39636431D01*
X87953497Y-39540261D01*
X87953488Y-39540258D01*
X87733697Y-39481366D01*
X87733693Y-39481365D01*
X87733692Y-39481365D01*
X87733691Y-39481364D01*
X87733686Y-39481364D01*
X87507002Y-39461532D01*
X87506998Y-39461532D01*
X87280313Y-39481364D01*
X87280302Y-39481366D01*
X87060511Y-39540258D01*
X87060502Y-39540261D01*
X86854267Y-39636431D01*
X86854265Y-39636432D01*
X86667858Y-39766954D01*
X86506954Y-39927858D01*
X86376432Y-40114265D01*
X86376431Y-40114267D01*
X86349382Y-40172275D01*
X86303209Y-40224714D01*
X86236016Y-40243866D01*
X86169135Y-40223650D01*
X86124618Y-40172275D01*
X86097686Y-40114520D01*
X86097568Y-40114266D01*
X85967047Y-39927861D01*
X85967045Y-39927858D01*
X85806141Y-39766954D01*
X85619734Y-39636432D01*
X85619732Y-39636431D01*
X85413497Y-39540261D01*
X85413488Y-39540258D01*
X85193697Y-39481366D01*
X85193693Y-39481365D01*
X85193692Y-39481365D01*
X85193691Y-39481364D01*
X85193686Y-39481364D01*
X84967002Y-39461532D01*
X84966998Y-39461532D01*
X84740313Y-39481364D01*
X84740302Y-39481366D01*
X84520511Y-39540258D01*
X84520502Y-39540261D01*
X84314267Y-39636431D01*
X84314265Y-39636432D01*
X84127858Y-39766954D01*
X83966954Y-39927858D01*
X83836432Y-40114265D01*
X83836431Y-40114267D01*
X83809382Y-40172275D01*
X83763209Y-40224714D01*
X83696016Y-40243866D01*
X83629135Y-40223650D01*
X83584618Y-40172275D01*
X83557686Y-40114520D01*
X83557568Y-40114266D01*
X83427047Y-39927861D01*
X83427045Y-39927858D01*
X83266141Y-39766954D01*
X83079734Y-39636432D01*
X83079732Y-39636431D01*
X82873497Y-39540261D01*
X82873488Y-39540258D01*
X82653697Y-39481366D01*
X82653693Y-39481365D01*
X82653692Y-39481365D01*
X82653691Y-39481364D01*
X82653686Y-39481364D01*
X82427002Y-39461532D01*
X82426998Y-39461532D01*
X82200313Y-39481364D01*
X82200302Y-39481366D01*
X81980511Y-39540258D01*
X81980502Y-39540261D01*
X81774267Y-39636431D01*
X81774265Y-39636432D01*
X81587858Y-39766954D01*
X81426954Y-39927858D01*
X81296432Y-40114265D01*
X81296431Y-40114267D01*
X81200261Y-40320502D01*
X81200258Y-40320511D01*
X81141366Y-40540302D01*
X81141364Y-40540313D01*
X81121532Y-40766998D01*
X64000500Y-40766998D01*
X64000500Y-38724500D01*
X64020185Y-38657461D01*
X64072989Y-38611706D01*
X64124500Y-38600500D01*
X127884324Y-38600500D01*
X127951363Y-38620185D01*
G37*
G04 #@! TD.AperFunction*
G04 #@! TA.AperFunction,Conductor*
G36*
X131537125Y-75978572D02*
G01*
X131584970Y-75918576D01*
X131602112Y-75888885D01*
X131652679Y-75840669D01*
X131721286Y-75827445D01*
X131786151Y-75853413D01*
X131826680Y-75910327D01*
X131833500Y-75950884D01*
X131833500Y-78989115D01*
X131813815Y-79056154D01*
X131761011Y-79101909D01*
X131691853Y-79111853D01*
X131628297Y-79082828D01*
X131602113Y-79051116D01*
X131584970Y-79021424D01*
X131537124Y-78961427D01*
X130889114Y-79609437D01*
X130888260Y-79607374D01*
X130795238Y-79468156D01*
X130676844Y-79349762D01*
X130537626Y-79256740D01*
X130535561Y-79255884D01*
X131184168Y-78607278D01*
X131012454Y-78490206D01*
X131012445Y-78490201D01*
X130776142Y-78376404D01*
X130776144Y-78376404D01*
X130525505Y-78299092D01*
X130525499Y-78299090D01*
X130266151Y-78260000D01*
X130003848Y-78260000D01*
X129744500Y-78299090D01*
X129744494Y-78299092D01*
X129493858Y-78376404D01*
X129493854Y-78376405D01*
X129423302Y-78410382D01*
X129354360Y-78421734D01*
X129290226Y-78394012D01*
X129251260Y-78336017D01*
X129245500Y-78298662D01*
X129245500Y-76641338D01*
X129265185Y-76574299D01*
X129317989Y-76528544D01*
X129387147Y-76518600D01*
X129423302Y-76529618D01*
X129493854Y-76563594D01*
X129493858Y-76563595D01*
X129744494Y-76640907D01*
X129744500Y-76640909D01*
X130003848Y-76679999D01*
X130003857Y-76680000D01*
X130266143Y-76680000D01*
X130266151Y-76679999D01*
X130525499Y-76640909D01*
X130525505Y-76640907D01*
X130776143Y-76563595D01*
X131012445Y-76449798D01*
X131012447Y-76449797D01*
X131184168Y-76332720D01*
X130535562Y-75684114D01*
X130537626Y-75683260D01*
X130676844Y-75590238D01*
X130795238Y-75471844D01*
X130888260Y-75332626D01*
X130889114Y-75330561D01*
X131537125Y-75978572D01*
G37*
G04 #@! TD.AperFunction*
G04 #@! TA.AperFunction,Conductor*
G36*
X131537125Y-60738572D02*
G01*
X131584970Y-60678576D01*
X131602112Y-60648885D01*
X131652679Y-60600669D01*
X131721286Y-60587445D01*
X131786151Y-60613413D01*
X131826680Y-60670327D01*
X131833500Y-60710884D01*
X131833500Y-63749115D01*
X131813815Y-63816154D01*
X131761011Y-63861909D01*
X131691853Y-63871853D01*
X131628297Y-63842828D01*
X131602113Y-63811116D01*
X131584970Y-63781424D01*
X131537124Y-63721427D01*
X130889114Y-64369437D01*
X130888260Y-64367374D01*
X130795238Y-64228156D01*
X130676844Y-64109762D01*
X130537626Y-64016740D01*
X130535561Y-64015884D01*
X131184168Y-63367278D01*
X131012454Y-63250206D01*
X131012445Y-63250201D01*
X130776142Y-63136404D01*
X130776144Y-63136404D01*
X130525505Y-63059092D01*
X130525499Y-63059090D01*
X130266151Y-63020000D01*
X130003848Y-63020000D01*
X129744500Y-63059090D01*
X129744494Y-63059092D01*
X129493858Y-63136404D01*
X129493854Y-63136405D01*
X129423302Y-63170382D01*
X129354360Y-63181734D01*
X129290226Y-63154012D01*
X129251260Y-63096017D01*
X129245500Y-63058662D01*
X129245500Y-61401338D01*
X129265185Y-61334299D01*
X129317989Y-61288544D01*
X129387147Y-61278600D01*
X129423302Y-61289618D01*
X129493854Y-61323594D01*
X129493858Y-61323595D01*
X129744494Y-61400907D01*
X129744500Y-61400909D01*
X130003848Y-61439999D01*
X130003857Y-61440000D01*
X130266143Y-61440000D01*
X130266151Y-61439999D01*
X130525499Y-61400909D01*
X130525505Y-61400907D01*
X130776143Y-61323595D01*
X131012445Y-61209798D01*
X131012447Y-61209797D01*
X131184168Y-61092720D01*
X130535562Y-60444114D01*
X130537626Y-60443260D01*
X130676844Y-60350238D01*
X130795238Y-60231844D01*
X130888260Y-60092626D01*
X130889114Y-60090561D01*
X131537125Y-60738572D01*
G37*
G04 #@! TD.AperFunction*
M02*
