G04 #@! TF.GenerationSoftware,KiCad,Pcbnew,8.0.3*
G04 #@! TF.CreationDate,2024-11-06T17:03:22+01:00*
G04 #@! TF.ProjectId,UNOtdc,554e4f74-6463-42e6-9b69-6361645f7063,1.10*
G04 #@! TF.SameCoordinates,Original*
G04 #@! TF.FileFunction,Legend,Top*
G04 #@! TF.FilePolarity,Positive*
%FSLAX46Y46*%
G04 Gerber Fmt 4.6, Leading zero omitted, Abs format (unit mm)*
G04 Created by KiCad (PCBNEW 8.0.3) date 2024-11-06 17:03:22*
%MOMM*%
%LPD*%
G01*
G04 APERTURE LIST*
%ADD10C,0.150000*%
%ADD11C,0.300000*%
G04 APERTURE END LIST*
D10*
X74999917Y-70783220D02*
X75688012Y-70783220D01*
X75688012Y-70783220D02*
X75768964Y-70735601D01*
X75768964Y-70735601D02*
X75809441Y-70687982D01*
X75809441Y-70687982D02*
X75849917Y-70592744D01*
X75849917Y-70592744D02*
X75849917Y-70402268D01*
X75849917Y-70402268D02*
X75809441Y-70307030D01*
X75809441Y-70307030D02*
X75768964Y-70259411D01*
X75768964Y-70259411D02*
X75688012Y-70211792D01*
X75688012Y-70211792D02*
X74999917Y-70211792D01*
X75283250Y-69735601D02*
X75849917Y-69735601D01*
X75364202Y-69735601D02*
X75323726Y-69687982D01*
X75323726Y-69687982D02*
X75283250Y-69592744D01*
X75283250Y-69592744D02*
X75283250Y-69449887D01*
X75283250Y-69449887D02*
X75323726Y-69354649D01*
X75323726Y-69354649D02*
X75404679Y-69307030D01*
X75404679Y-69307030D02*
X75849917Y-69307030D01*
X75849917Y-68830839D02*
X75283250Y-68830839D01*
X74999917Y-68830839D02*
X75040393Y-68878458D01*
X75040393Y-68878458D02*
X75080869Y-68830839D01*
X75080869Y-68830839D02*
X75040393Y-68783220D01*
X75040393Y-68783220D02*
X74999917Y-68830839D01*
X74999917Y-68830839D02*
X75080869Y-68830839D01*
X75283250Y-68449887D02*
X75849917Y-68211792D01*
X75849917Y-68211792D02*
X75283250Y-67973697D01*
X75809441Y-67211792D02*
X75849917Y-67307030D01*
X75849917Y-67307030D02*
X75849917Y-67497506D01*
X75849917Y-67497506D02*
X75809441Y-67592744D01*
X75809441Y-67592744D02*
X75728488Y-67640363D01*
X75728488Y-67640363D02*
X75404679Y-67640363D01*
X75404679Y-67640363D02*
X75323726Y-67592744D01*
X75323726Y-67592744D02*
X75283250Y-67497506D01*
X75283250Y-67497506D02*
X75283250Y-67307030D01*
X75283250Y-67307030D02*
X75323726Y-67211792D01*
X75323726Y-67211792D02*
X75404679Y-67164173D01*
X75404679Y-67164173D02*
X75485631Y-67164173D01*
X75485631Y-67164173D02*
X75566583Y-67640363D01*
X75849917Y-66735601D02*
X75283250Y-66735601D01*
X75445155Y-66735601D02*
X75364202Y-66687982D01*
X75364202Y-66687982D02*
X75323726Y-66640363D01*
X75323726Y-66640363D02*
X75283250Y-66545125D01*
X75283250Y-66545125D02*
X75283250Y-66449887D01*
X75809441Y-66164172D02*
X75849917Y-66068934D01*
X75849917Y-66068934D02*
X75849917Y-65878458D01*
X75849917Y-65878458D02*
X75809441Y-65783220D01*
X75809441Y-65783220D02*
X75728488Y-65735601D01*
X75728488Y-65735601D02*
X75688012Y-65735601D01*
X75688012Y-65735601D02*
X75607060Y-65783220D01*
X75607060Y-65783220D02*
X75566583Y-65878458D01*
X75566583Y-65878458D02*
X75566583Y-66021315D01*
X75566583Y-66021315D02*
X75526107Y-66116553D01*
X75526107Y-66116553D02*
X75445155Y-66164172D01*
X75445155Y-66164172D02*
X75404679Y-66164172D01*
X75404679Y-66164172D02*
X75323726Y-66116553D01*
X75323726Y-66116553D02*
X75283250Y-66021315D01*
X75283250Y-66021315D02*
X75283250Y-65878458D01*
X75283250Y-65878458D02*
X75323726Y-65783220D01*
X75849917Y-65307029D02*
X75283250Y-65307029D01*
X74999917Y-65307029D02*
X75040393Y-65354648D01*
X75040393Y-65354648D02*
X75080869Y-65307029D01*
X75080869Y-65307029D02*
X75040393Y-65259410D01*
X75040393Y-65259410D02*
X74999917Y-65307029D01*
X74999917Y-65307029D02*
X75080869Y-65307029D01*
X75283250Y-64973696D02*
X75283250Y-64592744D01*
X74999917Y-64830839D02*
X75728488Y-64830839D01*
X75728488Y-64830839D02*
X75809441Y-64783220D01*
X75809441Y-64783220D02*
X75849917Y-64687982D01*
X75849917Y-64687982D02*
X75849917Y-64592744D01*
X75849917Y-63830839D02*
X75404679Y-63830839D01*
X75404679Y-63830839D02*
X75323726Y-63878458D01*
X75323726Y-63878458D02*
X75283250Y-63973696D01*
X75283250Y-63973696D02*
X75283250Y-64164172D01*
X75283250Y-64164172D02*
X75323726Y-64259410D01*
X75809441Y-63830839D02*
X75849917Y-63926077D01*
X75849917Y-63926077D02*
X75849917Y-64164172D01*
X75849917Y-64164172D02*
X75809441Y-64259410D01*
X75809441Y-64259410D02*
X75728488Y-64307029D01*
X75728488Y-64307029D02*
X75647536Y-64307029D01*
X75647536Y-64307029D02*
X75566583Y-64259410D01*
X75566583Y-64259410D02*
X75526107Y-64164172D01*
X75526107Y-64164172D02*
X75526107Y-63926077D01*
X75526107Y-63926077D02*
X75485631Y-63830839D01*
X74959441Y-64164172D02*
X75080869Y-64021315D01*
X75849917Y-62164172D02*
X74999917Y-62164172D01*
X75809441Y-62164172D02*
X75849917Y-62259410D01*
X75849917Y-62259410D02*
X75849917Y-62449886D01*
X75849917Y-62449886D02*
X75809441Y-62545124D01*
X75809441Y-62545124D02*
X75768964Y-62592743D01*
X75768964Y-62592743D02*
X75688012Y-62640362D01*
X75688012Y-62640362D02*
X75445155Y-62640362D01*
X75445155Y-62640362D02*
X75364202Y-62592743D01*
X75364202Y-62592743D02*
X75323726Y-62545124D01*
X75323726Y-62545124D02*
X75283250Y-62449886D01*
X75283250Y-62449886D02*
X75283250Y-62259410D01*
X75283250Y-62259410D02*
X75323726Y-62164172D01*
X75809441Y-61307029D02*
X75849917Y-61402267D01*
X75849917Y-61402267D02*
X75849917Y-61592743D01*
X75849917Y-61592743D02*
X75809441Y-61687981D01*
X75809441Y-61687981D02*
X75728488Y-61735600D01*
X75728488Y-61735600D02*
X75404679Y-61735600D01*
X75404679Y-61735600D02*
X75323726Y-61687981D01*
X75323726Y-61687981D02*
X75283250Y-61592743D01*
X75283250Y-61592743D02*
X75283250Y-61402267D01*
X75283250Y-61402267D02*
X75323726Y-61307029D01*
X75323726Y-61307029D02*
X75404679Y-61259410D01*
X75404679Y-61259410D02*
X75485631Y-61259410D01*
X75485631Y-61259410D02*
X75566583Y-61735600D01*
X75283250Y-60402267D02*
X75971345Y-60402267D01*
X75971345Y-60402267D02*
X76052298Y-60449886D01*
X76052298Y-60449886D02*
X76092774Y-60497505D01*
X76092774Y-60497505D02*
X76133250Y-60592743D01*
X76133250Y-60592743D02*
X76133250Y-60735600D01*
X76133250Y-60735600D02*
X76092774Y-60830838D01*
X75809441Y-60402267D02*
X75849917Y-60497505D01*
X75849917Y-60497505D02*
X75849917Y-60687981D01*
X75849917Y-60687981D02*
X75809441Y-60783219D01*
X75809441Y-60783219D02*
X75768964Y-60830838D01*
X75768964Y-60830838D02*
X75688012Y-60878457D01*
X75688012Y-60878457D02*
X75445155Y-60878457D01*
X75445155Y-60878457D02*
X75364202Y-60830838D01*
X75364202Y-60830838D02*
X75323726Y-60783219D01*
X75323726Y-60783219D02*
X75283250Y-60687981D01*
X75283250Y-60687981D02*
X75283250Y-60497505D01*
X75283250Y-60497505D02*
X75323726Y-60402267D01*
X75849917Y-59783219D02*
X75809441Y-59878457D01*
X75809441Y-59878457D02*
X75728488Y-59926076D01*
X75728488Y-59926076D02*
X74999917Y-59926076D01*
X75849917Y-59402266D02*
X75283250Y-59402266D01*
X74999917Y-59402266D02*
X75040393Y-59449885D01*
X75040393Y-59449885D02*
X75080869Y-59402266D01*
X75080869Y-59402266D02*
X75040393Y-59354647D01*
X75040393Y-59354647D02*
X74999917Y-59402266D01*
X74999917Y-59402266D02*
X75080869Y-59402266D01*
X75809441Y-58211790D02*
X75849917Y-58068933D01*
X75849917Y-58068933D02*
X75849917Y-57830838D01*
X75849917Y-57830838D02*
X75809441Y-57735600D01*
X75809441Y-57735600D02*
X75768964Y-57687981D01*
X75768964Y-57687981D02*
X75688012Y-57640362D01*
X75688012Y-57640362D02*
X75607060Y-57640362D01*
X75607060Y-57640362D02*
X75526107Y-57687981D01*
X75526107Y-57687981D02*
X75485631Y-57735600D01*
X75485631Y-57735600D02*
X75445155Y-57830838D01*
X75445155Y-57830838D02*
X75404679Y-58021314D01*
X75404679Y-58021314D02*
X75364202Y-58116552D01*
X75364202Y-58116552D02*
X75323726Y-58164171D01*
X75323726Y-58164171D02*
X75242774Y-58211790D01*
X75242774Y-58211790D02*
X75161821Y-58211790D01*
X75161821Y-58211790D02*
X75080869Y-58164171D01*
X75080869Y-58164171D02*
X75040393Y-58116552D01*
X75040393Y-58116552D02*
X74999917Y-58021314D01*
X74999917Y-58021314D02*
X74999917Y-57783219D01*
X74999917Y-57783219D02*
X75040393Y-57640362D01*
X75283250Y-57354647D02*
X75283250Y-56973695D01*
X74999917Y-57211790D02*
X75728488Y-57211790D01*
X75728488Y-57211790D02*
X75809441Y-57164171D01*
X75809441Y-57164171D02*
X75849917Y-57068933D01*
X75849917Y-57068933D02*
X75849917Y-56973695D01*
X75283250Y-56211790D02*
X75849917Y-56211790D01*
X75283250Y-56640361D02*
X75728488Y-56640361D01*
X75728488Y-56640361D02*
X75809441Y-56592742D01*
X75809441Y-56592742D02*
X75849917Y-56497504D01*
X75849917Y-56497504D02*
X75849917Y-56354647D01*
X75849917Y-56354647D02*
X75809441Y-56259409D01*
X75809441Y-56259409D02*
X75768964Y-56211790D01*
X75849917Y-55307028D02*
X74999917Y-55307028D01*
X75809441Y-55307028D02*
X75849917Y-55402266D01*
X75849917Y-55402266D02*
X75849917Y-55592742D01*
X75849917Y-55592742D02*
X75809441Y-55687980D01*
X75809441Y-55687980D02*
X75768964Y-55735599D01*
X75768964Y-55735599D02*
X75688012Y-55783218D01*
X75688012Y-55783218D02*
X75445155Y-55783218D01*
X75445155Y-55783218D02*
X75364202Y-55735599D01*
X75364202Y-55735599D02*
X75323726Y-55687980D01*
X75323726Y-55687980D02*
X75283250Y-55592742D01*
X75283250Y-55592742D02*
X75283250Y-55402266D01*
X75283250Y-55402266D02*
X75323726Y-55307028D01*
X75849917Y-54830837D02*
X75283250Y-54830837D01*
X74999917Y-54830837D02*
X75040393Y-54878456D01*
X75040393Y-54878456D02*
X75080869Y-54830837D01*
X75080869Y-54830837D02*
X75040393Y-54783218D01*
X75040393Y-54783218D02*
X74999917Y-54830837D01*
X74999917Y-54830837D02*
X75080869Y-54830837D01*
X75849917Y-53164171D02*
X74999917Y-53164171D01*
X75809441Y-53164171D02*
X75849917Y-53259409D01*
X75849917Y-53259409D02*
X75849917Y-53449885D01*
X75849917Y-53449885D02*
X75809441Y-53545123D01*
X75809441Y-53545123D02*
X75768964Y-53592742D01*
X75768964Y-53592742D02*
X75688012Y-53640361D01*
X75688012Y-53640361D02*
X75445155Y-53640361D01*
X75445155Y-53640361D02*
X75364202Y-53592742D01*
X75364202Y-53592742D02*
X75323726Y-53545123D01*
X75323726Y-53545123D02*
X75283250Y-53449885D01*
X75283250Y-53449885D02*
X75283250Y-53259409D01*
X75283250Y-53259409D02*
X75323726Y-53164171D01*
X75849917Y-52687980D02*
X75283250Y-52687980D01*
X74999917Y-52687980D02*
X75040393Y-52735599D01*
X75040393Y-52735599D02*
X75080869Y-52687980D01*
X75080869Y-52687980D02*
X75040393Y-52640361D01*
X75040393Y-52640361D02*
X74999917Y-52687980D01*
X74999917Y-52687980D02*
X75080869Y-52687980D01*
X75849917Y-51449885D02*
X74999917Y-51449885D01*
X74999917Y-51449885D02*
X75607060Y-51116552D01*
X75607060Y-51116552D02*
X74999917Y-50783219D01*
X74999917Y-50783219D02*
X75849917Y-50783219D01*
X75849917Y-50307028D02*
X75283250Y-50307028D01*
X74999917Y-50307028D02*
X75040393Y-50354647D01*
X75040393Y-50354647D02*
X75080869Y-50307028D01*
X75080869Y-50307028D02*
X75040393Y-50259409D01*
X75040393Y-50259409D02*
X74999917Y-50307028D01*
X74999917Y-50307028D02*
X75080869Y-50307028D01*
X75849917Y-49687981D02*
X75809441Y-49783219D01*
X75809441Y-49783219D02*
X75728488Y-49830838D01*
X75728488Y-49830838D02*
X74999917Y-49830838D01*
X75849917Y-48878457D02*
X75404679Y-48878457D01*
X75404679Y-48878457D02*
X75323726Y-48926076D01*
X75323726Y-48926076D02*
X75283250Y-49021314D01*
X75283250Y-49021314D02*
X75283250Y-49211790D01*
X75283250Y-49211790D02*
X75323726Y-49307028D01*
X75809441Y-48878457D02*
X75849917Y-48973695D01*
X75849917Y-48973695D02*
X75849917Y-49211790D01*
X75849917Y-49211790D02*
X75809441Y-49307028D01*
X75809441Y-49307028D02*
X75728488Y-49354647D01*
X75728488Y-49354647D02*
X75647536Y-49354647D01*
X75647536Y-49354647D02*
X75566583Y-49307028D01*
X75566583Y-49307028D02*
X75526107Y-49211790D01*
X75526107Y-49211790D02*
X75526107Y-48973695D01*
X75526107Y-48973695D02*
X75485631Y-48878457D01*
X75283250Y-48402266D02*
X75849917Y-48402266D01*
X75364202Y-48402266D02*
X75323726Y-48354647D01*
X75323726Y-48354647D02*
X75283250Y-48259409D01*
X75283250Y-48259409D02*
X75283250Y-48116552D01*
X75283250Y-48116552D02*
X75323726Y-48021314D01*
X75323726Y-48021314D02*
X75404679Y-47973695D01*
X75404679Y-47973695D02*
X75849917Y-47973695D01*
X75849917Y-47354647D02*
X75809441Y-47449885D01*
X75809441Y-47449885D02*
X75768964Y-47497504D01*
X75768964Y-47497504D02*
X75688012Y-47545123D01*
X75688012Y-47545123D02*
X75445155Y-47545123D01*
X75445155Y-47545123D02*
X75364202Y-47497504D01*
X75364202Y-47497504D02*
X75323726Y-47449885D01*
X75323726Y-47449885D02*
X75283250Y-47354647D01*
X75283250Y-47354647D02*
X75283250Y-47211790D01*
X75283250Y-47211790D02*
X75323726Y-47116552D01*
X75323726Y-47116552D02*
X75364202Y-47068933D01*
X75364202Y-47068933D02*
X75445155Y-47021314D01*
X75445155Y-47021314D02*
X75688012Y-47021314D01*
X75688012Y-47021314D02*
X75768964Y-47068933D01*
X75768964Y-47068933D02*
X75809441Y-47116552D01*
X75809441Y-47116552D02*
X75849917Y-47211790D01*
X75849917Y-47211790D02*
X75849917Y-47354647D01*
X75809441Y-45878456D02*
X75849917Y-45735599D01*
X75849917Y-45735599D02*
X75849917Y-45497504D01*
X75849917Y-45497504D02*
X75809441Y-45402266D01*
X75809441Y-45402266D02*
X75768964Y-45354647D01*
X75768964Y-45354647D02*
X75688012Y-45307028D01*
X75688012Y-45307028D02*
X75607060Y-45307028D01*
X75607060Y-45307028D02*
X75526107Y-45354647D01*
X75526107Y-45354647D02*
X75485631Y-45402266D01*
X75485631Y-45402266D02*
X75445155Y-45497504D01*
X75445155Y-45497504D02*
X75404679Y-45687980D01*
X75404679Y-45687980D02*
X75364202Y-45783218D01*
X75364202Y-45783218D02*
X75323726Y-45830837D01*
X75323726Y-45830837D02*
X75242774Y-45878456D01*
X75242774Y-45878456D02*
X75161821Y-45878456D01*
X75161821Y-45878456D02*
X75080869Y-45830837D01*
X75080869Y-45830837D02*
X75040393Y-45783218D01*
X75040393Y-45783218D02*
X74999917Y-45687980D01*
X74999917Y-45687980D02*
X74999917Y-45449885D01*
X74999917Y-45449885D02*
X75040393Y-45307028D01*
X75283250Y-45021313D02*
X75283250Y-44640361D01*
X74999917Y-44878456D02*
X75728488Y-44878456D01*
X75728488Y-44878456D02*
X75809441Y-44830837D01*
X75809441Y-44830837D02*
X75849917Y-44735599D01*
X75849917Y-44735599D02*
X75849917Y-44640361D01*
X75849917Y-43878456D02*
X75404679Y-43878456D01*
X75404679Y-43878456D02*
X75323726Y-43926075D01*
X75323726Y-43926075D02*
X75283250Y-44021313D01*
X75283250Y-44021313D02*
X75283250Y-44211789D01*
X75283250Y-44211789D02*
X75323726Y-44307027D01*
X75809441Y-43878456D02*
X75849917Y-43973694D01*
X75849917Y-43973694D02*
X75849917Y-44211789D01*
X75849917Y-44211789D02*
X75809441Y-44307027D01*
X75809441Y-44307027D02*
X75728488Y-44354646D01*
X75728488Y-44354646D02*
X75647536Y-44354646D01*
X75647536Y-44354646D02*
X75566583Y-44307027D01*
X75566583Y-44307027D02*
X75526107Y-44211789D01*
X75526107Y-44211789D02*
X75526107Y-43973694D01*
X75526107Y-43973694D02*
X75485631Y-43878456D01*
X75283250Y-43545122D02*
X75283250Y-43164170D01*
X74999917Y-43402265D02*
X75728488Y-43402265D01*
X75728488Y-43402265D02*
X75809441Y-43354646D01*
X75809441Y-43354646D02*
X75849917Y-43259408D01*
X75849917Y-43259408D02*
X75849917Y-43164170D01*
X75849917Y-42402265D02*
X75404679Y-42402265D01*
X75404679Y-42402265D02*
X75323726Y-42449884D01*
X75323726Y-42449884D02*
X75283250Y-42545122D01*
X75283250Y-42545122D02*
X75283250Y-42735598D01*
X75283250Y-42735598D02*
X75323726Y-42830836D01*
X75809441Y-42402265D02*
X75849917Y-42497503D01*
X75849917Y-42497503D02*
X75849917Y-42735598D01*
X75849917Y-42735598D02*
X75809441Y-42830836D01*
X75809441Y-42830836D02*
X75728488Y-42878455D01*
X75728488Y-42878455D02*
X75647536Y-42878455D01*
X75647536Y-42878455D02*
X75566583Y-42830836D01*
X75566583Y-42830836D02*
X75526107Y-42735598D01*
X75526107Y-42735598D02*
X75526107Y-42497503D01*
X75526107Y-42497503D02*
X75485631Y-42402265D01*
X75849917Y-41783217D02*
X75809441Y-41878455D01*
X75809441Y-41878455D02*
X75728488Y-41926074D01*
X75728488Y-41926074D02*
X74999917Y-41926074D01*
X75809441Y-41021312D02*
X75849917Y-41116550D01*
X75849917Y-41116550D02*
X75849917Y-41307026D01*
X75849917Y-41307026D02*
X75809441Y-41402264D01*
X75809441Y-41402264D02*
X75728488Y-41449883D01*
X75728488Y-41449883D02*
X75404679Y-41449883D01*
X75404679Y-41449883D02*
X75323726Y-41402264D01*
X75323726Y-41402264D02*
X75283250Y-41307026D01*
X75283250Y-41307026D02*
X75283250Y-41116550D01*
X75283250Y-41116550D02*
X75323726Y-41021312D01*
X75323726Y-41021312D02*
X75404679Y-40973693D01*
X75404679Y-40973693D02*
X75485631Y-40973693D01*
X75485631Y-40973693D02*
X75566583Y-41449883D01*
X77218369Y-70783220D02*
X76368369Y-70783220D01*
X76368369Y-70783220D02*
X76368369Y-70545125D01*
X76368369Y-70545125D02*
X76408845Y-70402268D01*
X76408845Y-70402268D02*
X76489797Y-70307030D01*
X76489797Y-70307030D02*
X76570750Y-70259411D01*
X76570750Y-70259411D02*
X76732654Y-70211792D01*
X76732654Y-70211792D02*
X76854083Y-70211792D01*
X76854083Y-70211792D02*
X77015988Y-70259411D01*
X77015988Y-70259411D02*
X77096940Y-70307030D01*
X77096940Y-70307030D02*
X77177893Y-70402268D01*
X77177893Y-70402268D02*
X77218369Y-70545125D01*
X77218369Y-70545125D02*
X77218369Y-70783220D01*
X77177893Y-69402268D02*
X77218369Y-69497506D01*
X77218369Y-69497506D02*
X77218369Y-69687982D01*
X77218369Y-69687982D02*
X77177893Y-69783220D01*
X77177893Y-69783220D02*
X77096940Y-69830839D01*
X77096940Y-69830839D02*
X76773131Y-69830839D01*
X76773131Y-69830839D02*
X76692178Y-69783220D01*
X76692178Y-69783220D02*
X76651702Y-69687982D01*
X76651702Y-69687982D02*
X76651702Y-69497506D01*
X76651702Y-69497506D02*
X76692178Y-69402268D01*
X76692178Y-69402268D02*
X76773131Y-69354649D01*
X76773131Y-69354649D02*
X76854083Y-69354649D01*
X76854083Y-69354649D02*
X76935035Y-69830839D01*
X76651702Y-68926077D02*
X77501702Y-68926077D01*
X76692178Y-68926077D02*
X76651702Y-68830839D01*
X76651702Y-68830839D02*
X76651702Y-68640363D01*
X76651702Y-68640363D02*
X76692178Y-68545125D01*
X76692178Y-68545125D02*
X76732654Y-68497506D01*
X76732654Y-68497506D02*
X76813607Y-68449887D01*
X76813607Y-68449887D02*
X77056464Y-68449887D01*
X77056464Y-68449887D02*
X77137416Y-68497506D01*
X77137416Y-68497506D02*
X77177893Y-68545125D01*
X77177893Y-68545125D02*
X77218369Y-68640363D01*
X77218369Y-68640363D02*
X77218369Y-68830839D01*
X77218369Y-68830839D02*
X77177893Y-68926077D01*
X77218369Y-67592744D02*
X76773131Y-67592744D01*
X76773131Y-67592744D02*
X76692178Y-67640363D01*
X76692178Y-67640363D02*
X76651702Y-67735601D01*
X76651702Y-67735601D02*
X76651702Y-67926077D01*
X76651702Y-67926077D02*
X76692178Y-68021315D01*
X77177893Y-67592744D02*
X77218369Y-67687982D01*
X77218369Y-67687982D02*
X77218369Y-67926077D01*
X77218369Y-67926077D02*
X77177893Y-68021315D01*
X77177893Y-68021315D02*
X77096940Y-68068934D01*
X77096940Y-68068934D02*
X77015988Y-68068934D01*
X77015988Y-68068934D02*
X76935035Y-68021315D01*
X76935035Y-68021315D02*
X76894559Y-67926077D01*
X76894559Y-67926077D02*
X76894559Y-67687982D01*
X76894559Y-67687982D02*
X76854083Y-67592744D01*
X77218369Y-67116553D02*
X76651702Y-67116553D01*
X76813607Y-67116553D02*
X76732654Y-67068934D01*
X76732654Y-67068934D02*
X76692178Y-67021315D01*
X76692178Y-67021315D02*
X76651702Y-66926077D01*
X76651702Y-66926077D02*
X76651702Y-66830839D01*
X76651702Y-66640362D02*
X76651702Y-66259410D01*
X76368369Y-66497505D02*
X77096940Y-66497505D01*
X77096940Y-66497505D02*
X77177893Y-66449886D01*
X77177893Y-66449886D02*
X77218369Y-66354648D01*
X77218369Y-66354648D02*
X77218369Y-66259410D01*
X77218369Y-65926076D02*
X76651702Y-65926076D01*
X76732654Y-65926076D02*
X76692178Y-65878457D01*
X76692178Y-65878457D02*
X76651702Y-65783219D01*
X76651702Y-65783219D02*
X76651702Y-65640362D01*
X76651702Y-65640362D02*
X76692178Y-65545124D01*
X76692178Y-65545124D02*
X76773131Y-65497505D01*
X76773131Y-65497505D02*
X77218369Y-65497505D01*
X76773131Y-65497505D02*
X76692178Y-65449886D01*
X76692178Y-65449886D02*
X76651702Y-65354648D01*
X76651702Y-65354648D02*
X76651702Y-65211791D01*
X76651702Y-65211791D02*
X76692178Y-65116552D01*
X76692178Y-65116552D02*
X76773131Y-65068933D01*
X76773131Y-65068933D02*
X77218369Y-65068933D01*
X77177893Y-64211791D02*
X77218369Y-64307029D01*
X77218369Y-64307029D02*
X77218369Y-64497505D01*
X77218369Y-64497505D02*
X77177893Y-64592743D01*
X77177893Y-64592743D02*
X77096940Y-64640362D01*
X77096940Y-64640362D02*
X76773131Y-64640362D01*
X76773131Y-64640362D02*
X76692178Y-64592743D01*
X76692178Y-64592743D02*
X76651702Y-64497505D01*
X76651702Y-64497505D02*
X76651702Y-64307029D01*
X76651702Y-64307029D02*
X76692178Y-64211791D01*
X76692178Y-64211791D02*
X76773131Y-64164172D01*
X76773131Y-64164172D02*
X76854083Y-64164172D01*
X76854083Y-64164172D02*
X76935035Y-64640362D01*
X76651702Y-63735600D02*
X77218369Y-63735600D01*
X76732654Y-63735600D02*
X76692178Y-63687981D01*
X76692178Y-63687981D02*
X76651702Y-63592743D01*
X76651702Y-63592743D02*
X76651702Y-63449886D01*
X76651702Y-63449886D02*
X76692178Y-63354648D01*
X76692178Y-63354648D02*
X76773131Y-63307029D01*
X76773131Y-63307029D02*
X77218369Y-63307029D01*
X76651702Y-62973695D02*
X76651702Y-62592743D01*
X76368369Y-62830838D02*
X77096940Y-62830838D01*
X77096940Y-62830838D02*
X77177893Y-62783219D01*
X77177893Y-62783219D02*
X77218369Y-62687981D01*
X77218369Y-62687981D02*
X77218369Y-62592743D01*
X77218369Y-61354647D02*
X77177893Y-61449885D01*
X77177893Y-61449885D02*
X77137416Y-61497504D01*
X77137416Y-61497504D02*
X77056464Y-61545123D01*
X77056464Y-61545123D02*
X76813607Y-61545123D01*
X76813607Y-61545123D02*
X76732654Y-61497504D01*
X76732654Y-61497504D02*
X76692178Y-61449885D01*
X76692178Y-61449885D02*
X76651702Y-61354647D01*
X76651702Y-61354647D02*
X76651702Y-61211790D01*
X76651702Y-61211790D02*
X76692178Y-61116552D01*
X76692178Y-61116552D02*
X76732654Y-61068933D01*
X76732654Y-61068933D02*
X76813607Y-61021314D01*
X76813607Y-61021314D02*
X77056464Y-61021314D01*
X77056464Y-61021314D02*
X77137416Y-61068933D01*
X77137416Y-61068933D02*
X77177893Y-61116552D01*
X77177893Y-61116552D02*
X77218369Y-61211790D01*
X77218369Y-61211790D02*
X77218369Y-61354647D01*
X76651702Y-60735599D02*
X76651702Y-60354647D01*
X77218369Y-60592742D02*
X76489797Y-60592742D01*
X76489797Y-60592742D02*
X76408845Y-60545123D01*
X76408845Y-60545123D02*
X76368369Y-60449885D01*
X76368369Y-60449885D02*
X76368369Y-60354647D01*
X77218369Y-59259408D02*
X76368369Y-59259408D01*
X76368369Y-59259408D02*
X76368369Y-58878456D01*
X76368369Y-58878456D02*
X76408845Y-58783218D01*
X76408845Y-58783218D02*
X76449321Y-58735599D01*
X76449321Y-58735599D02*
X76530273Y-58687980D01*
X76530273Y-58687980D02*
X76651702Y-58687980D01*
X76651702Y-58687980D02*
X76732654Y-58735599D01*
X76732654Y-58735599D02*
X76773131Y-58783218D01*
X76773131Y-58783218D02*
X76813607Y-58878456D01*
X76813607Y-58878456D02*
X76813607Y-59259408D01*
X77218369Y-58259408D02*
X76368369Y-58259408D01*
X77218369Y-57830837D02*
X76773131Y-57830837D01*
X76773131Y-57830837D02*
X76692178Y-57878456D01*
X76692178Y-57878456D02*
X76651702Y-57973694D01*
X76651702Y-57973694D02*
X76651702Y-58116551D01*
X76651702Y-58116551D02*
X76692178Y-58211789D01*
X76692178Y-58211789D02*
X76732654Y-58259408D01*
X76651702Y-57449884D02*
X77218369Y-57211789D01*
X76651702Y-56973694D02*
X77218369Y-57211789D01*
X77218369Y-57211789D02*
X77420750Y-57307027D01*
X77420750Y-57307027D02*
X77461226Y-57354646D01*
X77461226Y-57354646D02*
X77501702Y-57449884D01*
X77177893Y-56640360D02*
X77218369Y-56545122D01*
X77218369Y-56545122D02*
X77218369Y-56354646D01*
X77218369Y-56354646D02*
X77177893Y-56259408D01*
X77177893Y-56259408D02*
X77096940Y-56211789D01*
X77096940Y-56211789D02*
X77056464Y-56211789D01*
X77056464Y-56211789D02*
X76975512Y-56259408D01*
X76975512Y-56259408D02*
X76935035Y-56354646D01*
X76935035Y-56354646D02*
X76935035Y-56497503D01*
X76935035Y-56497503D02*
X76894559Y-56592741D01*
X76894559Y-56592741D02*
X76813607Y-56640360D01*
X76813607Y-56640360D02*
X76773131Y-56640360D01*
X76773131Y-56640360D02*
X76692178Y-56592741D01*
X76692178Y-56592741D02*
X76651702Y-56497503D01*
X76651702Y-56497503D02*
X76651702Y-56354646D01*
X76651702Y-56354646D02*
X76692178Y-56259408D01*
X77218369Y-55783217D02*
X76651702Y-55783217D01*
X76368369Y-55783217D02*
X76408845Y-55830836D01*
X76408845Y-55830836D02*
X76449321Y-55783217D01*
X76449321Y-55783217D02*
X76408845Y-55735598D01*
X76408845Y-55735598D02*
X76368369Y-55783217D01*
X76368369Y-55783217D02*
X76449321Y-55783217D01*
X77177893Y-54878456D02*
X77218369Y-54973694D01*
X77218369Y-54973694D02*
X77218369Y-55164170D01*
X77218369Y-55164170D02*
X77177893Y-55259408D01*
X77177893Y-55259408D02*
X77137416Y-55307027D01*
X77137416Y-55307027D02*
X77056464Y-55354646D01*
X77056464Y-55354646D02*
X76813607Y-55354646D01*
X76813607Y-55354646D02*
X76732654Y-55307027D01*
X76732654Y-55307027D02*
X76692178Y-55259408D01*
X76692178Y-55259408D02*
X76651702Y-55164170D01*
X76651702Y-55164170D02*
X76651702Y-54973694D01*
X76651702Y-54973694D02*
X76692178Y-54878456D01*
X77177893Y-54497503D02*
X77218369Y-54402265D01*
X77218369Y-54402265D02*
X77218369Y-54211789D01*
X77218369Y-54211789D02*
X77177893Y-54116551D01*
X77177893Y-54116551D02*
X77096940Y-54068932D01*
X77096940Y-54068932D02*
X77056464Y-54068932D01*
X77056464Y-54068932D02*
X76975512Y-54116551D01*
X76975512Y-54116551D02*
X76935035Y-54211789D01*
X76935035Y-54211789D02*
X76935035Y-54354646D01*
X76935035Y-54354646D02*
X76894559Y-54449884D01*
X76894559Y-54449884D02*
X76813607Y-54497503D01*
X76813607Y-54497503D02*
X76773131Y-54497503D01*
X76773131Y-54497503D02*
X76692178Y-54449884D01*
X76692178Y-54449884D02*
X76651702Y-54354646D01*
X76651702Y-54354646D02*
X76651702Y-54211789D01*
X76651702Y-54211789D02*
X76692178Y-54116551D01*
X77736821Y-70878458D02*
X77736821Y-70259411D01*
X77736821Y-70259411D02*
X78060630Y-70592744D01*
X78060630Y-70592744D02*
X78060630Y-70449887D01*
X78060630Y-70449887D02*
X78101106Y-70354649D01*
X78101106Y-70354649D02*
X78141583Y-70307030D01*
X78141583Y-70307030D02*
X78222535Y-70259411D01*
X78222535Y-70259411D02*
X78424916Y-70259411D01*
X78424916Y-70259411D02*
X78505868Y-70307030D01*
X78505868Y-70307030D02*
X78546345Y-70354649D01*
X78546345Y-70354649D02*
X78586821Y-70449887D01*
X78586821Y-70449887D02*
X78586821Y-70735601D01*
X78586821Y-70735601D02*
X78546345Y-70830839D01*
X78546345Y-70830839D02*
X78505868Y-70878458D01*
X78586821Y-69307030D02*
X78586821Y-69878458D01*
X78586821Y-69592744D02*
X77736821Y-69592744D01*
X77736821Y-69592744D02*
X77858249Y-69687982D01*
X77858249Y-69687982D02*
X77939202Y-69783220D01*
X77939202Y-69783220D02*
X77979678Y-69878458D01*
X77696345Y-68164173D02*
X78789202Y-69021315D01*
X78586821Y-67307030D02*
X78586821Y-67878458D01*
X78586821Y-67592744D02*
X77736821Y-67592744D01*
X77736821Y-67592744D02*
X77858249Y-67687982D01*
X77858249Y-67687982D02*
X77939202Y-67783220D01*
X77939202Y-67783220D02*
X77979678Y-67878458D01*
X77736821Y-66687982D02*
X77736821Y-66592744D01*
X77736821Y-66592744D02*
X77777297Y-66497506D01*
X77777297Y-66497506D02*
X77817773Y-66449887D01*
X77817773Y-66449887D02*
X77898725Y-66402268D01*
X77898725Y-66402268D02*
X78060630Y-66354649D01*
X78060630Y-66354649D02*
X78263011Y-66354649D01*
X78263011Y-66354649D02*
X78424916Y-66402268D01*
X78424916Y-66402268D02*
X78505868Y-66449887D01*
X78505868Y-66449887D02*
X78546345Y-66497506D01*
X78546345Y-66497506D02*
X78586821Y-66592744D01*
X78586821Y-66592744D02*
X78586821Y-66687982D01*
X78586821Y-66687982D02*
X78546345Y-66783220D01*
X78546345Y-66783220D02*
X78505868Y-66830839D01*
X78505868Y-66830839D02*
X78424916Y-66878458D01*
X78424916Y-66878458D02*
X78263011Y-66926077D01*
X78263011Y-66926077D02*
X78060630Y-66926077D01*
X78060630Y-66926077D02*
X77898725Y-66878458D01*
X77898725Y-66878458D02*
X77817773Y-66830839D01*
X77817773Y-66830839D02*
X77777297Y-66783220D01*
X77777297Y-66783220D02*
X77736821Y-66687982D01*
X77696345Y-65211792D02*
X78789202Y-66068934D01*
X77817773Y-64926077D02*
X77777297Y-64878458D01*
X77777297Y-64878458D02*
X77736821Y-64783220D01*
X77736821Y-64783220D02*
X77736821Y-64545125D01*
X77736821Y-64545125D02*
X77777297Y-64449887D01*
X77777297Y-64449887D02*
X77817773Y-64402268D01*
X77817773Y-64402268D02*
X77898725Y-64354649D01*
X77898725Y-64354649D02*
X77979678Y-64354649D01*
X77979678Y-64354649D02*
X78101106Y-64402268D01*
X78101106Y-64402268D02*
X78586821Y-64973696D01*
X78586821Y-64973696D02*
X78586821Y-64354649D01*
X77736821Y-63735601D02*
X77736821Y-63640363D01*
X77736821Y-63640363D02*
X77777297Y-63545125D01*
X77777297Y-63545125D02*
X77817773Y-63497506D01*
X77817773Y-63497506D02*
X77898725Y-63449887D01*
X77898725Y-63449887D02*
X78060630Y-63402268D01*
X78060630Y-63402268D02*
X78263011Y-63402268D01*
X78263011Y-63402268D02*
X78424916Y-63449887D01*
X78424916Y-63449887D02*
X78505868Y-63497506D01*
X78505868Y-63497506D02*
X78546345Y-63545125D01*
X78546345Y-63545125D02*
X78586821Y-63640363D01*
X78586821Y-63640363D02*
X78586821Y-63735601D01*
X78586821Y-63735601D02*
X78546345Y-63830839D01*
X78546345Y-63830839D02*
X78505868Y-63878458D01*
X78505868Y-63878458D02*
X78424916Y-63926077D01*
X78424916Y-63926077D02*
X78263011Y-63973696D01*
X78263011Y-63973696D02*
X78060630Y-63973696D01*
X78060630Y-63973696D02*
X77898725Y-63926077D01*
X77898725Y-63926077D02*
X77817773Y-63878458D01*
X77817773Y-63878458D02*
X77777297Y-63830839D01*
X77777297Y-63830839D02*
X77736821Y-63735601D01*
X77817773Y-63021315D02*
X77777297Y-62973696D01*
X77777297Y-62973696D02*
X77736821Y-62878458D01*
X77736821Y-62878458D02*
X77736821Y-62640363D01*
X77736821Y-62640363D02*
X77777297Y-62545125D01*
X77777297Y-62545125D02*
X77817773Y-62497506D01*
X77817773Y-62497506D02*
X77898725Y-62449887D01*
X77898725Y-62449887D02*
X77979678Y-62449887D01*
X77979678Y-62449887D02*
X78101106Y-62497506D01*
X78101106Y-62497506D02*
X78586821Y-63068934D01*
X78586821Y-63068934D02*
X78586821Y-62449887D01*
X78020154Y-61592744D02*
X78586821Y-61592744D01*
X77696345Y-61830839D02*
X78303487Y-62068934D01*
X78303487Y-62068934D02*
X78303487Y-61449887D01*
X78546345Y-61021315D02*
X78586821Y-61021315D01*
X78586821Y-61021315D02*
X78667773Y-61068934D01*
X78667773Y-61068934D02*
X78708249Y-61116553D01*
X78586821Y-59830839D02*
X77736821Y-59830839D01*
X77736821Y-59830839D02*
X78343964Y-59497506D01*
X78343964Y-59497506D02*
X77736821Y-59164173D01*
X77736821Y-59164173D02*
X78586821Y-59164173D01*
X78586821Y-58687982D02*
X78020154Y-58687982D01*
X77736821Y-58687982D02*
X77777297Y-58735601D01*
X77777297Y-58735601D02*
X77817773Y-58687982D01*
X77817773Y-58687982D02*
X77777297Y-58640363D01*
X77777297Y-58640363D02*
X77736821Y-58687982D01*
X77736821Y-58687982D02*
X77817773Y-58687982D01*
X78586821Y-58068935D02*
X78546345Y-58164173D01*
X78546345Y-58164173D02*
X78465392Y-58211792D01*
X78465392Y-58211792D02*
X77736821Y-58211792D01*
X78586821Y-57259411D02*
X78141583Y-57259411D01*
X78141583Y-57259411D02*
X78060630Y-57307030D01*
X78060630Y-57307030D02*
X78020154Y-57402268D01*
X78020154Y-57402268D02*
X78020154Y-57592744D01*
X78020154Y-57592744D02*
X78060630Y-57687982D01*
X78546345Y-57259411D02*
X78586821Y-57354649D01*
X78586821Y-57354649D02*
X78586821Y-57592744D01*
X78586821Y-57592744D02*
X78546345Y-57687982D01*
X78546345Y-57687982D02*
X78465392Y-57735601D01*
X78465392Y-57735601D02*
X78384440Y-57735601D01*
X78384440Y-57735601D02*
X78303487Y-57687982D01*
X78303487Y-57687982D02*
X78263011Y-57592744D01*
X78263011Y-57592744D02*
X78263011Y-57354649D01*
X78263011Y-57354649D02*
X78222535Y-57259411D01*
X78020154Y-56783220D02*
X78586821Y-56783220D01*
X78101106Y-56783220D02*
X78060630Y-56735601D01*
X78060630Y-56735601D02*
X78020154Y-56640363D01*
X78020154Y-56640363D02*
X78020154Y-56497506D01*
X78020154Y-56497506D02*
X78060630Y-56402268D01*
X78060630Y-56402268D02*
X78141583Y-56354649D01*
X78141583Y-56354649D02*
X78586821Y-56354649D01*
X79105273Y-70926077D02*
X79105273Y-70354649D01*
X79955273Y-70640363D02*
X79105273Y-70640363D01*
X79955273Y-70021315D02*
X79388606Y-70021315D01*
X79105273Y-70021315D02*
X79145749Y-70068934D01*
X79145749Y-70068934D02*
X79186225Y-70021315D01*
X79186225Y-70021315D02*
X79145749Y-69973696D01*
X79145749Y-69973696D02*
X79105273Y-70021315D01*
X79105273Y-70021315D02*
X79186225Y-70021315D01*
X79955273Y-69545125D02*
X79388606Y-69545125D01*
X79469558Y-69545125D02*
X79429082Y-69497506D01*
X79429082Y-69497506D02*
X79388606Y-69402268D01*
X79388606Y-69402268D02*
X79388606Y-69259411D01*
X79388606Y-69259411D02*
X79429082Y-69164173D01*
X79429082Y-69164173D02*
X79510035Y-69116554D01*
X79510035Y-69116554D02*
X79955273Y-69116554D01*
X79510035Y-69116554D02*
X79429082Y-69068935D01*
X79429082Y-69068935D02*
X79388606Y-68973697D01*
X79388606Y-68973697D02*
X79388606Y-68830840D01*
X79388606Y-68830840D02*
X79429082Y-68735601D01*
X79429082Y-68735601D02*
X79510035Y-68687982D01*
X79510035Y-68687982D02*
X79955273Y-68687982D01*
X79914797Y-67830840D02*
X79955273Y-67926078D01*
X79955273Y-67926078D02*
X79955273Y-68116554D01*
X79955273Y-68116554D02*
X79914797Y-68211792D01*
X79914797Y-68211792D02*
X79833844Y-68259411D01*
X79833844Y-68259411D02*
X79510035Y-68259411D01*
X79510035Y-68259411D02*
X79429082Y-68211792D01*
X79429082Y-68211792D02*
X79388606Y-68116554D01*
X79388606Y-68116554D02*
X79388606Y-67926078D01*
X79388606Y-67926078D02*
X79429082Y-67830840D01*
X79429082Y-67830840D02*
X79510035Y-67783221D01*
X79510035Y-67783221D02*
X79590987Y-67783221D01*
X79590987Y-67783221D02*
X79671939Y-68259411D01*
X79388606Y-66735601D02*
X79388606Y-66354649D01*
X79105273Y-66592744D02*
X79833844Y-66592744D01*
X79833844Y-66592744D02*
X79914797Y-66545125D01*
X79914797Y-66545125D02*
X79955273Y-66449887D01*
X79955273Y-66449887D02*
X79955273Y-66354649D01*
X79955273Y-65878458D02*
X79914797Y-65973696D01*
X79914797Y-65973696D02*
X79874320Y-66021315D01*
X79874320Y-66021315D02*
X79793368Y-66068934D01*
X79793368Y-66068934D02*
X79550511Y-66068934D01*
X79550511Y-66068934D02*
X79469558Y-66021315D01*
X79469558Y-66021315D02*
X79429082Y-65973696D01*
X79429082Y-65973696D02*
X79388606Y-65878458D01*
X79388606Y-65878458D02*
X79388606Y-65735601D01*
X79388606Y-65735601D02*
X79429082Y-65640363D01*
X79429082Y-65640363D02*
X79469558Y-65592744D01*
X79469558Y-65592744D02*
X79550511Y-65545125D01*
X79550511Y-65545125D02*
X79793368Y-65545125D01*
X79793368Y-65545125D02*
X79874320Y-65592744D01*
X79874320Y-65592744D02*
X79914797Y-65640363D01*
X79914797Y-65640363D02*
X79955273Y-65735601D01*
X79955273Y-65735601D02*
X79955273Y-65878458D01*
X79955273Y-64354648D02*
X79105273Y-64354648D01*
X79105273Y-64354648D02*
X79105273Y-64116553D01*
X79105273Y-64116553D02*
X79145749Y-63973696D01*
X79145749Y-63973696D02*
X79226701Y-63878458D01*
X79226701Y-63878458D02*
X79307654Y-63830839D01*
X79307654Y-63830839D02*
X79469558Y-63783220D01*
X79469558Y-63783220D02*
X79590987Y-63783220D01*
X79590987Y-63783220D02*
X79752892Y-63830839D01*
X79752892Y-63830839D02*
X79833844Y-63878458D01*
X79833844Y-63878458D02*
X79914797Y-63973696D01*
X79914797Y-63973696D02*
X79955273Y-64116553D01*
X79955273Y-64116553D02*
X79955273Y-64354648D01*
X79955273Y-63354648D02*
X79388606Y-63354648D01*
X79105273Y-63354648D02*
X79145749Y-63402267D01*
X79145749Y-63402267D02*
X79186225Y-63354648D01*
X79186225Y-63354648D02*
X79145749Y-63307029D01*
X79145749Y-63307029D02*
X79105273Y-63354648D01*
X79105273Y-63354648D02*
X79186225Y-63354648D01*
X79388606Y-62449887D02*
X80076701Y-62449887D01*
X80076701Y-62449887D02*
X80157654Y-62497506D01*
X80157654Y-62497506D02*
X80198130Y-62545125D01*
X80198130Y-62545125D02*
X80238606Y-62640363D01*
X80238606Y-62640363D02*
X80238606Y-62783220D01*
X80238606Y-62783220D02*
X80198130Y-62878458D01*
X79914797Y-62449887D02*
X79955273Y-62545125D01*
X79955273Y-62545125D02*
X79955273Y-62735601D01*
X79955273Y-62735601D02*
X79914797Y-62830839D01*
X79914797Y-62830839D02*
X79874320Y-62878458D01*
X79874320Y-62878458D02*
X79793368Y-62926077D01*
X79793368Y-62926077D02*
X79550511Y-62926077D01*
X79550511Y-62926077D02*
X79469558Y-62878458D01*
X79469558Y-62878458D02*
X79429082Y-62830839D01*
X79429082Y-62830839D02*
X79388606Y-62735601D01*
X79388606Y-62735601D02*
X79388606Y-62545125D01*
X79388606Y-62545125D02*
X79429082Y-62449887D01*
X79955273Y-61973696D02*
X79388606Y-61973696D01*
X79105273Y-61973696D02*
X79145749Y-62021315D01*
X79145749Y-62021315D02*
X79186225Y-61973696D01*
X79186225Y-61973696D02*
X79145749Y-61926077D01*
X79145749Y-61926077D02*
X79105273Y-61973696D01*
X79105273Y-61973696D02*
X79186225Y-61973696D01*
X79388606Y-61640363D02*
X79388606Y-61259411D01*
X79105273Y-61497506D02*
X79833844Y-61497506D01*
X79833844Y-61497506D02*
X79914797Y-61449887D01*
X79914797Y-61449887D02*
X79955273Y-61354649D01*
X79955273Y-61354649D02*
X79955273Y-61259411D01*
X79955273Y-60497506D02*
X79510035Y-60497506D01*
X79510035Y-60497506D02*
X79429082Y-60545125D01*
X79429082Y-60545125D02*
X79388606Y-60640363D01*
X79388606Y-60640363D02*
X79388606Y-60830839D01*
X79388606Y-60830839D02*
X79429082Y-60926077D01*
X79914797Y-60497506D02*
X79955273Y-60592744D01*
X79955273Y-60592744D02*
X79955273Y-60830839D01*
X79955273Y-60830839D02*
X79914797Y-60926077D01*
X79914797Y-60926077D02*
X79833844Y-60973696D01*
X79833844Y-60973696D02*
X79752892Y-60973696D01*
X79752892Y-60973696D02*
X79671939Y-60926077D01*
X79671939Y-60926077D02*
X79631463Y-60830839D01*
X79631463Y-60830839D02*
X79631463Y-60592744D01*
X79631463Y-60592744D02*
X79590987Y-60497506D01*
X79955273Y-59878458D02*
X79914797Y-59973696D01*
X79914797Y-59973696D02*
X79833844Y-60021315D01*
X79833844Y-60021315D02*
X79105273Y-60021315D01*
X79874320Y-58164172D02*
X79914797Y-58211791D01*
X79914797Y-58211791D02*
X79955273Y-58354648D01*
X79955273Y-58354648D02*
X79955273Y-58449886D01*
X79955273Y-58449886D02*
X79914797Y-58592743D01*
X79914797Y-58592743D02*
X79833844Y-58687981D01*
X79833844Y-58687981D02*
X79752892Y-58735600D01*
X79752892Y-58735600D02*
X79590987Y-58783219D01*
X79590987Y-58783219D02*
X79469558Y-58783219D01*
X79469558Y-58783219D02*
X79307654Y-58735600D01*
X79307654Y-58735600D02*
X79226701Y-58687981D01*
X79226701Y-58687981D02*
X79145749Y-58592743D01*
X79145749Y-58592743D02*
X79105273Y-58449886D01*
X79105273Y-58449886D02*
X79105273Y-58354648D01*
X79105273Y-58354648D02*
X79145749Y-58211791D01*
X79145749Y-58211791D02*
X79186225Y-58164172D01*
X79955273Y-57592743D02*
X79914797Y-57687981D01*
X79914797Y-57687981D02*
X79874320Y-57735600D01*
X79874320Y-57735600D02*
X79793368Y-57783219D01*
X79793368Y-57783219D02*
X79550511Y-57783219D01*
X79550511Y-57783219D02*
X79469558Y-57735600D01*
X79469558Y-57735600D02*
X79429082Y-57687981D01*
X79429082Y-57687981D02*
X79388606Y-57592743D01*
X79388606Y-57592743D02*
X79388606Y-57449886D01*
X79388606Y-57449886D02*
X79429082Y-57354648D01*
X79429082Y-57354648D02*
X79469558Y-57307029D01*
X79469558Y-57307029D02*
X79550511Y-57259410D01*
X79550511Y-57259410D02*
X79793368Y-57259410D01*
X79793368Y-57259410D02*
X79874320Y-57307029D01*
X79874320Y-57307029D02*
X79914797Y-57354648D01*
X79914797Y-57354648D02*
X79955273Y-57449886D01*
X79955273Y-57449886D02*
X79955273Y-57592743D01*
X79388606Y-56830838D02*
X79955273Y-56830838D01*
X79469558Y-56830838D02*
X79429082Y-56783219D01*
X79429082Y-56783219D02*
X79388606Y-56687981D01*
X79388606Y-56687981D02*
X79388606Y-56545124D01*
X79388606Y-56545124D02*
X79429082Y-56449886D01*
X79429082Y-56449886D02*
X79510035Y-56402267D01*
X79510035Y-56402267D02*
X79955273Y-56402267D01*
X79388606Y-56021314D02*
X79955273Y-55783219D01*
X79955273Y-55783219D02*
X79388606Y-55545124D01*
X79914797Y-54783219D02*
X79955273Y-54878457D01*
X79955273Y-54878457D02*
X79955273Y-55068933D01*
X79955273Y-55068933D02*
X79914797Y-55164171D01*
X79914797Y-55164171D02*
X79833844Y-55211790D01*
X79833844Y-55211790D02*
X79510035Y-55211790D01*
X79510035Y-55211790D02*
X79429082Y-55164171D01*
X79429082Y-55164171D02*
X79388606Y-55068933D01*
X79388606Y-55068933D02*
X79388606Y-54878457D01*
X79388606Y-54878457D02*
X79429082Y-54783219D01*
X79429082Y-54783219D02*
X79510035Y-54735600D01*
X79510035Y-54735600D02*
X79590987Y-54735600D01*
X79590987Y-54735600D02*
X79671939Y-55211790D01*
X79955273Y-54307028D02*
X79388606Y-54307028D01*
X79550511Y-54307028D02*
X79469558Y-54259409D01*
X79469558Y-54259409D02*
X79429082Y-54211790D01*
X79429082Y-54211790D02*
X79388606Y-54116552D01*
X79388606Y-54116552D02*
X79388606Y-54021314D01*
X79388606Y-53830837D02*
X79388606Y-53449885D01*
X79105273Y-53687980D02*
X79833844Y-53687980D01*
X79833844Y-53687980D02*
X79914797Y-53640361D01*
X79914797Y-53640361D02*
X79955273Y-53545123D01*
X79955273Y-53545123D02*
X79955273Y-53449885D01*
X79914797Y-52735599D02*
X79955273Y-52830837D01*
X79955273Y-52830837D02*
X79955273Y-53021313D01*
X79955273Y-53021313D02*
X79914797Y-53116551D01*
X79914797Y-53116551D02*
X79833844Y-53164170D01*
X79833844Y-53164170D02*
X79510035Y-53164170D01*
X79510035Y-53164170D02*
X79429082Y-53116551D01*
X79429082Y-53116551D02*
X79388606Y-53021313D01*
X79388606Y-53021313D02*
X79388606Y-52830837D01*
X79388606Y-52830837D02*
X79429082Y-52735599D01*
X79429082Y-52735599D02*
X79510035Y-52687980D01*
X79510035Y-52687980D02*
X79590987Y-52687980D01*
X79590987Y-52687980D02*
X79671939Y-53164170D01*
X79955273Y-52259408D02*
X79388606Y-52259408D01*
X79550511Y-52259408D02*
X79469558Y-52211789D01*
X79469558Y-52211789D02*
X79429082Y-52164170D01*
X79429082Y-52164170D02*
X79388606Y-52068932D01*
X79388606Y-52068932D02*
X79388606Y-51973694D01*
X80878487Y-70449887D02*
X80878487Y-70783220D01*
X81323725Y-70783220D02*
X80473725Y-70783220D01*
X80473725Y-70783220D02*
X80473725Y-70307030D01*
X81323725Y-69926077D02*
X80757058Y-69926077D01*
X80473725Y-69926077D02*
X80514201Y-69973696D01*
X80514201Y-69973696D02*
X80554677Y-69926077D01*
X80554677Y-69926077D02*
X80514201Y-69878458D01*
X80514201Y-69878458D02*
X80473725Y-69926077D01*
X80473725Y-69926077D02*
X80554677Y-69926077D01*
X80757058Y-69449887D02*
X81323725Y-69449887D01*
X80838010Y-69449887D02*
X80797534Y-69402268D01*
X80797534Y-69402268D02*
X80757058Y-69307030D01*
X80757058Y-69307030D02*
X80757058Y-69164173D01*
X80757058Y-69164173D02*
X80797534Y-69068935D01*
X80797534Y-69068935D02*
X80878487Y-69021316D01*
X80878487Y-69021316D02*
X81323725Y-69021316D01*
X81323725Y-68116554D02*
X80473725Y-68116554D01*
X81283249Y-68116554D02*
X81323725Y-68211792D01*
X81323725Y-68211792D02*
X81323725Y-68402268D01*
X81323725Y-68402268D02*
X81283249Y-68497506D01*
X81283249Y-68497506D02*
X81242772Y-68545125D01*
X81242772Y-68545125D02*
X81161820Y-68592744D01*
X81161820Y-68592744D02*
X80918963Y-68592744D01*
X80918963Y-68592744D02*
X80838010Y-68545125D01*
X80838010Y-68545125D02*
X80797534Y-68497506D01*
X80797534Y-68497506D02*
X80757058Y-68402268D01*
X80757058Y-68402268D02*
X80757058Y-68211792D01*
X80757058Y-68211792D02*
X80797534Y-68116554D01*
X81323725Y-66878458D02*
X80757058Y-66878458D01*
X80838010Y-66878458D02*
X80797534Y-66830839D01*
X80797534Y-66830839D02*
X80757058Y-66735601D01*
X80757058Y-66735601D02*
X80757058Y-66592744D01*
X80757058Y-66592744D02*
X80797534Y-66497506D01*
X80797534Y-66497506D02*
X80878487Y-66449887D01*
X80878487Y-66449887D02*
X81323725Y-66449887D01*
X80878487Y-66449887D02*
X80797534Y-66402268D01*
X80797534Y-66402268D02*
X80757058Y-66307030D01*
X80757058Y-66307030D02*
X80757058Y-66164173D01*
X80757058Y-66164173D02*
X80797534Y-66068934D01*
X80797534Y-66068934D02*
X80878487Y-66021315D01*
X80878487Y-66021315D02*
X81323725Y-66021315D01*
X81323725Y-65402268D02*
X81283249Y-65497506D01*
X81283249Y-65497506D02*
X81242772Y-65545125D01*
X81242772Y-65545125D02*
X81161820Y-65592744D01*
X81161820Y-65592744D02*
X80918963Y-65592744D01*
X80918963Y-65592744D02*
X80838010Y-65545125D01*
X80838010Y-65545125D02*
X80797534Y-65497506D01*
X80797534Y-65497506D02*
X80757058Y-65402268D01*
X80757058Y-65402268D02*
X80757058Y-65259411D01*
X80757058Y-65259411D02*
X80797534Y-65164173D01*
X80797534Y-65164173D02*
X80838010Y-65116554D01*
X80838010Y-65116554D02*
X80918963Y-65068935D01*
X80918963Y-65068935D02*
X81161820Y-65068935D01*
X81161820Y-65068935D02*
X81242772Y-65116554D01*
X81242772Y-65116554D02*
X81283249Y-65164173D01*
X81283249Y-65164173D02*
X81323725Y-65259411D01*
X81323725Y-65259411D02*
X81323725Y-65402268D01*
X81323725Y-64640363D02*
X80757058Y-64640363D01*
X80918963Y-64640363D02*
X80838010Y-64592744D01*
X80838010Y-64592744D02*
X80797534Y-64545125D01*
X80797534Y-64545125D02*
X80757058Y-64449887D01*
X80757058Y-64449887D02*
X80757058Y-64354649D01*
X81283249Y-63640363D02*
X81323725Y-63735601D01*
X81323725Y-63735601D02*
X81323725Y-63926077D01*
X81323725Y-63926077D02*
X81283249Y-64021315D01*
X81283249Y-64021315D02*
X81202296Y-64068934D01*
X81202296Y-64068934D02*
X80878487Y-64068934D01*
X80878487Y-64068934D02*
X80797534Y-64021315D01*
X80797534Y-64021315D02*
X80757058Y-63926077D01*
X80757058Y-63926077D02*
X80757058Y-63735601D01*
X80757058Y-63735601D02*
X80797534Y-63640363D01*
X80797534Y-63640363D02*
X80878487Y-63592744D01*
X80878487Y-63592744D02*
X80959439Y-63592744D01*
X80959439Y-63592744D02*
X81040391Y-64068934D01*
X81242772Y-63164172D02*
X81283249Y-63116553D01*
X81283249Y-63116553D02*
X81323725Y-63164172D01*
X81323725Y-63164172D02*
X81283249Y-63211791D01*
X81283249Y-63211791D02*
X81242772Y-63164172D01*
X81242772Y-63164172D02*
X81323725Y-63164172D01*
X80797534Y-63164172D02*
X80838010Y-63116553D01*
X80838010Y-63116553D02*
X80878487Y-63164172D01*
X80878487Y-63164172D02*
X80838010Y-63211791D01*
X80838010Y-63211791D02*
X80797534Y-63164172D01*
X80797534Y-63164172D02*
X80878487Y-63164172D01*
X82125510Y-70354649D02*
X82813605Y-70354649D01*
X82813605Y-70354649D02*
X82894558Y-70402268D01*
X82894558Y-70402268D02*
X82935034Y-70449887D01*
X82935034Y-70449887D02*
X82975510Y-70545125D01*
X82975510Y-70545125D02*
X82975510Y-70687982D01*
X82975510Y-70687982D02*
X82935034Y-70783220D01*
X82651701Y-70354649D02*
X82692177Y-70449887D01*
X82692177Y-70449887D02*
X82692177Y-70640363D01*
X82692177Y-70640363D02*
X82651701Y-70735601D01*
X82651701Y-70735601D02*
X82611224Y-70783220D01*
X82611224Y-70783220D02*
X82530272Y-70830839D01*
X82530272Y-70830839D02*
X82287415Y-70830839D01*
X82287415Y-70830839D02*
X82206462Y-70783220D01*
X82206462Y-70783220D02*
X82165986Y-70735601D01*
X82165986Y-70735601D02*
X82125510Y-70640363D01*
X82125510Y-70640363D02*
X82125510Y-70449887D01*
X82125510Y-70449887D02*
X82165986Y-70354649D01*
X82692177Y-69878458D02*
X82125510Y-69878458D01*
X81842177Y-69878458D02*
X81882653Y-69926077D01*
X81882653Y-69926077D02*
X81923129Y-69878458D01*
X81923129Y-69878458D02*
X81882653Y-69830839D01*
X81882653Y-69830839D02*
X81842177Y-69878458D01*
X81842177Y-69878458D02*
X81923129Y-69878458D01*
X82125510Y-69545125D02*
X82125510Y-69164173D01*
X81842177Y-69402268D02*
X82570748Y-69402268D01*
X82570748Y-69402268D02*
X82651701Y-69354649D01*
X82651701Y-69354649D02*
X82692177Y-69259411D01*
X82692177Y-69259411D02*
X82692177Y-69164173D01*
X82692177Y-68830839D02*
X81842177Y-68830839D01*
X82692177Y-68402268D02*
X82246939Y-68402268D01*
X82246939Y-68402268D02*
X82165986Y-68449887D01*
X82165986Y-68449887D02*
X82125510Y-68545125D01*
X82125510Y-68545125D02*
X82125510Y-68687982D01*
X82125510Y-68687982D02*
X82165986Y-68783220D01*
X82165986Y-68783220D02*
X82206462Y-68830839D01*
X82125510Y-67497506D02*
X82692177Y-67497506D01*
X82125510Y-67926077D02*
X82570748Y-67926077D01*
X82570748Y-67926077D02*
X82651701Y-67878458D01*
X82651701Y-67878458D02*
X82692177Y-67783220D01*
X82692177Y-67783220D02*
X82692177Y-67640363D01*
X82692177Y-67640363D02*
X82651701Y-67545125D01*
X82651701Y-67545125D02*
X82611224Y-67497506D01*
X82692177Y-67021315D02*
X81842177Y-67021315D01*
X82165986Y-67021315D02*
X82125510Y-66926077D01*
X82125510Y-66926077D02*
X82125510Y-66735601D01*
X82125510Y-66735601D02*
X82165986Y-66640363D01*
X82165986Y-66640363D02*
X82206462Y-66592744D01*
X82206462Y-66592744D02*
X82287415Y-66545125D01*
X82287415Y-66545125D02*
X82530272Y-66545125D01*
X82530272Y-66545125D02*
X82611224Y-66592744D01*
X82611224Y-66592744D02*
X82651701Y-66640363D01*
X82651701Y-66640363D02*
X82692177Y-66735601D01*
X82692177Y-66735601D02*
X82692177Y-66926077D01*
X82692177Y-66926077D02*
X82651701Y-67021315D01*
X82611224Y-66116553D02*
X82651701Y-66068934D01*
X82651701Y-66068934D02*
X82692177Y-66116553D01*
X82692177Y-66116553D02*
X82651701Y-66164172D01*
X82651701Y-66164172D02*
X82611224Y-66116553D01*
X82611224Y-66116553D02*
X82692177Y-66116553D01*
X82651701Y-65211792D02*
X82692177Y-65307030D01*
X82692177Y-65307030D02*
X82692177Y-65497506D01*
X82692177Y-65497506D02*
X82651701Y-65592744D01*
X82651701Y-65592744D02*
X82611224Y-65640363D01*
X82611224Y-65640363D02*
X82530272Y-65687982D01*
X82530272Y-65687982D02*
X82287415Y-65687982D01*
X82287415Y-65687982D02*
X82206462Y-65640363D01*
X82206462Y-65640363D02*
X82165986Y-65592744D01*
X82165986Y-65592744D02*
X82125510Y-65497506D01*
X82125510Y-65497506D02*
X82125510Y-65307030D01*
X82125510Y-65307030D02*
X82165986Y-65211792D01*
X82692177Y-64640363D02*
X82651701Y-64735601D01*
X82651701Y-64735601D02*
X82611224Y-64783220D01*
X82611224Y-64783220D02*
X82530272Y-64830839D01*
X82530272Y-64830839D02*
X82287415Y-64830839D01*
X82287415Y-64830839D02*
X82206462Y-64783220D01*
X82206462Y-64783220D02*
X82165986Y-64735601D01*
X82165986Y-64735601D02*
X82125510Y-64640363D01*
X82125510Y-64640363D02*
X82125510Y-64497506D01*
X82125510Y-64497506D02*
X82165986Y-64402268D01*
X82165986Y-64402268D02*
X82206462Y-64354649D01*
X82206462Y-64354649D02*
X82287415Y-64307030D01*
X82287415Y-64307030D02*
X82530272Y-64307030D01*
X82530272Y-64307030D02*
X82611224Y-64354649D01*
X82611224Y-64354649D02*
X82651701Y-64402268D01*
X82651701Y-64402268D02*
X82692177Y-64497506D01*
X82692177Y-64497506D02*
X82692177Y-64640363D01*
X82692177Y-63878458D02*
X82125510Y-63878458D01*
X82206462Y-63878458D02*
X82165986Y-63830839D01*
X82165986Y-63830839D02*
X82125510Y-63735601D01*
X82125510Y-63735601D02*
X82125510Y-63592744D01*
X82125510Y-63592744D02*
X82165986Y-63497506D01*
X82165986Y-63497506D02*
X82246939Y-63449887D01*
X82246939Y-63449887D02*
X82692177Y-63449887D01*
X82246939Y-63449887D02*
X82165986Y-63402268D01*
X82165986Y-63402268D02*
X82125510Y-63307030D01*
X82125510Y-63307030D02*
X82125510Y-63164173D01*
X82125510Y-63164173D02*
X82165986Y-63068934D01*
X82165986Y-63068934D02*
X82246939Y-63021315D01*
X82246939Y-63021315D02*
X82692177Y-63021315D01*
X81801701Y-61830840D02*
X82894558Y-62687982D01*
X82692177Y-61021316D02*
X82692177Y-61497506D01*
X82692177Y-61497506D02*
X81842177Y-61497506D01*
X82651701Y-60307030D02*
X82692177Y-60402268D01*
X82692177Y-60402268D02*
X82692177Y-60592744D01*
X82692177Y-60592744D02*
X82651701Y-60687982D01*
X82651701Y-60687982D02*
X82570748Y-60735601D01*
X82570748Y-60735601D02*
X82246939Y-60735601D01*
X82246939Y-60735601D02*
X82165986Y-60687982D01*
X82165986Y-60687982D02*
X82125510Y-60592744D01*
X82125510Y-60592744D02*
X82125510Y-60402268D01*
X82125510Y-60402268D02*
X82165986Y-60307030D01*
X82165986Y-60307030D02*
X82246939Y-60259411D01*
X82246939Y-60259411D02*
X82327891Y-60259411D01*
X82327891Y-60259411D02*
X82408843Y-60735601D01*
X82692177Y-59687982D02*
X82651701Y-59783220D01*
X82651701Y-59783220D02*
X82611224Y-59830839D01*
X82611224Y-59830839D02*
X82530272Y-59878458D01*
X82530272Y-59878458D02*
X82287415Y-59878458D01*
X82287415Y-59878458D02*
X82206462Y-59830839D01*
X82206462Y-59830839D02*
X82165986Y-59783220D01*
X82165986Y-59783220D02*
X82125510Y-59687982D01*
X82125510Y-59687982D02*
X82125510Y-59545125D01*
X82125510Y-59545125D02*
X82165986Y-59449887D01*
X82165986Y-59449887D02*
X82206462Y-59402268D01*
X82206462Y-59402268D02*
X82287415Y-59354649D01*
X82287415Y-59354649D02*
X82530272Y-59354649D01*
X82530272Y-59354649D02*
X82611224Y-59402268D01*
X82611224Y-59402268D02*
X82651701Y-59449887D01*
X82651701Y-59449887D02*
X82692177Y-59545125D01*
X82692177Y-59545125D02*
X82692177Y-59687982D01*
X82125510Y-58926077D02*
X82692177Y-58926077D01*
X82206462Y-58926077D02*
X82165986Y-58878458D01*
X82165986Y-58878458D02*
X82125510Y-58783220D01*
X82125510Y-58783220D02*
X82125510Y-58640363D01*
X82125510Y-58640363D02*
X82165986Y-58545125D01*
X82165986Y-58545125D02*
X82246939Y-58497506D01*
X82246939Y-58497506D02*
X82692177Y-58497506D01*
X82692177Y-57592744D02*
X82246939Y-57592744D01*
X82246939Y-57592744D02*
X82165986Y-57640363D01*
X82165986Y-57640363D02*
X82125510Y-57735601D01*
X82125510Y-57735601D02*
X82125510Y-57926077D01*
X82125510Y-57926077D02*
X82165986Y-58021315D01*
X82651701Y-57592744D02*
X82692177Y-57687982D01*
X82692177Y-57687982D02*
X82692177Y-57926077D01*
X82692177Y-57926077D02*
X82651701Y-58021315D01*
X82651701Y-58021315D02*
X82570748Y-58068934D01*
X82570748Y-58068934D02*
X82489796Y-58068934D01*
X82489796Y-58068934D02*
X82408843Y-58021315D01*
X82408843Y-58021315D02*
X82368367Y-57926077D01*
X82368367Y-57926077D02*
X82368367Y-57687982D01*
X82368367Y-57687982D02*
X82327891Y-57592744D01*
X82692177Y-57116553D02*
X82125510Y-57116553D01*
X82287415Y-57116553D02*
X82206462Y-57068934D01*
X82206462Y-57068934D02*
X82165986Y-57021315D01*
X82165986Y-57021315D02*
X82125510Y-56926077D01*
X82125510Y-56926077D02*
X82125510Y-56830839D01*
X82692177Y-56068934D02*
X81842177Y-56068934D01*
X82651701Y-56068934D02*
X82692177Y-56164172D01*
X82692177Y-56164172D02*
X82692177Y-56354648D01*
X82692177Y-56354648D02*
X82651701Y-56449886D01*
X82651701Y-56449886D02*
X82611224Y-56497505D01*
X82611224Y-56497505D02*
X82530272Y-56545124D01*
X82530272Y-56545124D02*
X82287415Y-56545124D01*
X82287415Y-56545124D02*
X82206462Y-56497505D01*
X82206462Y-56497505D02*
X82165986Y-56449886D01*
X82165986Y-56449886D02*
X82125510Y-56354648D01*
X82125510Y-56354648D02*
X82125510Y-56164172D01*
X82125510Y-56164172D02*
X82165986Y-56068934D01*
X82692177Y-55449886D02*
X82651701Y-55545124D01*
X82651701Y-55545124D02*
X82611224Y-55592743D01*
X82611224Y-55592743D02*
X82530272Y-55640362D01*
X82530272Y-55640362D02*
X82287415Y-55640362D01*
X82287415Y-55640362D02*
X82206462Y-55592743D01*
X82206462Y-55592743D02*
X82165986Y-55545124D01*
X82165986Y-55545124D02*
X82125510Y-55449886D01*
X82125510Y-55449886D02*
X82125510Y-55307029D01*
X82125510Y-55307029D02*
X82165986Y-55211791D01*
X82165986Y-55211791D02*
X82206462Y-55164172D01*
X82206462Y-55164172D02*
X82287415Y-55116553D01*
X82287415Y-55116553D02*
X82530272Y-55116553D01*
X82530272Y-55116553D02*
X82611224Y-55164172D01*
X82611224Y-55164172D02*
X82651701Y-55211791D01*
X82651701Y-55211791D02*
X82692177Y-55307029D01*
X82692177Y-55307029D02*
X82692177Y-55449886D01*
X82692177Y-54211791D02*
X82692177Y-54687981D01*
X82692177Y-54687981D02*
X81842177Y-54687981D01*
X82692177Y-53878457D02*
X82125510Y-53878457D01*
X81842177Y-53878457D02*
X81882653Y-53926076D01*
X81882653Y-53926076D02*
X81923129Y-53878457D01*
X81923129Y-53878457D02*
X81882653Y-53830838D01*
X81882653Y-53830838D02*
X81842177Y-53878457D01*
X81842177Y-53878457D02*
X81923129Y-53878457D01*
X82651701Y-53449886D02*
X82692177Y-53354648D01*
X82692177Y-53354648D02*
X82692177Y-53164172D01*
X82692177Y-53164172D02*
X82651701Y-53068934D01*
X82651701Y-53068934D02*
X82570748Y-53021315D01*
X82570748Y-53021315D02*
X82530272Y-53021315D01*
X82530272Y-53021315D02*
X82449320Y-53068934D01*
X82449320Y-53068934D02*
X82408843Y-53164172D01*
X82408843Y-53164172D02*
X82408843Y-53307029D01*
X82408843Y-53307029D02*
X82368367Y-53402267D01*
X82368367Y-53402267D02*
X82287415Y-53449886D01*
X82287415Y-53449886D02*
X82246939Y-53449886D01*
X82246939Y-53449886D02*
X82165986Y-53402267D01*
X82165986Y-53402267D02*
X82125510Y-53307029D01*
X82125510Y-53307029D02*
X82125510Y-53164172D01*
X82125510Y-53164172D02*
X82165986Y-53068934D01*
X82692177Y-52164172D02*
X82246939Y-52164172D01*
X82246939Y-52164172D02*
X82165986Y-52211791D01*
X82165986Y-52211791D02*
X82125510Y-52307029D01*
X82125510Y-52307029D02*
X82125510Y-52497505D01*
X82125510Y-52497505D02*
X82165986Y-52592743D01*
X82651701Y-52164172D02*
X82692177Y-52259410D01*
X82692177Y-52259410D02*
X82692177Y-52497505D01*
X82692177Y-52497505D02*
X82651701Y-52592743D01*
X82651701Y-52592743D02*
X82570748Y-52640362D01*
X82570748Y-52640362D02*
X82489796Y-52640362D01*
X82489796Y-52640362D02*
X82408843Y-52592743D01*
X82408843Y-52592743D02*
X82368367Y-52497505D01*
X82368367Y-52497505D02*
X82368367Y-52259410D01*
X82368367Y-52259410D02*
X82327891Y-52164172D01*
X81801701Y-50973696D02*
X82894558Y-51830838D01*
X81842177Y-50640362D02*
X82530272Y-50640362D01*
X82530272Y-50640362D02*
X82611224Y-50592743D01*
X82611224Y-50592743D02*
X82651701Y-50545124D01*
X82651701Y-50545124D02*
X82692177Y-50449886D01*
X82692177Y-50449886D02*
X82692177Y-50259410D01*
X82692177Y-50259410D02*
X82651701Y-50164172D01*
X82651701Y-50164172D02*
X82611224Y-50116553D01*
X82611224Y-50116553D02*
X82530272Y-50068934D01*
X82530272Y-50068934D02*
X81842177Y-50068934D01*
X82692177Y-49592743D02*
X81842177Y-49592743D01*
X81842177Y-49592743D02*
X82692177Y-49021315D01*
X82692177Y-49021315D02*
X81842177Y-49021315D01*
X81842177Y-48354648D02*
X81842177Y-48164172D01*
X81842177Y-48164172D02*
X81882653Y-48068934D01*
X81882653Y-48068934D02*
X81963605Y-47973696D01*
X81963605Y-47973696D02*
X82125510Y-47926077D01*
X82125510Y-47926077D02*
X82408843Y-47926077D01*
X82408843Y-47926077D02*
X82570748Y-47973696D01*
X82570748Y-47973696D02*
X82651701Y-48068934D01*
X82651701Y-48068934D02*
X82692177Y-48164172D01*
X82692177Y-48164172D02*
X82692177Y-48354648D01*
X82692177Y-48354648D02*
X82651701Y-48449886D01*
X82651701Y-48449886D02*
X82570748Y-48545124D01*
X82570748Y-48545124D02*
X82408843Y-48592743D01*
X82408843Y-48592743D02*
X82125510Y-48592743D01*
X82125510Y-48592743D02*
X81963605Y-48545124D01*
X81963605Y-48545124D02*
X81882653Y-48449886D01*
X81882653Y-48449886D02*
X81842177Y-48354648D01*
X82368367Y-47497505D02*
X82368367Y-46735601D01*
X81842177Y-46402267D02*
X81842177Y-45830839D01*
X82692177Y-46116553D02*
X81842177Y-46116553D01*
X82692177Y-45497505D02*
X81842177Y-45497505D01*
X81842177Y-45497505D02*
X81842177Y-45259410D01*
X81842177Y-45259410D02*
X81882653Y-45116553D01*
X81882653Y-45116553D02*
X81963605Y-45021315D01*
X81963605Y-45021315D02*
X82044558Y-44973696D01*
X82044558Y-44973696D02*
X82206462Y-44926077D01*
X82206462Y-44926077D02*
X82327891Y-44926077D01*
X82327891Y-44926077D02*
X82489796Y-44973696D01*
X82489796Y-44973696D02*
X82570748Y-45021315D01*
X82570748Y-45021315D02*
X82651701Y-45116553D01*
X82651701Y-45116553D02*
X82692177Y-45259410D01*
X82692177Y-45259410D02*
X82692177Y-45497505D01*
X82611224Y-43926077D02*
X82651701Y-43973696D01*
X82651701Y-43973696D02*
X82692177Y-44116553D01*
X82692177Y-44116553D02*
X82692177Y-44211791D01*
X82692177Y-44211791D02*
X82651701Y-44354648D01*
X82651701Y-44354648D02*
X82570748Y-44449886D01*
X82570748Y-44449886D02*
X82489796Y-44497505D01*
X82489796Y-44497505D02*
X82327891Y-44545124D01*
X82327891Y-44545124D02*
X82206462Y-44545124D01*
X82206462Y-44545124D02*
X82044558Y-44497505D01*
X82044558Y-44497505D02*
X81963605Y-44449886D01*
X81963605Y-44449886D02*
X81882653Y-44354648D01*
X81882653Y-44354648D02*
X81842177Y-44211791D01*
X81842177Y-44211791D02*
X81842177Y-44116553D01*
X81842177Y-44116553D02*
X81882653Y-43973696D01*
X81882653Y-43973696D02*
X81923129Y-43926077D01*
X89443160Y-69246312D02*
X89586017Y-69293931D01*
X89586017Y-69293931D02*
X89824112Y-69293931D01*
X89824112Y-69293931D02*
X89919350Y-69246312D01*
X89919350Y-69246312D02*
X89966969Y-69198692D01*
X89966969Y-69198692D02*
X90014588Y-69103454D01*
X90014588Y-69103454D02*
X90014588Y-69008216D01*
X90014588Y-69008216D02*
X89966969Y-68912978D01*
X89966969Y-68912978D02*
X89919350Y-68865359D01*
X89919350Y-68865359D02*
X89824112Y-68817740D01*
X89824112Y-68817740D02*
X89633636Y-68770121D01*
X89633636Y-68770121D02*
X89538398Y-68722502D01*
X89538398Y-68722502D02*
X89490779Y-68674883D01*
X89490779Y-68674883D02*
X89443160Y-68579645D01*
X89443160Y-68579645D02*
X89443160Y-68484407D01*
X89443160Y-68484407D02*
X89490779Y-68389169D01*
X89490779Y-68389169D02*
X89538398Y-68341550D01*
X89538398Y-68341550D02*
X89633636Y-68293931D01*
X89633636Y-68293931D02*
X89871731Y-68293931D01*
X89871731Y-68293931D02*
X90014588Y-68341550D01*
X90443160Y-68627264D02*
X90443160Y-69627264D01*
X90443160Y-68674883D02*
X90538398Y-68627264D01*
X90538398Y-68627264D02*
X90728874Y-68627264D01*
X90728874Y-68627264D02*
X90824112Y-68674883D01*
X90824112Y-68674883D02*
X90871731Y-68722502D01*
X90871731Y-68722502D02*
X90919350Y-68817740D01*
X90919350Y-68817740D02*
X90919350Y-69103454D01*
X90919350Y-69103454D02*
X90871731Y-69198692D01*
X90871731Y-69198692D02*
X90824112Y-69246312D01*
X90824112Y-69246312D02*
X90728874Y-69293931D01*
X90728874Y-69293931D02*
X90538398Y-69293931D01*
X90538398Y-69293931D02*
X90443160Y-69246312D01*
X91728874Y-69246312D02*
X91633636Y-69293931D01*
X91633636Y-69293931D02*
X91443160Y-69293931D01*
X91443160Y-69293931D02*
X91347922Y-69246312D01*
X91347922Y-69246312D02*
X91300303Y-69151073D01*
X91300303Y-69151073D02*
X91300303Y-68770121D01*
X91300303Y-68770121D02*
X91347922Y-68674883D01*
X91347922Y-68674883D02*
X91443160Y-68627264D01*
X91443160Y-68627264D02*
X91633636Y-68627264D01*
X91633636Y-68627264D02*
X91728874Y-68674883D01*
X91728874Y-68674883D02*
X91776493Y-68770121D01*
X91776493Y-68770121D02*
X91776493Y-68865359D01*
X91776493Y-68865359D02*
X91300303Y-68960597D01*
X92633636Y-69246312D02*
X92538398Y-69293931D01*
X92538398Y-69293931D02*
X92347922Y-69293931D01*
X92347922Y-69293931D02*
X92252684Y-69246312D01*
X92252684Y-69246312D02*
X92205065Y-69198692D01*
X92205065Y-69198692D02*
X92157446Y-69103454D01*
X92157446Y-69103454D02*
X92157446Y-68817740D01*
X92157446Y-68817740D02*
X92205065Y-68722502D01*
X92205065Y-68722502D02*
X92252684Y-68674883D01*
X92252684Y-68674883D02*
X92347922Y-68627264D01*
X92347922Y-68627264D02*
X92538398Y-68627264D01*
X92538398Y-68627264D02*
X92633636Y-68674883D01*
X93014589Y-69246312D02*
X93109827Y-69293931D01*
X93109827Y-69293931D02*
X93300303Y-69293931D01*
X93300303Y-69293931D02*
X93395541Y-69246312D01*
X93395541Y-69246312D02*
X93443160Y-69151073D01*
X93443160Y-69151073D02*
X93443160Y-69103454D01*
X93443160Y-69103454D02*
X93395541Y-69008216D01*
X93395541Y-69008216D02*
X93300303Y-68960597D01*
X93300303Y-68960597D02*
X93157446Y-68960597D01*
X93157446Y-68960597D02*
X93062208Y-68912978D01*
X93062208Y-68912978D02*
X93014589Y-68817740D01*
X93014589Y-68817740D02*
X93014589Y-68770121D01*
X93014589Y-68770121D02*
X93062208Y-68674883D01*
X93062208Y-68674883D02*
X93157446Y-68627264D01*
X93157446Y-68627264D02*
X93300303Y-68627264D01*
X93300303Y-68627264D02*
X93395541Y-68674883D01*
X93871732Y-69198692D02*
X93919351Y-69246312D01*
X93919351Y-69246312D02*
X93871732Y-69293931D01*
X93871732Y-69293931D02*
X93824113Y-69246312D01*
X93824113Y-69246312D02*
X93871732Y-69198692D01*
X93871732Y-69198692D02*
X93871732Y-69293931D01*
X93871732Y-68674883D02*
X93919351Y-68722502D01*
X93919351Y-68722502D02*
X93871732Y-68770121D01*
X93871732Y-68770121D02*
X93824113Y-68722502D01*
X93824113Y-68722502D02*
X93871732Y-68674883D01*
X93871732Y-68674883D02*
X93871732Y-68770121D01*
X89347922Y-70903875D02*
X89681255Y-69903875D01*
X89681255Y-69903875D02*
X90014588Y-70903875D01*
X90014588Y-70903875D02*
X89347922Y-70903875D01*
X90205065Y-69903875D02*
X90776493Y-69903875D01*
X90490779Y-70903875D02*
X90490779Y-69903875D01*
X91871732Y-70903875D02*
X91871732Y-69903875D01*
X91871732Y-69903875D02*
X92205065Y-70618160D01*
X92205065Y-70618160D02*
X92538398Y-69903875D01*
X92538398Y-69903875D02*
X92538398Y-70903875D01*
X93014589Y-70903875D02*
X93014589Y-70237208D01*
X93014589Y-69903875D02*
X92966970Y-69951494D01*
X92966970Y-69951494D02*
X93014589Y-69999113D01*
X93014589Y-69999113D02*
X93062208Y-69951494D01*
X93062208Y-69951494D02*
X93014589Y-69903875D01*
X93014589Y-69903875D02*
X93014589Y-69999113D01*
X93490779Y-70237208D02*
X93490779Y-70903875D01*
X93490779Y-70332446D02*
X93538398Y-70284827D01*
X93538398Y-70284827D02*
X93633636Y-70237208D01*
X93633636Y-70237208D02*
X93776493Y-70237208D01*
X93776493Y-70237208D02*
X93871731Y-70284827D01*
X93871731Y-70284827D02*
X93919350Y-70380065D01*
X93919350Y-70380065D02*
X93919350Y-70903875D01*
X95157446Y-70380065D02*
X95919351Y-70380065D01*
X95919351Y-70665779D02*
X95157446Y-70665779D01*
X97681255Y-70903875D02*
X97109827Y-70903875D01*
X97395541Y-70903875D02*
X97395541Y-69903875D01*
X97395541Y-69903875D02*
X97300303Y-70046732D01*
X97300303Y-70046732D02*
X97205065Y-70141970D01*
X97205065Y-70141970D02*
X97109827Y-70189589D01*
X98538398Y-70237208D02*
X98538398Y-70903875D01*
X98300303Y-69856256D02*
X98062208Y-70570541D01*
X98062208Y-70570541D02*
X98681255Y-70570541D01*
X99062208Y-70237208D02*
X99062208Y-70903875D01*
X99062208Y-70332446D02*
X99109827Y-70284827D01*
X99109827Y-70284827D02*
X99205065Y-70237208D01*
X99205065Y-70237208D02*
X99347922Y-70237208D01*
X99347922Y-70237208D02*
X99443160Y-70284827D01*
X99443160Y-70284827D02*
X99490779Y-70380065D01*
X99490779Y-70380065D02*
X99490779Y-70903875D01*
X99919351Y-70856256D02*
X100014589Y-70903875D01*
X100014589Y-70903875D02*
X100205065Y-70903875D01*
X100205065Y-70903875D02*
X100300303Y-70856256D01*
X100300303Y-70856256D02*
X100347922Y-70761017D01*
X100347922Y-70761017D02*
X100347922Y-70713398D01*
X100347922Y-70713398D02*
X100300303Y-70618160D01*
X100300303Y-70618160D02*
X100205065Y-70570541D01*
X100205065Y-70570541D02*
X100062208Y-70570541D01*
X100062208Y-70570541D02*
X99966970Y-70522922D01*
X99966970Y-70522922D02*
X99919351Y-70427684D01*
X99919351Y-70427684D02*
X99919351Y-70380065D01*
X99919351Y-70380065D02*
X99966970Y-70284827D01*
X99966970Y-70284827D02*
X100062208Y-70237208D01*
X100062208Y-70237208D02*
X100205065Y-70237208D01*
X100205065Y-70237208D02*
X100300303Y-70284827D01*
X91776494Y-72513819D02*
X91776494Y-71513819D01*
X91776494Y-71513819D02*
X92109827Y-72228104D01*
X92109827Y-72228104D02*
X92443160Y-71513819D01*
X92443160Y-71513819D02*
X92443160Y-72513819D01*
X93347922Y-72513819D02*
X93347922Y-71990009D01*
X93347922Y-71990009D02*
X93300303Y-71894771D01*
X93300303Y-71894771D02*
X93205065Y-71847152D01*
X93205065Y-71847152D02*
X93014589Y-71847152D01*
X93014589Y-71847152D02*
X92919351Y-71894771D01*
X93347922Y-72466200D02*
X93252684Y-72513819D01*
X93252684Y-72513819D02*
X93014589Y-72513819D01*
X93014589Y-72513819D02*
X92919351Y-72466200D01*
X92919351Y-72466200D02*
X92871732Y-72370961D01*
X92871732Y-72370961D02*
X92871732Y-72275723D01*
X92871732Y-72275723D02*
X92919351Y-72180485D01*
X92919351Y-72180485D02*
X93014589Y-72132866D01*
X93014589Y-72132866D02*
X93252684Y-72132866D01*
X93252684Y-72132866D02*
X93347922Y-72085247D01*
X93728875Y-72513819D02*
X94252684Y-71847152D01*
X93728875Y-71847152D02*
X94252684Y-72513819D01*
X95395542Y-71990009D02*
X96157447Y-71990009D01*
X96157447Y-72275723D02*
X95395542Y-72275723D01*
X97300304Y-71513819D02*
X97919351Y-71513819D01*
X97919351Y-71513819D02*
X97586018Y-71894771D01*
X97586018Y-71894771D02*
X97728875Y-71894771D01*
X97728875Y-71894771D02*
X97824113Y-71942390D01*
X97824113Y-71942390D02*
X97871732Y-71990009D01*
X97871732Y-71990009D02*
X97919351Y-72085247D01*
X97919351Y-72085247D02*
X97919351Y-72323342D01*
X97919351Y-72323342D02*
X97871732Y-72418580D01*
X97871732Y-72418580D02*
X97824113Y-72466200D01*
X97824113Y-72466200D02*
X97728875Y-72513819D01*
X97728875Y-72513819D02*
X97443161Y-72513819D01*
X97443161Y-72513819D02*
X97347923Y-72466200D01*
X97347923Y-72466200D02*
X97300304Y-72418580D01*
X98395542Y-72513819D02*
X98586018Y-72513819D01*
X98586018Y-72513819D02*
X98681256Y-72466200D01*
X98681256Y-72466200D02*
X98728875Y-72418580D01*
X98728875Y-72418580D02*
X98824113Y-72275723D01*
X98824113Y-72275723D02*
X98871732Y-72085247D01*
X98871732Y-72085247D02*
X98871732Y-71704295D01*
X98871732Y-71704295D02*
X98824113Y-71609057D01*
X98824113Y-71609057D02*
X98776494Y-71561438D01*
X98776494Y-71561438D02*
X98681256Y-71513819D01*
X98681256Y-71513819D02*
X98490780Y-71513819D01*
X98490780Y-71513819D02*
X98395542Y-71561438D01*
X98395542Y-71561438D02*
X98347923Y-71609057D01*
X98347923Y-71609057D02*
X98300304Y-71704295D01*
X98300304Y-71704295D02*
X98300304Y-71942390D01*
X98300304Y-71942390D02*
X98347923Y-72037628D01*
X98347923Y-72037628D02*
X98395542Y-72085247D01*
X98395542Y-72085247D02*
X98490780Y-72132866D01*
X98490780Y-72132866D02*
X98681256Y-72132866D01*
X98681256Y-72132866D02*
X98776494Y-72085247D01*
X98776494Y-72085247D02*
X98824113Y-72037628D01*
X98824113Y-72037628D02*
X98871732Y-71942390D01*
X99252685Y-71609057D02*
X99300304Y-71561438D01*
X99300304Y-71561438D02*
X99395542Y-71513819D01*
X99395542Y-71513819D02*
X99633637Y-71513819D01*
X99633637Y-71513819D02*
X99728875Y-71561438D01*
X99728875Y-71561438D02*
X99776494Y-71609057D01*
X99776494Y-71609057D02*
X99824113Y-71704295D01*
X99824113Y-71704295D02*
X99824113Y-71799533D01*
X99824113Y-71799533D02*
X99776494Y-71942390D01*
X99776494Y-71942390D02*
X99205066Y-72513819D01*
X99205066Y-72513819D02*
X99824113Y-72513819D01*
X100681256Y-71513819D02*
X100490780Y-71513819D01*
X100490780Y-71513819D02*
X100395542Y-71561438D01*
X100395542Y-71561438D02*
X100347923Y-71609057D01*
X100347923Y-71609057D02*
X100252685Y-71751914D01*
X100252685Y-71751914D02*
X100205066Y-71942390D01*
X100205066Y-71942390D02*
X100205066Y-72323342D01*
X100205066Y-72323342D02*
X100252685Y-72418580D01*
X100252685Y-72418580D02*
X100300304Y-72466200D01*
X100300304Y-72466200D02*
X100395542Y-72513819D01*
X100395542Y-72513819D02*
X100586018Y-72513819D01*
X100586018Y-72513819D02*
X100681256Y-72466200D01*
X100681256Y-72466200D02*
X100728875Y-72418580D01*
X100728875Y-72418580D02*
X100776494Y-72323342D01*
X100776494Y-72323342D02*
X100776494Y-72085247D01*
X100776494Y-72085247D02*
X100728875Y-71990009D01*
X100728875Y-71990009D02*
X100681256Y-71942390D01*
X100681256Y-71942390D02*
X100586018Y-71894771D01*
X100586018Y-71894771D02*
X100395542Y-71894771D01*
X100395542Y-71894771D02*
X100300304Y-71942390D01*
X100300304Y-71942390D02*
X100252685Y-71990009D01*
X100252685Y-71990009D02*
X100205066Y-72085247D01*
X101205066Y-71847152D02*
X101205066Y-72513819D01*
X101205066Y-71942390D02*
X101252685Y-71894771D01*
X101252685Y-71894771D02*
X101347923Y-71847152D01*
X101347923Y-71847152D02*
X101490780Y-71847152D01*
X101490780Y-71847152D02*
X101586018Y-71894771D01*
X101586018Y-71894771D02*
X101633637Y-71990009D01*
X101633637Y-71990009D02*
X101633637Y-72513819D01*
X102062209Y-72466200D02*
X102157447Y-72513819D01*
X102157447Y-72513819D02*
X102347923Y-72513819D01*
X102347923Y-72513819D02*
X102443161Y-72466200D01*
X102443161Y-72466200D02*
X102490780Y-72370961D01*
X102490780Y-72370961D02*
X102490780Y-72323342D01*
X102490780Y-72323342D02*
X102443161Y-72228104D01*
X102443161Y-72228104D02*
X102347923Y-72180485D01*
X102347923Y-72180485D02*
X102205066Y-72180485D01*
X102205066Y-72180485D02*
X102109828Y-72132866D01*
X102109828Y-72132866D02*
X102062209Y-72037628D01*
X102062209Y-72037628D02*
X102062209Y-71990009D01*
X102062209Y-71990009D02*
X102109828Y-71894771D01*
X102109828Y-71894771D02*
X102205066Y-71847152D01*
X102205066Y-71847152D02*
X102347923Y-71847152D01*
X102347923Y-71847152D02*
X102443161Y-71894771D01*
X106921541Y-78199931D02*
X107159636Y-79199931D01*
X107159636Y-79199931D02*
X107350112Y-78485645D01*
X107350112Y-78485645D02*
X107540588Y-79199931D01*
X107540588Y-79199931D02*
X107778684Y-78199931D01*
X108112017Y-78914216D02*
X108588207Y-78914216D01*
X108016779Y-79199931D02*
X108350112Y-78199931D01*
X108350112Y-78199931D02*
X108683445Y-79199931D01*
X109588207Y-79199931D02*
X109254874Y-78723740D01*
X109016779Y-79199931D02*
X109016779Y-78199931D01*
X109016779Y-78199931D02*
X109397731Y-78199931D01*
X109397731Y-78199931D02*
X109492969Y-78247550D01*
X109492969Y-78247550D02*
X109540588Y-78295169D01*
X109540588Y-78295169D02*
X109588207Y-78390407D01*
X109588207Y-78390407D02*
X109588207Y-78533264D01*
X109588207Y-78533264D02*
X109540588Y-78628502D01*
X109540588Y-78628502D02*
X109492969Y-78676121D01*
X109492969Y-78676121D02*
X109397731Y-78723740D01*
X109397731Y-78723740D02*
X109016779Y-78723740D01*
X110016779Y-79199931D02*
X110016779Y-78199931D01*
X110016779Y-78199931D02*
X110588207Y-79199931D01*
X110588207Y-79199931D02*
X110588207Y-78199931D01*
X111064398Y-79199931D02*
X111064398Y-78199931D01*
X111540588Y-79199931D02*
X111540588Y-78199931D01*
X111540588Y-78199931D02*
X112112016Y-79199931D01*
X112112016Y-79199931D02*
X112112016Y-78199931D01*
X113112016Y-78247550D02*
X113016778Y-78199931D01*
X113016778Y-78199931D02*
X112873921Y-78199931D01*
X112873921Y-78199931D02*
X112731064Y-78247550D01*
X112731064Y-78247550D02*
X112635826Y-78342788D01*
X112635826Y-78342788D02*
X112588207Y-78438026D01*
X112588207Y-78438026D02*
X112540588Y-78628502D01*
X112540588Y-78628502D02*
X112540588Y-78771359D01*
X112540588Y-78771359D02*
X112588207Y-78961835D01*
X112588207Y-78961835D02*
X112635826Y-79057073D01*
X112635826Y-79057073D02*
X112731064Y-79152312D01*
X112731064Y-79152312D02*
X112873921Y-79199931D01*
X112873921Y-79199931D02*
X112969159Y-79199931D01*
X112969159Y-79199931D02*
X113112016Y-79152312D01*
X113112016Y-79152312D02*
X113159635Y-79104692D01*
X113159635Y-79104692D02*
X113159635Y-78771359D01*
X113159635Y-78771359D02*
X112969159Y-78771359D01*
X114207255Y-78199931D02*
X114778683Y-78199931D01*
X114492969Y-79199931D02*
X114492969Y-78199931D01*
X114969160Y-78199931D02*
X115540588Y-78199931D01*
X115254874Y-79199931D02*
X115254874Y-78199931D01*
X116350112Y-79199931D02*
X115873922Y-79199931D01*
X115873922Y-79199931D02*
X115873922Y-78199931D01*
X117445351Y-79199931D02*
X117445351Y-78533264D01*
X117445351Y-78199931D02*
X117397732Y-78247550D01*
X117397732Y-78247550D02*
X117445351Y-78295169D01*
X117445351Y-78295169D02*
X117492970Y-78247550D01*
X117492970Y-78247550D02*
X117445351Y-78199931D01*
X117445351Y-78199931D02*
X117445351Y-78295169D01*
X117921541Y-78533264D02*
X117921541Y-79199931D01*
X117921541Y-78628502D02*
X117969160Y-78580883D01*
X117969160Y-78580883D02*
X118064398Y-78533264D01*
X118064398Y-78533264D02*
X118207255Y-78533264D01*
X118207255Y-78533264D02*
X118302493Y-78580883D01*
X118302493Y-78580883D02*
X118350112Y-78676121D01*
X118350112Y-78676121D02*
X118350112Y-79199931D01*
X118826303Y-78533264D02*
X118826303Y-79533264D01*
X118826303Y-78580883D02*
X118921541Y-78533264D01*
X118921541Y-78533264D02*
X119112017Y-78533264D01*
X119112017Y-78533264D02*
X119207255Y-78580883D01*
X119207255Y-78580883D02*
X119254874Y-78628502D01*
X119254874Y-78628502D02*
X119302493Y-78723740D01*
X119302493Y-78723740D02*
X119302493Y-79009454D01*
X119302493Y-79009454D02*
X119254874Y-79104692D01*
X119254874Y-79104692D02*
X119207255Y-79152312D01*
X119207255Y-79152312D02*
X119112017Y-79199931D01*
X119112017Y-79199931D02*
X118921541Y-79199931D01*
X118921541Y-79199931D02*
X118826303Y-79152312D01*
X120159636Y-78533264D02*
X120159636Y-79199931D01*
X119731065Y-78533264D02*
X119731065Y-79057073D01*
X119731065Y-79057073D02*
X119778684Y-79152312D01*
X119778684Y-79152312D02*
X119873922Y-79199931D01*
X119873922Y-79199931D02*
X120016779Y-79199931D01*
X120016779Y-79199931D02*
X120112017Y-79152312D01*
X120112017Y-79152312D02*
X120159636Y-79104692D01*
X120492970Y-78533264D02*
X120873922Y-78533264D01*
X120635827Y-78199931D02*
X120635827Y-79057073D01*
X120635827Y-79057073D02*
X120683446Y-79152312D01*
X120683446Y-79152312D02*
X120778684Y-79199931D01*
X120778684Y-79199931D02*
X120873922Y-79199931D01*
X107492969Y-79809875D02*
X107016779Y-79809875D01*
X107016779Y-79809875D02*
X106969160Y-80286065D01*
X106969160Y-80286065D02*
X107016779Y-80238446D01*
X107016779Y-80238446D02*
X107112017Y-80190827D01*
X107112017Y-80190827D02*
X107350112Y-80190827D01*
X107350112Y-80190827D02*
X107445350Y-80238446D01*
X107445350Y-80238446D02*
X107492969Y-80286065D01*
X107492969Y-80286065D02*
X107540588Y-80381303D01*
X107540588Y-80381303D02*
X107540588Y-80619398D01*
X107540588Y-80619398D02*
X107492969Y-80714636D01*
X107492969Y-80714636D02*
X107445350Y-80762256D01*
X107445350Y-80762256D02*
X107350112Y-80809875D01*
X107350112Y-80809875D02*
X107112017Y-80809875D01*
X107112017Y-80809875D02*
X107016779Y-80762256D01*
X107016779Y-80762256D02*
X106969160Y-80714636D01*
X108159636Y-79809875D02*
X108254874Y-79809875D01*
X108254874Y-79809875D02*
X108350112Y-79857494D01*
X108350112Y-79857494D02*
X108397731Y-79905113D01*
X108397731Y-79905113D02*
X108445350Y-80000351D01*
X108445350Y-80000351D02*
X108492969Y-80190827D01*
X108492969Y-80190827D02*
X108492969Y-80428922D01*
X108492969Y-80428922D02*
X108445350Y-80619398D01*
X108445350Y-80619398D02*
X108397731Y-80714636D01*
X108397731Y-80714636D02*
X108350112Y-80762256D01*
X108350112Y-80762256D02*
X108254874Y-80809875D01*
X108254874Y-80809875D02*
X108159636Y-80809875D01*
X108159636Y-80809875D02*
X108064398Y-80762256D01*
X108064398Y-80762256D02*
X108016779Y-80714636D01*
X108016779Y-80714636D02*
X107969160Y-80619398D01*
X107969160Y-80619398D02*
X107921541Y-80428922D01*
X107921541Y-80428922D02*
X107921541Y-80190827D01*
X107921541Y-80190827D02*
X107969160Y-80000351D01*
X107969160Y-80000351D02*
X108016779Y-79905113D01*
X108016779Y-79905113D02*
X108064398Y-79857494D01*
X108064398Y-79857494D02*
X108159636Y-79809875D01*
X108873922Y-80809875D02*
X109112017Y-80809875D01*
X109112017Y-80809875D02*
X109112017Y-80619398D01*
X109112017Y-80619398D02*
X109016779Y-80571779D01*
X109016779Y-80571779D02*
X108921541Y-80476541D01*
X108921541Y-80476541D02*
X108873922Y-80333684D01*
X108873922Y-80333684D02*
X108873922Y-80095589D01*
X108873922Y-80095589D02*
X108921541Y-79952732D01*
X108921541Y-79952732D02*
X109016779Y-79857494D01*
X109016779Y-79857494D02*
X109159636Y-79809875D01*
X109159636Y-79809875D02*
X109350112Y-79809875D01*
X109350112Y-79809875D02*
X109492969Y-79857494D01*
X109492969Y-79857494D02*
X109588207Y-79952732D01*
X109588207Y-79952732D02*
X109635826Y-80095589D01*
X109635826Y-80095589D02*
X109635826Y-80333684D01*
X109635826Y-80333684D02*
X109588207Y-80476541D01*
X109588207Y-80476541D02*
X109492969Y-80571779D01*
X109492969Y-80571779D02*
X109397731Y-80619398D01*
X109397731Y-80619398D02*
X109397731Y-80809875D01*
X109397731Y-80809875D02*
X109635826Y-80809875D01*
X110683446Y-80143208D02*
X111064398Y-80143208D01*
X110826303Y-79809875D02*
X110826303Y-80667017D01*
X110826303Y-80667017D02*
X110873922Y-80762256D01*
X110873922Y-80762256D02*
X110969160Y-80809875D01*
X110969160Y-80809875D02*
X111064398Y-80809875D01*
X111778684Y-80762256D02*
X111683446Y-80809875D01*
X111683446Y-80809875D02*
X111492970Y-80809875D01*
X111492970Y-80809875D02*
X111397732Y-80762256D01*
X111397732Y-80762256D02*
X111350113Y-80667017D01*
X111350113Y-80667017D02*
X111350113Y-80286065D01*
X111350113Y-80286065D02*
X111397732Y-80190827D01*
X111397732Y-80190827D02*
X111492970Y-80143208D01*
X111492970Y-80143208D02*
X111683446Y-80143208D01*
X111683446Y-80143208D02*
X111778684Y-80190827D01*
X111778684Y-80190827D02*
X111826303Y-80286065D01*
X111826303Y-80286065D02*
X111826303Y-80381303D01*
X111826303Y-80381303D02*
X111350113Y-80476541D01*
X112254875Y-80809875D02*
X112254875Y-80143208D01*
X112254875Y-80333684D02*
X112302494Y-80238446D01*
X112302494Y-80238446D02*
X112350113Y-80190827D01*
X112350113Y-80190827D02*
X112445351Y-80143208D01*
X112445351Y-80143208D02*
X112540589Y-80143208D01*
X112873923Y-80809875D02*
X112873923Y-80143208D01*
X112873923Y-80238446D02*
X112921542Y-80190827D01*
X112921542Y-80190827D02*
X113016780Y-80143208D01*
X113016780Y-80143208D02*
X113159637Y-80143208D01*
X113159637Y-80143208D02*
X113254875Y-80190827D01*
X113254875Y-80190827D02*
X113302494Y-80286065D01*
X113302494Y-80286065D02*
X113302494Y-80809875D01*
X113302494Y-80286065D02*
X113350113Y-80190827D01*
X113350113Y-80190827D02*
X113445351Y-80143208D01*
X113445351Y-80143208D02*
X113588208Y-80143208D01*
X113588208Y-80143208D02*
X113683447Y-80190827D01*
X113683447Y-80190827D02*
X113731066Y-80286065D01*
X113731066Y-80286065D02*
X113731066Y-80809875D01*
X114207256Y-80809875D02*
X114207256Y-80143208D01*
X114207256Y-79809875D02*
X114159637Y-79857494D01*
X114159637Y-79857494D02*
X114207256Y-79905113D01*
X114207256Y-79905113D02*
X114254875Y-79857494D01*
X114254875Y-79857494D02*
X114207256Y-79809875D01*
X114207256Y-79809875D02*
X114207256Y-79905113D01*
X114683446Y-80143208D02*
X114683446Y-80809875D01*
X114683446Y-80238446D02*
X114731065Y-80190827D01*
X114731065Y-80190827D02*
X114826303Y-80143208D01*
X114826303Y-80143208D02*
X114969160Y-80143208D01*
X114969160Y-80143208D02*
X115064398Y-80190827D01*
X115064398Y-80190827D02*
X115112017Y-80286065D01*
X115112017Y-80286065D02*
X115112017Y-80809875D01*
X116016779Y-80809875D02*
X116016779Y-80286065D01*
X116016779Y-80286065D02*
X115969160Y-80190827D01*
X115969160Y-80190827D02*
X115873922Y-80143208D01*
X115873922Y-80143208D02*
X115683446Y-80143208D01*
X115683446Y-80143208D02*
X115588208Y-80190827D01*
X116016779Y-80762256D02*
X115921541Y-80809875D01*
X115921541Y-80809875D02*
X115683446Y-80809875D01*
X115683446Y-80809875D02*
X115588208Y-80762256D01*
X115588208Y-80762256D02*
X115540589Y-80667017D01*
X115540589Y-80667017D02*
X115540589Y-80571779D01*
X115540589Y-80571779D02*
X115588208Y-80476541D01*
X115588208Y-80476541D02*
X115683446Y-80428922D01*
X115683446Y-80428922D02*
X115921541Y-80428922D01*
X115921541Y-80428922D02*
X116016779Y-80381303D01*
X116350113Y-80143208D02*
X116731065Y-80143208D01*
X116492970Y-79809875D02*
X116492970Y-80667017D01*
X116492970Y-80667017D02*
X116540589Y-80762256D01*
X116540589Y-80762256D02*
X116635827Y-80809875D01*
X116635827Y-80809875D02*
X116731065Y-80809875D01*
X117445351Y-80762256D02*
X117350113Y-80809875D01*
X117350113Y-80809875D02*
X117159637Y-80809875D01*
X117159637Y-80809875D02*
X117064399Y-80762256D01*
X117064399Y-80762256D02*
X117016780Y-80667017D01*
X117016780Y-80667017D02*
X117016780Y-80286065D01*
X117016780Y-80286065D02*
X117064399Y-80190827D01*
X117064399Y-80190827D02*
X117159637Y-80143208D01*
X117159637Y-80143208D02*
X117350113Y-80143208D01*
X117350113Y-80143208D02*
X117445351Y-80190827D01*
X117445351Y-80190827D02*
X117492970Y-80286065D01*
X117492970Y-80286065D02*
X117492970Y-80381303D01*
X117492970Y-80381303D02*
X117016780Y-80476541D01*
X118350113Y-80809875D02*
X118350113Y-79809875D01*
X118350113Y-80762256D02*
X118254875Y-80809875D01*
X118254875Y-80809875D02*
X118064399Y-80809875D01*
X118064399Y-80809875D02*
X117969161Y-80762256D01*
X117969161Y-80762256D02*
X117921542Y-80714636D01*
X117921542Y-80714636D02*
X117873923Y-80619398D01*
X117873923Y-80619398D02*
X117873923Y-80333684D01*
X117873923Y-80333684D02*
X117921542Y-80238446D01*
X117921542Y-80238446D02*
X117969161Y-80190827D01*
X117969161Y-80190827D02*
X118064399Y-80143208D01*
X118064399Y-80143208D02*
X118254875Y-80143208D01*
X118254875Y-80143208D02*
X118350113Y-80190827D01*
X107016779Y-82419819D02*
X107016779Y-81419819D01*
X107016779Y-81419819D02*
X107350112Y-82134104D01*
X107350112Y-82134104D02*
X107683445Y-81419819D01*
X107683445Y-81419819D02*
X107683445Y-82419819D01*
X108112017Y-82134104D02*
X108588207Y-82134104D01*
X108016779Y-82419819D02*
X108350112Y-81419819D01*
X108350112Y-81419819D02*
X108683445Y-82419819D01*
X108921541Y-81419819D02*
X109588207Y-82419819D01*
X109588207Y-81419819D02*
X108921541Y-82419819D01*
X111207255Y-81419819D02*
X110731065Y-81419819D01*
X110731065Y-81419819D02*
X110683446Y-81896009D01*
X110683446Y-81896009D02*
X110731065Y-81848390D01*
X110731065Y-81848390D02*
X110826303Y-81800771D01*
X110826303Y-81800771D02*
X111064398Y-81800771D01*
X111064398Y-81800771D02*
X111159636Y-81848390D01*
X111159636Y-81848390D02*
X111207255Y-81896009D01*
X111207255Y-81896009D02*
X111254874Y-81991247D01*
X111254874Y-81991247D02*
X111254874Y-82229342D01*
X111254874Y-82229342D02*
X111207255Y-82324580D01*
X111207255Y-82324580D02*
X111159636Y-82372200D01*
X111159636Y-82372200D02*
X111064398Y-82419819D01*
X111064398Y-82419819D02*
X110826303Y-82419819D01*
X110826303Y-82419819D02*
X110731065Y-82372200D01*
X110731065Y-82372200D02*
X110683446Y-82324580D01*
X111540589Y-81419819D02*
X111873922Y-82419819D01*
X111873922Y-82419819D02*
X112207255Y-81419819D01*
D11*
X105359063Y-78516114D02*
X104882872Y-78516114D01*
X104882872Y-78516114D02*
X103930491Y-78039923D01*
X103930491Y-78039923D02*
X103454301Y-77087542D01*
X103454301Y-77087542D02*
X103454301Y-72325638D01*
X103454301Y-72325638D02*
X102978110Y-71373257D01*
X102978110Y-71373257D02*
X102025729Y-70897066D01*
X102025729Y-70897066D02*
X102978110Y-70420876D01*
X102978110Y-70420876D02*
X103454301Y-69468495D01*
X103454301Y-69468495D02*
X103454301Y-64706590D01*
X103454301Y-64706590D02*
X103930491Y-63754209D01*
X103930491Y-63754209D02*
X104882872Y-63278019D01*
X104882872Y-63278019D02*
X105359063Y-63278019D01*
D10*
X107048541Y-62578931D02*
X107286636Y-63578931D01*
X107286636Y-63578931D02*
X107477112Y-62864645D01*
X107477112Y-62864645D02*
X107667588Y-63578931D01*
X107667588Y-63578931D02*
X107905684Y-62578931D01*
X108239017Y-63293216D02*
X108715207Y-63293216D01*
X108143779Y-63578931D02*
X108477112Y-62578931D01*
X108477112Y-62578931D02*
X108810445Y-63578931D01*
X109715207Y-63578931D02*
X109381874Y-63102740D01*
X109143779Y-63578931D02*
X109143779Y-62578931D01*
X109143779Y-62578931D02*
X109524731Y-62578931D01*
X109524731Y-62578931D02*
X109619969Y-62626550D01*
X109619969Y-62626550D02*
X109667588Y-62674169D01*
X109667588Y-62674169D02*
X109715207Y-62769407D01*
X109715207Y-62769407D02*
X109715207Y-62912264D01*
X109715207Y-62912264D02*
X109667588Y-63007502D01*
X109667588Y-63007502D02*
X109619969Y-63055121D01*
X109619969Y-63055121D02*
X109524731Y-63102740D01*
X109524731Y-63102740D02*
X109143779Y-63102740D01*
X110143779Y-63578931D02*
X110143779Y-62578931D01*
X110143779Y-62578931D02*
X110715207Y-63578931D01*
X110715207Y-63578931D02*
X110715207Y-62578931D01*
X111191398Y-63578931D02*
X111191398Y-62578931D01*
X111667588Y-63578931D02*
X111667588Y-62578931D01*
X111667588Y-62578931D02*
X112239016Y-63578931D01*
X112239016Y-63578931D02*
X112239016Y-62578931D01*
X113239016Y-62626550D02*
X113143778Y-62578931D01*
X113143778Y-62578931D02*
X113000921Y-62578931D01*
X113000921Y-62578931D02*
X112858064Y-62626550D01*
X112858064Y-62626550D02*
X112762826Y-62721788D01*
X112762826Y-62721788D02*
X112715207Y-62817026D01*
X112715207Y-62817026D02*
X112667588Y-63007502D01*
X112667588Y-63007502D02*
X112667588Y-63150359D01*
X112667588Y-63150359D02*
X112715207Y-63340835D01*
X112715207Y-63340835D02*
X112762826Y-63436073D01*
X112762826Y-63436073D02*
X112858064Y-63531312D01*
X112858064Y-63531312D02*
X113000921Y-63578931D01*
X113000921Y-63578931D02*
X113096159Y-63578931D01*
X113096159Y-63578931D02*
X113239016Y-63531312D01*
X113239016Y-63531312D02*
X113286635Y-63483692D01*
X113286635Y-63483692D02*
X113286635Y-63150359D01*
X113286635Y-63150359D02*
X113096159Y-63150359D01*
X114334255Y-62578931D02*
X114905683Y-62578931D01*
X114619969Y-63578931D02*
X114619969Y-62578931D01*
X115096160Y-62578931D02*
X115667588Y-62578931D01*
X115381874Y-63578931D02*
X115381874Y-62578931D01*
X116477112Y-63578931D02*
X116000922Y-63578931D01*
X116000922Y-63578931D02*
X116000922Y-62578931D01*
X117572351Y-63578931D02*
X117572351Y-62912264D01*
X117572351Y-62578931D02*
X117524732Y-62626550D01*
X117524732Y-62626550D02*
X117572351Y-62674169D01*
X117572351Y-62674169D02*
X117619970Y-62626550D01*
X117619970Y-62626550D02*
X117572351Y-62578931D01*
X117572351Y-62578931D02*
X117572351Y-62674169D01*
X118048541Y-62912264D02*
X118048541Y-63578931D01*
X118048541Y-63007502D02*
X118096160Y-62959883D01*
X118096160Y-62959883D02*
X118191398Y-62912264D01*
X118191398Y-62912264D02*
X118334255Y-62912264D01*
X118334255Y-62912264D02*
X118429493Y-62959883D01*
X118429493Y-62959883D02*
X118477112Y-63055121D01*
X118477112Y-63055121D02*
X118477112Y-63578931D01*
X118953303Y-62912264D02*
X118953303Y-63912264D01*
X118953303Y-62959883D02*
X119048541Y-62912264D01*
X119048541Y-62912264D02*
X119239017Y-62912264D01*
X119239017Y-62912264D02*
X119334255Y-62959883D01*
X119334255Y-62959883D02*
X119381874Y-63007502D01*
X119381874Y-63007502D02*
X119429493Y-63102740D01*
X119429493Y-63102740D02*
X119429493Y-63388454D01*
X119429493Y-63388454D02*
X119381874Y-63483692D01*
X119381874Y-63483692D02*
X119334255Y-63531312D01*
X119334255Y-63531312D02*
X119239017Y-63578931D01*
X119239017Y-63578931D02*
X119048541Y-63578931D01*
X119048541Y-63578931D02*
X118953303Y-63531312D01*
X120286636Y-62912264D02*
X120286636Y-63578931D01*
X119858065Y-62912264D02*
X119858065Y-63436073D01*
X119858065Y-63436073D02*
X119905684Y-63531312D01*
X119905684Y-63531312D02*
X120000922Y-63578931D01*
X120000922Y-63578931D02*
X120143779Y-63578931D01*
X120143779Y-63578931D02*
X120239017Y-63531312D01*
X120239017Y-63531312D02*
X120286636Y-63483692D01*
X120619970Y-62912264D02*
X121000922Y-62912264D01*
X120762827Y-62578931D02*
X120762827Y-63436073D01*
X120762827Y-63436073D02*
X120810446Y-63531312D01*
X120810446Y-63531312D02*
X120905684Y-63578931D01*
X120905684Y-63578931D02*
X121000922Y-63578931D01*
X107619969Y-64188875D02*
X107143779Y-64188875D01*
X107143779Y-64188875D02*
X107096160Y-64665065D01*
X107096160Y-64665065D02*
X107143779Y-64617446D01*
X107143779Y-64617446D02*
X107239017Y-64569827D01*
X107239017Y-64569827D02*
X107477112Y-64569827D01*
X107477112Y-64569827D02*
X107572350Y-64617446D01*
X107572350Y-64617446D02*
X107619969Y-64665065D01*
X107619969Y-64665065D02*
X107667588Y-64760303D01*
X107667588Y-64760303D02*
X107667588Y-64998398D01*
X107667588Y-64998398D02*
X107619969Y-65093636D01*
X107619969Y-65093636D02*
X107572350Y-65141256D01*
X107572350Y-65141256D02*
X107477112Y-65188875D01*
X107477112Y-65188875D02*
X107239017Y-65188875D01*
X107239017Y-65188875D02*
X107143779Y-65141256D01*
X107143779Y-65141256D02*
X107096160Y-65093636D01*
X108286636Y-64188875D02*
X108381874Y-64188875D01*
X108381874Y-64188875D02*
X108477112Y-64236494D01*
X108477112Y-64236494D02*
X108524731Y-64284113D01*
X108524731Y-64284113D02*
X108572350Y-64379351D01*
X108572350Y-64379351D02*
X108619969Y-64569827D01*
X108619969Y-64569827D02*
X108619969Y-64807922D01*
X108619969Y-64807922D02*
X108572350Y-64998398D01*
X108572350Y-64998398D02*
X108524731Y-65093636D01*
X108524731Y-65093636D02*
X108477112Y-65141256D01*
X108477112Y-65141256D02*
X108381874Y-65188875D01*
X108381874Y-65188875D02*
X108286636Y-65188875D01*
X108286636Y-65188875D02*
X108191398Y-65141256D01*
X108191398Y-65141256D02*
X108143779Y-65093636D01*
X108143779Y-65093636D02*
X108096160Y-64998398D01*
X108096160Y-64998398D02*
X108048541Y-64807922D01*
X108048541Y-64807922D02*
X108048541Y-64569827D01*
X108048541Y-64569827D02*
X108096160Y-64379351D01*
X108096160Y-64379351D02*
X108143779Y-64284113D01*
X108143779Y-64284113D02*
X108191398Y-64236494D01*
X108191398Y-64236494D02*
X108286636Y-64188875D01*
X109000922Y-65188875D02*
X109239017Y-65188875D01*
X109239017Y-65188875D02*
X109239017Y-64998398D01*
X109239017Y-64998398D02*
X109143779Y-64950779D01*
X109143779Y-64950779D02*
X109048541Y-64855541D01*
X109048541Y-64855541D02*
X109000922Y-64712684D01*
X109000922Y-64712684D02*
X109000922Y-64474589D01*
X109000922Y-64474589D02*
X109048541Y-64331732D01*
X109048541Y-64331732D02*
X109143779Y-64236494D01*
X109143779Y-64236494D02*
X109286636Y-64188875D01*
X109286636Y-64188875D02*
X109477112Y-64188875D01*
X109477112Y-64188875D02*
X109619969Y-64236494D01*
X109619969Y-64236494D02*
X109715207Y-64331732D01*
X109715207Y-64331732D02*
X109762826Y-64474589D01*
X109762826Y-64474589D02*
X109762826Y-64712684D01*
X109762826Y-64712684D02*
X109715207Y-64855541D01*
X109715207Y-64855541D02*
X109619969Y-64950779D01*
X109619969Y-64950779D02*
X109524731Y-64998398D01*
X109524731Y-64998398D02*
X109524731Y-65188875D01*
X109524731Y-65188875D02*
X109762826Y-65188875D01*
X110810446Y-64522208D02*
X111191398Y-64522208D01*
X110953303Y-64188875D02*
X110953303Y-65046017D01*
X110953303Y-65046017D02*
X111000922Y-65141256D01*
X111000922Y-65141256D02*
X111096160Y-65188875D01*
X111096160Y-65188875D02*
X111191398Y-65188875D01*
X111905684Y-65141256D02*
X111810446Y-65188875D01*
X111810446Y-65188875D02*
X111619970Y-65188875D01*
X111619970Y-65188875D02*
X111524732Y-65141256D01*
X111524732Y-65141256D02*
X111477113Y-65046017D01*
X111477113Y-65046017D02*
X111477113Y-64665065D01*
X111477113Y-64665065D02*
X111524732Y-64569827D01*
X111524732Y-64569827D02*
X111619970Y-64522208D01*
X111619970Y-64522208D02*
X111810446Y-64522208D01*
X111810446Y-64522208D02*
X111905684Y-64569827D01*
X111905684Y-64569827D02*
X111953303Y-64665065D01*
X111953303Y-64665065D02*
X111953303Y-64760303D01*
X111953303Y-64760303D02*
X111477113Y-64855541D01*
X112381875Y-65188875D02*
X112381875Y-64522208D01*
X112381875Y-64712684D02*
X112429494Y-64617446D01*
X112429494Y-64617446D02*
X112477113Y-64569827D01*
X112477113Y-64569827D02*
X112572351Y-64522208D01*
X112572351Y-64522208D02*
X112667589Y-64522208D01*
X113000923Y-65188875D02*
X113000923Y-64522208D01*
X113000923Y-64617446D02*
X113048542Y-64569827D01*
X113048542Y-64569827D02*
X113143780Y-64522208D01*
X113143780Y-64522208D02*
X113286637Y-64522208D01*
X113286637Y-64522208D02*
X113381875Y-64569827D01*
X113381875Y-64569827D02*
X113429494Y-64665065D01*
X113429494Y-64665065D02*
X113429494Y-65188875D01*
X113429494Y-64665065D02*
X113477113Y-64569827D01*
X113477113Y-64569827D02*
X113572351Y-64522208D01*
X113572351Y-64522208D02*
X113715208Y-64522208D01*
X113715208Y-64522208D02*
X113810447Y-64569827D01*
X113810447Y-64569827D02*
X113858066Y-64665065D01*
X113858066Y-64665065D02*
X113858066Y-65188875D01*
X114334256Y-65188875D02*
X114334256Y-64522208D01*
X114334256Y-64188875D02*
X114286637Y-64236494D01*
X114286637Y-64236494D02*
X114334256Y-64284113D01*
X114334256Y-64284113D02*
X114381875Y-64236494D01*
X114381875Y-64236494D02*
X114334256Y-64188875D01*
X114334256Y-64188875D02*
X114334256Y-64284113D01*
X114810446Y-64522208D02*
X114810446Y-65188875D01*
X114810446Y-64617446D02*
X114858065Y-64569827D01*
X114858065Y-64569827D02*
X114953303Y-64522208D01*
X114953303Y-64522208D02*
X115096160Y-64522208D01*
X115096160Y-64522208D02*
X115191398Y-64569827D01*
X115191398Y-64569827D02*
X115239017Y-64665065D01*
X115239017Y-64665065D02*
X115239017Y-65188875D01*
X116143779Y-65188875D02*
X116143779Y-64665065D01*
X116143779Y-64665065D02*
X116096160Y-64569827D01*
X116096160Y-64569827D02*
X116000922Y-64522208D01*
X116000922Y-64522208D02*
X115810446Y-64522208D01*
X115810446Y-64522208D02*
X115715208Y-64569827D01*
X116143779Y-65141256D02*
X116048541Y-65188875D01*
X116048541Y-65188875D02*
X115810446Y-65188875D01*
X115810446Y-65188875D02*
X115715208Y-65141256D01*
X115715208Y-65141256D02*
X115667589Y-65046017D01*
X115667589Y-65046017D02*
X115667589Y-64950779D01*
X115667589Y-64950779D02*
X115715208Y-64855541D01*
X115715208Y-64855541D02*
X115810446Y-64807922D01*
X115810446Y-64807922D02*
X116048541Y-64807922D01*
X116048541Y-64807922D02*
X116143779Y-64760303D01*
X116477113Y-64522208D02*
X116858065Y-64522208D01*
X116619970Y-64188875D02*
X116619970Y-65046017D01*
X116619970Y-65046017D02*
X116667589Y-65141256D01*
X116667589Y-65141256D02*
X116762827Y-65188875D01*
X116762827Y-65188875D02*
X116858065Y-65188875D01*
X117572351Y-65141256D02*
X117477113Y-65188875D01*
X117477113Y-65188875D02*
X117286637Y-65188875D01*
X117286637Y-65188875D02*
X117191399Y-65141256D01*
X117191399Y-65141256D02*
X117143780Y-65046017D01*
X117143780Y-65046017D02*
X117143780Y-64665065D01*
X117143780Y-64665065D02*
X117191399Y-64569827D01*
X117191399Y-64569827D02*
X117286637Y-64522208D01*
X117286637Y-64522208D02*
X117477113Y-64522208D01*
X117477113Y-64522208D02*
X117572351Y-64569827D01*
X117572351Y-64569827D02*
X117619970Y-64665065D01*
X117619970Y-64665065D02*
X117619970Y-64760303D01*
X117619970Y-64760303D02*
X117143780Y-64855541D01*
X118477113Y-65188875D02*
X118477113Y-64188875D01*
X118477113Y-65141256D02*
X118381875Y-65188875D01*
X118381875Y-65188875D02*
X118191399Y-65188875D01*
X118191399Y-65188875D02*
X118096161Y-65141256D01*
X118096161Y-65141256D02*
X118048542Y-65093636D01*
X118048542Y-65093636D02*
X118000923Y-64998398D01*
X118000923Y-64998398D02*
X118000923Y-64712684D01*
X118000923Y-64712684D02*
X118048542Y-64617446D01*
X118048542Y-64617446D02*
X118096161Y-64569827D01*
X118096161Y-64569827D02*
X118191399Y-64522208D01*
X118191399Y-64522208D02*
X118381875Y-64522208D01*
X118381875Y-64522208D02*
X118477113Y-64569827D01*
X107143779Y-66798819D02*
X107143779Y-65798819D01*
X107143779Y-65798819D02*
X107477112Y-66513104D01*
X107477112Y-66513104D02*
X107810445Y-65798819D01*
X107810445Y-65798819D02*
X107810445Y-66798819D01*
X108239017Y-66513104D02*
X108715207Y-66513104D01*
X108143779Y-66798819D02*
X108477112Y-65798819D01*
X108477112Y-65798819D02*
X108810445Y-66798819D01*
X109048541Y-65798819D02*
X109715207Y-66798819D01*
X109715207Y-65798819D02*
X109048541Y-66798819D01*
X111334255Y-65798819D02*
X110858065Y-65798819D01*
X110858065Y-65798819D02*
X110810446Y-66275009D01*
X110810446Y-66275009D02*
X110858065Y-66227390D01*
X110858065Y-66227390D02*
X110953303Y-66179771D01*
X110953303Y-66179771D02*
X111191398Y-66179771D01*
X111191398Y-66179771D02*
X111286636Y-66227390D01*
X111286636Y-66227390D02*
X111334255Y-66275009D01*
X111334255Y-66275009D02*
X111381874Y-66370247D01*
X111381874Y-66370247D02*
X111381874Y-66608342D01*
X111381874Y-66608342D02*
X111334255Y-66703580D01*
X111334255Y-66703580D02*
X111286636Y-66751200D01*
X111286636Y-66751200D02*
X111191398Y-66798819D01*
X111191398Y-66798819D02*
X110953303Y-66798819D01*
X110953303Y-66798819D02*
X110858065Y-66751200D01*
X110858065Y-66751200D02*
X110810446Y-66703580D01*
X111667589Y-65798819D02*
X112000922Y-66798819D01*
X112000922Y-66798819D02*
X112334255Y-65798819D01*
M02*
